<svg width="373" height="332" viewBox="0 0 373 332" fill="none" xmlns="http://www.w3.org/2000/svg">
<g id="readme-icon" clip-path="url(#clip0)">
<path id="M.C.D" d="M161.5 184.5C161.5 184.5 159.125 193.05 158.95 193.725H158.85C158.675 193.05 156.275 184.5 156.275 184.5H153.475V200H156.05L155.9 189.65H156L158.05 196.925H159.625L161.65 189.65H161.75L161.6 200H164.25V184.5H161.5ZM174.295 200L174.47 196.5H170.645L170.47 200H174.295ZM191.59 197.65C185.665 197.95 183.99 196.175 183.99 192.1C183.99 188.725 185.065 186.9 191.44 187.025L191.29 184.275C183.59 184.425 181.015 188.15 181.015 192.475C181.015 197.175 183.34 200.75 191.34 200.1L191.59 197.65ZM201.785 200L201.96 196.5H198.135L197.96 200H201.785ZM219.68 191.95C219.68 185.9 216.83 183.45 208.855 184.5V200C216.33 201.05 219.68 198 219.68 191.95ZM216.78 192.375C216.78 196.525 215.48 198.3 211.68 197.75V186.7C215.53 186.275 216.78 188.225 216.78 192.375Z" fill="black"/>
<path id="&#60;/&#62;" d="M154.825 225.95L130 246.35V253.325L154.675 273.8L159.4 267.8L137.5 250.25V249.425L159.325 231.875L154.825 225.95ZM199.66 216.425L165.385 283.775L172.585 287L206.86 219.875L199.66 216.425ZM216.971 273.8L241.946 253.325V246.35L217.346 226.025L212.696 232.025L234.446 249.425V250.25L212.471 267.95L216.971 273.8Z" fill="black"/>
<path id="Polygon 2" d="M205.776 145.522L367.411 45.7378C369.743 44.2983 372.75 45.9757 372.75 48.716V248.284C372.75 251.024 369.743 252.702 367.411 251.262L205.776 151.478C203.561 150.111 203.561 146.889 205.776 145.522Z" fill="#81A7FF" stroke="url(#paint0_linear)"/>
<path id="Polygon 3" d="M166.224 151.478L4.58856 251.262C2.25676 252.702 -0.75 251.024 -0.75 248.284V48.716C-0.75 45.9757 2.25676 44.2983 4.58856 45.7378L166.224 145.522C168.439 146.889 168.439 150.111 166.224 151.478Z" fill="#81A7FF" stroke="url(#paint1_linear)"/>
<g id="Marcell Ciszek Druzysnki">
<path d="M30.5 132.5C30.5 132.5 28.125 141.05 27.95 141.725H27.85C27.675 141.05 25.275 132.5 25.275 132.5H22.475V148H25.05L24.9 137.65H25L27.05 144.925H28.625L30.65 137.65H30.75L30.6 148H33.25V132.5H30.5ZM41.0701 146.175C39.7951 146.175 38.9701 145.525 38.9701 144.425C38.9701 143.05 39.9951 142.225 43.8451 142.625C43.8701 143.65 43.8701 144.475 43.9201 145.2C43.0451 145.8 42.0201 146.175 41.0701 146.175ZM44.2701 148.075L46.8201 147.95C46.6951 146.225 46.5951 144.25 46.5951 141.825C46.5951 136.975 44.7201 135.425 37.2201 135.3L36.9451 137.65C42.2951 137.825 43.6701 138.4 43.8201 140.8C38.5701 140.575 36.2201 142.575 36.2201 145.075C36.2201 147.1 37.7451 148.325 39.9701 148.325C41.7701 148.325 43.0951 147.5 44.0451 146.575C44.1201 147.175 44.2451 147.975 44.2701 148.075ZM59.4652 148L59.6902 145.9H55.9152C55.8652 143.25 55.8402 141.15 55.7902 139.275C57.1902 138.6 58.9152 138.15 61.0652 138.025L60.9402 135.075C58.5902 135.375 56.8152 136.4 55.6902 137.7C55.6402 137.075 55.4902 135.675 55.4652 135.55H50.3152L50.0902 137.525L53.0402 137.725C53.0902 139.925 53.1152 142.525 53.1652 145.9H50.1402V148H59.4652ZM64.0354 141.975C64.0354 145.825 66.0854 148.75 73.8604 148.1L74.1354 145.8C68.5354 146.125 66.7854 144.825 66.7854 141.625C66.7854 139.225 67.7354 137.8 73.9604 138L73.7854 135.375C66.3354 135.4 64.0354 138.5 64.0354 141.975ZM87.5805 148.3L87.8555 145.975C82.3555 145.85 80.4805 145.025 80.1805 142.525L88.2055 142.3C88.6555 137.975 86.9805 135.225 83.4805 135.225C80.2055 135.225 77.4055 138.175 77.4055 142C77.4055 146.05 79.5305 148.375 87.5805 148.3ZM82.9805 137.5C84.7055 137.5 85.4805 138.725 85.5555 140.7C84.0055 140.75 81.4805 140.825 80.1555 140.875C80.2805 138.55 81.2805 137.5 82.9805 137.5ZM101.726 148L101.951 145.9H98.1006V130.525H91.8256L91.5756 132.5L95.3006 132.7V145.9H91.4506V148H101.726ZM115.471 148L115.696 145.9H111.846V130.525H105.571L105.321 132.5L109.046 132.7V145.9H105.196V148H115.471ZM143.061 145.65C137.136 145.95 135.461 144.175 135.461 140.1C135.461 136.725 136.536 134.9 142.911 135.025L142.761 132.275C135.061 132.425 132.486 136.15 132.486 140.475C132.486 145.175 134.811 148.75 142.811 148.1L143.061 145.65ZM153.456 133.675L153.681 130.175H150.756L150.581 133.675H153.456ZM157.631 148L157.856 145.9H153.531V135.55H146.581L146.356 137.525L150.731 137.725V145.9H146.406V148H157.631ZM169.526 135.425C163.001 134.975 160.701 137.025 160.701 139.175C160.701 142.3 167.351 142.75 167.351 144.525C167.351 145.5 165.826 146.075 160.876 145.75L160.776 148.125C167.951 148.45 170.251 146.525 170.251 144.375C170.251 141.25 163.576 140.525 163.576 138.85C163.576 137.975 165.001 137.425 169.626 137.825L169.526 135.425ZM184.246 148L184.446 145.525L177.096 145.625L184.196 137.875V135.55H174.121L173.896 138L181.021 137.925L173.896 145.65V148H184.246ZM197.541 148.3L197.816 145.975C192.316 145.85 190.441 145.025 190.141 142.525L198.166 142.3C198.616 137.975 196.941 135.225 193.441 135.225C190.166 135.225 187.366 138.175 187.366 142C187.366 146.05 189.491 148.375 197.541 148.3ZM192.941 137.5C194.666 137.5 195.441 138.725 195.516 140.7C193.966 140.75 191.441 140.825 190.116 140.875C190.241 138.55 191.241 137.5 192.941 137.5ZM209.837 148.175L212.812 147.825L208.487 141.425C209.912 139.575 211.237 137.625 212.462 135.7L209.612 135.475C208.512 137.325 207.412 139.025 206.137 140.65L204.662 140.675V130.225L201.887 130.475V148H204.662V142.675L206.137 142.625L209.837 148.175ZM239.877 139.95C239.877 133.9 237.027 131.45 229.052 132.5V148C236.527 149.05 239.877 146 239.877 139.95ZM236.977 140.375C236.977 144.525 235.677 146.3 231.877 145.75V134.7C235.727 134.275 236.977 136.225 236.977 140.375ZM251.897 148L252.122 145.9H248.347C248.297 143.25 248.272 141.15 248.222 139.275C249.622 138.6 251.347 138.15 253.497 138.025L253.372 135.075C251.022 135.375 249.247 136.4 248.122 137.7C248.072 137.075 247.922 135.675 247.897 135.55H242.747L242.522 137.525L245.472 137.725C245.522 139.925 245.547 142.525 245.597 145.9H242.572V148H251.897ZM264.117 148.05L266.692 147.925C266.542 145.075 266.492 141.15 266.492 135.55H263.717C263.717 139.575 263.742 142.8 263.792 145.1C263.042 145.625 262.217 145.95 261.292 145.95C260.017 145.95 259.217 145.25 259.217 143.05V135.475L256.442 135.65V144.025C256.442 147.075 257.817 148.325 259.992 148.325C261.717 148.325 262.967 147.525 263.967 146.65L264.117 148.05ZM280.462 148L280.662 145.525L273.312 145.625L280.412 137.875V135.55H270.337L270.112 138L277.237 137.925L270.112 145.65V148H280.462ZM283.932 152.425C288.407 152.025 289.732 150.85 291.532 145.825C292.907 142.125 294.132 138.375 295.032 135.55H292.357C292.032 136.375 290.332 142.3 289.557 144.7H289.307C288.157 141.95 286.832 138.2 285.807 135.45L282.982 135.65C283.932 138.125 286.507 144.75 287.682 147.375L288.157 147.55C287.432 149.225 286.657 149.5 283.707 149.925L283.932 152.425ZM306.977 135.425C300.452 134.975 298.152 137.025 298.152 139.175C298.152 142.3 304.802 142.75 304.802 144.525C304.802 145.5 303.277 146.075 298.327 145.75L298.227 148.125C305.402 148.45 307.702 146.525 307.702 144.375C307.702 141.25 301.027 140.525 301.027 138.85C301.027 137.975 302.452 137.425 307.077 137.825L306.977 135.425ZM316.797 137.6C318.072 137.6 318.897 138.3 318.897 140.5V148H321.672V139.525C321.672 136.5 320.272 135.225 318.097 135.225C316.372 135.225 315.097 136.025 314.097 136.925L313.947 135.5L311.372 135.65C311.522 138.475 311.572 142.4 311.572 148H314.372C314.372 144 314.322 140.75 314.272 138.425C315.047 137.925 315.847 137.6 316.797 137.6ZM333.543 148.175L336.518 147.825L332.193 141.425C333.618 139.575 334.943 137.625 336.168 135.7L333.318 135.475C332.218 137.325 331.118 139.025 329.843 140.65L328.368 140.675V130.225L325.593 130.475V148H328.368V142.675L329.843 142.625L333.543 148.175ZM345.888 133.675L346.113 130.175H343.188L343.013 133.675H345.888ZM350.063 148L350.288 145.9H345.963V135.55H339.013L338.788 137.525L343.163 137.725V145.9H338.838V148H350.063Z" fill="white"/>
<path d="M30.5 132.5V130.5H28.9798L28.573 131.965L30.5 132.5ZM27.95 141.725V143.725H29.4976L29.886 142.227L27.95 141.725ZM27.85 141.725L25.914 142.227L26.3024 143.725H27.85V141.725ZM25.275 132.5L27.2006 131.959L26.7909 130.5H25.275V132.5ZM22.475 132.5V130.5H20.475V132.5H22.475ZM22.475 148H20.475V150H22.475V148ZM25.05 148V150H27.0792L27.0498 147.971L25.05 148ZM24.9 137.65V135.65H22.8708L22.9002 137.679L24.9 137.65ZM25 137.65L26.925 137.108L26.5143 135.65H25V137.65ZM27.05 144.925L25.125 145.467L25.5357 146.925H27.05V144.925ZM28.625 144.925V146.925H30.1443L30.5518 145.461L28.625 144.925ZM30.65 137.65V135.65H29.1307L28.7232 137.114L30.65 137.65ZM30.75 137.65L32.7498 137.679L32.7792 135.65H30.75V137.65ZM30.6 148L28.6002 147.971L28.5708 150H30.6V148ZM33.25 148V150H35.25V148H33.25ZM33.25 132.5H35.25V130.5H33.25V132.5ZM30.5 132.5C28.573 131.965 28.573 131.965 28.5729 131.965C28.5729 131.965 28.5729 131.965 28.5729 131.965C28.5728 131.965 28.5727 131.966 28.5725 131.966C28.5722 131.967 28.5718 131.969 28.5712 131.971C28.5701 131.975 28.5684 131.981 28.5661 131.989C28.5616 132.006 28.5549 132.03 28.5462 132.061C28.5288 132.124 28.5032 132.216 28.4705 132.334C28.4052 132.569 28.3117 132.905 28.199 133.312C27.9736 134.124 27.6712 135.214 27.3632 136.325C26.7519 138.532 26.107 140.864 26.014 141.223L29.886 142.227C29.968 141.911 30.5981 139.631 31.218 137.393C31.5257 136.283 31.828 135.193 32.0533 134.381C32.166 133.975 32.2594 133.639 32.3247 133.404C32.3573 133.286 32.3829 133.194 32.4003 133.131C32.4091 133.1 32.4157 133.076 32.4202 133.06C32.4225 133.052 32.4242 133.046 32.4253 133.041C32.4259 133.039 32.4263 133.038 32.4266 133.037C32.4267 133.036 32.4269 133.036 32.4269 133.036C32.427 133.036 32.427 133.035 32.427 133.035C32.427 133.035 32.427 133.035 30.5 132.5ZM27.95 139.725H27.85V143.725H27.95V139.725ZM29.786 141.223C29.6921 140.861 29.0397 138.524 28.4229 136.32C28.1118 135.209 27.8062 134.119 27.5785 133.306C27.4646 132.9 27.3701 132.564 27.3041 132.328C27.2711 132.211 27.2452 132.119 27.2276 132.056C27.2188 132.024 27.212 132 27.2075 131.984C27.2052 131.976 27.2035 131.97 27.2023 131.966C27.2017 131.964 27.2013 131.962 27.201 131.961C27.2009 131.961 27.2008 131.96 27.2007 131.96C27.2007 131.96 27.2006 131.96 27.2006 131.96C27.2006 131.96 27.2006 131.959 25.275 132.5C23.3494 133.041 23.3494 133.041 23.3494 133.041C23.3495 133.041 23.3495 133.041 23.3495 133.041C23.3496 133.041 23.3497 133.042 23.3499 133.042C23.3501 133.043 23.3506 133.045 23.3512 133.047C23.3523 133.051 23.354 133.057 23.3563 133.065C23.3608 133.081 23.3676 133.105 23.3764 133.137C23.394 133.199 23.4199 133.291 23.4528 133.409C23.5188 133.644 23.6132 133.981 23.727 134.386C23.9547 135.198 24.2601 136.288 24.5709 137.398C25.1978 139.638 25.8329 141.914 25.914 142.227L29.786 141.223ZM25.275 130.5H22.475V134.5H25.275V130.5ZM20.475 132.5V148H24.475V132.5H20.475ZM22.475 150H25.05V146H22.475V150ZM27.0498 147.971L26.8998 137.621L22.9002 137.679L23.0502 148.029L27.0498 147.971ZM24.9 139.65H25V135.65H24.9V139.65ZM23.075 138.192L25.125 145.467L28.975 144.383L26.925 137.108L23.075 138.192ZM27.05 146.925H28.625V142.925H27.05V146.925ZM30.5518 145.461L32.5768 138.186L28.7232 137.114L26.6982 144.389L30.5518 145.461ZM30.65 139.65H30.75V135.65H30.65V139.65ZM28.7502 137.621L28.6002 147.971L32.5998 148.029L32.7498 137.679L28.7502 137.621ZM30.6 150H33.25V146H30.6V150ZM35.25 148V132.5H31.25V148H35.25ZM33.25 130.5H30.5V134.5H33.25V130.5ZM43.8451 142.625L45.8445 142.576L45.8016 140.818L44.0518 140.636L43.8451 142.625ZM43.9201 145.2L45.0512 146.849L45.994 146.203L45.9154 145.062L43.9201 145.2ZM44.2701 148.075L42.3298 148.56L42.7281 150.153L44.368 150.073L44.2701 148.075ZM46.8201 147.95L46.918 149.948L48.9629 149.847L48.8149 147.805L46.8201 147.95ZM37.2201 135.3L37.2534 133.3L35.444 133.27L35.2337 135.068L37.2201 135.3ZM36.9451 137.65L34.9587 137.418L34.7059 139.578L36.8797 139.649L36.9451 137.65ZM43.8201 140.8L43.7345 142.798L45.9549 142.893L45.8162 140.675L43.8201 140.8ZM44.0451 146.575L46.0297 146.327L45.5309 142.337L42.6499 145.142L44.0451 146.575ZM41.0701 144.175C40.9185 144.175 40.8275 144.155 40.7865 144.143C40.7472 144.131 40.7657 144.129 40.8106 144.166C40.8597 144.207 40.9094 144.268 40.942 144.34C40.9735 144.41 40.9701 144.447 40.9701 144.425H36.9701C36.9701 145.52 37.4043 146.546 38.2734 147.259C39.0948 147.933 40.1152 148.175 41.0701 148.175V144.175ZM40.9701 144.425C40.9701 144.323 40.9892 144.395 40.9123 144.525C40.8243 144.674 40.7243 144.71 40.7769 144.687C41.0046 144.585 41.7702 144.42 43.6384 144.614L44.0518 140.636C42.0701 140.43 40.3981 140.477 39.1509 141.032C38.4659 141.337 37.8691 141.812 37.4685 142.49C37.0792 143.149 36.9701 143.839 36.9701 144.425H40.9701ZM41.8457 142.674C41.869 143.627 41.8708 144.554 41.9249 145.338L45.9154 145.062C45.8694 144.396 45.8713 143.673 45.8445 142.576L41.8457 142.674ZM42.7891 143.551C42.1627 143.98 41.5249 144.175 41.0701 144.175V148.175C42.5153 148.175 43.9275 147.62 45.0512 146.849L42.7891 143.551ZM44.368 150.073L46.918 149.948L46.7222 145.952L44.1722 146.077L44.368 150.073ZM48.8149 147.805C48.6926 146.118 48.5951 144.192 48.5951 141.825H44.5951C44.5951 144.308 44.6977 146.332 44.8253 148.095L48.8149 147.805ZM48.5951 141.825C48.5951 139.211 48.0997 136.755 45.8863 135.166C43.9191 133.754 40.9806 133.362 37.2534 133.3L37.1868 137.3C40.9596 137.363 42.7087 137.809 43.5539 138.415C44.153 138.845 44.5951 139.589 44.5951 141.825H48.5951ZM35.2337 135.068L34.9587 137.418L38.9316 137.882L39.2066 135.532L35.2337 135.068ZM36.8797 139.649C39.6241 139.739 40.8992 139.938 41.5096 140.213C41.6276 140.267 41.6802 140.307 41.6976 140.322C41.7112 140.333 41.7124 140.336 41.7144 140.34C41.724 140.356 41.7968 140.489 41.824 140.925L45.8162 140.675C45.7684 139.911 45.6132 139.072 45.1555 138.3C44.6747 137.489 43.9723 136.937 43.1556 136.568C41.7035 135.912 39.6161 135.736 37.0105 135.651L36.8797 139.649ZM43.9058 138.802C41.0555 138.68 38.6991 139.143 36.9845 140.224C35.1856 141.358 34.2201 143.108 34.2201 145.075H38.2201C38.2201 144.542 38.4297 144.042 39.1182 143.607C39.8912 143.12 41.3347 142.695 43.7345 142.798L43.9058 138.802ZM34.2201 145.075C34.2201 146.63 34.8262 148.017 35.9669 148.985C37.0712 149.921 38.5062 150.325 39.9701 150.325V146.325C39.2091 146.325 38.769 146.116 38.5546 145.934C38.3765 145.783 38.2201 145.545 38.2201 145.075H34.2201ZM39.9701 150.325C42.4485 150.325 44.2472 149.17 45.4404 148.008L42.6499 145.142C41.943 145.83 41.0917 146.325 39.9701 146.325V150.325ZM42.0606 146.823C42.1009 147.146 42.1536 147.515 42.1991 147.813C42.2345 148.046 42.2883 148.394 42.3298 148.56L46.2104 147.59C46.2251 147.649 46.2308 147.685 46.2238 147.647C46.2204 147.628 46.215 147.598 46.2077 147.554C46.1933 147.467 46.1745 147.349 46.1536 147.212C46.1116 146.935 46.0643 146.604 46.0297 146.327L42.0606 146.823ZM59.4652 148V150H61.2624L61.4539 148.213L59.4652 148ZM59.6902 145.9L61.6789 146.113L61.916 143.9H59.6902V145.9ZM55.9152 145.9L53.9156 145.938L53.9526 147.9H55.9152V145.9ZM55.7902 139.275L54.9216 137.473L53.7565 138.035L53.7909 139.328L55.7902 139.275ZM61.0652 138.025L61.1813 140.022L63.1468 139.907L63.0634 137.94L61.0652 138.025ZM60.9402 135.075L62.9384 134.99L62.8463 132.815L60.687 133.091L60.9402 135.075ZM55.6902 137.7L53.6966 137.859L54.0774 142.62L57.2026 139.009L55.6902 137.7ZM55.4652 135.55L57.4264 135.158L57.1048 133.55H55.4652V135.55ZM50.3152 135.55V133.55H48.5301L48.3281 135.324L50.3152 135.55ZM50.0902 137.525L48.1031 137.299L47.8661 139.379L49.955 139.52L50.0902 137.525ZM53.0402 137.725L55.0397 137.68L54.9982 135.853L53.1755 135.73L53.0402 137.725ZM53.1652 145.9V147.9H55.1951L55.165 145.87L53.1652 145.9ZM50.1402 145.9V143.9H48.1402V145.9H50.1402ZM50.1402 148H48.1402V150H50.1402V148ZM61.4539 148.213L61.6789 146.113L57.7016 145.687L57.4766 147.787L61.4539 148.213ZM59.6902 143.9H55.9152V147.9H59.6902V143.9ZM57.9149 145.862C57.8653 143.233 57.8398 141.106 57.7895 139.222L53.7909 139.328C53.8407 141.194 53.8652 143.267 53.9156 145.938L57.9149 145.862ZM56.6588 141.077C57.7869 140.533 59.249 140.134 61.1813 140.022L60.9492 136.028C58.5815 136.166 56.5936 136.667 54.9216 137.473L56.6588 141.077ZM63.0634 137.94L62.9384 134.99L58.942 135.16L59.067 138.11L63.0634 137.94ZM60.687 133.091C57.886 133.449 55.6491 134.691 54.1779 136.391L57.2026 139.009C57.9814 138.109 59.2945 137.301 61.1935 137.059L60.687 133.091ZM57.6839 137.541C57.6567 137.202 57.6045 136.675 57.5573 136.227C57.518 135.856 57.4624 135.338 57.4264 135.158L53.5041 135.942C53.4907 135.875 53.4871 135.835 53.4962 135.907C53.5014 135.947 53.5084 136.005 53.5172 136.081C53.5345 136.231 53.5564 136.43 53.5794 136.648C53.6259 137.088 53.6737 137.573 53.6966 137.859L57.6839 137.541ZM55.4652 133.55H50.3152V137.55H55.4652V133.55ZM48.3281 135.324L48.1031 137.299L52.0774 137.751L52.3024 135.776L48.3281 135.324ZM49.955 139.52L52.905 139.72L53.1755 135.73L50.2255 135.53L49.955 139.52ZM51.0408 137.77C51.0905 139.96 51.1152 142.539 51.1655 145.93L55.165 145.87C55.1152 142.511 55.09 139.89 55.0397 137.68L51.0408 137.77ZM53.1652 143.9H50.1402V147.9H53.1652V143.9ZM48.1402 145.9V148H52.1402V145.9H48.1402ZM50.1402 150H59.4652V146H50.1402V150ZM73.8604 148.1L74.027 150.093L75.6525 149.957L75.8462 148.337L73.8604 148.1ZM74.1354 145.8L76.1212 146.037L76.4049 143.665L74.0195 143.803L74.1354 145.8ZM73.9604 138L73.8961 139.999L76.1028 140.07L75.9559 137.867L73.9604 138ZM73.7854 135.375L75.7809 135.242L75.656 133.369L73.7786 133.375L73.7854 135.375ZM62.0354 141.975C62.0354 144.238 62.6488 146.661 64.8199 148.316C66.8908 149.894 69.9568 150.433 74.027 150.093L73.6937 146.107C69.9889 146.417 68.1424 145.819 67.2445 145.134C66.4469 144.526 66.0354 143.562 66.0354 141.975H62.0354ZM75.8462 148.337L76.1212 146.037L72.1495 145.563L71.8745 147.863L75.8462 148.337ZM74.0195 143.803C71.2612 143.963 69.968 143.668 69.3914 143.321C69.0873 143.138 68.7854 142.845 68.7854 141.625H64.7854C64.7854 143.605 65.3584 145.562 67.3293 146.748C69.0277 147.77 71.4095 147.962 74.2512 147.797L74.0195 143.803ZM68.7854 141.625C68.7854 141.131 68.8389 140.884 68.8892 140.758C68.9171 140.688 68.9488 140.627 69.0942 140.536C69.5547 140.25 70.7988 139.899 73.8961 139.999L74.0246 136.001C70.8969 135.901 68.5535 136.163 66.9827 137.139C66.1125 137.68 65.5177 138.412 65.1729 139.278C64.8505 140.088 64.7854 140.919 64.7854 141.625H68.7854ZM75.9559 137.867L75.7809 135.242L71.7898 135.508L71.9648 138.133L75.9559 137.867ZM73.7786 133.375C69.822 133.388 66.8634 134.213 64.8625 135.823C62.7881 137.493 62.0354 139.768 62.0354 141.975H66.0354C66.0354 140.707 66.4326 139.694 67.3707 138.939C68.3823 138.125 70.2987 137.387 73.7921 137.375L73.7786 133.375ZM87.5805 148.3L87.5991 150.3L89.3598 150.284L89.5666 148.535L87.5805 148.3ZM87.8555 145.975L89.8416 146.21L90.1 144.025L87.9009 143.976L87.8555 145.975ZM80.1805 142.525L80.1244 140.526L77.9336 140.587L78.1947 142.763L80.1805 142.525ZM88.2055 142.3L88.2615 144.299L90.0134 144.25L90.1947 142.507L88.2055 142.3ZM85.5555 140.7L85.62 142.699L87.6304 142.634L87.554 140.624L85.5555 140.7ZM80.1555 140.875L78.1584 140.768L78.0407 142.956L80.2309 142.874L80.1555 140.875ZM89.5666 148.535L89.8416 146.21L85.8693 145.74L85.5943 148.065L89.5666 148.535ZM87.9009 143.976C85.1481 143.913 83.6734 143.668 82.8851 143.315C82.5473 143.164 82.4245 143.03 82.3672 142.948C82.3041 142.859 82.2135 142.68 82.1662 142.287L78.1947 142.763C78.2975 143.62 78.5537 144.482 79.0985 145.254C79.649 146.034 80.3949 146.583 81.2508 146.966C82.8501 147.682 85.0628 147.912 87.81 147.974L87.9009 143.976ZM80.2365 144.524L88.2615 144.299L88.1494 140.301L80.1244 140.526L80.2365 144.524ZM90.1947 142.507C90.4457 140.095 90.144 137.805 89 136.049C87.7862 134.186 85.8205 133.225 83.4805 133.225V137.225C84.6405 137.225 85.2622 137.639 85.6484 138.232C86.1045 138.932 86.4152 140.18 86.2162 142.093L90.1947 142.507ZM83.4805 133.225C78.9327 133.225 75.4055 137.247 75.4055 142H79.4055C79.4055 139.103 81.4783 137.225 83.4805 137.225V133.225ZM75.4055 142C75.4055 144.392 76.0572 146.744 78.326 148.334C80.3991 149.788 83.4819 150.338 87.5991 150.3L87.5618 146.3C83.6291 146.337 81.6243 145.762 80.6225 145.059C79.8162 144.494 79.4055 143.658 79.4055 142H75.4055ZM82.9805 139.5C83.1741 139.5 83.2522 139.534 83.2634 139.539C83.2671 139.541 83.2721 139.54 83.2921 139.567C83.3593 139.655 83.5268 139.983 83.5569 140.776L87.554 140.624C87.5091 139.442 87.2516 138.17 86.4813 137.152C85.6324 136.031 84.3778 135.5 82.9805 135.5V139.5ZM85.491 138.701C83.9523 138.751 81.4121 138.826 80.0801 138.876L80.2309 142.874C81.5488 142.824 84.0586 142.749 85.62 142.699L85.491 138.701ZM82.1526 140.982C82.2029 140.046 82.4177 139.708 82.4904 139.624C82.5044 139.607 82.5689 139.5 82.9805 139.5V135.5C81.6921 135.5 80.4065 135.918 79.4643 137.008C78.5808 138.03 78.233 139.379 78.1584 140.768L82.1526 140.982ZM101.726 148V150H103.523L103.714 148.213L101.726 148ZM101.951 145.9L103.939 146.113L104.176 143.9H101.951V145.9ZM98.1006 145.9H96.1006V147.9H98.1006V145.9ZM98.1006 130.525H100.101V128.525H98.1006V130.525ZM91.8256 130.525V128.525H90.0628L89.8414 130.274L91.8256 130.525ZM91.5756 132.5L89.5914 132.249L89.3214 134.382L91.4684 134.497L91.5756 132.5ZM95.3006 132.7H97.3006V130.805L95.4078 130.703L95.3006 132.7ZM95.3006 145.9V147.9H97.3006V145.9H95.3006ZM91.4506 145.9V143.9H89.4506V145.9H91.4506ZM91.4506 148H89.4506V150H91.4506V148ZM103.714 148.213L103.939 146.113L99.962 145.687L99.737 147.787L103.714 148.213ZM101.951 143.9H98.1006V147.9H101.951V143.9ZM100.101 145.9V130.525H96.1006V145.9H100.101ZM98.1006 128.525H91.8256V132.525H98.1006V128.525ZM89.8414 130.274L89.5914 132.249L93.5598 132.751L93.8098 130.776L89.8414 130.274ZM91.4684 134.497L95.1934 134.697L95.4078 130.703L91.6828 130.503L91.4684 134.497ZM93.3006 132.7V145.9H97.3006V132.7H93.3006ZM95.3006 143.9H91.4506V147.9H95.3006V143.9ZM89.4506 145.9V148H93.4506V145.9H89.4506ZM91.4506 150H101.726V146H91.4506V150ZM115.471 148V150H117.268L117.459 148.213L115.471 148ZM115.696 145.9L117.684 146.113L117.921 143.9H115.696V145.9ZM111.846 145.9H109.846V147.9H111.846V145.9ZM111.846 130.525H113.846V128.525H111.846V130.525ZM105.571 130.525V128.525H103.808L103.587 130.274L105.571 130.525ZM105.321 132.5L103.337 132.249L103.067 134.382L105.213 134.497L105.321 132.5ZM109.046 132.7H111.046V130.805L109.153 130.703L109.046 132.7ZM109.046 145.9V147.9H111.046V145.9H109.046ZM105.196 145.9V143.9H103.196V145.9H105.196ZM105.196 148H103.196V150H105.196V148ZM117.459 148.213L117.684 146.113L113.707 145.687L113.482 147.787L117.459 148.213ZM115.696 143.9H111.846V147.9H115.696V143.9ZM113.846 145.9V130.525H109.846V145.9H113.846ZM111.846 128.525H105.571V132.525H111.846V128.525ZM103.587 130.274L103.337 132.249L107.305 132.751L107.555 130.776L103.587 130.274ZM105.213 134.497L108.938 134.697L109.153 130.703L105.428 130.503L105.213 134.497ZM107.046 132.7V145.9H111.046V132.7H107.046ZM109.046 143.9H105.196V147.9H109.046V143.9ZM103.196 145.9V148H107.196V145.9H103.196ZM105.196 150H115.471V146H105.196V150ZM143.061 145.65L145.051 145.853L145.287 143.535L142.96 143.653L143.061 145.65ZM142.911 135.025L142.872 137.025L145.025 137.067L144.908 134.916L142.911 135.025ZM142.761 132.275L144.758 132.166L144.653 130.238L142.722 130.275L142.761 132.275ZM142.811 148.1L142.973 150.093L144.632 149.959L144.801 148.303L142.811 148.1ZM142.96 143.653C140.081 143.798 138.831 143.382 138.279 142.946C137.85 142.607 137.461 141.938 137.461 140.1H133.461C133.461 142.337 133.91 144.593 135.799 146.085C137.566 147.48 140.116 147.802 143.162 147.647L142.96 143.653ZM137.461 140.1C137.461 138.53 137.736 138.062 138.054 137.805C138.523 137.425 139.736 136.963 142.872 137.025L142.95 133.025C139.711 132.962 137.199 133.35 135.537 134.695C133.723 136.163 133.461 138.295 133.461 140.1H137.461ZM144.908 134.916L144.758 132.166L140.764 132.384L140.914 135.134L144.908 134.916ZM142.722 130.275C138.58 130.356 135.465 131.404 133.375 133.343C131.259 135.307 130.486 137.913 130.486 140.475H134.486C134.486 138.712 135 137.293 136.096 136.275C137.219 135.233 139.242 134.344 142.8 134.275L142.722 130.275ZM130.486 140.475C130.486 143.114 131.139 145.857 133.323 147.791C135.486 149.706 138.717 150.439 142.973 150.093L142.649 146.107C138.905 146.411 136.974 145.681 135.974 144.796C134.996 143.93 134.486 142.536 134.486 140.475H130.486ZM144.801 148.303L145.051 145.853L141.071 145.447L140.821 147.897L144.801 148.303ZM153.456 133.675V135.675H155.332L155.452 133.803L153.456 133.675ZM153.681 130.175L155.677 130.303L155.814 128.175H153.681V130.175ZM150.756 130.175V128.175H148.854L148.759 130.075L150.756 130.175ZM150.581 133.675L148.584 133.575L148.479 135.675H150.581V133.675ZM157.631 148V150H159.428L159.62 148.213L157.631 148ZM157.856 145.9L159.845 146.113L160.082 143.9H157.856V145.9ZM153.531 145.9H151.531V147.9H153.531V145.9ZM153.531 135.55H155.531V133.55H153.531V135.55ZM146.581 135.55V133.55H144.796L144.594 135.324L146.581 135.55ZM146.356 137.525L144.369 137.299L144.127 139.425L146.265 139.523L146.356 137.525ZM150.731 137.725H152.731V135.814L150.822 135.727L150.731 137.725ZM150.731 145.9V147.9H152.731V145.9H150.731ZM146.406 145.9V143.9H144.406V145.9H146.406ZM146.406 148H144.406V150H146.406V148ZM155.452 133.803L155.677 130.303L151.685 130.047L151.46 133.547L155.452 133.803ZM153.681 128.175H150.756V132.175H153.681V128.175ZM148.759 130.075L148.584 133.575L152.579 133.775L152.754 130.275L148.759 130.075ZM150.581 135.675H153.456V131.675H150.581V135.675ZM159.62 148.213L159.845 146.113L155.867 145.687L155.642 147.787L159.62 148.213ZM157.856 143.9H153.531V147.9H157.856V143.9ZM155.531 145.9V135.55H151.531V145.9H155.531ZM153.531 133.55H146.581V137.55H153.531V133.55ZM144.594 135.324L144.369 137.299L148.343 137.751L148.568 135.776L144.594 135.324ZM146.265 139.523L150.64 139.723L150.822 135.727L146.447 135.527L146.265 139.523ZM148.731 137.725V145.9H152.731V137.725H148.731ZM150.731 143.9H146.406V147.9H150.731V143.9ZM144.406 145.9V148H148.406V145.9H144.406ZM146.406 150H157.631V146H146.406V150ZM169.526 135.425L171.524 135.342L171.45 133.553L169.664 133.43L169.526 135.425ZM160.876 145.75L161.007 143.754L158.964 143.62L158.878 145.666L160.876 145.75ZM160.776 148.125L158.778 148.041L158.694 150.033L160.686 150.123L160.776 148.125ZM169.626 137.825L169.454 139.818L171.719 140.013L171.624 137.742L169.626 137.825ZM169.664 133.43C166.228 133.193 163.598 133.584 161.742 134.552C159.782 135.573 158.701 137.257 158.701 139.175H162.701C162.701 138.943 162.77 138.527 163.591 138.098C164.517 137.616 166.299 137.207 169.389 137.42L169.664 133.43ZM158.701 139.175C158.701 140.775 159.587 141.903 160.475 142.628C161.33 143.327 162.385 143.823 163.227 144.19C164.188 144.609 164.833 144.851 165.353 145.135C165.596 145.268 165.651 145.328 165.627 145.303C165.585 145.259 165.351 144.989 165.351 144.525H169.351C169.351 143.617 168.91 142.945 168.504 142.524C168.116 142.122 167.651 141.832 167.271 141.625C166.544 141.227 165.527 140.829 164.826 140.523C164.004 140.165 163.398 139.851 163.006 139.531C162.824 139.382 162.747 139.278 162.719 139.229C162.7 139.196 162.701 139.19 162.701 139.175H158.701ZM165.351 144.525C165.351 144.157 165.533 143.825 165.746 143.645C165.875 143.536 165.885 143.594 165.531 143.674C164.826 143.832 163.448 143.915 161.007 143.754L160.745 147.746C163.254 147.91 165.113 147.868 166.409 147.576C167.055 147.431 167.755 147.183 168.325 146.702C168.979 146.15 169.351 145.38 169.351 144.525H165.351ZM158.878 145.666L158.778 148.041L162.774 148.209L162.874 145.834L158.878 145.666ZM160.686 150.123C164.402 150.291 167.162 149.901 169.073 148.98C171.118 147.994 172.251 146.341 172.251 144.375H168.251C168.251 144.559 168.234 144.943 167.336 145.376C166.303 145.874 164.326 146.284 160.867 146.127L160.686 150.123ZM172.251 144.375C172.251 142.786 171.375 141.648 170.506 140.907C169.659 140.185 168.611 139.655 167.762 139.257C166.795 138.805 166.141 138.542 165.6 138.238C165.347 138.095 165.278 138.027 165.291 138.04C165.311 138.06 165.576 138.341 165.576 138.85H161.576C161.576 139.778 162.05 140.448 162.435 140.84C162.813 141.226 163.265 141.513 163.638 141.723C164.349 142.123 165.364 142.551 166.066 142.88C166.885 143.264 167.505 143.605 167.911 143.951C168.101 144.113 168.188 144.23 168.224 144.295C168.252 144.344 168.251 144.36 168.251 144.375H172.251ZM165.576 138.85C165.576 139.269 165.366 139.625 165.137 139.813C164.991 139.933 164.959 139.884 165.279 139.816C165.913 139.683 167.183 139.621 169.454 139.818L169.799 135.832C167.445 135.629 165.689 135.642 164.454 135.902C163.841 136.032 163.163 136.26 162.605 136.716C161.964 137.24 161.576 137.994 161.576 138.85H165.576ZM171.624 137.742L171.524 135.342L167.528 135.508L167.628 137.908L171.624 137.742ZM184.246 148V150H186.091L186.24 148.161L184.246 148ZM184.446 145.525L186.44 145.686L186.617 143.495L184.419 143.525L184.446 145.525ZM177.096 145.625L175.622 144.274L172.494 147.688L177.123 147.625L177.096 145.625ZM184.196 137.875L185.671 139.226L186.196 138.653V137.875H184.196ZM184.196 135.55H186.196V133.55H184.196V135.55ZM174.121 135.55V133.55H172.297L172.13 135.367L174.121 135.55ZM173.896 138L171.905 137.817L171.702 140.023L173.917 140L173.896 138ZM181.021 137.925L182.491 139.281L185.632 135.876L181 135.925L181.021 137.925ZM173.896 145.65L172.426 144.294L171.896 144.868V145.65H173.896ZM173.896 148H171.896V150H173.896V148ZM186.24 148.161L186.44 145.686L182.453 145.364L182.253 147.839L186.24 148.161ZM184.419 143.525L177.069 143.625L177.123 147.625L184.473 147.525L184.419 143.525ZM178.571 146.976L185.671 139.226L182.722 136.524L175.622 144.274L178.571 146.976ZM186.196 137.875V135.55H182.196V137.875H186.196ZM184.196 133.55H174.121V137.55H184.196V133.55ZM172.13 135.367L171.905 137.817L175.888 138.183L176.113 135.733L172.13 135.367ZM173.917 140L181.042 139.925L181 135.925L173.875 136L173.917 140ZM179.551 136.569L172.426 144.294L175.366 147.006L182.491 139.281L179.551 136.569ZM171.896 145.65V148H175.896V145.65H171.896ZM173.896 150H184.246V146H173.896V150ZM197.541 148.3L197.56 150.3L199.321 150.284L199.528 148.535L197.541 148.3ZM197.816 145.975L199.803 146.21L200.061 144.025L197.862 143.976L197.816 145.975ZM190.141 142.525L190.085 140.526L187.895 140.587L188.156 142.763L190.141 142.525ZM198.166 142.3L198.222 144.299L199.974 144.25L200.156 142.507L198.166 142.3ZM195.516 140.7L195.581 142.699L197.591 142.634L197.515 140.624L195.516 140.7ZM190.116 140.875L188.119 140.768L188.002 142.956L190.192 142.874L190.116 140.875ZM199.528 148.535L199.803 146.21L195.83 145.74L195.555 148.065L199.528 148.535ZM197.862 143.976C195.109 143.913 193.634 143.668 192.846 143.315C192.508 143.164 192.385 143.03 192.328 142.948C192.265 142.859 192.174 142.68 192.127 142.287L188.156 142.763C188.258 143.62 188.515 144.482 189.059 145.254C189.61 146.034 190.356 146.583 191.212 146.966C192.811 147.682 195.024 147.912 197.771 147.974L197.862 143.976ZM190.197 144.524L198.222 144.299L198.11 140.301L190.085 140.526L190.197 144.524ZM200.156 142.507C200.407 140.095 200.105 137.805 198.961 136.049C197.747 134.186 195.781 133.225 193.441 133.225V137.225C194.601 137.225 195.223 137.639 195.609 138.232C196.065 138.932 196.376 140.18 196.177 142.093L200.156 142.507ZM193.441 133.225C188.894 133.225 185.366 137.247 185.366 142H189.366C189.366 139.103 191.439 137.225 193.441 137.225V133.225ZM185.366 142C185.366 144.392 186.018 146.744 188.287 148.334C190.36 149.788 193.443 150.338 197.56 150.3L197.523 146.3C193.59 146.337 191.585 145.762 190.583 145.059C189.777 144.494 189.366 143.658 189.366 142H185.366ZM192.941 139.5C193.135 139.5 193.213 139.534 193.224 139.539C193.228 139.541 193.233 139.54 193.253 139.567C193.32 139.655 193.488 139.983 193.518 140.776L197.515 140.624C197.47 139.442 197.213 138.17 196.442 137.152C195.593 136.031 194.339 135.5 192.941 135.5V139.5ZM195.452 138.701C193.913 138.751 191.373 138.826 190.041 138.876L190.192 142.874C191.51 142.824 194.02 142.749 195.581 142.699L195.452 138.701ZM192.114 140.982C192.164 140.046 192.379 139.708 192.451 139.624C192.465 139.607 192.53 139.5 192.941 139.5V135.5C191.653 135.5 190.367 135.918 189.425 137.008C188.542 138.03 188.194 139.379 188.119 140.768L192.114 140.982ZM209.837 148.175L208.172 149.284L208.853 150.305L210.07 150.161L209.837 148.175ZM212.812 147.825L213.045 149.811L216.308 149.427L214.469 146.705L212.812 147.825ZM208.487 141.425L206.902 140.205L206.021 141.348L206.829 142.545L208.487 141.425ZM212.462 135.7L214.149 136.774L215.934 133.968L212.619 133.706L212.462 135.7ZM209.612 135.475L209.769 133.481L208.528 133.383L207.892 134.453L209.612 135.475ZM206.137 140.65L206.17 142.65L207.122 142.634L207.71 141.885L206.137 140.65ZM204.662 140.675H202.662V142.709L204.695 142.675L204.662 140.675ZM204.662 130.225H206.662V128.037L204.482 128.233L204.662 130.225ZM201.887 130.475L201.707 128.483L199.887 128.647V130.475H201.887ZM201.887 148H199.887V150H201.887V148ZM204.662 148V150H206.662V148H204.662ZM204.662 142.675L204.594 140.676L202.662 140.742V142.675H204.662ZM206.137 142.625L207.801 141.516L207.182 140.588L206.069 140.626L206.137 142.625ZM210.07 150.161L213.045 149.811L212.578 145.839L209.603 146.189L210.07 150.161ZM214.469 146.705L210.144 140.305L206.829 142.545L211.154 148.945L214.469 146.705ZM210.071 142.645C211.543 140.734 212.903 138.732 214.149 136.774L210.774 134.626C209.57 136.518 208.28 138.416 206.902 140.205L210.071 142.645ZM212.619 133.706L209.769 133.481L209.454 137.469L212.304 137.694L212.619 133.706ZM207.892 134.453C206.816 136.264 205.765 137.884 204.563 139.415L207.71 141.885C209.058 140.166 210.207 138.386 211.331 136.497L207.892 134.453ZM206.103 138.65L204.628 138.675L204.695 142.675L206.17 142.65L206.103 138.65ZM206.662 140.675V130.225H202.662V140.675H206.662ZM204.482 128.233L201.707 128.483L202.066 132.467L204.841 132.217L204.482 128.233ZM199.887 130.475V148H203.887V130.475H199.887ZM201.887 150H204.662V146H201.887V150ZM206.662 148V142.675H202.662V148H206.662ZM204.729 144.674L206.204 144.624L206.069 140.626L204.594 140.676L204.729 144.674ZM204.472 143.734L208.172 149.284L211.501 147.066L207.801 141.516L204.472 143.734ZM229.052 132.5L228.791 130.517L227.052 130.746V132.5H229.052ZM229.052 148H227.052V149.739L228.774 149.981L229.052 148ZM231.877 145.75H229.877V147.481L231.59 147.729L231.877 145.75ZM231.877 134.7L231.657 132.712L229.877 132.909V134.7H231.877ZM241.877 139.95C241.877 136.682 241.111 133.741 238.628 131.942C236.266 130.233 232.888 129.978 228.791 130.517L229.313 134.483C233.191 133.972 235.225 134.417 236.282 135.183C237.217 135.859 237.877 137.168 237.877 139.95H241.877ZM227.052 132.5V148H231.052V132.5H227.052ZM228.774 149.981C232.752 150.539 236.111 150.083 238.5 148.212C240.939 146.302 241.877 143.312 241.877 139.95H237.877C237.877 142.638 237.139 144.198 236.034 145.063C234.88 145.967 232.827 146.511 229.33 146.019L228.774 149.981ZM234.977 140.375C234.977 142.373 234.634 143.186 234.362 143.491C234.22 143.649 233.792 144.006 232.163 143.771L231.59 147.729C233.761 148.044 235.884 147.788 237.342 146.159C238.669 144.676 238.977 142.527 238.977 140.375H234.977ZM233.877 145.75V134.7H229.877V145.75H233.877ZM232.096 136.688C233.701 136.511 234.153 136.885 234.334 137.102C234.649 137.481 234.977 138.38 234.977 140.375H238.977C238.977 138.22 238.679 136.069 237.407 134.542C236 132.853 233.902 132.464 231.657 132.712L232.096 136.688ZM251.897 148V150H253.694L253.885 148.213L251.897 148ZM252.122 145.9L254.11 146.113L254.348 143.9H252.122V145.9ZM248.347 145.9L246.347 145.938L246.384 147.9H248.347V145.9ZM248.222 139.275L247.353 137.473L246.188 138.035L246.223 139.328L248.222 139.275ZM253.497 138.025L253.613 140.022L255.578 139.907L255.495 137.94L253.497 138.025ZM253.372 135.075L255.37 134.99L255.278 132.815L253.119 133.091L253.372 135.075ZM248.122 137.7L246.128 137.859L246.509 142.62L249.634 139.009L248.122 137.7ZM247.897 135.55L249.858 135.158L249.536 133.55H247.897V135.55ZM242.747 135.55V133.55H240.962L240.76 135.324L242.747 135.55ZM242.522 137.525L240.535 137.299L240.298 139.379L242.387 139.52L242.522 137.525ZM245.472 137.725L247.471 137.68L247.43 135.853L245.607 135.73L245.472 137.725ZM245.597 145.9V147.9H247.627L247.597 145.87L245.597 145.9ZM242.572 145.9V143.9H240.572V145.9H242.572ZM242.572 148H240.572V150H242.572V148ZM253.885 148.213L254.11 146.113L250.133 145.687L249.908 147.787L253.885 148.213ZM252.122 143.9H248.347V147.9H252.122V143.9ZM250.347 145.862C250.297 143.233 250.271 141.106 250.221 139.222L246.223 139.328C246.272 141.194 246.297 143.267 246.347 145.938L250.347 145.862ZM249.09 141.077C250.219 140.533 251.681 140.134 253.613 140.022L253.381 136.028C251.013 136.166 249.025 136.667 247.353 137.473L249.09 141.077ZM255.495 137.94L255.37 134.99L251.374 135.16L251.499 138.11L255.495 137.94ZM253.119 133.091C250.318 133.449 248.081 134.691 246.61 136.391L249.634 139.009C250.413 138.109 251.726 137.301 253.625 137.059L253.119 133.091ZM250.116 137.541C250.088 137.202 250.036 136.675 249.989 136.227C249.95 135.856 249.894 135.338 249.858 135.158L245.936 135.942C245.922 135.875 245.919 135.835 245.928 135.907C245.933 135.947 245.94 136.005 245.949 136.081C245.966 136.231 245.988 136.43 246.011 136.648C246.058 137.088 246.105 137.573 246.128 137.859L250.116 137.541ZM247.897 133.55H242.747V137.55H247.897V133.55ZM240.76 135.324L240.535 137.299L244.509 137.751L244.734 135.776L240.76 135.324ZM242.387 139.52L245.337 139.72L245.607 135.73L242.657 135.53L242.387 139.52ZM243.472 137.77C243.522 139.96 243.547 142.539 243.597 145.93L247.597 145.87C247.547 142.511 247.522 139.89 247.471 137.68L243.472 137.77ZM245.597 143.9H242.572V147.9H245.597V143.9ZM240.572 145.9V148H244.572V145.9H240.572ZM242.572 150H251.897V146H242.572V150ZM264.117 148.05L262.128 148.263L262.329 150.139L264.214 150.048L264.117 148.05ZM266.692 147.925L266.789 149.923L268.795 149.825L268.689 147.82L266.692 147.925ZM266.492 135.55H268.492V133.55H266.492V135.55ZM263.717 135.55V133.55H261.717V135.55H263.717ZM263.792 145.1L264.939 146.738L265.815 146.125L265.792 145.057L263.792 145.1ZM259.217 135.475H261.217V133.345L259.091 133.479L259.217 135.475ZM256.442 135.65L256.316 133.654L254.442 133.772V135.65H256.442ZM263.967 146.65L265.956 146.437L265.546 142.611L262.65 145.145L263.967 146.65ZM264.214 150.048L266.789 149.923L266.595 145.927L264.02 146.052L264.214 150.048ZM268.689 147.82C268.542 145.028 268.492 141.15 268.492 135.55H264.492C264.492 141.15 264.542 145.122 264.695 148.03L268.689 147.82ZM266.492 133.55H263.717V137.55H266.492V133.55ZM261.717 135.55C261.717 139.58 261.742 142.822 261.792 145.143L265.792 145.057C265.742 142.778 265.717 139.57 265.717 135.55H261.717ZM262.645 143.462C262.148 143.809 261.716 143.95 261.292 143.95V147.95C262.718 147.95 263.936 147.441 264.939 146.738L262.645 143.462ZM261.292 143.95C261.149 143.95 261.122 143.929 261.162 143.945C261.22 143.968 261.292 144.017 261.339 144.077C261.376 144.123 261.343 144.107 261.301 143.94C261.258 143.77 261.217 143.487 261.217 143.05H257.217C257.217 144.32 257.434 145.597 258.214 146.573C259.078 147.656 260.281 147.95 261.292 147.95V143.95ZM261.217 143.05V135.475H257.217V143.05H261.217ZM259.091 133.479L256.316 133.654L256.568 137.646L259.343 137.471L259.091 133.479ZM254.442 135.65V144.025H258.442V135.65H254.442ZM254.442 144.025C254.442 145.811 254.84 147.446 255.905 148.646C257.009 149.89 258.52 150.325 259.992 150.325V146.325C259.289 146.325 259.025 146.135 258.897 145.991C258.731 145.804 258.442 145.289 258.442 144.025H254.442ZM259.992 150.325C262.411 150.325 264.117 149.177 265.284 148.155L262.65 145.145C261.817 145.873 261.023 146.325 259.992 146.325V150.325ZM261.978 146.863L262.128 148.263L266.106 147.837L265.956 146.437L261.978 146.863ZM280.462 148V150H282.307L282.456 148.161L280.462 148ZM280.662 145.525L282.656 145.686L282.833 143.495L280.635 143.525L280.662 145.525ZM273.312 145.625L271.837 144.274L268.71 147.688L273.339 147.625L273.312 145.625ZM280.412 137.875L281.887 139.226L282.412 138.653V137.875H280.412ZM280.412 135.55H282.412V133.55H280.412V135.55ZM270.337 135.55V133.55H268.512L268.345 135.367L270.337 135.55ZM270.112 138L268.12 137.817L267.918 140.023L270.133 140L270.112 138ZM277.237 137.925L278.707 139.281L281.847 135.876L277.216 135.925L277.237 137.925ZM270.112 145.65L268.642 144.294L268.112 144.868V145.65H270.112ZM270.112 148H268.112V150H270.112V148ZM282.456 148.161L282.656 145.686L278.669 145.364L278.469 147.839L282.456 148.161ZM280.635 143.525L273.285 143.625L273.339 147.625L280.689 147.525L280.635 143.525ZM274.787 146.976L281.887 139.226L278.937 136.524L271.837 144.274L274.787 146.976ZM282.412 137.875V135.55H278.412V137.875H282.412ZM280.412 133.55H270.337V137.55H280.412V133.55ZM268.345 135.367L268.12 137.817L272.104 138.183L272.329 135.733L268.345 135.367ZM270.133 140L277.258 139.925L277.216 135.925L270.091 136L270.133 140ZM275.767 136.569L268.642 144.294L271.582 147.006L278.707 139.281L275.767 136.569ZM268.112 145.65V148H272.112V145.65H268.112ZM270.112 150H280.462V146H270.112V150ZM283.932 152.425L281.94 152.604L282.119 154.595L284.11 154.417L283.932 152.425ZM291.532 145.825L289.657 145.128L289.653 145.139L289.649 145.151L291.532 145.825ZM295.032 135.55L296.938 136.157L297.768 133.55H295.032V135.55ZM292.357 135.55V133.55H290.996L290.496 134.817L292.357 135.55ZM289.557 144.7V146.7H291.013L291.46 145.315L289.557 144.7ZM289.307 144.7L287.462 145.472L287.976 146.7H289.307V144.7ZM285.807 135.45L287.681 134.751L287.159 133.349L285.666 133.455L285.807 135.45ZM282.982 135.65L282.841 133.655L280.147 133.846L281.115 136.367L282.982 135.65ZM287.682 147.375L285.857 148.192L286.201 148.961L286.991 149.252L287.682 147.375ZM288.157 147.55L289.993 148.344L290.832 146.404L288.849 145.673L288.157 147.55ZM283.707 149.925L283.422 147.945L281.545 148.216L281.715 150.104L283.707 149.925ZM284.11 154.417C286.449 154.208 288.438 153.771 290.049 152.367C291.592 151.023 292.512 149.021 293.415 146.499L289.649 145.151C288.752 147.654 288.11 148.752 287.422 149.351C286.801 149.892 285.891 150.242 283.754 150.433L284.11 154.417ZM293.407 146.522C294.799 142.777 296.035 138.991 296.938 136.157L293.127 134.943C292.23 137.759 291.016 141.473 289.657 145.128L293.407 146.522ZM295.032 133.55H292.357V137.55H295.032V133.55ZM290.496 134.817C290.293 135.334 289.75 137.152 289.21 138.962C288.643 140.861 288.033 142.913 287.654 144.085L291.46 145.315C291.857 144.087 292.484 141.977 293.042 140.106C293.324 139.163 293.589 138.277 293.804 137.576C293.911 137.225 294.004 136.927 294.079 136.695C294.117 136.578 294.148 136.483 294.173 136.409C294.186 136.372 294.196 136.342 294.205 136.319C294.209 136.308 294.212 136.3 294.214 136.293C294.215 136.29 294.216 136.287 294.217 136.286C294.217 136.285 294.218 136.284 294.218 136.284C294.218 136.283 294.218 136.284 294.218 136.283C294.218 136.283 294.218 136.283 294.218 136.283L290.496 134.817ZM289.557 142.7H289.307V146.7H289.557V142.7ZM291.152 143.928C290.023 141.227 288.727 137.558 287.681 134.751L283.933 136.149C284.937 138.842 286.292 142.673 287.462 145.472L291.152 143.928ZM285.666 133.455L282.841 133.655L283.123 137.645L285.948 137.445L285.666 133.455ZM281.115 136.367C282.058 138.823 284.655 145.506 285.857 148.192L289.508 146.558C288.36 143.994 285.807 137.427 284.849 134.933L281.115 136.367ZM286.991 149.252L287.466 149.427L288.849 145.673L288.374 145.498L286.991 149.252ZM286.322 146.756C286.064 147.352 285.947 147.379 285.862 147.423C285.556 147.578 284.971 147.722 283.422 147.945L283.992 151.905C285.394 151.703 286.671 151.497 287.671 150.99C288.892 150.371 289.526 149.423 289.993 148.344L286.322 146.756ZM281.715 150.104L281.94 152.604L285.924 152.246L285.699 149.746L281.715 150.104ZM306.977 135.425L308.976 135.342L308.901 133.553L307.115 133.43L306.977 135.425ZM298.327 145.75L298.458 143.754L296.415 143.62L296.329 145.666L298.327 145.75ZM298.227 148.125L296.229 148.041L296.145 150.033L298.137 150.123L298.227 148.125ZM307.077 137.825L306.905 139.818L309.17 140.013L309.076 137.742L307.077 137.825ZM307.115 133.43C303.68 133.193 301.049 133.584 299.193 134.552C297.233 135.573 296.152 137.257 296.152 139.175H300.152C300.152 138.943 300.221 138.527 301.043 138.098C301.968 137.616 303.75 137.207 306.84 137.42L307.115 133.43ZM296.152 139.175C296.152 140.775 297.038 141.903 297.926 142.628C298.781 143.327 299.837 143.823 300.678 144.19C301.639 144.609 302.284 144.851 302.804 145.135C303.047 145.268 303.103 145.328 303.078 145.303C303.036 145.259 302.802 144.989 302.802 144.525H306.802C306.802 143.617 306.361 142.945 305.955 142.524C305.567 142.122 305.103 141.832 304.722 141.625C303.995 141.227 302.978 140.829 302.277 140.523C301.456 140.165 300.849 139.851 300.457 139.531C300.275 139.382 300.199 139.278 300.17 139.229C300.151 139.196 300.152 139.19 300.152 139.175H296.152ZM302.802 144.525C302.802 144.157 302.984 143.825 303.197 143.645C303.326 143.536 303.337 143.594 302.982 143.674C302.278 143.832 300.9 143.915 298.458 143.754L298.196 147.746C300.705 147.91 302.565 147.868 303.86 147.576C304.506 147.431 305.206 147.183 305.777 146.702C306.43 146.15 306.802 145.38 306.802 144.525H302.802ZM296.329 145.666L296.229 148.041L300.226 148.209L300.326 145.834L296.329 145.666ZM298.137 150.123C301.853 150.291 304.613 149.901 306.524 148.98C308.569 147.994 309.702 146.341 309.702 144.375H305.702C305.702 144.559 305.686 144.943 304.787 145.376C303.754 145.874 301.777 146.284 298.318 146.127L298.137 150.123ZM309.702 144.375C309.702 142.786 308.826 141.648 307.957 140.907C307.111 140.185 306.062 139.655 305.213 139.257C304.246 138.805 303.592 138.542 303.052 138.238C302.799 138.095 302.729 138.027 302.743 138.04C302.762 138.06 303.027 138.341 303.027 138.85H299.027C299.027 139.778 299.501 140.448 299.886 140.84C300.264 141.226 300.716 141.513 301.089 141.723C301.8 142.123 302.815 142.551 303.517 142.88C304.336 143.264 304.957 143.605 305.362 143.951C305.552 144.113 305.639 144.23 305.675 144.295C305.703 144.344 305.702 144.36 305.702 144.375H309.702ZM303.027 138.85C303.027 139.269 302.817 139.625 302.588 139.813C302.442 139.933 302.41 139.884 302.73 139.816C303.364 139.683 304.634 139.621 306.905 139.818L307.25 135.832C304.896 135.629 303.14 135.642 301.906 135.902C301.292 136.032 300.614 136.26 300.056 136.716C299.415 137.24 299.027 137.994 299.027 138.85H303.027ZM309.076 137.742L308.976 135.342L304.979 135.508L305.079 137.908L309.076 137.742ZM318.897 148H316.897V150H318.897V148ZM321.672 148V150H323.672V148H321.672ZM314.097 136.925L312.108 137.134L312.519 141.036L315.435 138.412L314.097 136.925ZM313.947 135.5L315.936 135.291L315.737 133.392L313.831 133.503L313.947 135.5ZM311.372 135.65L311.256 133.653L309.27 133.769L309.375 135.756L311.372 135.65ZM311.572 148H309.572V150H311.572V148ZM314.372 148V150H316.372V148H314.372ZM314.272 138.425L313.188 136.744L312.249 137.35L312.273 138.468L314.272 138.425ZM316.797 139.6C316.94 139.6 316.971 139.621 316.937 139.607C316.886 139.587 316.819 139.542 316.773 139.486C316.737 139.442 316.771 139.459 316.813 139.621C316.856 139.788 316.897 140.067 316.897 140.5H320.897C320.897 139.218 320.67 137.938 319.878 136.964C319.007 135.893 317.806 135.6 316.797 135.6V139.6ZM316.897 140.5V148H320.897V140.5H316.897ZM318.897 150H321.672V146H318.897V150ZM323.672 148V139.525H319.672V148H323.672ZM323.672 139.525C323.672 137.739 323.262 136.107 322.193 134.909C321.088 133.671 319.579 133.225 318.097 133.225V137.225C318.791 137.225 319.069 137.416 319.208 137.572C319.383 137.768 319.672 138.286 319.672 139.525H323.672ZM318.097 133.225C315.683 133.225 313.949 134.368 312.76 135.438L315.435 138.412C316.246 137.682 317.062 137.225 318.097 137.225V133.225ZM316.086 136.716L315.936 135.291L311.958 135.709L312.108 137.134L316.086 136.716ZM313.831 133.503L311.256 133.653L311.489 137.647L314.064 137.497L313.831 133.503ZM309.375 135.756C309.522 138.522 309.572 142.399 309.572 148H313.572C313.572 142.401 313.523 138.428 313.37 135.544L309.375 135.756ZM311.572 150H314.372V146H311.572V150ZM316.372 148C316.372 143.983 316.322 140.719 316.272 138.382L312.273 138.468C312.323 140.781 312.372 144.017 312.372 148H316.372ZM315.357 140.106C315.926 139.739 316.351 139.6 316.797 139.6V135.6C315.344 135.6 314.169 136.111 313.188 136.744L315.357 140.106ZM333.543 148.175L331.878 149.284L332.559 150.305L333.776 150.161L333.543 148.175ZM336.518 147.825L336.751 149.811L340.014 149.427L338.175 146.705L336.518 147.825ZM332.193 141.425L330.608 140.205L329.727 141.348L330.535 142.545L332.193 141.425ZM336.168 135.7L337.855 136.774L339.64 133.968L336.325 133.706L336.168 135.7ZM333.318 135.475L333.475 133.481L332.234 133.383L331.599 134.453L333.318 135.475ZM329.843 140.65L329.876 142.65L330.828 142.634L331.416 141.885L329.843 140.65ZM328.368 140.675H326.368V142.709L328.401 142.675L328.368 140.675ZM328.368 130.225H330.368V128.037L328.188 128.233L328.368 130.225ZM325.593 130.475L325.413 128.483L323.593 128.647V130.475H325.593ZM325.593 148H323.593V150H325.593V148ZM328.368 148V150H330.368V148H328.368ZM328.368 142.675L328.3 140.676L326.368 140.742V142.675H328.368ZM329.843 142.625L331.507 141.516L330.889 140.588L329.775 140.626L329.843 142.625ZM333.776 150.161L336.751 149.811L336.284 145.839L333.309 146.189L333.776 150.161ZM338.175 146.705L333.85 140.305L330.535 142.545L334.86 148.945L338.175 146.705ZM333.777 142.645C335.249 140.734 336.609 138.732 337.855 136.774L334.48 134.626C333.276 136.518 331.986 138.416 330.608 140.205L333.777 142.645ZM336.325 133.706L333.475 133.481L333.16 137.469L336.01 137.694L336.325 133.706ZM331.599 134.453C330.522 136.264 329.471 137.884 328.269 139.415L331.416 141.885C332.764 140.166 333.913 138.386 335.037 136.497L331.599 134.453ZM329.809 138.65L328.334 138.675L328.401 142.675L329.876 142.65L329.809 138.65ZM330.368 140.675V130.225H326.368V140.675H330.368ZM328.188 128.233L325.413 128.483L325.772 132.467L328.547 132.217L328.188 128.233ZM323.593 130.475V148H327.593V130.475H323.593ZM325.593 150H328.368V146H325.593V150ZM330.368 148V142.675H326.368V148H330.368ZM328.435 144.674L329.91 144.624L329.775 140.626L328.3 140.676L328.435 144.674ZM328.178 143.734L331.878 149.284L335.207 147.066L331.507 141.516L328.178 143.734ZM345.888 133.675V135.675H347.763L347.884 133.803L345.888 133.675ZM346.113 130.175L348.109 130.303L348.245 128.175H346.113V130.175ZM343.188 130.175V128.175H341.285L341.19 130.075L343.188 130.175ZM343.013 133.675L341.015 133.575L340.91 135.675H343.013V133.675ZM350.063 148V150H351.86L352.051 148.213L350.063 148ZM350.288 145.9L352.276 146.113L352.513 143.9H350.288V145.9ZM345.963 145.9H343.963V147.9H345.963V145.9ZM345.963 135.55H347.963V133.55H345.963V135.55ZM339.013 135.55V133.55H337.228L337.026 135.324L339.013 135.55ZM338.788 137.525L336.801 137.299L336.558 139.425L338.696 139.523L338.788 137.525ZM343.163 137.725H345.163V135.814L343.254 135.727L343.163 137.725ZM343.163 145.9V147.9H345.163V145.9H343.163ZM338.838 145.9V143.9H336.838V145.9H338.838ZM338.838 148H336.838V150H338.838V148ZM347.884 133.803L348.109 130.303L344.117 130.047L343.892 133.547L347.884 133.803ZM346.113 128.175H343.188V132.175H346.113V128.175ZM341.19 130.075L341.015 133.575L345.01 133.775L345.185 130.275L341.19 130.075ZM343.013 135.675H345.888V131.675H343.013V135.675ZM352.051 148.213L352.276 146.113L348.299 145.687L348.074 147.787L352.051 148.213ZM350.288 143.9H345.963V147.9H350.288V143.9ZM347.963 145.9V135.55H343.963V145.9H347.963ZM345.963 133.55H339.013V137.55H345.963V133.55ZM337.026 135.324L336.801 137.299L340.775 137.751L341 135.776L337.026 135.324ZM338.696 139.523L343.071 139.723L343.254 135.727L338.879 135.527L338.696 139.523ZM341.163 137.725V145.9H345.163V137.725H341.163ZM343.163 143.9H338.838V147.9H343.163V143.9ZM336.838 145.9V148H340.838V145.9H336.838ZM338.838 150H350.063V146H338.838V150Z" fill="black"/>
</g>
<path id="{}" d="M178.525 112.975L181.3 106.3C169.3 102.7 163.675 100 163.675 96.25C163.675 92.275 170.125 89.2 170.125 84.475C170.125 81.55 167.8 78.55 161.65 76.9C167.8 75.025 170.125 71.875 170.125 69.1C170.125 64.9 163.225 61.225 163.225 57.85C163.225 54.85 168.925 52.225 181.45 48.775L178.825 42.025C161.2 47.575 155.2 53.05 155.2 58.45C155.275 64.15 162.7 67.3 162.7 70.375C162.7 72.4 160.15 73.675 151.525 74.575L151.3 80.425C158.65 81.025 162.175 83.05 162.175 85.675C162.175 88.975 155.35 92.275 155.35 98.2C155.35 103.9 161.05 107.35 178.525 112.975ZM193.81 112.9C211.435 107.275 217.435 101.8 217.36 96.4C217.36 90.7 209.935 87.625 209.935 84.55C209.935 82.525 212.485 81.175 221.035 80.35L221.335 74.425C213.91 73.825 210.46 71.8 210.46 69.25C210.46 65.875 217.285 62.65 217.285 56.65C217.285 50.95 211.585 47.5 194.11 41.95L191.335 48.55C203.335 52.15 208.96 54.925 208.96 58.675C208.96 62.65 202.51 65.725 202.51 70.45C202.51 73.375 204.835 76.3 211.06 77.95C204.835 79.9 202.51 82.975 202.51 85.75C202.51 90.025 209.335 93.625 209.335 97.075C209.335 100 203.71 102.625 191.185 106.075L193.81 112.9Z" fill="black"/>
</g>
<defs>
<linearGradient id="paint0_linear" x1="200" y1="148.5" x2="431" y2="148.5" gradientUnits="userSpaceOnUse">
<stop stop-color="#81A7FF"/>
<stop offset="1" stop-color="white" stop-opacity="0"/>
</linearGradient>
<linearGradient id="paint1_linear" x1="172" y1="148.5" x2="-59" y2="148.5" gradientUnits="userSpaceOnUse">
<stop stop-color="#81A7FF"/>
<stop offset="1" stop-color="white" stop-opacity="0"/>
</linearGradient>
<clipPath id="clip0">
<rect width="373" height="332" fill="white"/>
</clipPath>
</defs>
</svg>
