<svg width="542" height="279" viewBox="0 0 542 279" fill="none" xmlns="http://www.w3.org/2000/svg">
<path id="Hey" d="M103.4 217H144.7V-1.66893e-06H103.4V92.05H41.1V-1.66893e-06H0.150002V217H41.1V122.85H103.4V217ZM330.832 221.2L334.682 188.65C257.682 186.9 231.432 175.35 227.232 140.35L339.582 137.2C345.882 76.65 322.432 38.15 273.432 38.15C227.582 38.15 188.382 79.45 188.382 133C188.382 189.7 218.132 222.25 330.832 221.2ZM266.432 70C290.582 70 301.432 87.15 302.482 114.8C280.782 115.5 245.432 116.55 226.882 117.25C228.632 84.7 242.632 70 266.432 70ZM385.713 278.95C448.363 273.35 466.913 256.9 492.113 186.55C511.363 134.75 528.513 82.25 541.113 42.7H503.663C499.113 54.25 475.313 137.2 464.463 170.8H460.963C444.863 132.3 426.313 79.8 411.963 41.3L372.413 44.1C385.713 78.75 421.763 171.5 438.213 208.25L444.863 210.7C434.713 234.15 423.863 238 382.563 243.95L385.713 278.95Z" fill="white"/>
</svg>
