<svg width="537" height="237" viewBox="0 0 537 237" fill="none" xmlns="http://www.w3.org/2000/svg">
<path id="I&#226;&#128;&#153;m" d="M90.55 51.15H140.6V20H0.250001V51.15H50.3V205.85H0.250001V237H139.55L142.35 205.85H90.55V51.15ZM233.282 106.45L254.282 112.75C284.732 85.1 304.682 39.6 288.582 0.049984L239.232 2.84999C256.732 39.95 253.232 81.25 233.282 106.45ZM429.913 91.4C438.663 91.4 442.513 96.65 442.513 111.35V237H470.163V99.45C475.413 94.2 481.013 91.4 487.313 91.4C496.413 91.4 500.613 96.65 500.613 111.7V237H536.663V98.05C536.663 72.15 526.863 58.15 506.913 58.15C491.513 58.15 479.263 66.55 469.813 77.05C466.313 65.15 458.263 58.15 444.613 58.15C430.263 58.15 418.013 66.55 408.563 77.05L407.163 62L373.913 64.1C375.313 103.65 375.313 158.6 375.313 237H411.363C411.363 179.6 411.013 133.05 410.313 100.5C416.613 94.55 423.263 91.4 429.913 91.4Z" fill="white"/>
</svg>
