<svg width="1306" height="250" viewBox="0 0 1306 250" fill="none" xmlns="http://www.w3.org/2000/svg">
<path id="Marcell" d="M113 28C113 28 79.75 147.7 77.3 157.15H75.9C73.45 147.7 39.85 28 39.85 28H0.650001V245H36.7L34.6 100.1H36L64.7 201.95H86.75L115.1 100.1H116.5L114.4 245H151.5V28H113ZM260.982 219.45C243.132 219.45 231.582 210.35 231.582 194.95C231.582 175.7 245.932 164.15 299.832 169.75C300.182 184.1 300.182 195.65 300.882 205.8C288.632 214.2 274.282 219.45 260.982 219.45ZM305.782 246.05L341.482 244.3C339.732 220.15 338.332 192.5 338.332 158.55C338.332 90.65 312.082 68.95 207.082 67.2L203.232 100.1C278.132 102.55 297.382 110.6 299.482 144.2C225.982 141.05 193.082 169.05 193.082 204.05C193.082 232.4 214.432 249.55 245.582 249.55C270.782 249.55 289.332 238 302.632 225.05C303.682 233.45 305.432 244.65 305.782 246.05ZM518.513 245L521.663 215.6H468.813C468.113 178.5 467.763 149.1 467.063 122.85C486.663 113.4 510.813 107.1 540.913 105.35L539.163 64.05C506.263 68.25 481.413 82.6 465.663 100.8C464.963 92.05 462.863 72.45 462.513 70.7H390.413L387.263 98.35L428.563 101.15C429.263 131.95 429.613 168.35 430.313 215.6H387.963V245H518.513ZM582.495 160.65C582.495 214.55 611.195 255.5 720.045 246.4L723.895 214.2C645.495 218.75 620.995 200.55 620.995 155.75C620.995 122.15 634.295 102.2 721.445 105L718.995 68.25C614.695 68.6 582.495 112 582.495 160.65ZM912.127 249.2L915.977 216.65C838.977 214.9 812.727 203.35 808.527 168.35L920.877 165.2C927.177 104.65 903.727 66.15 854.727 66.15C808.877 66.15 769.677 107.45 769.677 161C769.677 217.7 799.427 250.25 912.127 249.2ZM847.727 98C871.877 98 882.727 115.15 883.777 142.8C862.077 143.5 826.727 144.55 808.177 145.25C809.927 112.7 823.927 98 847.727 98ZM1110.16 245L1113.31 215.6H1059.41V0.349979H971.558L968.058 28L1020.21 30.8V215.6H966.308V245H1110.16ZM1302.59 245L1305.74 215.6H1251.84V0.349979H1163.99L1160.49 28L1212.64 30.8V215.6H1158.74V245H1302.59Z" fill="white"/>
</svg>
