<?xml version="1.0" standalone="no"?>
<!DOCTYPE svg PUBLIC "-//W3C//DTD SVG 20010904//EN"
 "http://www.w3.org/TR/2001/REC-SVG-20010904/DTD/svg10.dtd">
<svg version="1.0" xmlns="http://www.w3.org/2000/svg"
 width="1280.000000pt" height="1155.000000pt" viewBox="0 0 1280.000000 1155.000000"
 preserveAspectRatio="xMidYMid meet">
<metadata>
Created by potrace 1.15, written by Peter Selinger 2001-2017
</metadata>
<g transform="translate(0.000000,1155.000000) scale(0.100000,-0.100000)"
fill="#000000" stroke="none">
<path d="M6976 11529 c-34 -27 -36 -77 -3 -107 30 -28 68 -28 95 1 29 31 28
72 -3 102 -30 30 -54 31 -89 4z"/>
<path d="M6700 11520 c-42 -42 -10 -130 47 -130 30 0 62 30 69 65 13 67 -69
112 -116 65z"/>
<path d="M7370 11435 c-41 -24 -87 -44 -101 -44 -14 -1 -34 -10 -45 -22 -33
-37 -53 -43 -76 -23 -31 29 -108 45 -139 30 -16 -8 -34 -10 -48 -4 -58 21
-122 -67 -79 -110 17 -17 2 -15 -28 4 -20 14 -30 15 -49 6 -23 -10 -25 -9 -25
11 0 61 -83 92 -122 46 -14 -17 -21 -18 -38 -9 -12 6 -26 9 -33 7 -17 -6 -47
11 -47 27 0 21 -37 49 -66 49 -60 0 -89 -80 -46 -126 12 -13 22 -28 22 -34 0
-19 37 -43 68 -43 17 0 34 -5 38 -11 4 -7 22 -9 44 -6 l38 5 7 -54 c3 -30 13
-61 22 -69 17 -18 17 -18 -14 -34 -20 -10 -23 -9 -23 7 0 24 -41 62 -67 62
-11 0 -31 -8 -44 -18 -13 -10 -38 -24 -56 -31 -18 -7 -35 -21 -38 -31 -3 -10
-15 -28 -26 -41 -11 -12 -22 -34 -26 -48 -8 -32 -20 -41 -58 -41 l-30 0 38 25
c20 14 37 30 37 35 0 25 -15 40 -40 40 -20 0 -29 6 -33 21 -5 20 -10 21 -64
14 -32 -3 -64 -13 -72 -20 -12 -12 -18 -12 -41 0 -17 9 -43 12 -66 10 -22 -3
-51 -5 -66 -5 -33 0 -62 -37 -51 -66 6 -16 4 -17 -9 -6 -8 7 -22 10 -31 6 -10
-3 -18 2 -22 15 -10 33 -42 45 -69 28 -29 -20 -71 -11 -91 19 -18 29 -46 31
-68 6 -22 -24 -21 -37 5 -75 13 -18 23 -33 23 -34 1 -4 62 -16 87 -16 15 0 25
-3 23 -7 -10 -16 16 -80 33 -80 13 -1 11 -6 -10 -23 -16 -13 -28 -30 -28 -40
0 -17 -11 -22 -23 -10 -4 3 1 15 10 25 22 24 7 72 -24 76 -11 2 -29 12 -39 23
-23 25 -69 24 -95 -2 -17 -17 -20 -29 -16 -62 3 -23 3 -53 0 -68 -6 -31 -43
-48 -43 -20 0 22 -19 41 -43 41 -10 0 -27 5 -37 10 -18 10 -16 14 26 56 30 29
44 50 40 60 -3 9 1 22 9 30 19 20 19 48 -1 68 -31 31 -74 13 -74 -31 0 -20 -5
-23 -35 -23 -46 0 -75 -29 -75 -74 0 -19 7 -41 15 -50 21 -20 19 -24 -9 -19
-13 3 -33 0 -45 -6 -18 -10 -21 -9 -21 6 0 37 -29 63 -69 63 -30 0 -42 6 -55
25 -13 20 -22 24 -41 19 -19 -5 -25 -2 -25 10 0 26 -46 66 -75 66 -34 0 -65
-33 -65 -70 0 -58 -27 -29 -99 105 -40 74 -76 135 -79 135 -4 1 -71 -19 -149
-42 l-143 -43 0 -32 c0 -28 -4 -33 -23 -33 -52 0 -87 -53 -67 -104 9 -24 6
-27 -51 -52 -51 -23 -60 -31 -55 -48 3 -11 13 -56 22 -99 17 -77 18 -78 43
-71 14 4 42 7 61 6 20 0 42 6 52 15 17 15 18 14 12 -14 -13 -65 41 -106 102
-77 44 21 56 15 72 -36 10 -32 10 -45 1 -56 -10 -13 -15 -12 -31 6 -10 11 -27
20 -38 20 -10 0 -21 9 -25 19 -8 26 -45 34 -67 14 -22 -20 -23 -46 -3 -67 19
-19 19 -26 0 -26 -19 0 -31 -48 -18 -69 15 -23 54 -26 70 -5 18 25 16 41 -7
64 -15 15 -16 20 -6 20 8 0 17 -9 21 -19 3 -11 12 -22 20 -25 8 -3 15 -14 15
-24 0 -26 24 -44 52 -40 33 4 37 -35 5 -49 -32 -15 -40 -48 -17 -75 l18 -23
58 21 c68 24 84 22 84 -11 0 -28 24 -55 49 -55 10 0 26 -9 36 -20 21 -23 77
-27 94 -6 6 8 25 16 42 18 26 4 30 2 26 -14 -5 -16 1 -18 44 -18 42 0 49 -3
49 -20 0 -29 35 -60 68 -60 33 0 57 23 67 63 6 24 12 27 50 27 24 0 50 3 59 6
12 5 14 -1 9 -31 -5 -29 -1 -41 17 -60 63 -67 144 8 106 97 -6 13 -2 19 17 23
19 5 37 -1 71 -27 l45 -33 -6 -82 -6 -83 39 0 c22 0 110 5 197 11 l158 10 213
-170 212 -170 13 -123 c6 -68 14 -144 18 -170 5 -43 4 -46 -14 -42 -21 6 -53
52 -53 76 0 24 -34 48 -68 48 -21 0 -37 -8 -51 -26 -25 -31 -26 -52 -7 -80 11
-15 12 -29 4 -64 -6 -25 -11 -61 -13 -81 -1 -20 -5 -41 -9 -47 -6 -11 -84 -27
-92 -20 -2 3 9 19 26 36 32 34 35 47 20 86 -14 37 -50 51 -90 37 -23 -7 -38
-8 -52 0 -15 8 -25 6 -45 -6 -13 -9 -26 -15 -27 -13 -1 2 -10 15 -19 31 -26
41 -74 38 -125 -10 -22 -21 -44 -50 -47 -65 -4 -16 -11 -25 -16 -23 -17 11
-51 -36 -47 -66 3 -20 0 -29 -9 -29 -7 0 -13 8 -13 18 0 10 -5 23 -12 30 -9 9
-9 15 0 24 7 7 12 25 12 41 0 19 10 38 30 57 35 33 38 67 9 104 -42 54 -125
19 -117 -50 3 -23 0 -34 -9 -34 -7 0 -22 -13 -35 -30 -13 -18 -31 -30 -44 -30
-12 0 -30 -7 -39 -16 -15 -15 -17 -15 -34 0 -25 22 -74 20 -96 -4 -10 -11 -19
-37 -19 -58 -2 -31 -6 -38 -25 -40 -22 -4 -23 -3 -7 19 41 59 -3 138 -68 125
-25 -5 -35 -1 -58 24 -35 39 -81 39 -111 -2 -25 -34 -17 -67 25 -107 18 -17
30 -32 27 -35 -11 -12 -163 16 -187 34 -29 24 -50 25 -77 6 -24 -16 -310 -56
-417 -57 -40 -1 -81 -5 -91 -11 -24 -12 -362 -54 -410 -50 -25 2 -40 9 -44 20
-22 62 -87 81 -122 36 -26 -34 -27 -64 -1 -97 11 -14 20 -34 20 -44 0 -27 20
-43 53 -43 20 0 26 -4 20 -12 -4 -7 -15 -35 -23 -62 -13 -42 -19 -49 -42 -50
-18 -1 -28 4 -32 17 -2 10 -14 21 -25 24 -14 3 -21 15 -23 37 -2 25 -8 32 -29
34 -14 2 -31 -4 -38 -12 -18 -21 -6 -63 19 -71 13 -4 20 -15 20 -30 0 -27 30
-48 54 -39 11 4 16 0 16 -14 0 -11 6 -22 14 -25 13 -5 13 -12 -1 -47 -14 -34
-19 -39 -27 -28 -6 8 -22 20 -34 27 -56 30 -118 -40 -89 -98 11 -21 11 -33 1
-56 -16 -39 0 -81 37 -101 17 -8 29 -23 29 -34 0 -32 21 -67 47 -79 20 -9 31
-8 56 4 41 20 154 20 196 -1 31 -15 34 -15 59 3 31 23 116 38 109 20 -3 -7
-42 -97 -87 -202 -45 -104 -88 -206 -96 -225 l-15 -35 24 25 c13 14 82 90 154
170 115 127 138 148 191 171 l60 26 21 -28 c14 -19 31 -29 47 -29 16 0 34 -10
46 -25 39 -50 118 -19 118 47 0 17 -7 40 -17 50 -13 14 -13 18 -2 18 84 0 445
27 687 51 l304 30 23 -25 c27 -30 60 -33 93 -10 20 14 24 14 44 0 32 -23 65
-20 94 9 14 14 28 25 32 25 23 0 331 -132 434 -187 103 -54 162 -76 370 -139
136 -41 297 -96 358 -122 110 -47 112 -48 140 -102 86 -164 83 -150 85 -410
l1 -235 -82 -89 -82 -89 48 -72 48 -72 -35 -36 -36 -36 -6 -175 c-3 -96 -9
-177 -13 -181 -4 -5 -173 -55 -185 -55 -1 0 1 16 4 35 5 29 1 41 -17 60 -26
28 -71 33 -90 10 -20 -24 -70 -6 -141 52 -36 29 -75 53 -87 53 -11 0 -22 7
-26 15 -3 8 -17 20 -32 25 -38 15 -76 -7 -90 -50 -10 -30 -16 -35 -45 -37 -19
-1 -71 -4 -116 -7 -64 -4 -84 -2 -94 10 -9 11 -8 18 5 32 22 25 20 78 -4 102
-60 60 -154 -26 -105 -97 13 -18 13 -22 -3 -35 -34 -28 -66 -37 -81 -21 -10
11 -26 14 -52 10 -38 -5 -39 -4 -39 24 0 39 -32 70 -73 69 -18 0 -46 2 -63 6
-24 5 -35 1 -55 -20 -29 -30 -39 -33 -39 -8 0 20 -39 62 -58 62 -6 0 -44 40
-84 89 -82 100 -85 100 -87 -12 -1 -40 -5 -59 -15 -63 -17 -7 -37 -59 -30 -78
3 -7 -6 -18 -21 -24 -14 -6 -25 -16 -25 -21 0 -5 -9 -11 -20 -14 -17 -4 -20 0
-20 23 0 16 -4 31 -9 34 -5 3 -7 24 -4 46 13 92 -86 117 -137 35 -11 -18 -20
-42 -20 -54 0 -28 -23 -27 -53 3 -24 24 -100 42 -130 30 -10 -3 -20 -18 -23
-33 -3 -14 -9 -35 -14 -46 -4 -11 -11 -29 -14 -39 -5 -15 -9 -17 -18 -8 -7 7
-22 12 -33 12 -19 0 -22 5 -20 38 2 27 8 38 21 41 29 5 54 32 54 57 0 17 7 25
25 30 53 13 73 86 35 124 -41 41 -120 10 -120 -47 0 -16 -6 -23 -20 -23 -11 0
-28 -9 -37 -20 -10 -11 -26 -20 -36 -20 -10 0 -27 -4 -37 -10 -12 -6 -28 -6
-49 1 -26 9 -36 8 -57 -6 -15 -9 -29 -25 -31 -35 -5 -20 -53 -34 -67 -19 -6 5
-20 9 -33 9 -13 0 -26 6 -29 14 -7 18 -59 40 -73 32 -6 -4 -18 6 -27 21 -25
40 -44 53 -76 53 -59 0 -89 -72 -50 -120 20 -24 18 -70 -2 -70 -6 0 -17 9 -24
20 -14 24 -54 26 -72 5 -19 -23 -27 -18 -32 22 -3 26 1 42 14 55 35 35 12 88
-38 88 -17 0 -30 -9 -42 -30 -9 -16 -20 -30 -24 -30 -4 0 -16 -10 -27 -21 -16
-17 -31 -22 -76 -21 -53 0 -85 -14 -85 -39 0 -5 -6 -9 -14 -9 -8 0 -21 -6 -28
-14 -12 -11 -17 -11 -33 0 -17 13 -16 14 13 14 43 0 72 30 72 74 0 19 5 38 10
41 15 9 12 61 -4 74 -22 19 -69 9 -81 -16 -6 -12 -22 -30 -35 -41 -17 -14 -24
-30 -24 -56 0 -46 -23 -48 -55 -5 -28 38 -68 37 -90 -3 -14 -24 -13 -29 13
-68 15 -23 36 -45 47 -47 10 -3 19 -9 19 -14 0 -9 -67 0 -92 13 -13 6 -23 3
-39 -13 -24 -24 -32 -20 -36 19 -7 61 -13 73 -42 78 -17 4 -31 14 -34 25 -6
24 -35 35 -56 22 -23 -14 -20 -55 4 -68 13 -6 21 -22 23 -45 3 -28 1 -33 -9
-22 -20 19 -67 15 -79 -7 -12 -24 -46 -17 -53 10 -11 43 -72 33 -72 -12 0 -15
9 -28 25 -36 25 -13 25 -13 -11 -13 -29 0 -38 5 -47 26 -16 34 -65 31 -70 -4
-3 -19 -9 -23 -35 -20 -25 2 -31 7 -29 21 2 10 -2 25 -8 32 -15 18 -120 17
-127 -1 -5 -14 -70 -11 -131 5 -31 9 -37 7 -78 -31 -24 -23 -47 -38 -50 -35
-3 3 4 10 15 17 25 13 28 48 5 57 -24 9 -49 -10 -49 -38 0 -14 -9 -29 -21 -36
-12 -7 -27 -27 -34 -45 -8 -18 -14 -34 -16 -36 -1 -2 -14 9 -28 23 -16 16 -33
24 -43 21 -9 -4 -27 5 -46 24 -44 43 -107 38 -107 -10 0 -8 -9 -21 -20 -28
-25 -15 -58 2 -62 32 -4 28 -34 44 -56 30 -21 -13 -28 -50 -12 -69 6 -7 13
-42 15 -77 5 -69 23 -92 63 -85 12 2 22 1 22 -3 0 -14 -30 -19 -56 -10 -19 8
-34 7 -53 -2 -38 -19 -74 -12 -66 13 9 28 -20 69 -50 69 -25 0 -55 -33 -55
-61 0 -20 31 -49 52 -49 11 0 14 -7 10 -25 -7 -37 24 -68 60 -61 16 3 28 4 28
2 0 -2 -39 -26 -87 -52 -67 -37 -99 -48 -133 -49 -37 0 -46 -4 -56 -24 -25
-49 15 -93 65 -74 43 16 110 -2 121 -33 12 -30 55 -42 78 -21 15 13 23 13 78
0 l62 -15 -22 -42 c-11 -22 -27 -47 -33 -54 -35 -37 -26 -95 17 -117 38 -20
71 -7 97 38 17 28 26 34 46 30 19 -4 33 2 51 20 29 29 33 64 11 93 -8 10 -15
21 -15 24 0 3 34 3 76 2 71 -3 79 -6 102 -34 20 -23 32 -29 54 -26 20 3 34 -2
50 -19 12 -13 29 -23 37 -23 10 0 17 -10 18 -26 1 -29 27 -59 60 -68 29 -9 74
31 76 67 2 22 7 27 28 27 15 0 32 6 38 14 8 10 23 13 46 9 43 -7 85 31 85 75
0 16 7 35 15 42 8 7 15 25 15 40 0 28 15 41 37 33 7 -3 10 -15 7 -31 -13 -65
70 -108 118 -60 24 24 69 28 92 9 12 -10 14 -24 9 -57 -5 -38 -2 -49 17 -69
28 -29 60 -32 88 -7 22 19 55 132 46 157 -10 26 36 18 58 -10 13 -16 29 -25
49 -25 21 0 29 -5 29 -18 0 -26 42 -62 72 -62 33 0 68 42 68 81 0 20 8 34 25
45 24 16 27 16 49 -5 12 -11 34 -21 49 -21 30 0 67 31 67 58 1 13 5 11 21 -10
16 -22 29 -28 57 -28 30 -1 34 -3 20 -11 -19 -11 -24 -54 -8 -64 6 -3 10 -14
10 -24 0 -9 9 -27 20 -39 24 -25 81 -30 99 -9 6 8 23 12 40 9 16 -2 37 1 47 6
13 7 27 6 49 -6 16 -8 41 -16 55 -17 14 -2 33 -6 42 -10 26 -11 61 31 54 65
-4 24 1 34 32 61 33 30 37 31 41 13 2 -10 8 -25 14 -32 6 -7 11 -25 12 -39 1
-27 28 -53 57 -53 24 0 52 44 44 73 -3 12 -3 32 0 44 6 20 7 20 34 5 16 -9 34
-27 39 -39 12 -26 58 -32 79 -11 16 16 15 63 -1 80 -7 7 -14 25 -15 41 -1 20
3 27 16 27 10 0 23 5 29 11 8 8 17 5 33 -11 15 -15 29 -20 46 -16 16 4 44 -4
84 -24 60 -30 61 -31 54 -64 -6 -34 6 -84 34 -141 12 -27 12 -35 -1 -67 -15
-35 -15 -36 17 -62 17 -14 39 -26 49 -26 9 0 17 -7 17 -15 0 -21 45 -48 70
-40 11 3 20 11 20 16 0 5 7 9 15 9 8 0 15 -6 15 -13 0 -38 87 -76 105 -46 4 6
19 7 36 4 24 -5 37 0 75 31 37 31 47 35 55 23 5 -8 9 -17 9 -20 0 -4 13 -12
28 -18 57 -24 109 28 91 92 -12 46 8 79 87 140 60 46 79 56 99 51 16 -4 35 0
51 11 24 16 26 15 45 -9 28 -35 71 -35 98 0 12 15 21 35 21 46 0 14 5 18 18
14 9 -3 49 -8 89 -12 l72 -6 3 -36 c2 -24 11 -41 30 -55 23 -18 30 -18 57 -7
20 8 35 24 43 46 10 28 16 33 33 28 24 -8 19 3 37 -73 15 -63 15 -69 -23 -290
-21 -124 -41 -236 -44 -247 -3 -14 -46 -49 -124 -99 -112 -71 -124 -83 -194
-176 l-75 -100 -6 -117 c-10 -184 -5 -171 -99 -236 l-82 -56 -202 0 c-197 0
-206 -1 -349 -35 l-146 -35 -141 31 c-78 16 -147 32 -154 34 -19 6 -391 -257
-516 -365 -4 -4 19 -98 52 -209 l60 -203 -75 -160 c-42 -88 -72 -164 -67 -168
4 -4 58 -28 118 -54 l111 -47 51 -112 c29 -62 55 -119 58 -128 4 -12 -24 -52
-95 -133 -100 -115 -101 -118 -149 -249 l-48 -132 -63 -12 c-47 -10 -78 -24
-119 -55 -71 -54 -110 -67 -198 -68 -65 0 -94 11 -60 23 6 2 10 6 7 9 -3 2
-24 19 -48 37 l-43 33 -113 -47 c-132 -55 -137 -55 -306 2 -143 48 -204 48
-415 -5 -88 -22 -192 -43 -232 -47 l-71 -7 -46 42 -46 42 -46 -41 c-30 -26
-56 -41 -73 -41 -14 0 -80 -9 -146 -20 -66 -10 -174 -26 -240 -34 -100 -13
-132 -21 -190 -51 -54 -27 -82 -35 -124 -35 -139 0 -266 -146 -265 -305 0 -87
27 -150 144 -330 111 -171 124 -210 170 -494 20 -122 44 -195 71 -217 13 -11
254 -54 393 -70 l59 -7 38 -82 38 -83 73 -6 c60 -6 1185 -79 1778 -116 85 -5
185 -12 223 -16 50 -4 73 -2 90 8 12 8 36 23 52 33 l30 18 -29 -25 c-25 -21
-26 -25 -10 -24 21 1 238 -13 294 -19 19 -2 127 -9 240 -15 972 -50 2068 -37
2929 35 91 8 169 11 175 8 6 -4 2 4 -9 18 -11 14 -5 10 16 -9 l35 -32 130 15
c71 8 237 26 369 40 132 14 502 54 823 89 l584 63 41 41 c39 37 50 43 143 61
118 24 222 55 246 73 10 7 46 99 82 211 84 253 123 336 228 476 119 158 142
206 143 301 0 61 -5 86 -26 131 -32 69 -88 132 -146 166 -42 24 -48 25 -186
22 l-142 -3 -48 34 c-64 47 -161 85 -269 105 -48 10 -86 21 -83 25 3 4 -10 14
-28 21 -17 7 -48 28 -68 46 l-35 32 -51 -45 -52 -44 -188 10 c-260 15 -337 25
-525 67 -142 32 -180 37 -298 37 -110 1 -152 -3 -225 -22 l-91 -23 -83 35
c-45 20 -88 36 -93 36 -18 0 -79 -51 -73 -60 3 -5 -31 8 -77 30 -100 48 -159
60 -292 60 -78 0 -120 -6 -185 -25 -47 -14 -110 -25 -142 -25 -64 0 -98 18
-186 102 -29 27 -69 56 -90 64 -51 22 -164 29 -250 15 -50 -8 -79 -8 -90 -1
-10 6 -130 28 -267 50 -137 22 -251 42 -254 44 -2 3 -8 26 -13 52 -5 27 -13
50 -18 53 -4 4 -81 53 -170 111 -161 104 -162 104 -201 177 -22 39 -40 74 -40
77 0 3 63 62 141 130 l140 125 71 3 71 3 49 140 c27 77 103 253 169 390 l121
250 103 63 c56 34 107 68 113 75 8 10 68 233 97 358 4 14 84 125 178 246 95
121 240 312 324 425 132 180 155 206 183 210 25 4 30 2 24 -11 -16 -38 -14
-58 6 -84 28 -35 81 -38 104 -5 19 27 21 84 4 94 -8 5 -2 11 17 16 18 4 31 4
33 -2 14 -41 54 -61 97 -47 16 6 20 2 21 -19 5 -78 110 -88 137 -12 9 27 -12
76 -36 85 -18 6 -14 8 23 14 76 12 86 11 98 -16 25 -54 113 -48 128 9 5 22 12
25 97 31 64 5 92 4 95 -4 10 -31 41 -54 72 -54 25 0 39 8 64 36 25 30 40 38
77 43 41 6 48 3 76 -25 27 -26 36 -30 64 -24 23 4 30 3 25 -5 -4 -7 -16 -12
-26 -12 -10 0 -22 -4 -25 -10 -4 -6 -55 -10 -121 -10 l-114 0 0 -90 0 -90 123
0 123 0 14 -32 c7 -18 13 -42 12 -52 -3 -30 26 -66 53 -66 30 0 56 36 49 67
-4 13 -4 23 -1 23 3 0 20 -43 38 -95 l34 -95 113 0 113 0 -59 78 c-62 82 -89
126 -49 78 20 -23 31 -28 53 -23 20 3 56 -6 113 -29 47 -19 86 -32 88 -30 2 1
-35 47 -82 100 -47 53 -86 100 -86 104 -1 4 -3 21 -5 39 l-2 32 59 -29 c32
-17 70 -30 84 -30 15 0 25 -6 25 -15 0 -46 45 -85 90 -76 29 6 50 34 50 67 l0
33 111 3 c61 2 113 0 115 -3 2 -4 -3 -12 -11 -19 -37 -30 -7 -104 48 -118 30
-8 32 -11 32 -54 1 -48 14 -73 45 -83 31 -10 34 -41 5 -69 -30 -30 -33 -74 -7
-107 15 -17 28 -22 60 -21 39 2 43 -1 62 -38 11 -22 23 -40 25 -40 3 0 24 11
46 26 l40 25 20 -25 c14 -17 30 -26 50 -26 31 0 69 30 69 55 0 16 1 16 37 20
12 1 28 5 37 8 12 5 16 0 16 -17 0 -24 37 -66 59 -66 9 0 8 -6 -3 -22 -9 -12
-16 -33 -16 -46 0 -30 42 -72 73 -72 33 0 67 40 67 78 0 34 -29 72 -55 72 -12
0 -11 5 3 29 14 25 15 35 5 61 l-12 31 92 -6 c118 -8 122 -10 123 -40 3 -38
32 -65 69 -65 31 0 65 25 65 47 0 11 43 43 58 43 6 0 12 -9 15 -19 2 -10 16
-26 30 -35 33 -22 75 -11 96 25 18 32 40 31 77 -2 29 -27 78 -25 101 5 39 49
183 41 166 -9 -27 -79 53 -143 110 -87 36 37 15 122 -30 122 -8 0 -13 6 -11
13 9 25 119 42 236 36 18 -1 40 5 50 14 21 19 423 88 465 80 15 -3 33 -1 40 5
7 6 43 16 80 22 74 13 74 14 50 76 -6 17 -5 17 17 1 36 -25 58 -21 96 17 40
40 43 72 12 111 -11 15 -22 40 -23 57 -4 42 -33 70 -70 66 -39 -3 -83 30 -107
80 -23 48 -22 50 8 44 61 -11 100 83 52 128 -24 22 -68 26 -86 8 -7 -7 -29
-14 -50 -15 -20 -1 -46 -3 -57 -3 -11 -1 -29 -1 -40 1 -11 1 -33 -2 -50 -6
-29 -8 -30 -8 -12 12 9 11 17 33 17 50 0 26 3 30 23 26 35 -7 77 32 77 71 0
58 -77 101 -109 62 -8 -10 -23 -13 -47 -9 -19 3 -40 1 -48 -6 -9 -8 -21 -8
-40 -1 -17 6 -35 6 -52 0 -14 -6 -35 -10 -48 -10 -41 0 -58 -23 -68 -90 -4
-35 -10 -65 -11 -66 -2 -2 -16 1 -33 5 -16 5 -24 10 -17 10 24 2 43 33 43 70
0 51 -26 75 -77 69 -20 -2 -49 2 -64 9 -34 17 -75 3 -90 -31 -10 -22 -14 -23
-26 -10 -8 8 -23 14 -34 14 -17 0 -19 4 -13 23 20 58 -7 107 -61 107 -34 0
-60 -22 -66 -54 -3 -12 -14 -20 -34 -22 -41 -4 -68 -39 -63 -81 4 -31 2 -33
-28 -33 -18 0 -40 3 -49 6 -14 6 -12 11 11 35 29 30 35 78 14 104 -7 8 -9 18
-7 22 3 5 -1 23 -8 40 -35 82 -156 30 -124 -53 7 -21 5 -36 -12 -70 -11 -24
-25 -44 -29 -44 -21 0 -40 14 -40 29 0 9 -7 27 -16 40 -14 20 -23 23 -60 18
-41 -4 -64 5 -64 27 0 6 5 5 12 -2 18 -18 52 -14 82 9 37 29 35 74 -5 122 -32
39 -62 47 -102 26 -24 -13 -91 -21 -159 -18 -13 1 -34 -2 -48 -6 l-25 -8 23
25 c12 13 22 37 22 52 0 17 4 25 11 21 19 -13 67 16 78 46 11 32 6 54 -17 82
-17 20 -72 23 -90 5 -7 -7 -28 -11 -48 -9 -19 1 -41 -3 -49 -9 -10 -9 -19 -9
-35 0 -15 8 -30 9 -48 2 -15 -5 -38 -10 -52 -10 -14 -1 -35 -13 -48 -27 -19
-23 -22 -36 -19 -96 2 -45 -1 -69 -8 -69 -7 0 -22 -11 -35 -25 -16 -17 -27
-22 -34 -15 -5 5 -21 10 -34 10 -18 0 -22 3 -14 13 5 6 12 23 14 36 2 18 10
25 33 27 50 5 78 58 59 109 -10 24 -55 43 -90 38 -18 -3 -42 0 -54 7 -17 9
-28 9 -51 0 -16 -7 -29 -15 -29 -19 0 -3 -4 -12 -8 -19 -7 -10 -14 -10 -37 2
-16 8 -32 13 -36 10 -4 -2 -2 9 4 26 14 37 0 81 -31 95 -31 14 -28 22 14 40
48 20 47 20 41 -19 l-6 -35 67 43 c37 23 82 48 100 55 17 7 32 17 32 22 0 5
11 7 25 3 29 -7 55 10 55 35 0 9 13 24 29 34 l30 17 3 -32 c2 -27 8 -34 29
-36 15 -2 32 5 44 18 10 11 24 20 31 20 7 0 14 6 16 12 3 9 9 8 22 -5 10 -9
21 -17 26 -17 14 0 40 30 40 46 0 8 4 14 9 14 5 0 28 18 51 40 23 22 54 43 68
47 15 3 38 14 51 24 29 23 48 14 25 -12 -23 -26 -5 -72 28 -67 30 4 46 33 31
57 -10 16 -9 20 2 25 19 7 19 56 0 83 -14 19 -13 21 4 16 13 -3 25 4 36 21
l17 26 24 -25 c20 -21 27 -24 44 -15 11 6 20 20 20 30 0 13 7 20 20 20 27 0
44 34 30 61 -10 18 -18 20 -53 14 -23 -4 -49 -8 -57 -11 -20 -5 -33 5 -47 38
-17 39 -60 65 -83 50 -16 -9 -20 -8 -25 7 -3 11 -27 36 -53 57 -26 21 -51 41
-55 45 -5 4 -4 16 2 27 14 27 -7 55 -40 50 -17 -2 -25 -10 -27 -29 -3 -22 -8
-26 -33 -25 -34 1 -33 0 -16 27 10 18 9 23 -11 39 -13 11 -29 17 -36 14 -15
-6 -46 -57 -46 -77 0 -18 -44 -11 -61 9 -14 17 -45 18 -55 2 -6 -9 -10 -5 -14
12 -5 20 -12 25 -38 25 -23 0 -32 4 -32 16 0 9 -8 27 -18 40 -26 31 -74 30
-110 -3 -47 -45 -154 -108 -183 -108 -21 0 -32 -9 -49 -37 -19 -33 -23 -36
-34 -21 -14 19 -79 22 -113 5 -18 -8 -32 -6 -63 8 -33 15 -45 16 -66 6 -30
-13 -88 -5 -105 15 -6 8 -19 14 -28 14 -9 0 -21 10 -26 23 -18 41 -105 30
-105 -13 0 -22 -24 -26 -50 -10 -12 7 -12 12 -2 22 21 21 14 66 -13 84 -23 15
-27 15 -50 0 -32 -21 -34 -68 -5 -89 18 -13 19 -16 5 -27 -8 -7 -15 -20 -15
-30 0 -26 -24 -31 -39 -8 -9 15 -19 18 -40 13 -23 -5 -31 -1 -45 20 -14 20
-24 25 -61 25 -68 0 -85 -48 -29 -84 29 -20 23 -52 -7 -33 -26 16 -55 -3 -52
-36 1 -19 -4 -27 -22 -31 -17 -4 -28 -17 -34 -39 -7 -26 -9 -27 -10 -9 -1 13
-6 32 -11 43 -7 11 -7 19 -1 19 16 0 72 52 81 76 23 58 -38 118 -93 93 -26
-12 -38 -32 -43 -74 -1 -11 -3 -24 -4 -30 0 -5 -8 3 -16 18 -15 27 -18 29 -62
22 -26 -3 -78 -8 -117 -9 -43 -1 -81 -9 -100 -19 -39 -22 -61 -21 -92 3 -33
26 -61 25 -89 -1 l-23 -21 -22 21 c-47 44 -113 12 -113 -54 0 -29 6 -43 26
-59 l27 -21 -39 -29 c-32 -24 -41 -38 -46 -73 -7 -47 -10 -49 -38 -28 -11 8
-27 15 -36 15 -12 0 -15 8 -12 34 8 66 -72 103 -118 54 -40 -43 -13 -118 43
-121 18 -1 26 -6 22 -15 -3 -8 -5 -20 -5 -27 0 -21 -36 -28 -74 -14 -64 23
-119 -28 -98 -90 7 -20 3 -45 -18 -104 -15 -43 -30 -80 -33 -83 -3 -4 -34 3
-68 15 -34 11 -65 19 -67 16 -10 -10 38 -219 52 -227 12 -7 11 -18 -7 -73 -12
-36 -24 -64 -28 -63 -3 2 -29 28 -56 58 l-50 55 61 318 c60 314 61 319 92 345
29 25 32 33 39 106 11 136 5 127 135 223 l118 88 85 145 84 145 214 48 c203
45 216 47 247 33 18 -9 32 -23 32 -34 0 -25 48 -92 65 -92 8 0 15 -9 15 -20 0
-10 8 -35 17 -55 29 -61 78 -59 106 3 9 21 17 45 17 52 0 10 13 11 52 7 29 -4
54 -11 56 -16 9 -28 46 -61 68 -61 20 0 24 -5 24 -28 0 -17 9 -37 21 -48 19
-17 23 -17 47 -3 36 20 39 79 5 94 -37 16 -29 39 9 31 51 -10 61 -26 44 -66
-32 -77 41 -143 104 -92 12 10 23 31 24 48 2 16 8 39 14 49 10 19 11 19 34 -3
14 -12 31 -22 40 -22 24 0 30 -27 8 -33 -30 -8 -37 -55 -12 -79 26 -27 61 -16
68 22 7 30 43 46 97 41 16 -1 35 3 43 10 20 17 17 56 -6 76 -30 26 -25 50 11
58 17 4 31 5 32 3 1 -1 11 -20 21 -40 11 -21 23 -38 28 -38 18 0 7 -30 -22
-58 -46 -46 -37 -97 21 -127 55 -29 90 4 90 84 -1 64 24 224 28 184 1 -16 30
-43 46 -43 25 0 47 32 41 61 -5 25 -2 27 29 31 29 3 35 0 40 -19 3 -14 16 -25
32 -29 27 -7 26 -8 78 60 14 19 15 19 49 1 28 -15 37 -16 50 -6 8 7 24 10 35
6 11 -3 30 -1 42 5 32 18 46 -3 20 -29 -25 -25 -26 -30 -5 -59 17 -24 43 -29
62 -10 9 9 15 9 24 0 23 -23 59 -14 71 18 7 19 21 33 36 37 13 3 41 17 62 31
46 30 62 81 35 111 -25 28 -2 41 39 22 27 -12 34 -22 35 -43 0 -29 31 -68 53
-68 7 0 32 20 56 44 31 31 42 52 43 75 1 17 7 36 15 42 7 6 13 21 13 33 0 49
-53 62 -88 21 -24 -27 -52 -33 -52 -11 0 7 -6 19 -14 26 -8 6 -16 23 -18 37
-2 14 -15 35 -29 45 -38 28 -77 15 -98 -32 -10 -25 -22 -38 -36 -38 -46 -1
-123 -10 -143 -17 -28 -8 -28 9 -1 36 11 11 19 30 18 42 -2 33 22 85 43 90 10
3 18 0 18 -8 0 -26 41 -65 69 -65 35 0 71 37 71 73 0 23 4 27 29 27 76 0 96
113 25 140 -20 8 -34 6 -57 -5 -17 -8 -39 -13 -49 -9 -10 3 -32 -1 -48 -9 -19
-10 -32 -12 -36 -5 -4 5 -22 7 -43 4 -20 -3 -48 -7 -63 -9 -45 -5 -65 -32 -72
-98 -6 -47 -4 -66 8 -84 22 -33 21 -35 -14 -35 -32 0 -70 -30 -70 -56 0 -8 -5
-24 -10 -35 -9 -16 -14 -17 -30 -7 -18 11 -21 26 -21 91 0 64 3 75 22 70 25
-7 77 15 89 38 17 31 11 74 -13 97 -25 24 -48 27 -77 12 -13 -7 -21 -6 -30 5
-18 21 -62 18 -88 -5 -12 -12 -22 -25 -22 -29 0 -5 -11 -4 -25 2 -33 16 -32
20 10 40 34 16 35 18 35 78 0 53 2 60 15 49 8 -7 24 -10 34 -7 13 3 21 -1 24
-14 6 -24 45 -25 54 -3 8 22 -10 50 -30 46 -9 -1 -17 6 -19 19 -4 32 -33 47
-58 31 -19 -11 -20 -10 -20 31 0 39 3 43 23 43 17 -1 23 5 25 26 3 22 -2 30
-21 37 -27 10 -33 29 -42 121 -3 35 -11 57 -21 63 -14 8 -13 12 7 33 19 20 22
35 22 94 0 82 -17 110 -68 110 -52 0 -69 -28 -68 -111 1 -39 6 -76 12 -82 15
-15 14 -44 -3 -50 -7 -3 -17 -23 -21 -44 -10 -44 -10 -40 0 -73 7 -24 7 -24
-11 -9 -11 9 -33 21 -50 28 -23 9 -30 17 -27 31 3 10 11 21 19 24 17 7 18 40
2 54 -7 5 -32 13 -55 17 -24 4 -45 11 -49 16 -10 17 -43 9 -55 -13 -7 -12 -21
-30 -32 -39 -15 -11 -18 -21 -12 -35 14 -33 13 -94 -2 -94 -7 0 -13 9 -13 19
0 11 -7 27 -16 36 -13 12 -14 19 -5 28 25 25 -4 107 -39 107 -25 0 -46 -36
-30 -55 8 -10 7 -22 -3 -46 l-13 -33 -22 37 c-12 20 -19 43 -16 51 5 14 -20
46 -36 46 -5 0 -15 -7 -24 -15 -13 -14 -13 -20 0 -56 17 -49 18 -75 3 -84 -6
-4 -10 -1 -8 6 6 50 -24 89 -69 89 -29 0 -54 -20 -65 -53 -4 -10 -11 -15 -17
-12 -15 9 -12 32 5 39 20 7 19 40 -1 57 -19 15 -47 2 -53 -26 -6 -35 -35 -52
-94 -57 -41 -3 -61 -1 -69 9 -6 7 -19 11 -29 8 -10 -4 -21 1 -27 10 -13 24
-56 16 -60 -11 -2 -11 4 -27 13 -34 21 -17 19 -27 -7 -33 -13 -2 -31 -8 -40
-11 -12 -6 -17 -2 -20 16 -3 26 -32 36 -53 18 -9 -7 -15 -29 -15 -51 0 -44 33
-75 66 -62 17 6 17 5 5 -10 -7 -9 -11 -26 -8 -36 7 -27 -12 -47 -50 -54 -38
-7 -52 7 -23 23 36 19 24 56 -16 51 -6 -1 -9 11 -6 28 5 36 -34 81 -71 81 -47
0 -89 -84 -58 -116 6 -5 14 -28 19 -51 9 -41 9 -43 -12 -37 -11 2 -30 -2 -40
-9 -15 -11 -27 -12 -48 -5 -15 6 -28 13 -28 16 0 3 17 24 38 45 29 31 33 38
15 33 -16 -5 -23 -2 -28 14 -15 48 -88 45 -101 -5 -5 -19 -13 -25 -33 -25 -15
0 -32 -5 -39 -12 -9 -9 -13 -7 -18 6 -10 27 -59 47 -87 37 -31 -12 -39 -25
-47 -71 -4 -26 -11 -36 -28 -38 -18 -3 -22 1 -22 26 0 31 -26 62 -53 62 -8 0
-24 -11 -35 -25 -26 -33 -42 -32 -42 5 0 63 -75 93 -118 47 -12 -13 -22 -34
-22 -48 0 -30 26 -69 46 -69 8 0 14 -6 14 -14 0 -9 -9 -12 -27 -9 l-28 4 30
-17 c29 -17 29 -17 6 -25 -16 -6 -27 -4 -37 6 -22 22 -41 19 -70 -11 -26 -25
-40 -26 -107 -7 -18 5 -18 6 2 24 23 21 28 68 11 100 -9 16 -7 19 8 19 31 0
54 24 64 71 21 97 21 106 -2 129 -20 20 -28 21 -79 15 -36 -4 -64 -14 -78 -28
-29 -26 -30 -77 -3 -102 11 -10 20 -23 20 -28 0 -6 7 -19 17 -29 15 -17 15
-18 -7 -18 -13 0 -34 -10 -47 -22 l-23 -22 16 33 c15 31 15 36 1 67 -11 22
-26 36 -44 40 -15 4 -38 14 -50 21 -27 18 -71 10 -108 -18 -47 -38 -22 -129
36 -129 32 0 17 -24 -21 -31 -18 -4 -41 -17 -50 -29 -15 -20 -23 -22 -66 -15
-49 7 -49 7 -22 21 78 41 33 166 -51 139 -33 -10 -56 -62 -42 -93 7 -13 10
-26 8 -28 -2 -2 -39 9 -83 26 -55 20 -71 29 -51 30 58 1 87 73 48 121 -15 19
-28 23 -79 23 -75 1 -97 -16 -97 -73 0 -30 9 -47 42 -85 25 -28 39 -53 36 -62
-4 -12 -8 -11 -20 6 -12 17 -24 21 -54 19 -36 -3 -50 5 -147 77 l-107 80 -28
115 c-23 95 -27 126 -21 187 7 70 19 95 26 50 2 -17 10 -23 28 -23 21 0 25 5
25 30 1 51 14 74 43 77 22 2 28 9 30 35 4 39 -24 60 -53 39 -13 -9 -25 -10
-51 -2 -43 14 -43 24 -2 28 27 2 37 11 63 55 21 38 34 51 45 46 8 -3 33 -8 55
-9 22 -2 55 -6 73 -10 41 -8 72 16 72 56 0 42 29 47 58 10 47 -61 131 -26 120
50 -3 23 -1 30 12 30 27 0 58 29 65 59 4 21 11 28 21 24 8 -3 25 2 39 11 22
15 27 15 58 0 29 -14 32 -20 29 -48 -7 -64 69 -105 117 -62 19 17 20 17 23 -5
4 -31 45 -51 72 -37 42 22 49 65 16 98 -23 23 -13 26 25 8 16 -7 25 -19 25
-33 0 -37 32 -66 80 -75 75 -14 110 24 84 90 -18 43 -39 60 -78 61 -30 1 -30
1 6 10 20 5 68 10 105 11 63 3 68 2 64 -17 -14 -77 6 -256 31 -281 24 -24 78
-21 100 6 25 30 23 63 -6 97 -26 31 -27 45 -8 80 18 32 15 78 -7 97 -15 14
-18 23 -11 41 5 13 6 26 3 29 -4 3 5 6 18 6 14 0 31 6 37 12 7 7 27 13 44 14
57 3 86 64 53 111 -17 25 -13 28 56 38 39 6 45 4 54 -16 6 -13 23 -27 39 -32
36 -12 79 17 86 59 5 28 7 29 168 64 134 30 162 34 156 21 -18 -43 -16 -70 9
-95 15 -14 35 -26 45 -26 27 0 72 38 72 61 0 10 4 19 9 19 5 0 52 -20 106 -45
56 -26 105 -43 115 -40 10 3 21 1 25 -5 4 -6 18 -15 31 -20 35 -14 71 7 86 46
9 25 22 38 51 49 22 9 40 15 41 13 1 -2 11 -24 24 -51 25 -53 57 -72 96 -57
14 5 30 19 37 32 6 13 13 24 14 26 2 2 22 -2 44 -9 29 -9 43 -19 47 -35 19
-74 134 -72 134 3 0 20 5 23 35 23 19 0 35 3 35 8 -1 4 -27 36 -60 72 l-58 64
24 23 c15 14 24 33 24 53 0 27 3 30 30 30 43 0 70 31 70 81 0 23 5 59 12 81
14 48 8 54 -74 63 -51 6 -60 11 -73 35 -9 18 -12 41 -9 59 9 42 -15 74 -65 89
-38 12 -45 11 -102 -18 -33 -17 -63 -29 -65 -27 -2 2 8 42 22 90 21 65 32 88
50 96 26 12 39 48 31 89 -3 16 1 35 9 46 34 48 1 106 -61 106 -23 0 -35 5 -35
14 0 7 -3 27 -6 44 -6 31 -6 31 29 25 29 -4 40 -1 61 20 16 16 26 37 26 55 0
29 -26 62 -48 62 -15 0 -15 13 0 28 14 14 21 8 -77 64 l-81 46 -112 -23 c-62
-12 -116 -25 -119 -29 -4 -4 -2 -25 4 -49 14 -51 10 -60 -22 -45 -33 15 -80
-5 -95 -41 -15 -36 1 -77 36 -93 22 -10 31 -9 56 5 27 16 33 16 53 3 13 -8 25
-28 27 -46 4 -25 0 -33 -21 -43 -35 -17 -52 -53 -40 -86 6 -14 16 -29 22 -33
9 -5 9 -10 -1 -20 -6 -6 -12 -20 -12 -30 0 -12 -28 -36 -81 -70 -44 -28 -78
-56 -76 -62 2 -6 10 -35 17 -64 16 -61 9 -73 -41 -77 -18 -2 -38 -10 -44 -18
-7 -10 -20 -13 -38 -10 -16 3 -37 -1 -52 -11 -13 -9 -33 -16 -43 -16 -34 0
-52 -32 -51 -91 2 -65 21 -107 54 -115 38 -9 30 -24 -9 -17 -29 4 -39 1 -62
-22 -16 -16 -49 -35 -74 -43 -57 -18 -130 -22 -130 -7 0 7 13 9 34 7 59 -7 95
53 66 109 -10 17 -8 18 15 9 70 -27 120 63 67 123 -17 19 -72 23 -88 7 -8 -8
-19 -7 -37 1 -36 16 -74 -1 -91 -42 -8 -19 -16 -27 -20 -20 -4 6 -20 11 -35
11 -25 0 -27 3 -23 34 3 27 -2 40 -22 60 -14 14 -34 26 -46 26 -29 0 -70 -44
-70 -75 0 -18 -5 -25 -19 -25 -11 0 -29 -12 -40 -26 -19 -24 -21 -25 -45 -9
-13 9 -34 36 -45 60 -39 83 -106 98 -138 31 -14 -29 -14 -37 -2 -62 17 -34 17
-79 0 -115 -9 -18 -10 -40 -3 -77 5 -29 7 -52 3 -52 -3 0 -80 -11 -171 -25
l-165 -24 -135 21 c-74 12 -136 23 -138 24 -6 4 26 60 42 73 10 8 16 29 16 52
0 27 4 39 14 39 21 0 46 40 46 72 0 64 -92 95 -126 43 -9 -14 -14 -36 -11 -50
3 -21 -1 -29 -24 -41 -16 -8 -29 -21 -29 -29 0 -9 -10 -15 -25 -15 -14 0 -34
-9 -45 -20 l-20 -20 -30 21 c-26 20 -32 21 -60 9 -47 -19 -59 -90 -20 -122 11
-9 20 -18 20 -21 0 -3 -19 -10 -42 -15 -24 -5 -78 -21 -120 -35 -72 -23 -78
-23 -78 -7 0 24 -24 42 -52 38 -26 -3 -38 -49 -18 -73 10 -12 7 -17 -14 -26
-29 -14 -64 4 -92 46 -9 14 -23 25 -32 25 -12 0 -11 5 6 23 15 15 22 36 22 61
0 24 36 122 107 291 l107 255 88 0 c48 0 88 -2 88 -5 0 -3 -5 -14 -12 -24 -16
-26 -3 -53 24 -49 17 2 24 11 26 31 2 17 -1 27 -10 27 -8 0 -7 4 4 11 11 6
116 9 275 7 255 -3 259 -3 287 20 33 25 56 29 56 8 0 -22 29 -27 59 -11 l28
14 -5 -47 c-2 -26 -12 -55 -20 -65 -13 -15 -14 -22 -3 -39 17 -27 8 -33 -21
-15 -25 16 -181 21 -208 7 -9 -5 -23 -4 -33 1 -11 7 -24 6 -39 -2 -30 -16 -38
-28 -38 -60 0 -36 23 -53 62 -45 18 3 38 6 43 6 6 -1 50 -3 100 -6 49 -3 92
-7 94 -10 3 -2 -1 -10 -7 -16 -23 -23 -14 -68 20 -100 l31 -29 -27 7 c-19 4
-33 1 -46 -11 -25 -23 -36 -14 -18 14 11 18 11 26 -2 49 -14 24 -22 27 -72 29
-68 3 -92 -14 -85 -60 3 -21 -3 -36 -20 -53 -30 -30 -29 -69 2 -99 31 -32 70
-32 117 0 32 22 41 23 63 13 19 -9 31 -8 49 2 21 11 28 10 52 -9 35 -27 59
-27 89 4 28 27 32 62 11 90 -9 13 -12 42 -10 96 2 44 -1 81 -6 84 -7 4 -7 13
0 25 17 31 11 57 -16 79 -16 13 -21 21 -13 22 23 1 49 7 67 15 9 4 25 6 35 5
25 -3 47 17 47 45 0 22 -58 94 -76 94 -6 0 -15 14 -22 32 -9 25 -9 34 1 40 20
13 26 9 29 -18 7 -63 71 -55 76 9 3 32 6 35 30 34 19 -1 30 4 37 21 11 25 25
28 43 10 15 -15 16 -53 2 -79 -14 -25 4 -59 30 -59 11 0 20 -6 20 -14 0 -7 7
-19 15 -26 12 -10 18 -10 30 0 21 18 19 51 -4 57 -12 3 -17 11 -14 19 3 8 0
21 -7 29 -7 9 -10 18 -7 21 9 9 65 -37 70 -57 3 -12 14 -19 29 -19 13 0 29 -5
35 -11 8 -8 7 2 -2 27 -7 22 -20 40 -28 42 -12 3 -87 102 -87 116 0 2 13 7 30
11 16 4 32 11 36 16 9 16 82 49 107 49 29 0 67 39 67 68 0 16 6 22 23 22 32 0
67 40 67 76 0 36 -36 74 -69 74 -28 0 -71 -42 -71 -70 0 -13 -7 -20 -18 -20
-10 0 -27 -7 -38 -15 -10 -8 -33 -15 -50 -15 -37 0 -64 -27 -64 -62 0 -20 -6
-27 -27 -31 -38 -7 -49 2 -23 20 38 27 44 62 19 114 -12 26 -32 52 -45 58 -43
19 -94 -14 -94 -63 l0 -30 -29 40 c-21 28 -30 53 -32 92 -4 49 2 64 16 42 11
-18 61 -11 83 13 29 31 29 77 -1 105 -25 23 -66 29 -83 12 -8 -8 -15 -6 -24 5
-7 8 -23 15 -35 15 -17 0 -32 14 -55 50 -37 57 -72 80 -124 80 -34 0 -35 1
-29 34 4 29 1 37 -20 51 -33 21 -65 12 -73 -21 -3 -13 -12 -24 -18 -24 -17 0
-161 59 -280 114 -54 25 -101 46 -105 45 -3 0 -40 -20 -81 -44z m-565 -305 c3
-5 2 -10 -4 -10 -5 0 -13 5 -16 10 -3 6 -2 10 4 10 5 0 13 -4 16 -10z m-655
-331 c-6 -11 -10 -28 -8 -37 2 -9 -9 -28 -25 -41 -24 -20 -30 -22 -42 -10 -21
22 -8 69 20 69 12 0 30 9 40 20 23 26 29 25 15 -1z m1770 -185 c-12 -13 -40
-9 -40 6 0 11 22 18 38 12 9 -3 10 -8 2 -18z m66 10 c-9 -8 -20 -12 -26 -9
-19 12 -10 25 16 25 23 0 24 -1 10 -16z m-389 -36 c-14 -7 -17 -17 -12 -39 8
-35 -13 -40 -33 -9 -10 17 -19 20 -47 14 -28 -5 -35 -3 -35 9 0 22 15 29 79
36 62 8 75 5 48 -11z m153 12 c0 -5 -5 -10 -11 -10 -5 0 -7 5 -4 10 3 6 8 10
11 10 2 0 4 -4 4 -10z m-79 -12 c31 -16 29 -68 -2 -68 -10 0 -20 3 -20 8 -1 4
-3 18 -4 31 -1 13 -9 27 -16 32 -23 14 14 11 42 -3z m154 -27 c-3 -6 -14 -11
-23 -11 -13 0 -13 2 4 14 21 15 30 14 19 -3z m-1087 -116 c-3 -3 -9 2 -12 12
-6 14 -5 15 5 6 7 -7 10 -15 7 -18z m-1978 -21 c0 -8 -4 -12 -10 -9 -5 3 -10
10 -10 16 0 5 5 9 10 9 6 0 10 -7 10 -16z m1830 1 c0 -8 -7 -15 -16 -15 -14 0
-14 3 -4 15 7 8 14 15 16 15 2 0 4 -7 4 -15z m1514 -20 c3 -8 1 -15 -3 -15 -5
0 -11 7 -15 15 -3 8 -1 15 3 15 5 0 11 -7 15 -15z m-1411 -105 c22 0 22 -29 0
-60 -15 -20 -19 -54 -23 -184 l-5 -160 -98 -29 -98 -29 -57 49 c-31 26 -109
94 -174 149 l-117 102 -155 38 c-86 20 -156 41 -156 45 0 4 18 5 39 2 35 -5
43 -2 68 25 44 48 67 53 205 39 l123 -13 -3 -33 c-4 -40 29 -81 67 -81 34 0
71 37 71 71 0 32 35 46 60 24 21 -19 74 -19 89 -1 7 8 21 12 31 9 25 -7 66 20
75 47 6 20 8 20 24 6 10 -9 25 -16 34 -16z m-1776 -77 c5 -13 -51 -28 -68 -17
-9 5 -6 11 7 21 21 16 56 14 61 -4z m3533 -293 c10 0 28 8 41 19 27 22 48 18
71 -14 19 -25 15 -55 -7 -55 -22 0 -48 -38 -43 -65 6 -28 3 -30 -94 -40 -54
-6 -58 -5 -58 14 0 34 -22 71 -47 77 -16 4 -22 12 -19 21 3 8 6 25 6 39 0 20
4 23 28 18 19 -4 32 -1 41 10 12 14 16 14 38 -4 14 -11 34 -20 43 -20z m-1040
-80 c0 -5 -5 -10 -11 -10 -5 0 -7 5 -4 10 3 6 8 10 11 10 2 0 4 -4 4 -10z
m-74 -425 c-10 -8 -23 -12 -29 -8 -11 7 12 23 33 23 12 -1 11 -4 -4 -15z
m-126 -42 c0 -28 -8 -28 -37 -4 -30 25 -29 28 7 27 24 -1 30 -5 30 -23z
m-1183 -303 c13 0 13 -3 3 -15 -12 -14 -11 -29 5 -69 7 -15 5 -17 -14 -11 -12
4 -28 2 -35 -4 -11 -9 -113 -41 -130 -41 -2 0 -1 10 1 23 6 31 -21 55 -42 37
-29 -24 -32 1 -4 30 30 29 47 31 79 5 46 -37 108 -17 82 26 -9 15 -10 25 -1
40 l11 21 14 -21 c9 -12 22 -21 31 -21z m83 0 c8 -16 8 -20 -3 -20 -18 0 -39
24 -30 33 11 12 22 8 33 -13z m-397 -81 c-4 -4 -21 -5 -36 -2 -17 3 -24 9 -17
13 15 9 64 0 53 -11z m445 -121 c-2 -6 -10 -14 -16 -16 -7 -2 -10 2 -6 12 7
18 28 22 22 4z m-24 -84 c3 -8 2 -12 -4 -9 -6 3 -10 10 -10 16 0 14 7 11 14
-7z m256 12 c0 -3 -4 -8 -10 -11 -5 -3 -10 -1 -10 4 0 6 5 11 10 11 6 0 10 -2
10 -4z m3182 -310 c15 -26 -15 -30 -56 -6 -20 12 -36 24 -36 26 0 12 84 -6 92
-20z m-4382 -106 c0 -5 -25 -10 -56 -10 -34 0 -53 4 -49 10 3 6 28 10 56 10
27 0 49 -4 49 -10z m4864 -319 c-3 -16 -1 -38 5 -50 9 -17 8 -29 -6 -58 -9
-21 -16 -50 -14 -64 3 -30 -24 -79 -44 -79 -7 0 -11 9 -8 24 4 17 -2 28 -19
40 l-23 17 28 22 c45 38 30 77 -30 77 -62 0 -79 -66 -25 -100 15 -10 15 -11
-3 -4 -11 4 -29 7 -40 8 -11 0 -28 10 -38 23 -23 29 -34 29 -80 -2 -44 -31
-50 -66 -13 -90 25 -16 70 -8 78 15 2 6 10 3 19 -8 15 -17 14 -22 -18 -68 -25
-36 -32 -56 -29 -76 5 -27 5 -28 -44 -28 -53 0 -64 13 -48 60 12 33 2 67 -22
75 -24 7 -37 52 -21 68 6 6 11 19 11 28 0 9 11 24 25 33 16 10 25 26 25 41 0
17 6 25 18 25 10 0 28 9 40 20 21 19 25 20 75 7 45 -12 58 -12 78 -1 13 7 32
13 41 14 10 0 32 13 50 30 18 16 34 30 35 30 1 0 0 -13 -3 -29z m-606 -16 c13
-29 52 -34 72 -10 7 8 25 15 41 15 15 0 31 5 34 10 3 6 19 10 34 10 20 0 31
-7 39 -25 15 -33 15 -35 -4 -35 -9 0 -21 -13 -27 -30 -13 -33 -32 -42 -22 -10
9 29 -20 70 -50 70 -24 0 -55 -32 -55 -58 0 -7 11 -24 24 -37 20 -20 21 -25 8
-30 -8 -3 -22 1 -32 10 -33 30 -61 15 -74 -37 -3 -16 -10 -28 -15 -28 -5 0
-16 -7 -25 -15 -13 -14 -18 -13 -40 10 -32 31 -66 32 -95 1 -16 -17 -22 -33
-19 -57 2 -27 -3 -39 -23 -56 -15 -13 -37 -23 -50 -23 -21 1 -20 2 9 15 57 25
64 107 10 136 -16 9 -17 13 -7 25 7 9 21 13 34 10 11 -3 32 1 47 8 22 12 27
11 41 -4 20 -23 93 -36 112 -20 16 13 19 47 7 67 -4 7 -19 14 -32 16 -13 2
-30 13 -37 24 -13 19 -11 23 29 46 54 32 53 32 66 2z m-453 -150 c50 -23 61
-24 91 -13 42 15 54 5 23 -20 -32 -27 -32 -87 0 -113 13 -11 18 -19 11 -19 -7
0 -21 11 -32 25 -13 16 -29 25 -48 25 -24 0 -34 9 -66 63 -46 77 -46 77 -41
77 3 0 30 -11 62 -25z m1135 -95 c12 -8 11 -10 -7 -10 -13 0 -23 5 -23 10 0
13 11 13 30 0z m144 -45 c3 -10 -1 -18 -12 -21 -9 -3 -29 -12 -44 -20 -16 -8
-28 -11 -28 -5 0 5 -3 16 -6 24 -4 10 2 15 21 15 15 0 32 5 38 11 15 15 24 14
31 -4z m-857 -10 c0 -8 -4 -15 -9 -15 -10 0 -11 14 -1 23 9 10 10 9 10 -8z
m-84 -33 c-3 -12 -9 -22 -14 -22 -14 0 -11 38 4 43 16 6 17 5 10 -21z m622
-42 c3 -5 -1 -10 -9 -10 -9 0 -16 5 -16 10 0 6 4 10 9 10 6 0 13 -4 16 -10z
m683 -18 c-36 -10 -49 -19 -54 -37 -3 -13 -13 -26 -21 -30 -27 -10 -26 2 1 32
14 15 26 31 26 35 0 5 9 8 19 8 11 0 22 4 25 9 3 5 16 6 29 3 18 -5 14 -8 -25
-20z m-1438 -677 c-7 -8 -17 -12 -22 -9 -5 3 -1 12 9 19 22 17 30 11 13 -10z
m-80 -165 c0 -13 -7 -20 -20 -20 -25 0 -25 9 -2 26 22 17 22 17 22 -6z m-29
-170 c26 -15 26 -66 -1 -75 -32 -10 -43 -42 -35 -102 6 -51 6 -54 -12 -43 -14
9 -18 21 -15 45 2 18 -1 41 -6 51 -14 26 7 122 27 127 9 3 17 5 19 6 2 0 12
-4 23 -9z m999 -109 c0 -10 -10 -25 -21 -33 -25 -16 -29 -60 -7 -86 11 -14 12
-24 3 -50 -6 -18 -14 -30 -18 -26 -11 12 -64 -16 -75 -40 -5 -12 -8 -43 -5
-69 3 -26 3 -47 -1 -47 -3 0 -24 11 -46 25 l-41 26 27 34 c21 28 25 41 20 67
-4 18 -9 47 -12 65 -8 43 -38 73 -74 73 -23 0 -30 4 -30 20 0 26 6 28 131 44
146 19 149 19 149 -3z m-626 -81 c45 -53 72 -78 79 -71 6 6 18 4 33 -6 19 -12
30 -13 59 -3 43 14 59 41 52 86 -7 41 7 44 35 9 11 -14 27 -25 36 -25 14 0 17
-10 17 -51 0 -61 -21 -80 -59 -55 -33 21 -92 22 -149 3 -26 -10 -58 -17 -71
-17 -19 0 -22 4 -18 30 7 45 -21 80 -63 80 -20 0 -41 -8 -52 -19 -10 -10 -28
-22 -40 -25 -24 -8 -36 -34 -37 -81 -1 -28 -3 -30 -81 -45 -44 -9 -92 -20
-107 -23 -16 -4 -28 -3 -28 2 0 4 14 11 30 15 19 3 34 15 42 31 6 14 17 25 24
25 18 0 44 40 44 67 0 14 6 23 15 23 9 0 27 12 42 26 22 22 24 31 19 65 l-6
39 57 0 58 0 69 -80z m-5574 5 c0 -9 -6 -12 -15 -9 -8 4 -15 10 -15 15 0 5 7
9 15 9 8 0 15 -7 15 -15z m5044 -79 c-3 -13 -1 -33 5 -44 7 -14 8 -23 1 -27
-17 -11 -32 38 -21 68 13 33 24 36 15 3z m-432 -106 c26 0 26 -1 12 -29 -13
-26 -13 -34 0 -65 20 -48 56 -57 113 -26 45 24 65 22 43 -5 -11 -13 -260 -155
-273 -155 -3 0 -7 16 -9 35 -3 25 0 34 8 31 12 -5 14 8 30 162 6 59 8 63 28
58 11 -3 33 -6 48 -6z m-6148 -25 c17 -17 21 -27 13 -32 -15 -9 -47 -12 -73
-6 -20 4 -20 5 5 33 14 16 27 29 28 30 1 0 13 -11 27 -25z m7786 16 c0 -6 -5
-13 -11 -17 -6 -3 -9 -22 -7 -40 2 -19 1 -34 -3 -34 -8 0 -19 81 -13 92 7 11
34 10 34 -1z m-1395 -71 c3 -5 -1 -10 -10 -10 -9 0 -13 5 -10 10 3 6 8 10 10
10 2 0 7 -4 10 -10z m-472 -106 c13 -5 13 -8 -4 -25 -26 -26 -24 -62 6 -97
l24 -29 -27 -14 c-15 -7 -30 -15 -34 -17 -5 -2 -8 39 -8 92 0 99 3 106 43 90z
m2437 -88 c0 -3 -4 -8 -10 -11 -5 -3 -10 -1 -10 4 0 6 5 11 10 11 6 0 10 -2
10 -4z m-2442 -168 c10 -18 28 -38 40 -44 22 -11 22 -12 -17 -16 -44 -4 -51 5
-51 71 0 39 5 37 28 -11z m3336 8 c-12 -39 -24 -41 -24 -3 0 29 3 35 15 31 11
-4 13 -13 9 -28z m-3009 -27 c11 -1 0 -5 -24 -10 -48 -9 -57 -7 -46 11 4 7 17
9 29 6 11 -3 30 -6 41 -7z m-5759 -24 c-1 -29 -26 -34 -26 -6 0 11 6 22 13 24
6 3 13 6 13 6 1 1 1 -10 0 -24z m5548 -6 c-31 -12 -40 -9 -20 6 10 8 24 11 29
8 6 -4 2 -10 -9 -14z m3779 -45 c28 -10 20 -21 -13 -16 -18 2 -30 10 -30 19 0
8 6 12 13 9 6 -3 20 -9 30 -12z m-3913 -158 c0 -3 -4 -8 -10 -11 -5 -3 -10 -1
-10 4 0 6 5 11 10 11 6 0 10 -2 10 -4z m4328 -229 c7 -8 9 -29 5 -52 l-6 -38
-17 44 c-9 24 -15 47 -13 52 6 11 19 9 31 -6z"/>
<path d="M6193 11320 c-24 -10 -43 -39 -43 -68 0 -33 38 -72 71 -72 66 0 95
88 43 129 -29 23 -38 24 -71 11z"/>
<path d="M8310 11312 c-32 -10 -50 -36 -50 -72 0 -81 100 -103 131 -29 22 54
-29 118 -81 101z"/>
<path d="M8641 11168 c-6 -7 -29 -14 -49 -15 -211 -9 -226 -13 -245 -51 -17
-34 -20 -117 -6 -144 24 -45 101 -38 122 11 19 42 47 55 47 22 0 -23 45 -61
72 -61 27 0 68 45 68 75 0 21 5 25 29 25 41 0 75 43 67 85 -10 53 -73 84 -105
53z"/>
<path d="M5816 11104 c-30 -30 -14 -84 25 -84 23 0 49 27 49 50 0 22 -25 50
-45 50 -7 0 -21 -7 -29 -16z"/>
<path d="M5986 11099 c-22 -32 -6 -63 33 -67 25 -3 33 2 42 21 24 54 -41 94
-75 46z"/>
<path d="M4161 10864 c-28 -35 -26 -69 4 -99 30 -30 54 -31 89 -4 19 15 26 30
26 55 0 69 -78 101 -119 48z"/>
<path d="M8758 10781 c-25 -22 -32 -36 -32 -66 0 -72 72 -99 125 -46 37 37 40
90 7 121 -30 28 -62 25 -100 -9z"/>
<path d="M4170 10682 c-18 -14 -21 -25 -16 -45 7 -31 48 -46 71 -27 22 18 19
67 -4 80 -25 13 -25 13 -51 -8z"/>
<path d="M8522 10628 c-34 -34 6 -90 48 -68 35 19 20 80 -20 80 -9 0 -21 -5
-28 -12z"/>
<path d="M4387 10532 c-22 -24 -21 -45 1 -65 35 -32 72 -14 72 35 0 17 -7 31
-19 38 -27 14 -35 13 -54 -8z"/>
<path d="M8242 10468 c-27 -27 2 -84 38 -75 9 2 22 -4 29 -14 15 -24 38 -24
51 0 12 23 -12 54 -35 45 -11 -5 -15 1 -15 19 0 34 -43 50 -68 25z"/>
<path d="M7391 10354 c-12 -15 -21 -37 -21 -49 0 -35 37 -75 69 -75 62 0 94
85 48 128 -32 30 -71 28 -96 -4z"/>
<path d="M7617 10364 c-13 -13 -7 -52 9 -58 22 -9 46 13 42 38 -3 21 -37 34
-51 20z"/>
<path d="M7785 10330 c-8 -27 1 -40 30 -40 27 0 36 17 23 43 -12 23 -45 22
-53 -3z"/>
<path d="M8840 10290 c-30 -30 -27 -83 6 -109 15 -12 35 -21 46 -21 27 0 68
45 68 75 0 33 -42 75 -75 75 -14 0 -34 -9 -45 -20z"/>
<path d="M8416 10274 c-21 -21 -20 -57 2 -77 23 -21 46 -22 66 -1 32 32 10 94
-34 94 -10 0 -26 -7 -34 -16z"/>
<path d="M7245 10205 c-29 -28 -31 -45 -10 -84 36 -70 125 -45 125 34 0 69
-68 98 -115 50z"/>
<path d="M4651 10111 c-6 -11 -11 -26 -11 -35 0 -21 37 -45 61 -39 23 6 36 49
22 72 -15 25 -60 26 -72 2z"/>
<path d="M4959 10064 c-7 -9 -18 -24 -24 -34 -5 -9 -18 -29 -29 -44 -21 -30
-16 -66 14 -96 25 -25 51 -25 83 0 24 19 26 27 25 93 0 40 -5 78 -10 85 -14
17 -43 15 -59 -4z"/>
<path d="M7022 10040 c-22 -9 -42 -46 -42 -76 0 -8 21 -37 48 -63 44 -45 51
-49 108 -55 78 -7 114 15 114 70 0 49 -30 75 -81 72 -33 -2 -44 3 -62 24 -26
31 -53 40 -85 28z"/>
<path d="M5380 9920 c-44 -44 -12 -123 50 -123 22 0 39 7 52 22 39 50 9 121
-52 121 -17 0 -39 -9 -50 -20z"/>
<path d="M10035 9609 c-27 -24 -35 -39 -35 -65 0 -71 73 -98 122 -46 33 35 41
64 27 95 -10 23 -46 47 -69 47 -5 0 -25 -14 -45 -31z"/>
<path d="M5355 9395 c-14 -13 -25 -36 -25 -50 0 -32 41 -75 72 -75 68 0 95 87
42 129 -35 27 -59 26 -89 -4z"/>
<path d="M6112 9360 c-47 -11 -72 -37 -72 -75 0 -40 32 -75 69 -75 20 0 38 11
64 42 40 45 46 77 21 102 -17 17 -31 18 -82 6z"/>
<path d="M8310 9246 c-41 -44 -24 -106 29 -106 53 0 94 83 59 118 -20 20 -63
14 -88 -12z"/>
<path d="M7675 9185 c-32 -31 -31 -56 1 -94 46 -55 118 -28 118 44 0 69 -71
99 -119 50z"/>
<path d="M4103 9188 c-44 -21 -53 -87 -17 -123 24 -23 80 -19 98 7 45 64 -14
148 -81 116z"/>
<path d="M7366 9179 c-18 -14 -26 -30 -26 -53 0 -25 -6 -34 -27 -44 -98 -44
-123 -66 -123 -109 0 -41 30 -73 68 -73 16 0 37 9 47 20 10 11 26 20 35 20 34
0 64 35 64 74 0 27 4 36 17 36 22 0 59 46 59 72 0 23 -52 78 -73 78 -8 0 -26
-9 -41 -21z"/>
<path d="M7025 9095 c-14 -13 -25 -35 -25 -48 0 -24 55 -107 70 -107 5 0 -2
-11 -15 -25 -14 -13 -25 -36 -25 -50 0 -33 42 -75 75 -75 60 0 86 79 41 125
-18 18 -21 25 -10 29 21 8 37 51 31 78 -9 34 -71 98 -96 98 -12 0 -33 -11 -46
-25z"/>
<path d="M7520 9069 c-26 -27 -30 -39 -28 -72 6 -79 88 -100 129 -33 35 58 16
118 -43 132 -23 5 -33 0 -58 -27z"/>
<path d="M3560 8960 c-30 -30 -27 -83 6 -109 35 -27 59 -26 89 4 30 30 32 64
4 99 -25 32 -70 35 -99 6z"/>
<path d="M7995 8770 c-28 -31 -24 -79 9 -107 65 -55 148 44 90 108 -23 25 -76
25 -99 -1z"/>
<path d="M9210 8745 c-26 -31 13 -82 44 -56 19 16 21 42 4 59 -16 16 -33 15
-48 -3z"/>
<path d="M3636 8714 c-19 -18 -20 -28 -6 -55 14 -26 56 -25 70 2 9 16 8 26 -5
45 -18 28 -37 31 -59 8z"/>
<path d="M7398 8693 c-23 -28 -28 -50 -17 -82 21 -60 111 -61 126 -2 16 58
-11 101 -62 101 -18 0 -38 -8 -47 -17z"/>
<path d="M10225 8636 c-20 -15 -17 -44 7 -59 12 -8 21 -7 32 2 36 30 -1 85
-39 57z"/>
<path d="M10347 8603 c-4 -3 -7 -19 -7 -34 0 -31 28 -53 54 -43 22 8 31 51 16
69 -13 15 -51 20 -63 8z"/>
<path d="M10503 8523 c-7 -2 -13 -18 -13 -33 0 -53 64 -64 76 -14 10 40 -22
64 -63 47z"/>
<path d="M10334 8485 c-9 -14 -17 -37 -19 -53 -1 -15 -5 -35 -10 -46 -10 -24
6 -50 33 -54 21 -3 32 -28 32 -79 0 -35 38 -73 72 -73 29 0 68 45 68 78 0 30
-35 72 -61 72 -24 0 -69 24 -65 35 2 6 -1 18 -6 28 -8 15 -5 22 11 34 26 18
27 59 2 73 -29 15 -39 13 -57 -15z"/>
<path d="M10444 8386 c-10 -26 4 -48 28 -44 17 2 23 10 23 28 0 18 -6 26 -23
28 -13 2 -25 -3 -28 -12z"/>
<path d="M4807 8198 c-45 -35 -34 -121 18 -134 60 -15 108 41 84 98 -19 45
-67 62 -102 36z"/>
<path d="M4310 8088 c-11 -12 -20 -35 -20 -50 0 -34 40 -78 70 -78 31 0 70 44
70 78 0 61 -79 94 -120 50z"/>
<path d="M4810 8032 c-32 -10 -50 -36 -50 -72 0 -55 36 -82 92 -67 46 12 57
92 17 123 -20 16 -42 22 -59 16z"/>
<path d="M10926 8021 c-13 -15 -16 -28 -10 -57 11 -65 54 -95 84 -59 18 22 3
113 -20 125 -26 14 -35 13 -54 -9z"/>
<path d="M7152 7734 c-24 -17 -30 -62 -10 -82 7 -7 24 -12 38 -12 33 0 50 17
50 51 0 24 -30 59 -50 59 -3 0 -16 -7 -28 -16z"/>
<path d="M10790 7625 c-20 -21 -22 -30 -14 -53 8 -22 15 -27 44 -27 19 1 41
-5 48 -12 26 -25 82 -4 82 31 0 23 -25 47 -50 49 -14 0 -31 9 -38 19 -18 25
-44 22 -72 -7z"/>
<path d="M10797 7373 c-12 -11 -8 -88 5 -101 15 -15 45 -15 54 0 11 18 13 71
2 91 -9 17 -48 24 -61 10z"/>
<path d="M9640 7291 c-25 -47 36 -83 64 -38 8 12 8 22 0 35 -16 25 -51 27 -64
3z"/>
<path d="M9316 7248 c-25 -35 7 -78 44 -58 26 14 26 56 1 70 -26 14 -28 13
-45 -12z"/>
<path d="M3936 6858 c-47 -66 15 -148 84 -113 68 35 42 135 -35 135 -24 0 -39
-7 -49 -22z"/>
<path d="M4551 6824 c-12 -15 -21 -38 -21 -51 0 -31 42 -73 73 -73 33 0 67 40
67 78 0 66 -79 96 -119 46z"/>
<path d="M11162 6838 c-7 -7 -12 -17 -12 -24 0 -10 -25 -21 -69 -30 -30 -6
-41 -53 -17 -73 22 -18 100 10 104 37 2 12 12 22 25 24 25 3 35 41 17 64 -15
17 -32 18 -48 2z"/>
<path d="M3356 6774 c-19 -18 -21 -65 -4 -82 7 -7 24 -12 38 -12 33 0 50 17
50 51 0 32 -23 59 -50 59 -10 0 -26 -7 -34 -16z"/>
<path d="M11229 6759 c-24 -24 -22 -46 6 -65 41 -27 88 39 53 74 -17 17 -35
15 -59 -9z"/>
<path d="M3226 6644 c-19 -18 -21 -65 -4 -82 7 -7 24 -12 40 -12 45 0 65 61
30 93 -23 21 -46 22 -66 1z"/>
<path d="M3062 6618 c-25 -25 -6 -68 30 -68 9 0 22 9 28 20 22 40 -26 80 -58
48z"/>
<path d="M2933 6613 c-17 -6 -16 -38 1 -52 11 -9 18 -8 30 4 19 20 20 27 4 43
-13 13 -16 13 -35 5z"/>
<path d="M2690 6585 c-11 -13 -11 -19 3 -32 21 -21 49 -9 45 19 -4 28 -30 35
-48 13z"/>
<path d="M2482 6558 c-29 -29 -1 -98 41 -98 24 0 47 28 47 59 0 34 -17 51 -50
51 -14 0 -31 -5 -38 -12z"/>
<path d="M2262 6548 c-25 -25 -4 -78 32 -78 10 0 36 32 36 45 0 17 -27 45 -44
45 -6 0 -17 -5 -24 -12z"/>
<path d="M10680 6545 c-26 -32 13 -81 48 -59 34 22 22 74 -18 74 -10 0 -23 -7
-30 -15z"/>
<path d="M10467 6478 c-28 -22 -36 -60 -22 -96 34 -80 150 -31 129 54 -12 46
-71 69 -107 42z"/>
<path d="M1920 6121 c-21 -41 2 -91 43 -91 39 0 64 69 35 98 -19 19 -66 15
-78 -7z"/>
<path d="M11935 6065 c-47 -46 -17 -125 48 -125 64 0 92 89 41 129 -35 27 -59
26 -89 -4z"/>
<path d="M1950 5810 c-30 -30 -27 -83 6 -109 15 -12 35 -21 46 -21 29 0 68 45
68 78 0 60 -78 94 -120 52z"/>
<path d="M3158 5793 c-39 -44 -27 -103 24 -124 41 -17 82 13 86 64 6 64 -71
105 -110 60z"/>
<path d="M4845 5770 c-4 -6 -15 -8 -26 -5 -52 17 -93 -37 -63 -82 15 -23 19
-24 77 -18 73 8 87 18 87 56 0 45 -55 81 -75 49z"/>
<path d="M5853 5688 c-25 -12 -45 -60 -36 -86 12 -33 36 -52 68 -52 67 0 93
82 41 127 -30 25 -40 27 -73 11z"/>
<path d="M4906 5644 c-37 -37 -1 -103 49 -90 15 4 30 17 36 33 20 53 -45 98
-85 57z"/>
<path d="M2479 5601 c-29 -23 -31 -81 -4 -111 41 -45 115 -11 115 55 0 64 -62
96 -111 56z"/>
<path d="M5822 5503 c-57 -49 -8 -147 63 -129 30 8 59 63 48 93 -11 33 -36 53
-63 53 -15 0 -37 -8 -48 -17z"/>
<path d="M9931 5304 c-30 -22 -28 -69 4 -90 23 -15 27 -15 50 0 17 11 25 26
25 45 0 45 -44 69 -79 45z"/>
<path d="M8887 5282 c-23 -25 -21 -55 3 -77 32 -29 74 -10 78 33 2 18 -2 40
-9 48 -16 20 -53 18 -72 -4z"/>
<path d="M9022 5274 c-40 -28 -22 -94 26 -94 35 0 52 17 52 51 0 24 -30 59
-50 59 -3 0 -16 -7 -28 -16z"/>
</g>
</svg>
