<svg width="383" height="375" viewBox="0 0 383 375" fill="none" xmlns="http://www.w3.org/2000/svg">
<g id="circle-switch">
<g id="light-circle">
<circle id="Ellipse 7" cx="191" cy="187" r="160" fill="#81A7FF"/>
<g id="circle-text">
<path id="&#227;&#129;&#147;&#227;&#130;&#147;&#227;&#129;&#171;&#227;&#129;&#161;&#227;&#129;&#175;&#231;&#167;&#129;&#227;&#129;&#174;&#229;&#144;&#141;&#229;&#137;&#141;&#227;&#129;&#175;&#227;&#131;&#158;&#227;&#131;&#188;&#227;&#130;&#187;&#227;&#131;&#171;&#227;&#129;&#167;&#227;&#129;&#153;" d="M57.76 162.768V164.08C59.024 164.176 60.384 164.256 61.984 164.256C63.472 164.256 65.216 164.144 66.304 164.064V162.752C65.152 162.864 63.52 162.976 61.984 162.976C60.384 162.976 58.912 162.912 57.76 162.768ZM58.4 169.216L57.104 169.088C56.96 169.744 56.768 170.496 56.768 171.312C56.768 173.328 58.656 174.4 61.904 174.4C64.176 174.4 66.208 174.16 67.36 173.84L67.344 172.464C66.144 172.864 64.08 173.104 61.872 173.104C59.312 173.104 58.064 172.256 58.064 171.04C58.064 170.448 58.192 169.856 58.4 169.216ZM78.752 162.128L77.344 161.552C77.152 162.016 76.944 162.416 76.752 162.784C75.888 164.336 72.384 170.896 71.216 174.128L72.592 174.608C72.8 173.808 73.488 171.92 73.968 170.96C74.592 169.712 75.792 168.4 77.088 168.4C77.808 168.4 78.208 168.816 78.256 169.52C78.304 170.4 78.272 171.632 78.32 172.56C78.384 173.504 78.928 174.592 80.64 174.592C82.96 174.592 84.304 172.8 85.152 170.224L84.096 169.36C83.68 171.056 82.624 173.264 80.848 173.264C80.144 173.264 79.6 172.928 79.552 172.128C79.504 171.344 79.52 170.112 79.488 169.168C79.44 167.904 78.672 167.232 77.616 167.232C76.848 167.232 76 167.52 75.232 168.224C76.064 166.672 77.536 164.016 78.24 162.912C78.432 162.608 78.608 162.32 78.752 162.128ZM93.296 163.2V164.48C95.056 164.672 98.16 164.672 99.872 164.48V163.184C98.272 163.424 95.04 163.488 93.296 163.2ZM93.92 169.712L92.768 169.6C92.592 170.384 92.496 170.944 92.496 171.488C92.496 172.992 93.696 173.888 96.384 173.888C98.032 173.888 99.376 173.744 100.384 173.552L100.352 172.208C99.056 172.496 97.824 172.624 96.384 172.624C94.208 172.624 93.68 171.92 93.68 171.184C93.68 170.752 93.76 170.304 93.92 169.712ZM90.24 161.968L88.816 161.84C88.816 162.192 88.768 162.608 88.704 162.976C88.512 164.304 87.984 167.04 87.984 169.392C87.984 171.552 88.256 173.392 88.576 174.528L89.728 174.448C89.712 174.288 89.696 174.064 89.68 173.888C89.664 173.712 89.712 173.408 89.76 173.168C89.904 172.416 90.48 170.72 90.896 169.584L90.224 169.072C89.952 169.728 89.568 170.688 89.296 171.408C89.2 170.624 89.152 169.952 89.152 169.168C89.152 167.376 89.648 164.512 89.952 163.04C90.016 162.752 90.16 162.24 90.24 161.968ZM108.768 161.472L107.344 161.392C107.36 161.84 107.344 162.208 107.28 162.72C107.248 163.008 107.184 163.36 107.104 163.776C107.008 163.776 106.928 163.776 106.832 163.776C105.872 163.776 104.64 163.648 103.792 163.504L103.808 164.752C104.736 164.848 105.76 164.912 106.848 164.912H106.864C106.464 166.72 105.824 169.008 105.008 170.608L106.208 171.04C106.352 170.752 106.496 170.544 106.704 170.304C107.76 169.024 109.52 168.368 111.424 168.368C113.296 168.368 114.288 169.296 114.288 170.496C114.288 173.12 110.688 173.76 106.992 173.248L107.312 174.512C112.176 175.04 115.6 173.792 115.6 170.464C115.6 168.592 114.112 167.296 111.568 167.296C109.888 167.296 108.448 167.68 107.056 168.656C107.408 167.744 107.776 166.224 108.064 164.88C110.144 164.8 112.688 164.528 114.56 164.208L114.544 162.976C112.576 163.408 110.224 163.664 108.304 163.744C108.384 163.376 108.432 163.072 108.48 162.816C108.56 162.4 108.656 161.904 108.768 161.472ZM125.136 172.08C125.136 171.296 125.984 170.784 127.184 170.784C127.76 170.784 128.304 170.88 128.816 171.04C128.832 171.248 128.832 171.44 128.832 171.6C128.832 172.656 128.432 173.344 127.088 173.344C125.936 173.344 125.136 172.896 125.136 172.08ZM129.984 161.68H128.544C128.576 161.952 128.608 162.384 128.608 162.656V164.64C128.112 164.656 127.6 164.672 127.104 164.672C126.144 164.672 125.296 164.624 124.384 164.544V165.744C125.328 165.808 126.16 165.856 127.072 165.856C127.584 165.856 128.096 165.84 128.608 165.824C128.624 167.136 128.72 168.704 128.768 169.936C128.304 169.84 127.808 169.792 127.28 169.792C125.184 169.792 123.984 170.864 123.984 172.208C123.984 173.648 125.168 174.496 127.312 174.496C129.472 174.496 130.08 173.232 130.08 171.92C130.08 171.808 130.08 171.696 130.08 171.584C130.896 172.048 131.696 172.688 132.496 173.44L133.2 172.368C132.368 171.616 131.328 170.816 130.032 170.304C129.968 168.96 129.856 167.36 129.84 165.744C130.8 165.68 131.728 165.584 132.608 165.44V164.208C131.76 164.368 130.816 164.496 129.84 164.576C129.856 163.824 129.872 163.072 129.888 162.64C129.904 162.32 129.936 162 129.984 161.68ZM122.08 161.776L120.672 161.664C120.672 162 120.624 162.432 120.576 162.8C120.368 164.128 119.84 167.184 119.84 169.536C119.84 171.696 120.128 173.456 120.448 174.592L121.568 174.512C121.552 174.336 121.536 174.112 121.536 173.952C121.52 173.76 121.552 173.456 121.6 173.232C121.76 172.448 122.352 170.816 122.736 169.696L122.08 169.184C121.808 169.84 121.424 170.816 121.168 171.536C121.056 170.752 121.008 170.08 121.008 169.312C121.008 167.52 121.488 164.352 121.808 162.864C121.856 162.576 121.984 162.048 122.08 161.776ZM141.856 169.888C141.456 169.488 139.712 167.856 139.12 167.36V166.4H141.92V165.264H139.12V162.416C140.08 162.176 140.992 161.904 141.712 161.6L140.832 160.72C139.472 161.344 136.976 161.888 134.832 162.224C134.976 162.48 135.136 162.88 135.2 163.152C136.08 163.024 137.024 162.864 137.952 162.672V165.264H134.864V166.4H137.728C136.976 168.288 135.68 170.432 134.528 171.584C134.72 171.888 135.024 172.368 135.152 172.704C136.128 171.616 137.168 169.872 137.952 168.128V175.168H139.12V168.576C139.84 169.312 140.752 170.288 141.12 170.8L141.856 169.888ZM149.376 174.816C149.024 173.104 147.936 170.432 146.816 168.384L145.696 168.736C146.32 169.904 146.928 171.28 147.376 172.56C145.84 172.72 144.304 172.88 142.944 173.024C143.872 169.712 144.912 164.928 145.536 161.168L144.208 160.944C143.696 164.72 142.64 169.824 141.712 173.152C141.152 173.2 140.656 173.248 140.208 173.296L140.496 174.528C142.416 174.304 145.12 173.968 147.744 173.616C147.92 174.208 148.064 174.752 148.144 175.216L149.376 174.816ZM164.528 168.4C164.528 165.152 162.144 162.512 158.4 162.512C154.496 162.512 151.408 165.552 151.408 169.024C151.408 171.664 152.832 173.296 154.256 173.296C155.744 173.296 157.008 171.616 157.984 168.32C158.432 166.832 158.736 165.2 158.944 163.712C161.664 163.936 163.216 165.936 163.216 168.352C163.216 171.12 161.2 172.64 159.152 173.104C158.784 173.184 158.288 173.264 157.776 173.312L158.528 174.496C162.32 174 164.528 171.76 164.528 168.4ZM152.656 168.912C152.656 166.736 154.544 164.112 157.616 163.728C157.44 165.2 157.12 166.72 156.72 168.048C155.904 170.752 155.056 171.824 154.304 171.824C153.584 171.824 152.656 170.928 152.656 168.912ZM172.384 173.488V169.552H178.944V173.488H172.384ZM176.352 163.28C175.664 164.672 174.656 165.936 173.472 167.024C172.736 166.224 171.52 165.2 170.448 164.448C170.864 164.08 171.232 163.68 171.584 163.28H176.352ZM180.144 168.464H173.6C175.456 166.896 177.024 164.928 177.968 162.56L177.184 162.144L176.96 162.208H172.448C172.784 161.744 173.088 161.28 173.36 160.832L172.032 160.56C171.104 162.288 169.28 164.336 166.656 165.76C166.928 165.968 167.328 166.4 167.488 166.672C168.256 166.224 168.944 165.728 169.584 165.216C170.64 166 171.808 167.024 172.512 167.84C170.704 169.264 168.608 170.32 166.576 170.912C166.832 171.136 167.136 171.632 167.28 171.952C168.608 171.52 169.936 170.912 171.216 170.16V175.216H172.384V174.576H178.944V175.248H180.144V168.464ZM185.04 170.768V169.168H188.576V170.768H185.04ZM188.576 166.672V168.24H185.04V166.672H188.576ZM189.728 165.648H183.904V175.152H185.04V171.712H188.576V173.84C188.576 174.048 188.512 174.112 188.272 174.128C188.064 174.144 187.344 174.144 186.544 174.112C186.704 174.4 186.864 174.848 186.928 175.152C188.016 175.152 188.704 175.152 189.152 174.96C189.584 174.768 189.728 174.464 189.728 173.856V165.648ZM194.88 173.728C194.88 173.968 194.8 174.032 194.528 174.048C194.288 174.064 193.424 174.064 192.448 174.032C192.624 174.352 192.816 174.848 192.88 175.168C194.096 175.184 194.896 175.152 195.408 174.96C195.888 174.768 196.048 174.448 196.048 173.728V165.328H194.88V173.728ZM192.768 165.808H191.664V172.304H192.768V165.808ZM193.376 163.136C193.84 162.48 194.368 161.696 194.8 160.96L193.552 160.544C193.2 161.312 192.592 162.368 192.048 163.136H187.28L188.064 162.832C187.76 162.208 187.088 161.264 186.464 160.592L185.376 161.008C185.92 161.648 186.544 162.512 186.832 163.136H182.912V164.224H197.104V163.136H193.376ZM205.136 172.08C205.136 171.296 205.984 170.784 207.184 170.784C207.76 170.784 208.304 170.88 208.816 171.04C208.832 171.248 208.832 171.44 208.832 171.6C208.832 172.656 208.432 173.344 207.088 173.344C205.936 173.344 205.136 172.896 205.136 172.08ZM209.984 161.68H208.544C208.576 161.952 208.608 162.384 208.608 162.656V164.64C208.112 164.656 207.6 164.672 207.104 164.672C206.144 164.672 205.296 164.624 204.384 164.544V165.744C205.328 165.808 206.16 165.856 207.072 165.856C207.584 165.856 208.096 165.84 208.608 165.824C208.624 167.136 208.72 168.704 208.768 169.936C208.304 169.84 207.808 169.792 207.28 169.792C205.184 169.792 203.984 170.864 203.984 172.208C203.984 173.648 205.168 174.496 207.312 174.496C209.472 174.496 210.08 173.232 210.08 171.92C210.08 171.808 210.08 171.696 210.08 171.584C210.896 172.048 211.696 172.688 212.496 173.44L213.2 172.368C212.368 171.616 211.328 170.816 210.032 170.304C209.968 168.96 209.856 167.36 209.84 165.744C210.8 165.68 211.728 165.584 212.608 165.44V164.208C211.76 164.368 210.816 164.496 209.84 164.576C209.856 163.824 209.872 163.072 209.888 162.64C209.904 162.32 209.936 162 209.984 161.68ZM202.08 161.776L200.672 161.664C200.672 162 200.624 162.432 200.576 162.8C200.368 164.128 199.84 167.184 199.84 169.536C199.84 171.696 200.128 173.456 200.448 174.592L201.568 174.512C201.552 174.336 201.536 174.112 201.536 173.952C201.52 173.76 201.552 173.456 201.6 173.232C201.76 172.448 202.352 170.816 202.736 169.696L202.08 169.184C201.808 169.84 201.424 170.816 201.168 171.536C201.056 170.752 201.008 170.08 201.008 169.312C201.008 167.52 201.488 164.352 201.808 162.864C201.856 162.576 201.984 162.048 202.08 161.776ZM228.864 163.856L227.856 163.04C227.632 163.12 227.264 163.168 226.816 163.168H217.28C216.72 163.168 216.096 163.104 215.648 163.04V164.48C215.968 164.448 216.656 164.384 217.28 164.384H226.688C225.888 165.824 224.048 168.176 221.696 169.936C220.608 168.96 219.296 167.888 218.704 167.456L217.664 168.304C218.512 168.896 220.368 170.496 221.328 171.456C222.336 172.496 223.616 173.904 224.208 174.72L225.376 173.792C224.736 173.008 223.6 171.808 222.64 170.848C225.28 168.832 227.312 166.224 228.464 164.352C228.56 164.208 228.704 164.032 228.864 163.856ZM231.632 167.072V168.64C232.128 168.592 232.976 168.56 233.856 168.56H242.64C243.36 168.56 244.032 168.624 244.352 168.64V167.072C244 167.104 243.424 167.152 242.624 167.152H233.856C232.96 167.152 232.112 167.104 231.632 167.072ZM250.896 171.936C250.896 173.52 251.44 174.288 254.416 174.288C256.416 174.288 258.016 174.176 259.44 173.968L259.504 172.592C257.904 172.896 256.368 173.056 254.512 173.056C252.608 173.056 252.192 172.704 252.192 171.6V166.832C255.024 166.256 257.968 165.664 258.24 165.616C257.76 166.576 256.592 168.336 255.392 169.424L256.512 170.096C257.792 168.768 259.056 166.768 259.792 165.44C259.904 165.232 260.064 164.96 260.176 164.8L259.232 164.064C259.04 164.176 258.736 164.272 258.384 164.352C257.712 164.496 254.912 165.072 252.192 165.6V163.104C252.192 162.64 252.224 162.096 252.304 161.632H250.784C250.864 162.096 250.896 162.624 250.896 163.104V165.84C249.2 166.16 247.68 166.432 246.96 166.528L247.2 167.856C247.856 167.712 249.28 167.424 250.896 167.088V171.936ZM270.384 173.664L271.232 174.368C271.344 174.272 271.52 174.144 271.776 174C273.632 173.088 275.856 171.44 277.232 169.568L276.48 168.48C275.248 170.288 273.28 171.744 271.808 172.416V163.184C271.808 162.576 271.856 162.112 271.872 162H270.4C270.416 162.112 270.496 162.576 270.496 163.184V172.768C270.496 173.088 270.448 173.408 270.384 173.664ZM263.056 173.584L264.256 174.4C265.6 173.28 266.624 171.712 267.104 170C267.536 168.4 267.6 164.976 267.6 163.2C267.6 162.72 267.664 162.24 267.68 162.048H266.208C266.272 162.384 266.32 162.736 266.32 163.216C266.32 164.992 266.304 168.192 265.84 169.648C265.36 171.2 264.4 172.624 263.056 173.584ZM279.264 163.472L279.408 164.864C281.136 164.496 285.216 164.112 286.928 163.92C285.456 164.8 283.936 166.832 283.936 169.328C283.936 172.896 287.312 174.48 290.272 174.592L290.736 173.264C288.128 173.168 285.216 172.176 285.216 169.056C285.216 167.152 286.608 164.72 288.88 163.984C289.696 163.744 291.104 163.728 292.016 163.728V162.448C290.944 162.496 289.44 162.592 287.696 162.736C284.752 162.976 281.728 163.28 280.688 163.392C280.384 163.424 279.872 163.456 279.264 163.472ZM289.712 165.696L288.896 166.048C289.376 166.704 289.84 167.536 290.208 168.304L291.024 167.92C290.688 167.216 290.08 166.224 289.712 165.696ZM291.456 165.024L290.672 165.392C291.168 166.064 291.632 166.848 292.016 167.632L292.848 167.232C292.48 166.528 291.84 165.552 291.456 165.024ZM304.032 161.328H302.576C302.592 161.456 302.656 161.92 302.672 162.336C302.688 162.56 302.704 162.944 302.704 163.392C300.32 163.424 297.312 163.52 295.536 163.552L295.568 164.784C297.568 164.64 300.288 164.528 302.72 164.512C302.736 165.072 302.736 165.648 302.736 166.128C302.416 166.016 302.064 165.952 301.664 165.952C300.144 165.952 298.848 167.152 298.848 168.736C298.848 170.48 300.128 171.408 301.472 171.408C302.016 171.408 302.48 171.264 302.864 170.976C302.224 172.432 300.752 173.328 298.624 173.808L299.696 174.864C303.424 173.744 304.48 171.344 304.48 169.184C304.48 168.384 304.304 167.68 303.968 167.136C303.952 166.4 303.936 165.408 303.936 164.496C304.016 164.496 304.08 164.496 304.16 164.496C306.496 164.496 307.952 164.528 308.848 164.576L308.864 163.392C308.096 163.392 306.128 163.376 304.176 163.376C304.096 163.376 304.016 163.376 303.936 163.376C303.936 162.944 303.952 162.576 303.952 162.336C303.968 162.128 304 161.504 304.032 161.328ZM300.048 168.72C300.048 167.68 300.832 167.024 301.664 167.024C302.288 167.024 302.832 167.328 303.088 168.032C303.232 169.552 302.624 170.304 301.68 170.304C300.784 170.304 300.048 169.712 300.048 168.72Z" fill="black"/>
<g id="Hey My name is Marcell">
<path d="M48.1 209H51.05V193.5H48.1V200.075H43.65V193.5H40.725V209H43.65V202.275H48.1V209ZM64.3451 209.3L64.6201 206.975C59.1201 206.85 57.2451 206.025 56.9451 203.525L64.9701 203.3C65.4201 198.975 63.7451 196.225 60.2451 196.225C56.9701 196.225 54.1701 199.175 54.1701 203C54.1701 207.05 56.2951 209.375 64.3451 209.3ZM59.7451 198.5C61.4701 198.5 62.2451 199.725 62.3201 201.7C60.7701 201.75 58.2451 201.825 56.9201 201.875C57.0451 199.55 58.0451 198.5 59.7451 198.5ZM68.2652 213.425C72.7402 213.025 74.0652 211.85 75.8652 206.825C77.2402 203.125 78.4652 199.375 79.3652 196.55H76.6902C76.3652 197.375 74.6652 203.3 73.8902 205.7H73.6402C72.4902 202.95 71.1652 199.2 70.1402 196.45L67.3152 196.65C68.2652 199.125 70.8402 205.75 72.0152 208.375L72.4902 208.55C71.7652 210.225 70.9902 210.5 68.0402 210.925L68.2652 213.425ZM103.48 193.5C103.48 193.5 101.105 202.05 100.93 202.725H100.83C100.655 202.05 98.2555 193.5 98.2555 193.5H95.4555V209H98.0305L97.8805 198.65H97.9805L100.03 205.925H101.605L103.63 198.65H103.73L103.58 209H106.23V193.5H103.48ZM109.501 213.425C113.976 213.025 115.301 211.85 117.101 206.825C118.476 203.125 119.701 199.375 120.601 196.55H117.926C117.601 197.375 115.901 203.3 115.126 205.7H114.876C113.726 202.95 112.401 199.2 111.376 196.45L108.551 196.65C109.501 199.125 112.076 205.75 113.251 208.375L113.726 208.55C113.001 210.225 112.226 210.5 109.276 210.925L109.501 213.425ZM142.366 198.6C143.641 198.6 144.466 199.3 144.466 201.5V209H147.241V200.525C147.241 197.5 145.841 196.225 143.666 196.225C141.941 196.225 140.666 197.025 139.666 197.925L139.516 196.5L136.941 196.65C137.091 199.475 137.141 203.4 137.141 209H139.941C139.941 205 139.891 201.75 139.841 199.425C140.616 198.925 141.416 198.6 142.366 198.6ZM155.286 207.175C154.011 207.175 153.186 206.525 153.186 205.425C153.186 204.05 154.211 203.225 158.061 203.625C158.086 204.65 158.086 205.475 158.136 206.2C157.261 206.8 156.236 207.175 155.286 207.175ZM158.486 209.075L161.036 208.95C160.911 207.225 160.811 205.25 160.811 202.825C160.811 197.975 158.936 196.425 151.436 196.3L151.161 198.65C156.511 198.825 157.886 199.4 158.036 201.8C152.786 201.575 150.436 203.575 150.436 206.075C150.436 208.1 151.961 209.325 154.186 209.325C155.986 209.325 157.311 208.5 158.261 207.575C158.336 208.175 158.461 208.975 158.486 209.075ZM167.781 198.6C168.406 198.6 168.681 198.975 168.681 200.025V209H170.656V199.175C171.031 198.8 171.431 198.6 171.881 198.6C172.531 198.6 172.831 198.975 172.831 200.05V209H175.406V199.075C175.406 197.225 174.706 196.225 173.281 196.225C172.181 196.225 171.306 196.825 170.631 197.575C170.381 196.725 169.806 196.225 168.831 196.225C167.806 196.225 166.931 196.825 166.256 197.575L166.156 196.5L163.781 196.65C163.881 199.475 163.881 203.4 163.881 209H166.456C166.456 204.9 166.431 201.575 166.381 199.25C166.831 198.825 167.306 198.6 167.781 198.6ZM188.051 209.3L188.326 206.975C182.826 206.85 180.951 206.025 180.651 203.525L188.676 203.3C189.126 198.975 187.451 196.225 183.951 196.225C180.676 196.225 177.876 199.175 177.876 203C177.876 207.05 180.001 209.375 188.051 209.3ZM183.451 198.5C185.176 198.5 185.951 199.725 186.026 201.7C184.476 201.75 181.951 201.825 180.626 201.875C180.751 199.55 181.751 198.5 183.451 198.5ZM212.691 194.675L212.916 191.175H209.991L209.816 194.675H212.691ZM216.866 209L217.091 206.9H212.766V196.55H205.816L205.591 198.525L209.966 198.725V206.9H205.641V209H216.866ZM228.762 196.425C222.237 195.975 219.937 198.025 219.937 200.175C219.937 203.3 226.587 203.75 226.587 205.525C226.587 206.5 225.062 207.075 220.112 206.75L220.012 209.125C227.187 209.45 229.487 207.525 229.487 205.375C229.487 202.25 222.812 201.525 222.812 199.85C222.812 198.975 224.237 198.425 228.862 198.825L228.762 196.425ZM254.677 193.5C254.677 193.5 252.302 202.05 252.127 202.725H252.027C251.852 202.05 249.452 193.5 249.452 193.5H246.652V209H249.227L249.077 198.65H249.177L251.227 205.925H252.802L254.827 198.65H254.927L254.777 209H257.427V193.5H254.677ZM265.247 207.175C263.972 207.175 263.147 206.525 263.147 205.425C263.147 204.05 264.172 203.225 268.022 203.625C268.047 204.65 268.047 205.475 268.097 206.2C267.222 206.8 266.197 207.175 265.247 207.175ZM268.447 209.075L270.997 208.95C270.872 207.225 270.772 205.25 270.772 202.825C270.772 197.975 268.897 196.425 261.397 196.3L261.122 198.65C266.472 198.825 267.847 199.4 267.997 201.8C262.747 201.575 260.397 203.575 260.397 206.075C260.397 208.1 261.922 209.325 264.147 209.325C265.947 209.325 267.272 208.5 268.222 207.575C268.297 208.175 268.422 208.975 268.447 209.075ZM283.642 209L283.867 206.9H280.092C280.042 204.25 280.017 202.15 279.967 200.275C281.367 199.6 283.092 199.15 285.242 199.025L285.117 196.075C282.767 196.375 280.992 197.4 279.867 198.7C279.817 198.075 279.667 196.675 279.642 196.55H274.492L274.267 198.525L277.217 198.725C277.267 200.925 277.292 203.525 277.342 206.9H274.317V209H283.642ZM288.212 202.975C288.212 206.825 290.262 209.75 298.037 209.1L298.312 206.8C292.712 207.125 290.962 205.825 290.962 202.625C290.962 200.225 291.912 198.8 298.137 199L297.962 196.375C290.512 196.4 288.212 199.5 288.212 202.975ZM311.757 209.3L312.032 206.975C306.532 206.85 304.657 206.025 304.357 203.525L312.382 203.3C312.832 198.975 311.157 196.225 307.657 196.225C304.382 196.225 301.582 199.175 301.582 203C301.582 207.05 303.707 209.375 311.757 209.3ZM307.157 198.5C308.882 198.5 309.657 199.725 309.732 201.7C308.182 201.75 305.657 201.825 304.332 201.875C304.457 199.55 305.457 198.5 307.157 198.5ZM325.902 209L326.127 206.9H322.277V191.525H316.002L315.752 193.5L319.477 193.7V206.9H315.627V209H325.902ZM339.647 209L339.872 206.9H336.022V191.525H329.747L329.497 193.5L333.222 193.7V206.9H329.372V209H339.647Z" fill="black"/>
<path d="M39 212.5H341.397V214.725H39V212.5Z" fill="black"/>
</g>
</g>
</g>
<g id="dark-circle">
<g id="circle-text_2">
<circle id="Ellipse 7_2" cx="191" cy="187" r="160" fill="#384357"/>
<path id="&#227;&#129;&#147;&#227;&#130;&#147;&#227;&#129;&#171;&#227;&#129;&#161;&#227;&#129;&#175;&#231;&#167;&#129;&#227;&#129;&#174;&#229;&#144;&#141;&#229;&#137;&#141;&#227;&#129;&#175;&#227;&#131;&#158;&#227;&#131;&#188;&#227;&#130;&#187;&#227;&#131;&#171;&#227;&#129;&#167;&#227;&#129;&#153;_2" d="M57.76 162.768V164.08C59.024 164.176 60.384 164.256 61.984 164.256C63.472 164.256 65.216 164.144 66.304 164.064V162.752C65.152 162.864 63.52 162.976 61.984 162.976C60.384 162.976 58.912 162.912 57.76 162.768ZM58.4 169.216L57.104 169.088C56.96 169.744 56.768 170.496 56.768 171.312C56.768 173.328 58.656 174.4 61.904 174.4C64.176 174.4 66.208 174.16 67.36 173.84L67.344 172.464C66.144 172.864 64.08 173.104 61.872 173.104C59.312 173.104 58.064 172.256 58.064 171.04C58.064 170.448 58.192 169.856 58.4 169.216ZM78.752 162.128L77.344 161.552C77.152 162.016 76.944 162.416 76.752 162.784C75.888 164.336 72.384 170.896 71.216 174.128L72.592 174.608C72.8 173.808 73.488 171.92 73.968 170.96C74.592 169.712 75.792 168.4 77.088 168.4C77.808 168.4 78.208 168.816 78.256 169.52C78.304 170.4 78.272 171.632 78.32 172.56C78.384 173.504 78.928 174.592 80.64 174.592C82.96 174.592 84.304 172.8 85.152 170.224L84.096 169.36C83.68 171.056 82.624 173.264 80.848 173.264C80.144 173.264 79.6 172.928 79.552 172.128C79.504 171.344 79.52 170.112 79.488 169.168C79.44 167.904 78.672 167.232 77.616 167.232C76.848 167.232 76 167.52 75.232 168.224C76.064 166.672 77.536 164.016 78.24 162.912C78.432 162.608 78.608 162.32 78.752 162.128ZM93.296 163.2V164.48C95.056 164.672 98.16 164.672 99.872 164.48V163.184C98.272 163.424 95.04 163.488 93.296 163.2ZM93.92 169.712L92.768 169.6C92.592 170.384 92.496 170.944 92.496 171.488C92.496 172.992 93.696 173.888 96.384 173.888C98.032 173.888 99.376 173.744 100.384 173.552L100.352 172.208C99.056 172.496 97.824 172.624 96.384 172.624C94.208 172.624 93.68 171.92 93.68 171.184C93.68 170.752 93.76 170.304 93.92 169.712ZM90.24 161.968L88.816 161.84C88.816 162.192 88.768 162.608 88.704 162.976C88.512 164.304 87.984 167.04 87.984 169.392C87.984 171.552 88.256 173.392 88.576 174.528L89.728 174.448C89.712 174.288 89.696 174.064 89.68 173.888C89.664 173.712 89.712 173.408 89.76 173.168C89.904 172.416 90.48 170.72 90.896 169.584L90.224 169.072C89.952 169.728 89.568 170.688 89.296 171.408C89.2 170.624 89.152 169.952 89.152 169.168C89.152 167.376 89.648 164.512 89.952 163.04C90.016 162.752 90.16 162.24 90.24 161.968ZM108.768 161.472L107.344 161.392C107.36 161.84 107.344 162.208 107.28 162.72C107.248 163.008 107.184 163.36 107.104 163.776C107.008 163.776 106.928 163.776 106.832 163.776C105.872 163.776 104.64 163.648 103.792 163.504L103.808 164.752C104.736 164.848 105.76 164.912 106.848 164.912H106.864C106.464 166.72 105.824 169.008 105.008 170.608L106.208 171.04C106.352 170.752 106.496 170.544 106.704 170.304C107.76 169.024 109.52 168.368 111.424 168.368C113.296 168.368 114.288 169.296 114.288 170.496C114.288 173.12 110.688 173.76 106.992 173.248L107.312 174.512C112.176 175.04 115.6 173.792 115.6 170.464C115.6 168.592 114.112 167.296 111.568 167.296C109.888 167.296 108.448 167.68 107.056 168.656C107.408 167.744 107.776 166.224 108.064 164.88C110.144 164.8 112.688 164.528 114.56 164.208L114.544 162.976C112.576 163.408 110.224 163.664 108.304 163.744C108.384 163.376 108.432 163.072 108.48 162.816C108.56 162.4 108.656 161.904 108.768 161.472ZM125.136 172.08C125.136 171.296 125.984 170.784 127.184 170.784C127.76 170.784 128.304 170.88 128.816 171.04C128.832 171.248 128.832 171.44 128.832 171.6C128.832 172.656 128.432 173.344 127.088 173.344C125.936 173.344 125.136 172.896 125.136 172.08ZM129.984 161.68H128.544C128.576 161.952 128.608 162.384 128.608 162.656V164.64C128.112 164.656 127.6 164.672 127.104 164.672C126.144 164.672 125.296 164.624 124.384 164.544V165.744C125.328 165.808 126.16 165.856 127.072 165.856C127.584 165.856 128.096 165.84 128.608 165.824C128.624 167.136 128.72 168.704 128.768 169.936C128.304 169.84 127.808 169.792 127.28 169.792C125.184 169.792 123.984 170.864 123.984 172.208C123.984 173.648 125.168 174.496 127.312 174.496C129.472 174.496 130.08 173.232 130.08 171.92C130.08 171.808 130.08 171.696 130.08 171.584C130.896 172.048 131.696 172.688 132.496 173.44L133.2 172.368C132.368 171.616 131.328 170.816 130.032 170.304C129.968 168.96 129.856 167.36 129.84 165.744C130.8 165.68 131.728 165.584 132.608 165.44V164.208C131.76 164.368 130.816 164.496 129.84 164.576C129.856 163.824 129.872 163.072 129.888 162.64C129.904 162.32 129.936 162 129.984 161.68ZM122.08 161.776L120.672 161.664C120.672 162 120.624 162.432 120.576 162.8C120.368 164.128 119.84 167.184 119.84 169.536C119.84 171.696 120.128 173.456 120.448 174.592L121.568 174.512C121.552 174.336 121.536 174.112 121.536 173.952C121.52 173.76 121.552 173.456 121.6 173.232C121.76 172.448 122.352 170.816 122.736 169.696L122.08 169.184C121.808 169.84 121.424 170.816 121.168 171.536C121.056 170.752 121.008 170.08 121.008 169.312C121.008 167.52 121.488 164.352 121.808 162.864C121.856 162.576 121.984 162.048 122.08 161.776ZM141.856 169.888C141.456 169.488 139.712 167.856 139.12 167.36V166.4H141.92V165.264H139.12V162.416C140.08 162.176 140.992 161.904 141.712 161.6L140.832 160.72C139.472 161.344 136.976 161.888 134.832 162.224C134.976 162.48 135.136 162.88 135.2 163.152C136.08 163.024 137.024 162.864 137.952 162.672V165.264H134.864V166.4H137.728C136.976 168.288 135.68 170.432 134.528 171.584C134.72 171.888 135.024 172.368 135.152 172.704C136.128 171.616 137.168 169.872 137.952 168.128V175.168H139.12V168.576C139.84 169.312 140.752 170.288 141.12 170.8L141.856 169.888ZM149.376 174.816C149.024 173.104 147.936 170.432 146.816 168.384L145.696 168.736C146.32 169.904 146.928 171.28 147.376 172.56C145.84 172.72 144.304 172.88 142.944 173.024C143.872 169.712 144.912 164.928 145.536 161.168L144.208 160.944C143.696 164.72 142.64 169.824 141.712 173.152C141.152 173.2 140.656 173.248 140.208 173.296L140.496 174.528C142.416 174.304 145.12 173.968 147.744 173.616C147.92 174.208 148.064 174.752 148.144 175.216L149.376 174.816ZM164.528 168.4C164.528 165.152 162.144 162.512 158.4 162.512C154.496 162.512 151.408 165.552 151.408 169.024C151.408 171.664 152.832 173.296 154.256 173.296C155.744 173.296 157.008 171.616 157.984 168.32C158.432 166.832 158.736 165.2 158.944 163.712C161.664 163.936 163.216 165.936 163.216 168.352C163.216 171.12 161.2 172.64 159.152 173.104C158.784 173.184 158.288 173.264 157.776 173.312L158.528 174.496C162.32 174 164.528 171.76 164.528 168.4ZM152.656 168.912C152.656 166.736 154.544 164.112 157.616 163.728C157.44 165.2 157.12 166.72 156.72 168.048C155.904 170.752 155.056 171.824 154.304 171.824C153.584 171.824 152.656 170.928 152.656 168.912ZM172.384 173.488V169.552H178.944V173.488H172.384ZM176.352 163.28C175.664 164.672 174.656 165.936 173.472 167.024C172.736 166.224 171.52 165.2 170.448 164.448C170.864 164.08 171.232 163.68 171.584 163.28H176.352ZM180.144 168.464H173.6C175.456 166.896 177.024 164.928 177.968 162.56L177.184 162.144L176.96 162.208H172.448C172.784 161.744 173.088 161.28 173.36 160.832L172.032 160.56C171.104 162.288 169.28 164.336 166.656 165.76C166.928 165.968 167.328 166.4 167.488 166.672C168.256 166.224 168.944 165.728 169.584 165.216C170.64 166 171.808 167.024 172.512 167.84C170.704 169.264 168.608 170.32 166.576 170.912C166.832 171.136 167.136 171.632 167.28 171.952C168.608 171.52 169.936 170.912 171.216 170.16V175.216H172.384V174.576H178.944V175.248H180.144V168.464ZM185.04 170.768V169.168H188.576V170.768H185.04ZM188.576 166.672V168.24H185.04V166.672H188.576ZM189.728 165.648H183.904V175.152H185.04V171.712H188.576V173.84C188.576 174.048 188.512 174.112 188.272 174.128C188.064 174.144 187.344 174.144 186.544 174.112C186.704 174.4 186.864 174.848 186.928 175.152C188.016 175.152 188.704 175.152 189.152 174.96C189.584 174.768 189.728 174.464 189.728 173.856V165.648ZM194.88 173.728C194.88 173.968 194.8 174.032 194.528 174.048C194.288 174.064 193.424 174.064 192.448 174.032C192.624 174.352 192.816 174.848 192.88 175.168C194.096 175.184 194.896 175.152 195.408 174.96C195.888 174.768 196.048 174.448 196.048 173.728V165.328H194.88V173.728ZM192.768 165.808H191.664V172.304H192.768V165.808ZM193.376 163.136C193.84 162.48 194.368 161.696 194.8 160.96L193.552 160.544C193.2 161.312 192.592 162.368 192.048 163.136H187.28L188.064 162.832C187.76 162.208 187.088 161.264 186.464 160.592L185.376 161.008C185.92 161.648 186.544 162.512 186.832 163.136H182.912V164.224H197.104V163.136H193.376ZM205.136 172.08C205.136 171.296 205.984 170.784 207.184 170.784C207.76 170.784 208.304 170.88 208.816 171.04C208.832 171.248 208.832 171.44 208.832 171.6C208.832 172.656 208.432 173.344 207.088 173.344C205.936 173.344 205.136 172.896 205.136 172.08ZM209.984 161.68H208.544C208.576 161.952 208.608 162.384 208.608 162.656V164.64C208.112 164.656 207.6 164.672 207.104 164.672C206.144 164.672 205.296 164.624 204.384 164.544V165.744C205.328 165.808 206.16 165.856 207.072 165.856C207.584 165.856 208.096 165.84 208.608 165.824C208.624 167.136 208.72 168.704 208.768 169.936C208.304 169.84 207.808 169.792 207.28 169.792C205.184 169.792 203.984 170.864 203.984 172.208C203.984 173.648 205.168 174.496 207.312 174.496C209.472 174.496 210.08 173.232 210.08 171.92C210.08 171.808 210.08 171.696 210.08 171.584C210.896 172.048 211.696 172.688 212.496 173.44L213.2 172.368C212.368 171.616 211.328 170.816 210.032 170.304C209.968 168.96 209.856 167.36 209.84 165.744C210.8 165.68 211.728 165.584 212.608 165.44V164.208C211.76 164.368 210.816 164.496 209.84 164.576C209.856 163.824 209.872 163.072 209.888 162.64C209.904 162.32 209.936 162 209.984 161.68ZM202.08 161.776L200.672 161.664C200.672 162 200.624 162.432 200.576 162.8C200.368 164.128 199.84 167.184 199.84 169.536C199.84 171.696 200.128 173.456 200.448 174.592L201.568 174.512C201.552 174.336 201.536 174.112 201.536 173.952C201.52 173.76 201.552 173.456 201.6 173.232C201.76 172.448 202.352 170.816 202.736 169.696L202.08 169.184C201.808 169.84 201.424 170.816 201.168 171.536C201.056 170.752 201.008 170.08 201.008 169.312C201.008 167.52 201.488 164.352 201.808 162.864C201.856 162.576 201.984 162.048 202.08 161.776ZM228.864 163.856L227.856 163.04C227.632 163.12 227.264 163.168 226.816 163.168H217.28C216.72 163.168 216.096 163.104 215.648 163.04V164.48C215.968 164.448 216.656 164.384 217.28 164.384H226.688C225.888 165.824 224.048 168.176 221.696 169.936C220.608 168.96 219.296 167.888 218.704 167.456L217.664 168.304C218.512 168.896 220.368 170.496 221.328 171.456C222.336 172.496 223.616 173.904 224.208 174.72L225.376 173.792C224.736 173.008 223.6 171.808 222.64 170.848C225.28 168.832 227.312 166.224 228.464 164.352C228.56 164.208 228.704 164.032 228.864 163.856ZM231.632 167.072V168.64C232.128 168.592 232.976 168.56 233.856 168.56H242.64C243.36 168.56 244.032 168.624 244.352 168.64V167.072C244 167.104 243.424 167.152 242.624 167.152H233.856C232.96 167.152 232.112 167.104 231.632 167.072ZM250.896 171.936C250.896 173.52 251.44 174.288 254.416 174.288C256.416 174.288 258.016 174.176 259.44 173.968L259.504 172.592C257.904 172.896 256.368 173.056 254.512 173.056C252.608 173.056 252.192 172.704 252.192 171.6V166.832C255.024 166.256 257.968 165.664 258.24 165.616C257.76 166.576 256.592 168.336 255.392 169.424L256.512 170.096C257.792 168.768 259.056 166.768 259.792 165.44C259.904 165.232 260.064 164.96 260.176 164.8L259.232 164.064C259.04 164.176 258.736 164.272 258.384 164.352C257.712 164.496 254.912 165.072 252.192 165.6V163.104C252.192 162.64 252.224 162.096 252.304 161.632H250.784C250.864 162.096 250.896 162.624 250.896 163.104V165.84C249.2 166.16 247.68 166.432 246.96 166.528L247.2 167.856C247.856 167.712 249.28 167.424 250.896 167.088V171.936ZM270.384 173.664L271.232 174.368C271.344 174.272 271.52 174.144 271.776 174C273.632 173.088 275.856 171.44 277.232 169.568L276.48 168.48C275.248 170.288 273.28 171.744 271.808 172.416V163.184C271.808 162.576 271.856 162.112 271.872 162H270.4C270.416 162.112 270.496 162.576 270.496 163.184V172.768C270.496 173.088 270.448 173.408 270.384 173.664ZM263.056 173.584L264.256 174.4C265.6 173.28 266.624 171.712 267.104 170C267.536 168.4 267.6 164.976 267.6 163.2C267.6 162.72 267.664 162.24 267.68 162.048H266.208C266.272 162.384 266.32 162.736 266.32 163.216C266.32 164.992 266.304 168.192 265.84 169.648C265.36 171.2 264.4 172.624 263.056 173.584ZM279.264 163.472L279.408 164.864C281.136 164.496 285.216 164.112 286.928 163.92C285.456 164.8 283.936 166.832 283.936 169.328C283.936 172.896 287.312 174.48 290.272 174.592L290.736 173.264C288.128 173.168 285.216 172.176 285.216 169.056C285.216 167.152 286.608 164.72 288.88 163.984C289.696 163.744 291.104 163.728 292.016 163.728V162.448C290.944 162.496 289.44 162.592 287.696 162.736C284.752 162.976 281.728 163.28 280.688 163.392C280.384 163.424 279.872 163.456 279.264 163.472ZM289.712 165.696L288.896 166.048C289.376 166.704 289.84 167.536 290.208 168.304L291.024 167.92C290.688 167.216 290.08 166.224 289.712 165.696ZM291.456 165.024L290.672 165.392C291.168 166.064 291.632 166.848 292.016 167.632L292.848 167.232C292.48 166.528 291.84 165.552 291.456 165.024ZM304.032 161.328H302.576C302.592 161.456 302.656 161.92 302.672 162.336C302.688 162.56 302.704 162.944 302.704 163.392C300.32 163.424 297.312 163.52 295.536 163.552L295.568 164.784C297.568 164.64 300.288 164.528 302.72 164.512C302.736 165.072 302.736 165.648 302.736 166.128C302.416 166.016 302.064 165.952 301.664 165.952C300.144 165.952 298.848 167.152 298.848 168.736C298.848 170.48 300.128 171.408 301.472 171.408C302.016 171.408 302.48 171.264 302.864 170.976C302.224 172.432 300.752 173.328 298.624 173.808L299.696 174.864C303.424 173.744 304.48 171.344 304.48 169.184C304.48 168.384 304.304 167.68 303.968 167.136C303.952 166.4 303.936 165.408 303.936 164.496C304.016 164.496 304.08 164.496 304.16 164.496C306.496 164.496 307.952 164.528 308.848 164.576L308.864 163.392C308.096 163.392 306.128 163.376 304.176 163.376C304.096 163.376 304.016 163.376 303.936 163.376C303.936 162.944 303.952 162.576 303.952 162.336C303.968 162.128 304 161.504 304.032 161.328ZM300.048 168.72C300.048 167.68 300.832 167.024 301.664 167.024C302.288 167.024 302.832 167.328 303.088 168.032C303.232 169.552 302.624 170.304 301.68 170.304C300.784 170.304 300.048 169.712 300.048 168.72Z" fill="white"/>
<g id="Hey My name is Marcell_2">
<path d="M48.1 209H51.05V193.5H48.1V200.075H43.65V193.5H40.725V209H43.65V202.275H48.1V209ZM64.3451 209.3L64.6201 206.975C59.1201 206.85 57.2451 206.025 56.9451 203.525L64.9701 203.3C65.4201 198.975 63.7451 196.225 60.2451 196.225C56.9701 196.225 54.1701 199.175 54.1701 203C54.1701 207.05 56.2951 209.375 64.3451 209.3ZM59.7451 198.5C61.4701 198.5 62.2451 199.725 62.3201 201.7C60.7701 201.75 58.2451 201.825 56.9201 201.875C57.0451 199.55 58.0451 198.5 59.7451 198.5ZM68.2652 213.425C72.7402 213.025 74.0652 211.85 75.8652 206.825C77.2402 203.125 78.4652 199.375 79.3652 196.55H76.6902C76.3652 197.375 74.6652 203.3 73.8902 205.7H73.6402C72.4902 202.95 71.1652 199.2 70.1402 196.45L67.3152 196.65C68.2652 199.125 70.8402 205.75 72.0152 208.375L72.4902 208.55C71.7652 210.225 70.9902 210.5 68.0402 210.925L68.2652 213.425ZM103.48 193.5C103.48 193.5 101.105 202.05 100.93 202.725H100.83C100.655 202.05 98.2555 193.5 98.2555 193.5H95.4555V209H98.0305L97.8805 198.65H97.9805L100.03 205.925H101.605L103.63 198.65H103.73L103.58 209H106.23V193.5H103.48ZM109.501 213.425C113.976 213.025 115.301 211.85 117.101 206.825C118.476 203.125 119.701 199.375 120.601 196.55H117.926C117.601 197.375 115.901 203.3 115.126 205.7H114.876C113.726 202.95 112.401 199.2 111.376 196.45L108.551 196.65C109.501 199.125 112.076 205.75 113.251 208.375L113.726 208.55C113.001 210.225 112.226 210.5 109.276 210.925L109.501 213.425ZM142.366 198.6C143.641 198.6 144.466 199.3 144.466 201.5V209H147.241V200.525C147.241 197.5 145.841 196.225 143.666 196.225C141.941 196.225 140.666 197.025 139.666 197.925L139.516 196.5L136.941 196.65C137.091 199.475 137.141 203.4 137.141 209H139.941C139.941 205 139.891 201.75 139.841 199.425C140.616 198.925 141.416 198.6 142.366 198.6ZM155.286 207.175C154.011 207.175 153.186 206.525 153.186 205.425C153.186 204.05 154.211 203.225 158.061 203.625C158.086 204.65 158.086 205.475 158.136 206.2C157.261 206.8 156.236 207.175 155.286 207.175ZM158.486 209.075L161.036 208.95C160.911 207.225 160.811 205.25 160.811 202.825C160.811 197.975 158.936 196.425 151.436 196.3L151.161 198.65C156.511 198.825 157.886 199.4 158.036 201.8C152.786 201.575 150.436 203.575 150.436 206.075C150.436 208.1 151.961 209.325 154.186 209.325C155.986 209.325 157.311 208.5 158.261 207.575C158.336 208.175 158.461 208.975 158.486 209.075ZM167.781 198.6C168.406 198.6 168.681 198.975 168.681 200.025V209H170.656V199.175C171.031 198.8 171.431 198.6 171.881 198.6C172.531 198.6 172.831 198.975 172.831 200.05V209H175.406V199.075C175.406 197.225 174.706 196.225 173.281 196.225C172.181 196.225 171.306 196.825 170.631 197.575C170.381 196.725 169.806 196.225 168.831 196.225C167.806 196.225 166.931 196.825 166.256 197.575L166.156 196.5L163.781 196.65C163.881 199.475 163.881 203.4 163.881 209H166.456C166.456 204.9 166.431 201.575 166.381 199.25C166.831 198.825 167.306 198.6 167.781 198.6ZM188.051 209.3L188.326 206.975C182.826 206.85 180.951 206.025 180.651 203.525L188.676 203.3C189.126 198.975 187.451 196.225 183.951 196.225C180.676 196.225 177.876 199.175 177.876 203C177.876 207.05 180.001 209.375 188.051 209.3ZM183.451 198.5C185.176 198.5 185.951 199.725 186.026 201.7C184.476 201.75 181.951 201.825 180.626 201.875C180.751 199.55 181.751 198.5 183.451 198.5ZM212.691 194.675L212.916 191.175H209.991L209.816 194.675H212.691ZM216.866 209L217.091 206.9H212.766V196.55H205.816L205.591 198.525L209.966 198.725V206.9H205.641V209H216.866ZM228.762 196.425C222.237 195.975 219.937 198.025 219.937 200.175C219.937 203.3 226.587 203.75 226.587 205.525C226.587 206.5 225.062 207.075 220.112 206.75L220.012 209.125C227.187 209.45 229.487 207.525 229.487 205.375C229.487 202.25 222.812 201.525 222.812 199.85C222.812 198.975 224.237 198.425 228.862 198.825L228.762 196.425ZM254.677 193.5C254.677 193.5 252.302 202.05 252.127 202.725H252.027C251.852 202.05 249.452 193.5 249.452 193.5H246.652V209H249.227L249.077 198.65H249.177L251.227 205.925H252.802L254.827 198.65H254.927L254.777 209H257.427V193.5H254.677ZM265.247 207.175C263.972 207.175 263.147 206.525 263.147 205.425C263.147 204.05 264.172 203.225 268.022 203.625C268.047 204.65 268.047 205.475 268.097 206.2C267.222 206.8 266.197 207.175 265.247 207.175ZM268.447 209.075L270.997 208.95C270.872 207.225 270.772 205.25 270.772 202.825C270.772 197.975 268.897 196.425 261.397 196.3L261.122 198.65C266.472 198.825 267.847 199.4 267.997 201.8C262.747 201.575 260.397 203.575 260.397 206.075C260.397 208.1 261.922 209.325 264.147 209.325C265.947 209.325 267.272 208.5 268.222 207.575C268.297 208.175 268.422 208.975 268.447 209.075ZM283.642 209L283.867 206.9H280.092C280.042 204.25 280.017 202.15 279.967 200.275C281.367 199.6 283.092 199.15 285.242 199.025L285.117 196.075C282.767 196.375 280.992 197.4 279.867 198.7C279.817 198.075 279.667 196.675 279.642 196.55H274.492L274.267 198.525L277.217 198.725C277.267 200.925 277.292 203.525 277.342 206.9H274.317V209H283.642ZM288.212 202.975C288.212 206.825 290.262 209.75 298.037 209.1L298.312 206.8C292.712 207.125 290.962 205.825 290.962 202.625C290.962 200.225 291.912 198.8 298.137 199L297.962 196.375C290.512 196.4 288.212 199.5 288.212 202.975ZM311.757 209.3L312.032 206.975C306.532 206.85 304.657 206.025 304.357 203.525L312.382 203.3C312.832 198.975 311.157 196.225 307.657 196.225C304.382 196.225 301.582 199.175 301.582 203C301.582 207.05 303.707 209.375 311.757 209.3ZM307.157 198.5C308.882 198.5 309.657 199.725 309.732 201.7C308.182 201.75 305.657 201.825 304.332 201.875C304.457 199.55 305.457 198.5 307.157 198.5ZM325.902 209L326.127 206.9H322.277V191.525H316.002L315.752 193.5L319.477 193.7V206.9H315.627V209H325.902ZM339.647 209L339.872 206.9H336.022V191.525H329.747L329.497 193.5L333.222 193.7V206.9H329.372V209H339.647Z" fill="white"/>
<path d="M39 212.5H341.397V214.725H39V212.5Z" fill="white"/>
</g>
</g>
</g>
</g>
</svg>
