<svg width="992" height="306" viewBox="0 0 992 306" fill="none" xmlns="http://www.w3.org/2000/svg">
<g id="error-msg" clip-path="url(#clip0)">
<g id="round-title">
<circle id="Ellipse 1" cx="280.5" cy="174.5" r="280.5" fill="#81A7FF"/>
<g id="my-name-in-jp" filter="url(#filter0_d)">
<path id="&#227;&#129;&#130;&#227;&#129;&#130;&#227;&#128;&#129;&#227;&#129;&#132;&#227;&#129;&#132;&#227;&#129;&#136;&#227;&#128;&#129;404&#227;&#130;&#146;&#229;&#143;&#150;&#229;&#190;&#151;&#227;&#129;&#151;&#227;&#129;&#190;&#227;&#129;&#151;&#227;&#129;&#159;" d="M55.4188 121.24L52.8988 121.18C52.9288 121.54 52.8688 122.08 52.8388 122.62C52.7788 123.28 52.6888 124.06 52.5988 124.93C51.9088 124.96 51.2488 124.96 50.5588 124.96C49.2688 124.96 46.6588 124.75 45.6088 124.57L45.6688 126.82C46.8988 126.91 49.2388 127.03 50.5288 127.03C51.1288 127.03 51.7288 127.03 52.3588 127C52.2388 128.41 52.0888 129.91 52.0288 131.41C47.8888 133.33 44.5288 137.26 44.5288 141.13C44.5288 143.68 46.0888 144.91 48.0688 144.91C49.7188 144.91 51.5188 144.25 53.1688 143.26C53.3188 143.86 53.4688 144.43 53.6488 144.94L55.8088 144.28C55.5688 143.53 55.3288 142.72 55.0888 141.85C57.6388 139.69 60.0688 136.36 61.7788 132.1C64.5688 132.91 66.0988 134.95 66.0988 137.23C66.0988 141.13 62.7388 143.92 57.3088 144.49L58.5988 146.5C65.5588 145.39 68.4088 141.67 68.4088 137.35C68.4088 134.05 66.1888 131.29 62.4388 130.3C62.4388 130.24 62.4688 130.21 62.4688 130.18C62.6188 129.7 62.8888 128.89 63.0688 128.47L60.6988 127.87C60.6688 128.38 60.5188 129.16 60.3688 129.61C60.3388 129.73 60.3088 129.82 60.2788 129.91C59.9188 129.88 59.5588 129.88 59.1688 129.88C57.6388 129.88 55.8088 130.15 54.1288 130.63C54.2188 129.37 54.3088 128.11 54.4588 126.94C58.1188 126.76 62.1088 126.34 65.2588 125.8L65.2288 123.58C62.1688 124.3 58.5088 124.69 54.6988 124.87C54.8188 124 54.9388 123.22 55.0588 122.59C55.1488 122.17 55.2688 121.63 55.4188 121.24ZM54.0388 133.96C54.0388 133.54 54.0388 133.15 54.0688 132.73C55.4488 132.22 57.1888 131.77 59.1388 131.77C59.3188 131.77 59.4988 131.77 59.6488 131.77C58.3888 135.13 56.5588 137.56 54.5488 139.45C54.2488 137.71 54.0388 135.88 54.0388 133.96ZM46.8088 140.74C46.8088 138.28 49.0288 135.31 51.9388 133.66C51.9388 133.84 51.9388 134.02 51.9388 134.2C51.9388 136.45 52.2388 138.88 52.6588 141.01C51.1288 142.09 49.6888 142.6 48.5188 142.6C47.3788 142.6 46.8088 141.97 46.8088 140.74ZM85.4188 121.24L82.8988 121.18C82.9288 121.54 82.8688 122.08 82.8388 122.62C82.7788 123.28 82.6888 124.06 82.5988 124.93C81.9088 124.96 81.2488 124.96 80.5588 124.96C79.2688 124.96 76.6588 124.75 75.6088 124.57L75.6688 126.82C76.8988 126.91 79.2388 127.03 80.5288 127.03C81.1288 127.03 81.7288 127.03 82.3588 127C82.2388 128.41 82.0888 129.91 82.0288 131.41C77.8888 133.33 74.5288 137.26 74.5288 141.13C74.5288 143.68 76.0888 144.91 78.0688 144.91C79.7188 144.91 81.5188 144.25 83.1688 143.26C83.3188 143.86 83.4688 144.43 83.6488 144.94L85.8088 144.28C85.5688 143.53 85.3288 142.72 85.0888 141.85C87.6388 139.69 90.0688 136.36 91.7788 132.1C94.5688 132.91 96.0988 134.95 96.0988 137.23C96.0988 141.13 92.7388 143.92 87.3088 144.49L88.5988 146.5C95.5588 145.39 98.4088 141.67 98.4088 137.35C98.4088 134.05 96.1888 131.29 92.4388 130.3C92.4388 130.24 92.4688 130.21 92.4688 130.18C92.6188 129.7 92.8888 128.89 93.0688 128.47L90.6988 127.87C90.6688 128.38 90.5188 129.16 90.3688 129.61C90.3388 129.73 90.3088 129.82 90.2788 129.91C89.9188 129.88 89.5588 129.88 89.1688 129.88C87.6388 129.88 85.8088 130.15 84.1288 130.63C84.2188 129.37 84.3088 128.11 84.4588 126.94C88.1188 126.76 92.1088 126.34 95.2588 125.8L95.2288 123.58C92.1688 124.3 88.5088 124.69 84.6988 124.87C84.8188 124 84.9388 123.22 85.0588 122.59C85.1488 122.17 85.2688 121.63 85.4188 121.24ZM84.0388 133.96C84.0388 133.54 84.0388 133.15 84.0688 132.73C85.4488 132.22 87.1888 131.77 89.1388 131.77C89.3188 131.77 89.4988 131.77 89.6488 131.77C88.3888 135.13 86.5588 137.56 84.5488 139.45C84.2488 137.71 84.0388 135.88 84.0388 133.96ZM76.8088 140.74C76.8088 138.28 79.0288 135.31 81.9388 133.66C81.9388 133.84 81.9388 134.02 81.9388 134.2C81.9388 136.45 82.2388 138.88 82.6588 141.01C81.1288 142.09 79.6888 142.6 78.5188 142.6C77.3788 142.6 76.8088 141.97 76.8088 140.74ZM109.449 146.68L111.489 144.94C109.629 142.75 106.929 140.02 104.769 138.28L102.819 139.99C104.949 141.73 107.529 144.31 109.449 146.68ZM137.949 124.06L135.039 124C135.219 124.72 135.249 125.98 135.249 126.67C135.249 128.41 135.309 132.07 135.579 134.68C136.389 142.45 139.119 145.27 141.969 145.27C143.979 145.27 145.809 143.53 147.609 138.43L145.719 136.3C144.939 139.3 143.529 142.42 141.999 142.42C139.869 142.42 138.399 139.09 137.919 134.08C137.709 131.59 137.679 128.86 137.709 126.97C137.709 126.19 137.829 124.78 137.949 124.06ZM153.579 124.9L151.239 125.71C154.119 129.22 155.919 135.37 156.459 140.8L158.859 139.81C158.409 134.74 156.249 128.38 153.579 124.9ZM167.949 124.06L165.039 124C165.219 124.72 165.249 125.98 165.249 126.67C165.249 128.41 165.309 132.07 165.579 134.68C166.389 142.45 169.119 145.27 171.969 145.27C173.979 145.27 175.809 143.53 177.609 138.43L175.719 136.3C174.939 139.3 173.529 142.42 171.999 142.42C169.869 142.42 168.399 139.09 167.919 134.08C167.709 131.59 167.679 128.86 167.709 126.97C167.709 126.19 167.829 124.78 167.949 124.06ZM183.579 124.9L181.239 125.71C184.119 129.22 185.919 135.37 186.459 140.8L188.859 139.81C188.409 134.74 186.249 128.38 183.579 124.9ZM200.619 121.33L200.229 123.52C203.889 124.18 209.139 124.87 212.139 125.14L212.469 122.92C209.619 122.74 203.889 122.05 200.619 121.33ZM213.069 129.91L211.629 128.29C211.359 128.41 210.699 128.56 210.189 128.62C207.939 128.89 200.949 129.37 199.239 129.4C198.279 129.43 197.379 129.4 196.689 129.34L196.899 131.98C197.559 131.86 198.339 131.77 199.329 131.68C201.159 131.53 206.199 131.11 208.569 130.96C205.599 133.93 197.439 142.09 196.239 143.32C195.639 143.89 195.099 144.34 194.739 144.67L197.019 146.26C198.699 144.1 201.969 140.65 203.109 139.57C203.799 138.91 204.489 138.49 205.329 138.49C206.139 138.49 206.799 139.03 207.159 140.08C207.429 140.95 207.879 142.72 208.179 143.62C208.809 145.6 210.309 146.17 212.709 146.17C214.329 146.17 217.089 145.93 218.349 145.72L218.499 143.2C217.089 143.56 214.809 143.8 212.829 143.8C211.299 143.8 210.579 143.32 210.219 142.18C209.919 141.19 209.499 139.69 209.229 138.82C208.809 137.59 208.119 136.78 206.949 136.66C206.619 136.6 206.079 136.57 205.779 136.6C206.889 135.46 210.279 132.31 211.419 131.26C211.779 130.93 212.499 130.3 213.069 129.91ZM229.449 146.68L231.489 144.94C229.629 142.75 226.929 140.02 224.769 138.28L222.819 139.99C224.949 141.73 227.529 144.31 229.449 146.68ZM266.409 141.49L266.679 138.61H264.549V132.1L261.489 132.43V138.61H256.059C256.119 137.77 258.579 127.84 258.909 126.43L255.339 126.19C253.989 131.65 253.329 137.62 253.449 141.49H261.489V145H264.549V141.49H266.409ZM275.793 145.39C280.113 145.39 282.783 141.4 282.783 135.4C282.783 129.55 280.593 126.01 276.243 126.01C271.923 126.01 269.223 130 269.223 136C269.223 141.85 271.413 145.39 275.793 145.39ZM272.403 135.4C272.403 131.14 273.573 128.71 276.003 128.71C277.773 128.71 278.853 130.21 279.333 132.73L272.433 136.3C272.403 136.03 272.403 135.7 272.403 135.4ZM276.033 142.69C274.293 142.69 273.183 141.25 272.703 138.79L279.603 135.22C279.603 135.49 279.603 135.73 279.603 136C279.603 140.26 278.463 142.69 276.033 142.69ZM299.397 141.49L299.667 138.61H297.537V132.1L294.477 132.43V138.61H289.047C289.107 137.77 291.567 127.84 291.897 126.43L288.327 126.19C286.977 131.65 286.317 137.62 286.437 141.49H294.477V145H297.537V141.49H299.397ZM314.541 121.27L312.081 121.06C312.021 122.17 311.751 123.52 311.331 124.81C310.671 124.84 309.981 124.84 309.351 124.84C307.971 124.84 305.871 124.72 304.281 124.51V126.76C305.931 126.88 307.911 126.94 309.201 126.94C309.621 126.94 310.071 126.94 310.521 126.94C309.381 129.37 307.371 132.46 303.591 136.12L305.631 137.62C306.651 136.42 307.491 135.31 308.361 134.5C309.711 133.24 311.631 132.31 313.521 132.31C314.871 132.31 315.951 132.88 316.251 134.17C312.741 136 309.171 138.22 309.171 141.76C309.171 145.42 312.621 146.35 316.911 146.35C319.521 146.35 322.851 146.11 325.131 145.81L325.191 143.41C322.551 143.86 319.341 144.13 317.001 144.13C313.911 144.13 311.571 143.77 311.571 141.43C311.571 139.45 313.521 137.86 316.311 136.39C316.311 137.98 316.281 139.93 316.221 141.07H318.531C318.501 139.6 318.471 137.05 318.441 135.31C320.721 134.23 322.851 133.36 324.531 132.73C325.341 132.4 326.421 131.98 327.201 131.77L326.211 129.52C325.371 129.97 324.651 130.3 323.751 130.69C322.191 131.41 320.361 132.13 318.321 133.12C317.841 131.38 316.251 130.42 314.301 130.42C313.011 130.42 311.271 130.81 310.131 131.53C311.151 130.18 312.141 128.47 312.831 126.88C316.101 126.76 319.821 126.52 322.791 126.04L322.821 123.82C320.001 124.33 316.731 124.6 313.671 124.75C314.121 123.34 314.361 122.17 314.541 121.27ZM342.561 127.84H336.711V123.85H342.561V127.84ZM336.711 136.03H342.561V139.72C340.551 140.02 338.541 140.32 336.711 140.56V136.03ZM342.561 133.99H336.711V129.82H342.561V133.99ZM346.821 123.85V121.78H332.271V123.85H334.611V140.86C333.531 141.01 332.541 141.13 331.701 141.22L332.091 143.47C334.941 142.99 338.781 142.42 342.561 141.79V147.22H344.721V123.85H346.821ZM357.201 123.91L356.781 124H346.071V126.19H356.181C355.491 130.6 354.201 134.35 352.461 137.41C350.751 134.23 349.551 130.45 348.771 126.31L346.641 126.7C347.631 131.62 349.041 135.97 351.111 139.51C349.311 141.97 347.181 143.83 344.811 145.06C345.291 145.48 345.951 146.29 346.281 146.86C348.561 145.54 350.631 143.77 352.401 141.52C354.021 143.77 356.001 145.6 358.371 146.95C358.731 146.38 359.451 145.54 359.961 145.12C357.471 143.86 355.431 141.94 353.781 139.54C356.181 135.73 357.861 130.75 358.641 124.33L357.201 123.91ZM385.071 124.93H375.201V122.53H385.071V124.93ZM385.071 128.98H375.201V126.55H385.071V128.98ZM387.291 120.85H373.041V130.69H387.291V120.85ZM368.331 120.01C367.011 122.11 364.341 124.6 361.971 126.13C362.361 126.58 362.901 127.42 363.141 127.93C365.781 126.16 368.691 123.37 370.461 120.82L368.331 120.01ZM368.871 126.55C367.101 129.64 364.191 132.67 361.491 134.65C361.881 135.19 362.481 136.33 362.661 136.78C363.831 135.88 365.031 134.77 366.171 133.54V147.28H368.361V131.02C369.261 129.82 370.131 128.56 370.821 127.33L368.871 126.55ZM373.101 140.62C374.481 141.94 376.071 143.77 376.791 144.97L378.501 143.77C377.721 142.6 376.071 140.83 374.691 139.6L373.101 140.62ZM389.241 137.17H384.771V134.62H388.701V132.7H371.211V134.62H382.551V137.17H370.521V139.09H382.551V144.79C382.551 145.18 382.431 145.3 381.951 145.33C381.531 145.36 380.031 145.36 378.351 145.3C378.651 145.9 378.981 146.71 379.071 147.34C381.321 147.34 382.731 147.31 383.631 146.98C384.501 146.62 384.771 146.05 384.771 144.85V139.09H389.241V137.17ZM400.941 121.63L397.911 121.6C398.091 122.47 398.151 123.55 398.151 124.66C398.151 127.81 397.851 135.4 397.851 139.84C397.851 144.73 400.821 146.53 405.141 146.53C411.741 146.53 415.611 142.75 417.681 139.9L415.971 137.86C413.811 140.98 410.721 144.07 405.231 144.07C402.381 144.07 400.311 142.9 400.311 139.6C400.311 135.13 400.521 128.05 400.671 124.66C400.701 123.67 400.791 122.62 400.941 121.63ZM428.421 141.85C428.421 140.47 429.981 139.36 432.831 139.36C433.821 139.36 434.811 139.45 435.741 139.66C435.741 140.44 435.771 141.16 435.771 141.67C435.771 143.74 434.301 144.28 432.591 144.28C429.621 144.28 428.421 143.23 428.421 141.85ZM437.931 121.18H435.381C435.441 121.6 435.501 122.47 435.501 122.98C435.501 123.61 435.501 124.33 435.501 125.11C435.021 125.11 434.571 125.11 434.121 125.11C432.111 125.11 428.391 124.81 426.441 124.45L426.471 126.67C428.361 126.88 432.051 127.18 434.151 127.18C434.601 127.18 435.051 127.18 435.471 127.18C435.471 128.41 435.471 129.73 435.471 130.93C435.471 131.08 435.471 131.23 435.471 131.38C434.931 131.38 434.391 131.38 433.851 131.38C431.871 131.38 428.451 131.17 426.291 130.81L426.321 133.06C428.481 133.3 431.781 133.48 433.821 133.48C434.391 133.48 434.961 133.48 435.531 133.48C435.561 134.77 435.621 136.21 435.651 137.56C434.841 137.44 434.001 137.38 433.131 137.38C428.811 137.38 426.201 139.24 426.201 141.97C426.201 144.85 428.541 146.38 432.861 146.38C436.761 146.38 438.141 144.25 438.141 142.18C438.141 141.7 438.111 141.07 438.081 140.32C441.081 141.4 443.571 143.23 445.341 144.85L446.721 142.72C445.011 141.31 441.951 139.12 437.961 138.04C437.901 136.6 437.811 134.98 437.751 133.42C440.601 133.33 443.241 133.09 446.061 132.73L446.091 130.48C443.361 130.9 440.631 131.17 437.721 131.29C437.721 131.17 437.721 131.05 437.721 130.93C437.721 129.82 437.721 128.41 437.721 127.09C440.601 126.94 443.451 126.67 445.821 126.4L445.851 124.21C443.151 124.63 440.421 124.9 437.721 125.02C437.721 124.24 437.751 123.58 437.751 123.19C437.781 122.32 437.841 121.72 437.931 121.18ZM460.941 121.63L457.911 121.6C458.091 122.47 458.151 123.55 458.151 124.66C458.151 127.81 457.851 135.4 457.851 139.84C457.851 144.73 460.821 146.53 465.141 146.53C471.741 146.53 475.611 142.75 477.681 139.9L475.971 137.86C473.811 140.98 470.721 144.07 465.231 144.07C462.381 144.07 460.311 142.9 460.311 139.6C460.311 135.13 460.521 128.05 460.671 124.66C460.701 123.67 460.791 122.62 460.941 121.63ZM497.481 137.83L495.231 137.62C494.991 138.88 494.781 139.99 494.781 141.16C494.781 144.13 497.361 145.57 502.101 145.57C504.291 145.57 506.271 145.39 507.891 145.15L507.981 142.72C506.151 143.11 504.081 143.32 502.131 143.32C497.841 143.32 497.061 141.94 497.061 140.53C497.061 139.75 497.211 138.82 497.481 137.83ZM494.031 121.39L491.151 121.15C491.211 121.78 491.181 122.8 491.061 123.64C490.971 124.24 490.821 125.2 490.611 126.25C489.441 126.34 488.361 126.4 487.371 126.4C486.291 126.4 485.211 126.37 483.771 126.19L483.861 128.53C484.941 128.59 486.021 128.65 487.341 128.65C488.181 128.65 489.111 128.62 490.101 128.56C489.861 129.64 489.591 130.78 489.321 131.77C488.211 136 486.081 142.09 484.281 145.18L486.921 146.08C488.481 142.78 490.521 136.6 491.601 132.34C491.961 131.02 492.291 129.64 492.561 128.32C494.661 128.08 496.851 127.75 498.801 127.3V124.93C496.971 125.41 494.991 125.77 493.041 126.01C493.221 125.2 493.371 124.42 493.491 123.79C493.611 123.19 493.851 122.05 494.031 121.39ZM496.851 130.54V132.76C498.711 132.55 500.541 132.46 502.431 132.46C504.171 132.46 505.941 132.61 507.471 132.82L507.531 130.54C505.911 130.36 504.111 130.27 502.341 130.27C500.421 130.27 498.441 130.39 496.851 130.54Z" fill="black"/>
</g>
<g id="Oh, no we got a 404" filter="url(#filter1_d)">
<path d="M69.745 202.72C76.585 202.72 80.95 197.275 80.95 187.24C80.905 178.33 77.35 173.38 71.005 173.38C64.165 173.38 59.8 178.825 59.8 188.86C59.8 197.77 63.4 202.72 69.745 202.72ZM70.195 177.655C73.705 177.655 75.595 181.255 75.595 188.41C75.595 195.16 73.975 198.445 70.555 198.445C67.045 198.445 65.155 194.845 65.155 187.69C65.155 180.94 66.775 177.655 70.195 177.655ZM95.6112 183.28C97.9512 183.28 99.3912 184.54 99.3912 188.5V202H104.386V186.745C104.386 181.3 101.866 179.005 97.9512 179.005C95.1162 179.005 92.9112 180.175 91.2012 181.615V170.005L86.2062 170.455V202H91.2012V184.63C92.5062 183.82 93.9462 183.28 95.6112 183.28ZM115.492 208.975L118.147 209.74C122.062 206.185 124.672 200.335 122.647 195.295L116.212 195.61C118.507 200.335 118.057 205.69 115.492 208.975ZM169.835 183.28C172.13 183.28 173.615 184.54 173.615 188.5V202H178.61V186.745C178.61 181.3 176.09 179.005 172.175 179.005C169.07 179.005 166.775 180.445 164.975 182.065L164.705 179.5L160.07 179.77C160.34 184.855 160.43 191.92 160.43 202H165.47C165.47 194.8 165.38 188.95 165.29 184.765C166.685 183.865 168.125 183.28 169.835 183.28ZM193.361 202.675C199.346 202.675 204.296 197.77 204.296 190.3C204.296 183.01 200.426 178.915 194.801 178.915C188.861 178.915 183.866 184.045 183.866 191.335C183.866 198.58 187.826 202.675 193.361 202.675ZM194.261 198.625C191.021 198.625 188.951 195.835 188.951 190.39C188.951 185.485 190.931 183.01 193.946 183.01C197.186 183.01 199.256 185.8 199.256 191.2C199.256 196.15 197.276 198.625 194.261 198.625ZM247.073 202H251.573C252.293 197.14 253.328 188.095 253.778 179.59H249.098C248.918 185.53 248.738 190.12 248.513 196.15H248.378C247.793 194.17 245.633 187.915 245.093 186.295H242.213C241.718 187.87 239.648 194.08 239.063 196.06H238.883C238.613 190.03 238.388 185.485 238.208 179.59H233.393C233.798 188.095 234.743 197.14 235.553 202H239.918L243.428 190.885L247.073 202ZM276.81 202.54L277.305 198.355C267.405 198.13 264.03 196.645 263.49 192.145L277.935 191.74C278.745 183.955 275.73 179.005 269.43 179.005C263.535 179.005 258.495 184.315 258.495 191.2C258.495 198.49 262.32 202.675 276.81 202.54ZM268.53 183.1C271.635 183.1 273.03 185.305 273.165 188.86C270.375 188.95 265.83 189.085 263.445 189.175C263.67 184.99 265.47 183.1 268.53 183.1ZM310.902 209.875C323.682 209.245 326.742 204.115 326.742 195.925C326.742 192.28 326.697 182.605 326.607 180.13C324.357 179.455 322.107 179.05 319.857 179.05C313.242 179.05 307.707 183.595 307.707 190.705C307.707 196.465 311.262 200.02 315.942 200.02C318.327 200.02 320.217 199.21 321.702 198.13C321.567 203.8 320.397 204.565 310.452 205.375L310.902 209.875ZM317.877 196.105C314.952 196.105 312.657 193.99 312.657 189.535C312.657 185.395 314.862 183.28 318.057 183.28C319.227 183.28 320.442 183.505 321.702 183.865V195.16C320.487 195.745 319.182 196.105 317.877 196.105ZM341.808 202.675C347.793 202.675 352.743 197.77 352.743 190.3C352.743 183.01 348.873 178.915 343.248 178.915C337.308 178.915 332.313 184.045 332.313 191.335C332.313 198.58 336.273 202.675 341.808 202.675ZM342.708 198.625C339.468 198.625 337.398 195.835 337.398 190.39C337.398 185.485 339.378 183.01 342.393 183.01C345.633 183.01 347.703 185.8 347.703 191.2C347.703 196.15 345.723 198.625 342.708 198.625ZM375.73 202.36L376.27 198.22C369.43 198.085 367.315 197.275 367.315 193.765V183.415H375.775V179.59H367.315V173.11L362.365 173.56V179.59H358.225L357.775 183.415H362.365V194.53C362.365 200.29 365.65 202.54 375.73 202.36ZM415.762 198.715C413.467 198.715 411.982 197.545 411.982 195.565C411.982 193.09 413.827 191.605 420.757 192.325C420.802 194.17 420.802 195.655 420.892 196.96C419.317 198.04 417.472 198.715 415.762 198.715ZM421.522 202.135L426.112 201.91C425.887 198.805 425.707 195.25 425.707 190.885C425.707 182.155 422.332 179.365 408.832 179.14L408.337 183.37C417.967 183.685 420.442 184.72 420.712 189.04C411.262 188.635 407.032 192.235 407.032 196.735C407.032 200.38 409.777 202.585 413.782 202.585C417.022 202.585 419.407 201.1 421.117 199.435C421.252 200.515 421.477 201.955 421.522 202.135ZM476.584 196.735L476.989 192.415H473.794V182.65L469.204 183.145V192.415H461.059C461.149 191.155 464.839 176.26 465.334 174.145L459.979 173.785C457.954 181.975 456.964 190.93 457.144 196.735H469.204V202H473.794V196.735H476.584ZM490.661 202.585C497.141 202.585 501.146 196.6 501.146 187.6C501.146 178.825 497.861 173.515 491.336 173.515C484.856 173.515 480.806 179.5 480.806 188.5C480.806 197.275 484.091 202.585 490.661 202.585ZM485.576 187.6C485.576 181.21 487.331 177.565 490.976 177.565C493.631 177.565 495.251 179.815 495.971 183.595L485.621 188.95C485.576 188.545 485.576 188.05 485.576 187.6ZM491.021 198.535C488.411 198.535 486.746 196.375 486.026 192.685L496.376 187.33C496.376 187.735 496.376 188.095 496.376 188.5C496.376 194.89 494.666 198.535 491.021 198.535ZM526.067 196.735L526.472 192.415H523.277V182.65L518.687 183.145V192.415H510.542C510.632 191.155 514.322 176.26 514.817 174.145L509.462 173.785C507.437 181.975 506.447 190.93 506.627 196.735H518.687V202H523.277V196.735H526.067Z" fill="black"/>
</g>
<path id="Vector 8" d="M18 225H553" stroke="#384357" stroke-width="4"/>
</g>
<g id="oh-no">
<path id="&#224;&#184;&#156;&#224;&#184;&#180;&#224;&#184;&#148;&#224;&#184;&#148;&#224;&#185;&#137;&#224;&#184;&#178;&#224;&#184;&#153;" d="M575.216 148V138.98C575.216 138.407 575.329 137.967 575.556 137.66C575.783 137.353 576.076 137.14 576.436 137.02C576.796 136.9 577.183 136.84 577.596 136.84C577.743 136.84 577.929 136.86 578.156 136.9C578.396 136.94 578.603 137 578.776 137.08L578.556 138.42C578.423 138.38 578.289 138.353 578.156 138.34C578.023 138.313 577.916 138.3 577.836 138.3C577.503 138.3 577.269 138.38 577.136 138.54C577.016 138.7 576.956 138.927 576.956 139.22V142.32C576.956 142.733 576.949 143.167 576.936 143.62C576.936 144.06 576.916 144.593 576.876 145.22H576.956C577.223 144.633 577.469 144.147 577.696 143.76C577.923 143.36 578.136 142.987 578.336 142.64L579.396 140.84H580.516L581.576 142.64C581.883 143.173 582.143 143.633 582.356 144.02C582.569 144.393 582.769 144.793 582.956 145.22H583.036C582.996 144.593 582.969 144.06 582.956 143.62C582.956 143.167 582.956 142.733 582.956 142.32V137.04H584.696V148H583.116L580.016 142.76H579.936L576.796 148H575.216ZM576.204 135.3V134.52L577.664 133.88H584.704V135.3H576.204ZM591.825 148.2C590.758 148.2 589.918 147.953 589.305 147.46C588.705 146.953 588.278 146.273 588.025 145.42C587.785 144.567 587.665 143.627 587.665 142.6C587.665 141.093 587.872 139.927 588.285 139.1C588.698 138.26 589.272 137.673 590.005 137.34C590.752 137.007 591.612 136.84 592.585 136.84C594.185 136.84 595.345 137.187 596.065 137.88C596.798 138.573 597.165 139.513 597.165 140.7V148H595.405V140.86C595.405 140.033 595.198 139.407 594.785 138.98C594.372 138.54 593.658 138.32 592.645 138.32C592.032 138.32 591.478 138.433 590.985 138.66C590.505 138.887 590.125 139.307 589.845 139.92C589.578 140.533 589.445 141.433 589.445 142.62C589.445 143.393 589.518 144.093 589.665 144.72C589.825 145.333 590.098 145.82 590.485 146.18C590.872 146.54 591.412 146.72 592.105 146.72C592.305 146.72 592.492 146.707 592.665 146.68C592.838 146.653 593.005 146.613 593.165 146.56L593.345 147.94C593.132 148.033 592.885 148.1 592.605 148.14C592.338 148.18 592.078 148.2 591.825 148.2ZM604.149 148.2C603.082 148.2 602.242 147.953 601.629 147.46C601.029 146.953 600.602 146.273 600.349 145.42C600.109 144.567 599.989 143.627 599.989 142.6C599.989 141.093 600.196 139.927 600.609 139.1C601.022 138.26 601.596 137.673 602.329 137.34C603.076 137.007 603.936 136.84 604.909 136.84C606.509 136.84 607.669 137.187 608.389 137.88C609.122 138.573 609.489 139.513 609.489 140.7V148H607.729V140.86C607.729 140.033 607.522 139.407 607.109 138.98C606.696 138.54 605.982 138.32 604.969 138.32C604.356 138.32 603.802 138.433 603.309 138.66C602.829 138.887 602.449 139.307 602.169 139.92C601.902 140.533 601.769 141.433 601.769 142.62C601.769 143.393 601.842 144.093 601.989 144.72C602.149 145.333 602.422 145.82 602.809 146.18C603.196 146.54 603.736 146.72 604.429 146.72C604.629 146.72 604.816 146.707 604.989 146.68C605.162 146.653 605.329 146.613 605.489 146.56L605.669 147.94C605.456 148.033 605.209 148.1 604.929 148.14C604.662 148.18 604.402 148.2 604.149 148.2ZM603.753 135.3V134.42C604.02 134.367 604.293 134.293 604.573 134.2C604.853 134.093 605.087 133.96 605.273 133.8C605.46 133.627 605.553 133.42 605.553 133.18C605.553 133.02 605.507 132.887 605.413 132.78C605.307 132.66 605.147 132.6 604.933 132.6C604.8 132.6 604.667 132.627 604.533 132.68C604.387 132.733 604.26 132.78 604.153 132.82L603.753 131.72C604.02 131.507 604.32 131.367 604.653 131.3C604.973 131.233 605.233 131.2 605.433 131.2C605.967 131.2 606.387 131.347 606.693 131.64C606.987 131.933 607.133 132.307 607.133 132.76C607.133 132.987 607.093 133.2 607.013 133.4C606.933 133.587 606.833 133.753 606.713 133.9H609.953V135.3H603.753ZM615.833 148V140.22C615.833 139.567 615.68 139.087 615.373 138.78C615.08 138.473 614.58 138.32 613.873 138.32C613.393 138.32 612.94 138.387 612.513 138.52C612.1 138.64 611.7 138.813 611.313 139.04V137.44C611.58 137.307 611.96 137.173 612.453 137.04C612.947 136.907 613.533 136.84 614.213 136.84C615.253 136.84 616.08 137.073 616.693 137.54C617.307 138.007 617.613 138.813 617.613 139.96V148H615.833ZM624.638 148.2C623.465 148.2 622.538 147.893 621.858 147.28C621.192 146.667 620.858 145.693 620.858 144.36V137.04H622.638V144.26C622.638 145.887 623.432 146.7 625.018 146.7C625.952 146.7 626.672 146.4 627.178 145.8C627.698 145.2 627.958 144.393 627.958 143.38V137.04H629.738V148H628.258L628.178 146.38H628.078C627.838 146.913 627.418 147.353 626.818 147.7C626.232 148.033 625.505 148.2 624.638 148.2Z" fill="black"/>
<path id="Mauvais c&#195;&#180;t&#195;&#169;" d="M689.623 76.6C689.623 76.6 687.723 83.44 687.583 83.98H687.503C687.363 83.44 685.443 76.6 685.443 76.6H683.203V89H685.263L685.143 80.72H685.223L686.863 86.54H688.123L689.743 80.72H689.823L689.703 89H691.823V76.6H689.623ZM701.18 89.08L703.5 88.92C702.44 84.8 701.34 80.72 700.12 76.58H696.94C695.7 80.72 694.62 84.88 693.56 89H695.84C696.12 87.86 696.38 86.7 696.66 85.56H700.34C700.62 86.74 700.9 87.92 701.18 89.08ZM698.42 78.46H698.58C699.04 80.24 699.5 82.06 699.94 83.88H697.06C697.5 82.06 697.96 80.26 698.42 78.46ZM709.416 89.32C712.076 89.32 713.716 87.58 713.716 84.7V76.6H711.416V85.1C711.416 86.7 710.836 87.34 709.576 87.34C708.376 87.34 707.636 86.56 707.636 84.78V76.6H705.336V84.88C705.336 87.72 706.856 89.32 709.416 89.32ZM722.132 89.02C723.352 84.86 724.432 80.72 725.432 76.6H723.152C722.372 80.02 721.552 83.52 720.652 86.94H720.472C719.552 83.52 718.712 79.94 717.932 76.52L715.592 76.68C716.592 80.8 717.692 84.86 718.912 89.02H722.132ZM734.168 89.08L736.488 88.92C735.428 84.8 734.328 80.72 733.108 76.58H729.928C728.688 80.72 727.608 84.88 726.548 89H728.828C729.108 87.86 729.368 86.7 729.648 85.56H733.328C733.608 86.74 733.888 87.92 734.168 89.08ZM731.408 78.46H731.568C732.028 80.24 732.488 82.06 732.928 83.88H730.048C730.488 82.06 730.948 80.26 731.408 78.46ZM743.664 78.38H746.524V76.6H738.504V78.38H741.364V87.22H738.504V89H746.464L746.624 87.22H743.664V78.38ZM749.6 87.08V89.14C755.58 89.38 757.72 87.32 757.72 85.36C757.72 82.4 751.94 81.58 751.94 79.72C751.94 78.82 752.94 78.28 756.96 78.56L756.84 76.5C751.68 76.22 749.56 78.18 749.56 80.04C749.56 82.9 755.34 83.62 755.34 85.64C755.34 86.68 753.82 87.4 749.6 87.08ZM779.672 87.12C774.932 87.36 773.592 85.94 773.592 82.68C773.592 79.98 774.452 78.52 779.552 78.62L779.432 76.42C773.272 76.54 771.212 79.52 771.212 82.98C771.212 86.74 773.072 89.6 779.472 89.08L779.672 87.12ZM788.928 75.2L790.288 73.9L786.608 71.1H786.468L782.828 74.16L783.908 75.18L786.388 73.16L788.928 75.2ZM786.208 89.32C789.248 89.32 791.188 86.9 791.188 82.44C791.168 78.48 789.588 76.28 786.768 76.28C783.728 76.28 781.788 78.7 781.788 83.16C781.788 87.12 783.388 89.32 786.208 89.32ZM786.408 78.18C787.968 78.18 788.808 79.78 788.808 82.96C788.808 85.96 788.088 87.42 786.568 87.42C785.008 87.42 784.168 85.82 784.168 82.64C784.168 79.64 784.888 78.18 786.408 78.18ZM798.664 78.52H802.204V76.6H792.864L792.704 78.52H796.344V89H798.664V78.52ZM806.4 74.4L806.96 75.38C808.42 74.84 810.82 73.6 812.14 72.54L810.5 70.86C809.44 72.04 807.56 73.64 806.4 74.4ZM812.76 87.08H807.2V83.6H811.86V81.92H807.2V78.52H812.64V76.6H804.9V89H812.58L812.76 87.08Z" fill="black"/>
<path id="&#233;&#140;&#175;&#233;&#130;&#138;" d="M647.64 203.72V197.86H650.54V196.56H647.64V194.46H649.92V193.18H644.68C645.74 191.98 646.54 190.74 647.12 189.66C648.26 190.72 649.5 192.22 650.14 193.18L651.14 192.06C650.4 190.98 648.84 189.4 647.56 188.28H646.22C645.58 189.86 644.34 191.88 642.58 193.4C642.86 193.58 643.32 194.06 643.52 194.36C643.74 194.16 643.96 193.96 644.16 193.74V194.46H646.34V196.56H643.14V197.86H646.34V203.96C645.04 204.22 643.86 204.42 642.94 204.58L643.28 205.92C645.36 205.52 648.24 204.94 650.92 204.36L650.84 203.1L647.64 203.72ZM643.58 199.26C643.98 200.44 644.32 201.96 644.38 202.98L645.48 202.66C645.38 201.68 645.04 200.16 644.62 199L643.58 199.26ZM649.26 202.78C649.6 201.84 650.04 200.36 650.42 199.12L649.24 198.76C649.04 199.86 648.62 201.46 648.3 202.46L649.26 202.78ZM658.54 199.26V201.2H653.4V199.26H658.54ZM653.4 204.36V202.36H658.54V204.36H653.4ZM652.02 206.52H653.4V205.62H658.54V206.48H659.98V198.02H652.02V206.52ZM654.48 192.02H657.16V194.98H654.48V192.02ZM658.52 194.98V192.02H660.7V190.74H658.52V188.26H657.16V190.74H654.48V188.26H653.14V190.74H651.24V192.02H653.14V194.98H650.48V196.3H661.16V194.98H658.52ZM670.98 193.16H677.72V194.02H670.98V193.16ZM670.98 191.58H677.72V192.42H670.98V191.58ZM670.98 190H677.72V190.82H670.98V190ZM669.42 196.48H672.02C671.66 197.46 670.72 197.92 668.64 198.2C668.86 198.4 669.16 198.8 669.28 199.06C671.66 198.62 672.72 197.9 673.16 196.48H674.84V197.22C674.84 198.24 675.12 198.46 676.3 198.46H677.98C678.76 198.46 679.08 198.18 679.18 197.2C678.88 197.12 678.46 197 678.24 196.84C678.2 197.5 678.12 197.58 677.8 197.58H676.44C676.04 197.58 675.98 197.54 675.98 197.22V196.48H679.34V197.64H680.68V195.6H674.88V194.78H679.16V189.24H674.66C674.82 189 675 188.72 675.18 188.44L673.64 188.22C673.56 188.5 673.4 188.88 673.26 189.24H669.6V194.78H673.5V195.6H668.12V197.64H669.42V196.48ZM677.34 201.82C677.16 202.64 676.96 203.04 676.74 203.22C676.58 203.34 676.42 203.36 676.1 203.36C675.76 203.36 674.88 203.34 673.98 203.24C674.14 203.5 674.24 203.9 674.26 204.16C675.22 204.24 676.12 204.26 676.54 204.24C677.04 204.22 677.38 204.16 677.7 203.9C678.14 203.56 678.42 202.88 678.7 201.42C678.76 201.26 678.78 200.92 678.78 200.92H673.14C673.22 200.68 673.3 200.42 673.36 200.16H680.84V199.24H674.88V198.02H673.52V199.24H668.04V200.16H672.06C671.66 201.64 670.66 202.58 668.14 203.14C668.4 203.36 668.72 203.84 668.86 204.14C670.84 203.64 672.02 202.9 672.7 201.82H677.34ZM667.86 190.86C667.24 190.1 665.86 189.12 664.7 188.52L663.72 189.42C664.88 190.06 666.22 191.08 666.82 191.84L667.86 190.86ZM667.3 194.8C666.62 194.06 665.18 193.1 663.98 192.54L663.04 193.46C664.24 194.1 665.64 195.1 666.3 195.84L667.3 194.8ZM666.84 197.5H662.94V198.88H665.44V202.68C664.54 203.5 663.58 204.34 662.74 204.94L663.52 206.36C664.48 205.5 665.38 204.66 666.24 203.8C667.52 205.36 669.36 206.06 672 206.16C674.24 206.24 678.5 206.2 680.72 206.12C680.8 205.68 681.02 205.02 681.22 204.68C678.82 204.84 674.2 204.88 671.98 204.8C669.62 204.7 667.82 204.04 666.84 202.56V197.5Z" fill="black"/>
<path id="Fel sida" d="M693.076 150.9V149.12H688.356V145.52H693.896V143.6H686.056V156H688.356V150.9H693.076ZM704.792 154.08H699.232V150.6H703.892V148.92H699.232V145.52H704.672V143.6H696.932V156H704.612L704.792 154.08ZM715.788 156L715.988 154.08H710.388V143.6H708.088V156H715.788ZM729.6 154.08V156.14C735.58 156.38 737.72 154.32 737.72 152.36C737.72 149.4 731.94 148.58 731.94 146.72C731.94 145.82 732.94 145.28 736.96 145.56L736.84 143.5C731.68 143.22 729.56 145.18 729.56 147.04C729.56 149.9 735.34 150.62 735.34 152.64C735.34 153.68 733.82 154.4 729.6 154.08ZM745.656 145.38H748.516V143.6H740.496V145.38H743.356V154.22H740.496V156H748.456L748.616 154.22H745.656V145.38ZM760.152 149.56C760.152 144.72 757.872 142.76 751.492 143.6V156C757.472 156.84 760.152 154.4 760.152 149.56ZM757.832 149.9C757.832 153.22 756.792 154.64 753.752 154.2V145.36C756.832 145.02 757.832 146.58 757.832 149.9ZM769.148 156.08L771.468 155.92C770.408 151.8 769.308 147.72 768.088 143.58H764.908C763.668 147.72 762.588 151.88 761.528 156H763.808C764.088 154.86 764.348 153.7 764.628 152.56H768.308C768.588 153.74 768.868 154.92 769.148 156.08ZM766.388 145.46H766.548C767.008 147.24 767.468 149.06 767.908 150.88H765.028C765.468 149.06 765.928 147.26 766.388 145.46Z" fill="black"/>
<path id="Z&#197;&#130;a strona" d="M762.74 243L762.9 241L756.8 241.04L762.74 232.54V230.6H754.48L754.32 232.6L760.24 232.56L754.28 241.06V243H762.74ZM773.796 243L773.996 241.08H768.396V236.28L771.036 234.94L770.696 233.44L768.396 234.6V230.6H766.096V235.76L764.556 236.54L764.896 238.04L766.096 237.44V243H773.796ZM783.172 243.08L785.492 242.92C784.432 238.8 783.332 234.72 782.112 230.58H778.932C777.692 234.72 776.612 238.88 775.552 243H777.832C778.112 241.86 778.372 240.7 778.652 239.56H782.332C782.612 240.74 782.892 241.92 783.172 243.08ZM780.412 232.46H780.572C781.032 234.24 781.492 236.06 781.932 237.88H779.052C779.492 236.06 779.952 234.26 780.412 232.46ZM798.604 241.08V243.14C804.584 243.38 806.724 241.32 806.724 239.36C806.724 236.4 800.944 235.58 800.944 233.72C800.944 232.82 801.944 232.28 805.964 232.56L805.844 230.5C800.684 230.22 798.564 232.18 798.564 234.04C798.564 236.9 804.344 237.62 804.344 239.64C804.344 240.68 802.824 241.4 798.604 241.08ZM814.68 232.52H818.22V230.6H808.88L808.72 232.52H812.36V243H814.68V232.52ZM827.116 243.18L829.576 242.88L826.656 237.52C827.816 236.68 828.676 235.6 828.676 234.04C828.676 231.46 826.756 229.82 820.616 230.62V243H822.876V238.72L824.836 238.68L827.116 243.18ZM822.876 232.36C825.296 232.04 826.416 232.9 826.416 234.54C826.416 235.62 825.876 236.5 825.056 237.06L822.876 237.12V232.36ZM835.212 243.32C838.252 243.32 840.192 240.9 840.192 236.44C840.172 232.48 838.592 230.28 835.772 230.28C832.732 230.28 830.792 232.7 830.792 237.16C830.792 241.12 832.392 243.32 835.212 243.32ZM835.412 232.18C836.972 232.18 837.812 233.78 837.812 236.96C837.812 239.96 837.092 241.42 835.572 241.42C834.012 241.42 833.172 239.82 833.172 236.64C833.172 233.64 833.892 232.18 835.412 232.18ZM848.648 243H850.608V230.6H848.488L848.588 238.78H848.508L844.528 230.6H842.368V243H844.488L844.408 234.72H844.508L848.648 243ZM860.144 243.08L862.464 242.92C861.404 238.8 860.304 234.72 859.084 230.58H855.904C854.664 234.72 853.584 238.88 852.524 243H854.804C855.084 241.86 855.344 240.7 855.624 239.56H859.304C859.584 240.74 859.864 241.92 860.144 243.08ZM857.384 232.46H857.544C858.004 234.24 858.464 236.06 858.904 237.88H856.024C856.464 236.06 856.924 234.26 857.384 232.46Z" fill="black"/>
<path id="&#208;&#157;&#208;&#181;&#208;&#191;&#209;&#128;&#208;&#176;&#208;&#178;&#208;&#184;&#208;&#187;&#209;&#140;&#208;&#189;&#208;&#176;&#209;&#143; &#209;&#129;&#209;&#130;&#208;&#190;&#209;&#128;&#208;&#190;&#208;&#189;&#208;&#176;" d="M555.116 292H553.316V285.34H545.996V292H544.196V277.72H545.996V283.76H553.316V277.72H555.116V292ZM567 292H559.02V277.72H567V279.3H560.82V283.76H566.64V285.32H560.82V290.42H567V292ZM570.133 292V277.72H580.853V292H579.073V279.3H571.933V292H570.133ZM588.542 277.72C590.409 277.72 591.769 278.087 592.622 278.82C593.476 279.553 593.902 280.587 593.902 281.92C593.902 282.707 593.722 283.447 593.362 284.14C593.016 284.82 592.422 285.373 591.582 285.8C590.756 286.227 589.629 286.44 588.202 286.44H586.562V292H584.762V277.72H588.542ZM588.382 279.26H586.562V284.9H588.002C589.362 284.9 590.376 284.68 591.042 284.24C591.709 283.8 592.042 283.053 592.042 282C592.042 281.08 591.749 280.393 591.162 279.94C590.576 279.487 589.649 279.26 588.382 279.26ZM604.836 292L603.116 287.58H597.456L595.756 292H593.936L599.516 277.66H601.136L606.696 292H604.836ZM600.976 281.66C600.936 281.553 600.869 281.36 600.776 281.08C600.682 280.8 600.589 280.513 600.496 280.22C600.416 279.913 600.349 279.68 600.296 279.52C600.202 279.933 600.096 280.34 599.976 280.74C599.856 281.127 599.756 281.433 599.676 281.66L598.056 285.98H602.576L600.976 281.66ZM612.729 277.72C614.516 277.72 615.862 277.987 616.769 278.52C617.689 279.04 618.149 279.953 618.149 281.26C618.149 282.1 617.916 282.8 617.449 283.36C616.982 283.907 616.309 284.26 615.429 284.42V284.52C616.029 284.613 616.569 284.787 617.049 285.04C617.542 285.293 617.929 285.653 618.209 286.12C618.489 286.587 618.629 287.193 618.629 287.94C618.629 289.233 618.182 290.233 617.289 290.94C616.409 291.647 615.202 292 613.669 292H608.649V277.72H612.729ZM613.089 283.8C614.316 283.8 615.156 283.607 615.609 283.22C616.062 282.82 616.289 282.233 616.289 281.46C616.289 280.673 616.009 280.113 615.449 279.78C614.902 279.433 614.022 279.26 612.809 279.26H610.449V283.8H613.089ZM610.449 285.3V290.48H613.329C614.596 290.48 615.476 290.233 615.969 289.74C616.462 289.247 616.709 288.6 616.709 287.8C616.709 287.053 616.449 286.453 615.929 286C615.422 285.533 614.509 285.3 613.189 285.3H610.449ZM621.677 277.72H623.357V285.56C623.357 286 623.35 286.493 623.337 287.04C623.323 287.587 623.303 288.087 623.277 288.54C623.263 288.993 623.243 289.327 623.217 289.54H623.297L631.157 277.72H633.157V292H631.477V284.24C631.477 283.747 631.483 283.22 631.497 282.66C631.523 282.1 631.55 281.587 631.577 281.12C631.603 280.653 631.623 280.32 631.637 280.12H631.557L623.677 292H621.677V277.72ZM647.288 292H645.488V279.3H640.968C640.848 280.287 640.715 281.327 640.568 282.42C640.422 283.5 640.275 284.533 640.128 285.52C639.982 286.507 639.835 287.347 639.688 288.04C639.515 288.933 639.302 289.693 639.048 290.32C638.795 290.947 638.455 291.42 638.028 291.74C637.615 292.06 637.068 292.22 636.388 292.22C636.162 292.22 635.928 292.193 635.688 292.14C635.462 292.1 635.262 292.047 635.088 291.98V290.48C635.235 290.547 635.402 290.607 635.588 290.66C635.775 290.7 635.975 290.72 636.188 290.72C636.588 290.72 636.902 290.56 637.128 290.24C637.368 289.907 637.555 289.5 637.688 289.02C637.822 288.527 637.935 288.04 638.028 287.56C638.135 287.053 638.262 286.313 638.408 285.34C638.568 284.353 638.735 283.207 638.908 281.9C639.095 280.593 639.282 279.2 639.468 277.72H647.288V292ZM651.169 292V277.72H652.969V283.76H655.649C656.982 283.76 658.042 283.94 658.829 284.3C659.615 284.66 660.182 285.147 660.529 285.76C660.875 286.373 661.049 287.06 661.049 287.82C661.049 289.073 660.622 290.087 659.769 290.86C658.915 291.62 657.615 292 655.869 292H651.169ZM655.689 290.46C658.022 290.46 659.189 289.58 659.189 287.82C659.189 286.9 658.869 286.253 658.229 285.88C657.589 285.507 656.655 285.32 655.429 285.32H652.969V290.46H655.689ZM674.921 292H673.121V285.34H665.801V292H664.001V277.72H665.801V283.76H673.121V277.72H674.921V292ZM687.785 292L686.065 287.58H680.405L678.705 292H676.885L682.465 277.66H684.085L689.645 292H687.785ZM683.925 281.66C683.885 281.553 683.818 281.36 683.725 281.08C683.631 280.8 683.538 280.513 683.445 280.22C683.365 279.913 683.298 279.68 683.245 279.52C683.151 279.933 683.045 280.34 682.925 280.74C682.805 281.127 682.705 281.433 682.625 281.66L681.005 285.98H685.525L683.925 281.66ZM695.898 286.08L692.198 292H690.098L694.098 285.76C693.592 285.587 693.112 285.347 692.658 285.04C692.218 284.733 691.858 284.313 691.578 283.78C691.298 283.247 691.158 282.56 691.158 281.72C691.158 280.427 691.605 279.44 692.498 278.76C693.392 278.067 694.725 277.72 696.498 277.72H700.498V292H698.698V286.08H695.898ZM696.538 279.26C695.405 279.26 694.532 279.46 693.918 279.86C693.318 280.247 693.018 280.893 693.018 281.8C693.018 282.68 693.312 283.36 693.898 283.84C694.485 284.32 695.392 284.56 696.618 284.56H698.698V279.26H696.538ZM721.488 279.1C719.954 279.1 718.748 279.613 717.868 280.64C716.988 281.667 716.548 283.073 716.548 284.86C716.548 286.633 716.954 288.04 717.768 289.08C718.594 290.107 719.828 290.62 721.468 290.62C722.094 290.62 722.688 290.567 723.248 290.46C723.808 290.353 724.354 290.22 724.888 290.06V291.62C724.354 291.82 723.801 291.967 723.228 292.06C722.668 292.153 721.994 292.2 721.208 292.2C719.754 292.2 718.541 291.9 717.568 291.3C716.594 290.7 715.861 289.847 715.368 288.74C714.888 287.633 714.648 286.333 714.648 284.84C714.648 283.4 714.908 282.133 715.428 281.04C715.961 279.933 716.741 279.073 717.768 278.46C718.794 277.833 720.041 277.52 721.508 277.52C723.014 277.52 724.328 277.8 725.448 278.36L724.728 279.88C724.288 279.68 723.794 279.5 723.248 279.34C722.714 279.18 722.128 279.1 721.488 279.1ZM732.524 292H730.724V279.3H726.264V277.72H736.964V279.3H732.524V292ZM751.187 284.84C751.187 286.32 750.934 287.613 750.427 288.72C749.934 289.813 749.2 290.667 748.227 291.28C747.254 291.893 746.047 292.2 744.607 292.2C743.127 292.2 741.894 291.893 740.907 291.28C739.934 290.667 739.207 289.807 738.727 288.7C738.247 287.593 738.007 286.3 738.007 284.82C738.007 283.353 738.247 282.073 738.727 280.98C739.207 279.887 739.934 279.033 740.907 278.42C741.894 277.807 743.134 277.5 744.627 277.5C746.054 277.5 747.254 277.807 748.227 278.42C749.2 279.02 749.934 279.873 750.427 280.98C750.934 282.073 751.187 283.36 751.187 284.84ZM739.907 284.84C739.907 286.64 740.287 288.06 741.047 289.1C741.807 290.127 742.994 290.64 744.607 290.64C746.234 290.64 747.42 290.127 748.167 289.1C748.914 288.06 749.287 286.64 749.287 284.84C749.287 283.04 748.914 281.633 748.167 280.62C747.42 279.593 746.24 279.08 744.627 279.08C743.014 279.08 741.82 279.593 741.047 280.62C740.287 281.633 739.907 283.04 739.907 284.84ZM758.132 277.72C759.999 277.72 761.359 278.087 762.212 278.82C763.065 279.553 763.492 280.587 763.492 281.92C763.492 282.707 763.312 283.447 762.952 284.14C762.605 284.82 762.012 285.373 761.172 285.8C760.345 286.227 759.219 286.44 757.792 286.44H756.152V292H754.352V277.72H758.132ZM757.972 279.26H756.152V284.9H757.592C758.952 284.9 759.965 284.68 760.632 284.24C761.299 283.8 761.632 283.053 761.632 282C761.632 281.08 761.339 280.393 760.752 279.94C760.165 279.487 759.239 279.26 757.972 279.26ZM778.921 284.84C778.921 286.32 778.668 287.613 778.161 288.72C777.668 289.813 776.935 290.667 775.961 291.28C774.988 291.893 773.781 292.2 772.341 292.2C770.861 292.2 769.628 291.893 768.641 291.28C767.668 290.667 766.941 289.807 766.461 288.7C765.981 287.593 765.741 286.3 765.741 284.82C765.741 283.353 765.981 282.073 766.461 280.98C766.941 279.887 767.668 279.033 768.641 278.42C769.628 277.807 770.868 277.5 772.361 277.5C773.788 277.5 774.988 277.807 775.961 278.42C776.935 279.02 777.668 279.873 778.161 280.98C778.668 282.073 778.921 283.36 778.921 284.84ZM767.641 284.84C767.641 286.64 768.021 288.06 768.781 289.1C769.541 290.127 770.728 290.64 772.341 290.64C773.968 290.64 775.155 290.127 775.901 289.1C776.648 288.06 777.021 286.64 777.021 284.84C777.021 283.04 776.648 281.633 775.901 280.62C775.155 279.593 773.975 279.08 772.361 279.08C770.748 279.08 769.555 279.593 768.781 280.62C768.021 281.633 767.641 283.04 767.641 284.84ZM793.006 292H791.206V285.34H783.886V292H782.086V277.72H783.886V283.76H791.206V277.72H793.006V292ZM805.871 292L804.151 287.58H798.491L796.791 292H794.971L800.551 277.66H802.171L807.731 292H805.871ZM802.011 281.66C801.971 281.553 801.904 281.36 801.811 281.08C801.717 280.8 801.624 280.513 801.531 280.22C801.451 279.913 801.384 279.68 801.331 279.52C801.237 279.933 801.131 280.34 801.011 280.74C800.891 281.127 800.791 281.433 800.711 281.66L799.091 285.98H803.611L802.011 281.66Z" fill="black"/>
</g>
</g>
<defs>
<filter id="filter0_d" x="40.5288" y="120.01" width="475.452" height="39.33" filterUnits="userSpaceOnUse" color-interpolation-filters="sRGB">
<feFlood flood-opacity="0" result="BackgroundImageFix"/>
<feColorMatrix in="SourceAlpha" type="matrix" values="0 0 0 0 0 0 0 0 0 0 0 0 0 0 0 0 0 0 127 0"/>
<feOffset dx="2" dy="6"/>
<feGaussianBlur stdDeviation="3"/>
<feColorMatrix type="matrix" values="0 0 0 0 0.443137 0 0 0 0 0.501961 0 0 0 0 0.588235 0 0 0 1 0"/>
<feBlend mode="normal" in2="BackgroundImageFix" result="effect1_dropShadow"/>
<feBlend mode="normal" in="SourceGraphic" in2="effect1_dropShadow" result="shape"/>
</filter>
<filter id="filter1_d" x="57.8" y="169.005" width="478.672" height="51.87" filterUnits="userSpaceOnUse" color-interpolation-filters="sRGB">
<feFlood flood-opacity="0" result="BackgroundImageFix"/>
<feColorMatrix in="SourceAlpha" type="matrix" values="0 0 0 0 0 0 0 0 0 0 0 0 0 0 0 0 0 0 127 0"/>
<feOffset dx="4" dy="5"/>
<feGaussianBlur stdDeviation="3"/>
<feColorMatrix type="matrix" values="0 0 0 0 0.443137 0 0 0 0 0.501961 0 0 0 0 0.588235 0 0 0 1 0"/>
<feBlend mode="normal" in2="BackgroundImageFix" result="effect1_dropShadow"/>
<feBlend mode="normal" in="SourceGraphic" in2="effect1_dropShadow" result="shape"/>
</filter>
<clipPath id="clip0">
<rect width="992" height="306" fill="white"/>
</clipPath>
</defs>
</svg>
