<?xml version="1.0" standalone="no"?>
<!DOCTYPE svg PUBLIC "-//W3C//DTD SVG 20010904//EN"
 "http://www.w3.org/TR/2001/REC-SVG-20010904/DTD/svg10.dtd">
<svg version="1.0" xmlns="http://www.w3.org/2000/svg"
 width="1280.000000pt" height="931.000000pt" viewBox="0 0 1280.000000 931.000000"
 preserveAspectRatio="xMidYMid meet">
<metadata>
Created by potrace 1.15, written by Peter Selinger 2001-2017
</metadata>
<g transform="translate(0.000000,931.000000) scale(0.100000,-0.100000)"
fill="#000000" stroke="none">
<path d="M12465 9018 c-60 -22 -624 -224 -1252 -449 l-1141 -409 -1149 -189
c-631 -104 -1186 -195 -1233 -203 -70 -11 -109 -11 -225 -1 -77 7 -628 57
-1225 110 l-1085 98 -1420 5 -1420 5 -985 163 c-542 89 -994 163 -1004 165
-15 1 -22 -7 -28 -32 -5 -18 -7 -35 -5 -37 3 -3 484 -84 1222 -204 105 -17
313 -51 464 -76 150 -24 281 -49 290 -54 15 -9 15 -9 -1 -10 -9 0 -20 -5 -24
-12 -5 -7 -3 -8 7 -3 17 11 -7 -22 -195 -260 -82 -104 -154 -196 -159 -203 -7
-9 -7 -16 0 -23 7 -7 70 64 198 226 112 141 198 240 213 246 13 5 34 6 46 2
11 -4 24 -6 27 -5 4 1 78 -100 165 -223 86 -124 163 -225 171 -225 7 0 13 3
13 6 0 3 -68 104 -151 225 -83 120 -148 223 -145 228 4 5 -2 12 -11 14 -10 3
554 5 1252 5 699 0 1262 -2 1252 -5 -15 -4 -23 -17 -15 -25 4 -4 -26 -46 -230
-321 -128 -172 -181 -252 -174 -259 7 -7 75 76 220 269 l210 280 41 0 c48 0
35 14 335 -350 168 -203 203 -239 209 -215 1 4 -88 116 -198 250 -296 359
-275 331 -275 357 0 5 -8 12 -18 14 -40 11 48 6 313 -18 490 -43 1181 -104
1653 -145 251 -22 468 -42 481 -45 21 -5 22 -7 7 -18 -9 -7 -18 -23 -21 -35
-2 -13 -95 -170 -205 -349 -138 -223 -198 -329 -191 -336 11 -11 22 5 259 388
146 237 149 240 182 240 l34 0 155 -312 c85 -172 161 -313 168 -313 7 0 13 2
13 5 0 3 -72 154 -160 336 -89 181 -158 334 -155 339 3 5 -3 18 -15 30 l-20
20 54 0 c30 0 234 29 453 65 219 36 562 93 763 126 482 79 1085 177 1135 185
38 6 39 5 20 -11 -11 -9 -14 -13 -7 -10 18 10 23 18 -167 -285 -106 -168 -156
-257 -148 -262 13 -8 8 -15 202 290 100 159 156 236 172 243 58 22 59 20 261
-282 l191 -287 -347 5 c-418 7 -624 -5 -967 -58 -154 -24 -312 -54 -415 -79
-41 -10 -88 -21 -103 -24 -35 -8 -35 -9 102 -152 l104 -109 201 -5 201 -5
-235 -18 c-129 -11 -277 -21 -327 -24 -51 -3 -93 -9 -93 -12 0 -4 23 -33 51
-64 28 -31 46 -57 41 -57 -6 0 -70 9 -144 20 -340 50 -605 70 -948 70 -407 0
-741 -33 -1110 -109 -52 -11 -96 -19 -96 -18 -1 1 42 64 97 139 91 127 97 138
76 143 -57 13 -430 76 -587 99 -753 109 -1404 95 -2076 -45 -81 -16 -153 -33
-158 -36 -5 -4 1 10 13 31 13 20 22 38 20 40 -2 1 -87 19 -189 39 -604 121
-921 154 -1375 144 -270 -6 -415 -20 -670 -62 -173 -29 -527 -115 -523 -126 2
-5 52 -67 111 -139 l108 -130 57 -1 c115 -3 296 -16 247 -17 -73 -3 -536 -50
-541 -55 -3 -2 43 -62 101 -132 58 -70 105 -131 105 -135 0 -4 -41 -10 -92
-14 -50 -3 -93 -8 -95 -10 -3 -2 43 -62 101 -132 69 -84 102 -130 94 -135 -6
-4 -58 -10 -115 -14 -57 -4 -103 -10 -103 -14 0 -3 45 -60 99 -126 l99 -120
-37 -7 c-20 -4 -55 -7 -78 -7 -24 -1 -43 -3 -43 -6 0 -3 50 -65 110 -139 l111
-133 122 -9 c67 -4 110 -10 95 -12 -31 -4 -38 -21 -10 -23 46 -2 -49 -17 -211
-34 l-178 -18 19 -21 c11 -12 63 -74 116 -138 l97 -118 47 -1 c26 -1 -33 -10
-132 -20 -98 -10 -180 -19 -181 -21 -2 -2 46 -64 107 -138 99 -121 114 -136
147 -140 22 -3 -25 -10 -119 -18 -238 -21 -226 -3 -103 -151 57 -69 113 -131
124 -137 18 -10 10 -13 -49 -19 l-71 -7 109 -131 c59 -73 106 -134 104 -136
-2 -2 -56 -9 -120 -15 l-116 -11 114 -137 113 -138 60 -1 c33 -1 92 -4 130 -8
69 -6 68 -6 -90 -23 -88 -10 -194 -20 -235 -24 -121 -11 -120 -4 -9 -139 110
-134 110 -133 7 -134 -32 -1 -58 -5 -58 -10 0 -5 48 -66 106 -137 115 -140
115 -140 277 -195 394 -132 816 -160 1342 -90 299 40 703 91 766 97 l66 5 101
160 c55 87 97 161 94 163 -4 2 -41 9 -82 16 -41 7 -80 16 -86 19 -8 4 0 24 22
58 l34 53 111 -118 c110 -115 113 -117 193 -145 268 -92 587 -145 881 -148
l134 -2 5 -51 c3 -28 13 -168 21 -311 8 -143 17 -281 20 -308 5 -40 3 -47 -12
-47 -33 0 -119 -47 -156 -85 -132 -136 -81 -368 99 -445 42 -19 44 -21 44 -62
0 -24 -27 -421 -60 -883 -33 -462 -60 -856 -60 -876 0 -31 4 -37 25 -41 21 -5
25 -1 29 26 3 17 19 238 36 491 39 583 34 528 40 480 3 -22 -5 -252 -17 -510
-29 -618 -29 -555 7 -555 29 0 30 2 31 48 1 26 4 37 6 25 2 -13 9 -23 14 -23
5 0 9 -11 9 -25 0 -21 5 -25 29 -25 28 0 30 3 34 42 l4 43 1 -47 c2 -35 6 -48
17 -48 9 0 15 -9 15 -25 0 -21 5 -25 28 -25 l27 0 -3 90 c-3 77 -2 90 12 90
20 0 21 -20 -13 317 -49 477 -44 502 14 68 30 -225 54 -418 54 -427 1 -12 9
-18 26 -18 19 0 25 5 25 22 0 18 -82 679 -165 1323 -13 105 -27 240 -30 300
-3 61 -8 133 -10 161 l-5 51 44 17 c124 47 198 209 154 337 -32 95 -121 173
-211 185 l-48 7 5 46 c3 25 13 168 21 316 9 149 18 288 21 311 l5 41 147 12
c81 7 293 30 472 52 179 21 361 42 406 45 l80 7 118 -126 118 -125 97 -30
c277 -88 520 -130 797 -139 l182 -6 6 -71 c3 -39 10 -150 16 -246 6 -96 12
-196 15 -222 3 -40 1 -48 -13 -48 -32 0 -119 -48 -155 -85 -41 -43 -77 -127
-77 -184 0 -106 70 -214 167 -257 l53 -24 0 -52 c-1 -29 -29 -443 -63 -920
l-62 -866 27 -4 c34 -5 30 -41 68 517 38 557 36 541 38 405 1 -63 -7 -299 -18
-525 -25 -520 -26 -465 10 -465 28 0 30 2 31 43 1 23 3 34 6 25 2 -10 9 -18
14 -18 5 0 9 -11 9 -25 0 -21 5 -25 29 -25 28 0 30 3 34 43 l4 42 1 -47 c2
-35 6 -48 17 -48 9 0 15 -9 15 -25 0 -21 5 -25 28 -25 l27 0 -3 90 c-3 77 -2
90 12 90 20 0 21 -17 -13 319 -17 157 -32 329 -35 381 -5 82 10 -19 94 -667
12 -88 14 -93 36 -93 18 0 24 6 24 22 0 12 -23 200 -50 417 -28 218 -71 554
-95 746 -24 193 -47 395 -50 450 -3 55 -8 127 -10 161 l-5 61 44 17 c53 20
109 72 137 129 27 52 36 151 19 203 -32 97 -123 178 -214 190 l-47 7 5 51 c4
28 11 132 16 231 6 99 13 207 16 241 l6 61 151 12 c84 6 247 23 362 37 338 41
363 44 510 59 77 8 167 16 200 17 l60 3 107 145 c58 80 107 148 107 151 1 4
-44 12 -99 19 -55 7 -100 15 -100 17 0 2 100 142 117 162 2 3 27 -1 56 -8 282
-67 406 -82 735 -88 l292 -5 0 -35 c0 -44 28 -489 35 -564 l6 -55 -48 -12
c-164 -43 -248 -235 -171 -389 27 -55 70 -95 137 -128 l53 -27 -7 -127 c-4
-69 -32 -482 -63 -917 l-57 -790 45 -15 c34 -10 46 -20 48 -37 2 -14 10 -22
22 -22 10 0 57 -13 103 -30 47 -16 95 -30 106 -30 19 0 21 4 15 39 l-6 39 62
23 62 24 -6 60 c-3 33 -46 380 -96 770 -50 391 -93 760 -95 820 -3 61 -7 131
-10 156 l-4 47 42 16 c93 35 167 144 167 247 0 139 -92 255 -221 277 -41 7
-44 10 -42 38 1 16 9 165 19 331 l18 303 30 4 c17 3 137 17 266 32 129 14 267
30 305 35 122 14 368 39 420 41 l50 3 106 145 c58 80 105 148 103 151 -2 4
-46 12 -99 19 -52 8 -95 15 -95 16 0 2 34 49 74 106 50 68 71 105 63 109 -7 4
-34 9 -62 13 -117 16 -117 0 -4 155 54 76 99 140 99 143 0 3 -31 10 -70 17
-38 7 -70 16 -70 19 1 4 39 59 85 122 46 63 82 116 81 117 -1 2 -62 12 -136
23 -73 10 -134 21 -135 22 -2 2 33 53 76 113 l80 110 -43 8 c-85 17 -86 10 17
152 59 82 90 132 82 137 -6 3 -37 10 -69 13 -32 4 -58 9 -58 12 0 2 40 59 88
126 49 67 91 127 95 133 4 7 -36 17 -121 29 -70 10 -128 19 -130 20 -2 1 44
67 102 146 58 79 106 147 106 150 0 3 -45 12 -100 20 l-100 14 75 104 c41 57
73 107 70 111 -3 4 -34 11 -70 15 -36 3 -65 10 -65 14 0 4 38 60 84 124 68 93
81 117 68 121 -9 3 -52 10 -94 17 -43 6 -78 14 -78 16 0 3 34 52 76 110 41 58
77 110 80 117 3 8 -22 16 -77 24 -45 6 -84 14 -87 16 -2 3 41 67 96 143 55 76
99 139 98 140 -14 15 -621 110 -913 143 l-102 12 -189 287 c-200 303 -217 331
-205 332 4 0 -1 4 -11 8 -23 9 -65 -7 934 351 432 155 846 303 920 330 74 27
241 87 370 133 129 47 247 90 262 96 25 9 26 12 16 45 -6 20 -14 35 -17 35 -3
-1 -55 -19 -116 -41z m-8692 -2093 l98 -105 112 -1 112 -2 -150 -12 c-82 -7
-170 -14 -194 -14 l-43 -1 16 24 c19 29 20 29 -87 47 l-68 11 19 32 c57 94 77
126 82 126 3 0 49 -47 103 -105z m-23 -317 l82 -88 -41 0 c-31 0 -39 3 -35 14
4 11 -9 17 -53 26 -32 6 -72 14 -90 18 l-32 7 36 58 c20 32 39 56 43 55 4 -2
44 -42 90 -90z m2656 -76 c-22 -5 -30 3 -21 18 5 8 11 7 22 -2 15 -12 14 -13
-1 -16z m314 -23 l135 -2 -115 -8 c-63 -4 -130 -9 -147 -11 -21 -3 -33 0 -33
8 0 7 -6 15 -12 18 -7 4 -2 4 12 1 14 -2 86 -5 160 -6z m-2953 -165 c37 -41
70 -80 72 -86 5 -13 -108 -5 -186 14 l-53 13 41 68 c23 37 45 67 50 67 4 0 38
-34 76 -76z m-22 -275 l70 -71 -85 6 c-119 8 -132 13 -118 40 16 30 58 96 61
96 1 0 34 -32 72 -71z m5625 -150 c135 0 241 -2 235 -4 -5 -2 -93 -9 -195 -15
-102 -6 -218 -14 -258 -17 -65 -5 -72 -4 -66 10 4 12 -1 20 -17 27 -20 9 -18
10 16 5 22 -2 150 -5 285 -6z m-5200 -205 c249 -7 265 -9 170 -16 -58 -4 -231
-17 -384 -28 -260 -20 -372 -20 -364 -1 2 5 32 56 68 115 l65 106 85 -84 85
-84 275 -8z m-268 -335 c-20 -4 -82 -10 -136 -13 l-99 -7 15 23 c8 13 34 54
58 92 l43 68 78 -78 77 -79 -36 -6z m3152 19 c89 -1 136 -3 106 -5 -30 -2
-169 -12 -309 -22 -238 -17 -285 -16 -379 5 -21 4 -22 7 -10 21 11 14 37 15
222 10 115 -4 282 -8 370 -9z m-3231 -237 l67 -69 -37 -6 c-21 -3 -77 -8 -126
-11 l-87 -7 51 81 c29 45 55 81 59 81 3 0 37 -31 73 -69z m2745 -94 c37 -2 27
-3 -23 -1 -49 2 -103 7 -118 11 l-28 8 22 28 22 28 29 -35 c27 -33 33 -35 96
-39z m-2813 -204 l57 -63 -38 0 c-22 0 -49 -3 -62 -6 -23 -7 -22 -8 20 -51 30
-32 37 -44 23 -40 -11 3 -56 11 -100 18 -44 7 -82 14 -84 15 -5 4 113 193 120
191 3 -1 32 -30 64 -64z m2645 -18 c11 -13 8 -15 -13 -15 -19 0 -25 4 -21 15
4 8 10 15 14 15 4 0 13 -7 20 -15z m-2531 -249 l52 -53 -62 -7 c-34 -3 -77 -6
-95 -6 l-33 0 37 60 c20 33 39 60 42 60 3 0 29 -24 59 -54z m-128 -162 c26
-28 29 -35 14 -31 -11 3 -35 8 -52 12 -37 7 -37 8 -23 36 15 26 21 24 61 -17z
m5554 21 c-25 -8 -115 -11 -115 -4 0 5 28 9 63 8 34 0 58 -2 52 -4z m-5434
-145 l52 -60 121 -1 121 -2 -225 -18 c-123 -10 -226 -16 -228 -14 -6 6 89 155
98 155 5 0 32 -27 61 -60z m2635 -87 c-2 -2 -22 -1 -44 3 -41 6 -41 7 -25 31
l16 24 28 -27 c16 -15 27 -29 25 -31z m-2732 -149 c49 -52 88 -95 85 -98 -2
-2 -30 -7 -62 -11 l-59 -7 27 45 c14 25 22 47 18 50 -4 3 -41 10 -80 17 -40 7
-73 15 -73 17 0 9 45 83 50 82 3 -1 45 -44 94 -95z m3111 -141 c-76 -9 -255
-18 -255 -12 0 16 24 19 149 17 75 0 123 -3 106 -5z"/>
<path d="M2234 3243 c3 -38 13 -178 21 -313 8 -135 17 -275 20 -311 l6 -66
-36 -6 c-53 -9 -130 -62 -164 -114 -99 -148 -30 -359 135 -413 33 -11 34 -13
34 -67 0 -30 -27 -432 -60 -894 -33 -461 -60 -853 -60 -869 0 -26 4 -30 28
-30 l27 0 33 492 c18 271 37 507 42 523 l8 30 1 -30 c1 -30 -32 -753 -45 -973
l-6 -112 31 0 c30 0 31 1 32 48 1 26 4 37 6 25 2 -13 9 -23 14 -23 5 0 9 -11
9 -25 0 -21 5 -25 29 -25 29 0 30 2 34 53 l3 52 2 -57 c2 -44 6 -58 17 -58 9
0 15 -9 15 -25 0 -21 5 -25 30 -25 l30 0 -7 90 c-5 80 -4 90 11 90 21 0 21 -5
-13 336 -30 298 -44 466 -36 449 5 -11 105 -803 105 -829 0 -15 39 -23 51 -11
3 2 -1 48 -8 102 -140 1101 -184 1474 -190 1601 l-8 152 34 11 c19 7 55 30 79
53 170 156 93 436 -131 474 l-42 8 3 49 c1 28 11 190 22 360 11 171 20 318 20
328 0 14 -10 17 -66 17 l-66 0 6 -67z"/>
</g>
</svg>
