<svg width="362" height="149" viewBox="0 0 362 149" fill="none" xmlns="http://www.w3.org/2000/svg">
<g id="header-icon">
<g id="Marcell Ciszek druzynski">
<path d="M25.5586 67.5C25.5586 67.5 23.1836 76.05 23.0086 76.725H22.9086C22.7336 76.05 20.3336 67.5 20.3336 67.5H17.5336V83H20.1086L19.9586 72.65H20.0586L22.1086 79.925H23.6836L25.7086 72.65H25.8086L25.6586 83H28.3086V67.5H25.5586ZM40.0037 83.1L42.9037 82.9C41.5787 77.75 40.2037 72.65 38.6787 67.475H34.7037C33.1537 72.65 31.8037 77.85 30.4787 83H33.3287C33.6787 81.575 34.0037 80.125 34.3537 78.7H38.9537C39.3037 80.175 39.6537 81.65 40.0037 83.1ZM36.5537 69.825H36.7537C37.3287 72.05 37.9037 74.325 38.4537 76.6H34.8537C35.4037 74.325 35.9787 72.075 36.5537 69.825ZM53.6988 83.225L56.7738 82.85L53.1238 76.15C54.5738 75.1 55.6488 73.75 55.6488 71.8C55.6488 68.575 53.2488 66.525 45.5738 67.525V83H48.3988V77.65L50.8488 77.6L53.6988 83.225ZM48.3988 69.7C51.4238 69.3 52.8238 70.375 52.8238 72.425C52.8238 73.775 52.1488 74.875 51.1238 75.575L48.3988 75.65V69.7ZM69.3939 80.65C63.4689 80.95 61.7939 79.175 61.7939 75.1C61.7939 71.725 62.8689 69.9 69.2439 70.025L69.0939 67.275C61.3939 67.425 58.8189 71.15 58.8189 75.475C58.8189 80.175 61.1439 83.75 69.1439 83.1L69.3939 80.65ZM83.2641 80.6H76.3141V76.25H82.1391V74.15H76.3141V69.9H83.1141V67.5H73.4391V83H83.0391L83.2641 80.6ZM97.0092 83L97.2592 80.6H90.2592V67.5H87.3842V83H97.0092ZM110.754 83L111.004 80.6H104.004V67.5H101.129V83H110.754ZM138.12 80.65C132.195 80.95 130.52 79.175 130.52 75.1C130.52 71.725 131.595 69.9 137.97 70.025L137.82 67.275C130.12 67.425 127.545 71.15 127.545 75.475C127.545 80.175 129.87 83.75 137.87 83.1L138.12 80.65ZM148.09 69.725H151.665V67.5H141.64V69.725H145.215V80.775H141.64V83H151.59L151.79 80.775H148.09V69.725ZM155.51 80.6V83.175C162.985 83.475 165.66 80.9 165.66 78.45C165.66 74.75 158.435 73.725 158.435 71.4C158.435 70.275 159.685 69.6 164.71 69.95L164.56 67.375C158.11 67.025 155.46 69.475 155.46 71.8C155.46 75.375 162.685 76.275 162.685 78.8C162.685 80.1 160.785 81 155.51 80.6ZM179.405 83L179.605 80.5L171.98 80.55L179.405 69.925V67.5H169.08L168.88 70L176.28 69.95L168.83 80.575V83H179.405ZM193.225 80.6H186.275V76.25H192.1V74.15H186.275V69.9H193.075V67.5H183.4V83H193L193.225 80.6ZM204.845 83.175L207.945 82.825L203.195 75.025L207.595 67.5H204.545L200.945 73.975H199.545V67.5H196.695V83H199.545V76.35H200.82L204.845 83.175ZM234.935 74.95C234.935 68.9 232.085 66.45 224.11 67.5V83C231.585 84.05 234.935 81 234.935 74.95ZM232.035 75.375C232.035 79.525 230.735 81.3 226.935 80.75V69.7C230.785 69.275 232.035 71.225 232.035 75.375ZM246.13 83.225L249.205 82.85L245.555 76.15C247.005 75.1 248.08 73.75 248.08 71.8C248.08 68.575 245.68 66.525 238.005 67.525V83H240.83V77.65L243.28 77.6L246.13 83.225ZM240.83 69.7C243.855 69.3 245.255 70.375 245.255 72.425C245.255 73.775 244.58 74.875 243.555 75.575L240.83 75.65V69.7ZM256.476 83.4C259.801 83.4 261.851 81.225 261.851 77.625V67.5H258.976V78.125C258.976 80.125 258.251 80.925 256.676 80.925C255.176 80.925 254.251 79.95 254.251 77.725V67.5H251.376V77.85C251.376 81.4 253.276 83.4 256.476 83.4ZM275.621 83L275.821 80.5L268.196 80.55L275.621 69.925V67.5H265.296L265.096 70L272.496 69.95L265.046 80.575V83H275.621ZM285.566 83V77.85L290.466 67.5H287.516L284.191 75.175L280.766 67.45L277.716 67.55L282.666 77.9V83H285.566ZM300.536 83H302.986V67.5H300.336L300.461 77.725H300.361L295.386 67.5H292.686V83H295.336L295.236 72.65H295.361L300.536 83ZM306.706 80.6V83.175C314.181 83.475 316.856 80.9 316.856 78.45C316.856 74.75 309.631 73.725 309.631 71.4C309.631 70.275 310.881 69.6 315.906 69.95L315.756 67.375C309.306 67.025 306.656 69.475 306.656 71.8C306.656 75.375 313.881 76.275 313.881 78.8C313.881 80.1 311.981 81 306.706 80.6ZM328.551 83.175L331.651 82.825L326.901 75.025L331.301 67.5H328.251L324.651 73.975H323.251V67.5H320.401V83H323.251V76.35H324.526L328.551 83.175ZM340.521 69.725H344.096V67.5H334.071V69.725H337.646V80.775H334.071V83H344.021L344.221 80.775H340.521V69.725Z" fill="black"/>
<path d="M16.0586 86.5H345.946V88.725H16.0586V86.5Z" fill="black"/>
</g>
</g>
</svg>
