<svg width="992" height="306" viewBox="0 0 992 306" fill="none" xmlns="http://www.w3.org/2000/svg">
<g clip-path="url(#clip0)">
<path d="M559.445 236.772L559 235.905L558.555 236.772L523.914 304.272L523.54 305H524.359H593.641H594.46L594.086 304.272L559.445 236.772Z" fill="#718096" stroke="black"/>
<path d="M549 256L557.5 267L560 256L565 267L568.5 256L559 238.5L549 256Z" fill="white" stroke="black"/>
<path d="M587.445 236.772L587 235.905L586.555 236.772L551.914 304.272L551.54 305H552.359H621.641H622.46L622.086 304.272L587.445 236.772Z" fill="#718096" stroke="black"/>
<path d="M577 256L585.5 267L588 256L593 267L596.5 256L587 238.5L577 256Z" fill="white" stroke="black"/>
<path d="M621.445 236.772L621 235.905L620.555 236.772L585.914 304.272L585.54 305H586.359H655.641H656.46L656.086 304.272L621.445 236.772Z" fill="#718096" stroke="black"/>
<path d="M611 256L619.5 267L622 256L627 267L630.5 256L621 238.5L611 256Z" fill="white" stroke="black"/>
<path d="M573.24 170.32H571.36C571.44 170.62 571.5 171.32 571.5 171.74V173.8H565.94C565.3 173.8 564.8 173.76 564.24 173.68V175.38C564.78 175.32 565.34 175.3 565.96 175.3H571.5V184.32C571.5 184.86 571.26 185.08 570.72 185.08C570.2 185.08 569.3 185.02 568.42 184.86L568.56 186.44C569.38 186.54 570.56 186.58 571.4 186.58C572.62 186.58 573.12 186.04 573.12 185V175.3H578.42C578.9 175.3 579.5 175.32 580.04 175.36V173.7C579.54 173.76 578.88 173.8 578.4 173.8H573.12V171.74C573.12 171.32 573.2 170.6 573.24 170.32ZM568.84 178.4L567.44 177.72C566.66 179.34 564.96 181.72 563.62 182.94L565 183.88C566.14 182.66 568 180.1 568.84 178.4ZM577.2 177.72L575.84 178.46C576.9 179.72 578.4 182.2 579.18 183.78L580.66 182.96C579.86 181.52 578.28 179 577.2 177.72ZM596.56 170.32L595.5 170.78C596.04 171.54 596.72 172.74 597.12 173.56L598.2 173.06C597.78 172.26 597.06 171.04 596.56 170.32ZM598.76 169.52L597.7 169.98C598.26 170.74 598.92 171.86 599.36 172.74L600.44 172.24C600.06 171.5 599.28 170.26 598.76 169.52ZM587.58 171H585.72C585.8 171.46 585.84 172.14 585.84 172.62V183.62C585.84 185.24 586.7 185.94 588.24 186.22C589.06 186.36 590.26 186.42 591.44 186.42C593.62 186.42 596.62 186.26 598.36 186V184.18C596.7 184.62 593.64 184.82 591.52 184.82C590.54 184.82 589.5 184.76 588.88 184.66C587.9 184.46 587.48 184.2 587.48 183.18V178.78C589.96 178.14 593.42 177.08 595.66 176.18C596.26 175.96 596.98 175.64 597.54 175.4L596.84 173.8C596.28 174.14 595.68 174.44 595.08 174.7C593 175.6 589.84 176.56 587.48 177.14V172.62C587.48 172.06 587.52 171.46 587.58 171ZM604.9 172.62V174.38C605.4 174.32 606.2 174.3 606.58 174.3H611.08V183.5H605.44C604.9 183.5 604.28 183.46 603.68 183.38V185.2C604.3 185.14 604.9 185.12 605.44 185.12H618.66C619.06 185.12 619.78 185.12 620.32 185.2V183.38C619.8 183.44 619.26 183.5 618.66 183.5H612.78V174.3H617.58C618.14 174.3 618.78 174.32 619.28 174.38V172.62C618.8 172.68 618.18 172.74 617.58 172.74H606.58C606.18 172.74 605.42 172.7 604.9 172.62ZM638 172.62L636.98 171.84C636.66 171.94 636.14 172 635.48 172H627.76C627.16 172 626.02 171.92 625.74 171.88V173.7C625.96 173.68 627.06 173.6 627.76 173.6H635.56C635.06 175.26 633.6 177.62 632.24 179.16C630.18 181.46 627.22 183.84 624 185.1L625.28 186.44C628.24 185.1 630.94 182.9 633.08 180.6C635.12 182.42 637.24 184.78 638.58 186.54L639.98 185.34C638.68 183.76 636.24 181.16 634.14 179.36C635.56 177.56 636.82 175.22 637.5 173.5C637.62 173.22 637.88 172.78 638 172.62Z" fill="black"/>
<circle cx="281.5" cy="174.5" r="280.5" fill="#81A7FF"/>
<g filter="url(#filter0_d)">
<path d="M44.05 123.94V126.4C46.42 126.58 48.97 126.73 51.97 126.73C54.76 126.73 58.03 126.52 60.07 126.37V123.91C57.91 124.12 54.85 124.33 51.97 124.33C48.97 124.33 46.21 124.21 44.05 123.94ZM45.25 136.03L42.82 135.79C42.55 137.02 42.19 138.43 42.19 139.96C42.19 143.74 45.73 145.75 51.82 145.75C56.08 145.75 59.89 145.3 62.05 144.7L62.02 142.12C59.77 142.87 55.9 143.32 51.76 143.32C46.96 143.32 44.62 141.73 44.62 139.45C44.62 138.34 44.86 137.23 45.25 136.03ZM83.41 122.74L80.77 121.66C80.41 122.53 80.02 123.28 79.66 123.97C78.04 126.88 71.47 139.18 69.28 145.24L71.86 146.14C72.25 144.64 73.54 141.1 74.44 139.3C75.61 136.96 77.86 134.5 80.29 134.5C81.64 134.5 82.39 135.28 82.48 136.6C82.57 138.25 82.51 140.56 82.6 142.3C82.72 144.07 83.74 146.11 86.95 146.11C91.3 146.11 93.82 142.75 95.41 137.92L93.43 136.3C92.65 139.48 90.67 143.62 87.34 143.62C86.02 143.62 85 142.99 84.91 141.49C84.82 140.02 84.85 137.71 84.79 135.94C84.7 133.57 83.26 132.31 81.28 132.31C79.84 132.31 78.25 132.85 76.81 134.17C78.37 131.26 81.13 126.28 82.45 124.21C82.81 123.64 83.14 123.1 83.41 122.74ZM110.68 124.75V127.15C113.98 127.51 119.8 127.51 123.01 127.15V124.72C120.01 125.17 113.95 125.29 110.68 124.75ZM111.85 136.96L109.69 136.75C109.36 138.22 109.18 139.27 109.18 140.29C109.18 143.11 111.43 144.79 116.47 144.79C119.56 144.79 122.08 144.52 123.97 144.16L123.91 141.64C121.48 142.18 119.17 142.42 116.47 142.42C112.39 142.42 111.4 141.1 111.4 139.72C111.4 138.91 111.55 138.07 111.85 136.96ZM104.95 122.44L102.28 122.2C102.28 122.86 102.19 123.64 102.07 124.33C101.71 126.82 100.72 131.95 100.72 136.36C100.72 140.41 101.23 143.86 101.83 145.99L103.99 145.84C103.96 145.54 103.93 145.12 103.9 144.79C103.87 144.46 103.96 143.89 104.05 143.44C104.32 142.03 105.4 138.85 106.18 136.72L104.92 135.76C104.41 136.99 103.69 138.79 103.18 140.14C103 138.67 102.91 137.41 102.91 135.94C102.91 132.58 103.84 127.21 104.41 124.45C104.53 123.91 104.8 122.95 104.95 122.44ZM139.69 121.51L137.02 121.36C137.05 122.2 137.02 122.89 136.9 123.85C136.84 124.39 136.72 125.05 136.57 125.83C136.39 125.83 136.24 125.83 136.06 125.83C134.26 125.83 131.95 125.59 130.36 125.32L130.39 127.66C132.13 127.84 134.05 127.96 136.09 127.96H136.12C135.37 131.35 134.17 135.64 132.64 138.64L134.89 139.45C135.16 138.91 135.43 138.52 135.82 138.07C137.8 135.67 141.1 134.44 144.67 134.44C148.18 134.44 150.04 136.18 150.04 138.43C150.04 143.35 143.29 144.55 136.36 143.59L136.96 145.96C146.08 146.95 152.5 144.61 152.5 138.37C152.5 134.86 149.71 132.43 144.94 132.43C141.79 132.43 139.09 133.15 136.48 134.98C137.14 133.27 137.83 130.42 138.37 127.9C142.27 127.75 147.04 127.24 150.55 126.64L150.52 124.33C146.83 125.14 142.42 125.62 138.82 125.77C138.97 125.08 139.06 124.51 139.15 124.03C139.3 123.25 139.48 122.32 139.69 121.51ZM170.38 141.4C170.38 139.93 171.97 138.97 174.22 138.97C175.3 138.97 176.32 139.15 177.28 139.45C177.31 139.84 177.31 140.2 177.31 140.5C177.31 142.48 176.56 143.77 174.04 143.77C171.88 143.77 170.38 142.93 170.38 141.4ZM179.47 121.9H176.77C176.83 122.41 176.89 123.22 176.89 123.73V127.45C175.96 127.48 175 127.51 174.07 127.51C172.27 127.51 170.68 127.42 168.97 127.27V129.52C170.74 129.64 172.3 129.73 174.01 129.73C174.97 129.73 175.93 129.7 176.89 129.67C176.92 132.13 177.1 135.07 177.19 137.38C176.32 137.2 175.39 137.11 174.4 137.11C170.47 137.11 168.22 139.12 168.22 141.64C168.22 144.34 170.44 145.93 174.46 145.93C178.51 145.93 179.65 143.56 179.65 141.1C179.65 140.89 179.65 140.68 179.65 140.47C181.18 141.34 182.68 142.54 184.18 143.95L185.5 141.94C183.94 140.53 181.99 139.03 179.56 138.07C179.44 135.55 179.23 132.55 179.2 129.52C181 129.4 182.74 129.22 184.39 128.95V126.64C182.8 126.94 181.03 127.18 179.2 127.33C179.23 125.92 179.26 124.51 179.29 123.7C179.32 123.1 179.38 122.5 179.47 121.9ZM164.65 122.08L162.01 121.87C162.01 122.5 161.92 123.31 161.83 124C161.44 126.49 160.45 132.22 160.45 136.63C160.45 140.68 160.99 143.98 161.59 146.11L163.69 145.96C163.66 145.63 163.63 145.21 163.63 144.91C163.6 144.55 163.66 143.98 163.75 143.56C164.05 142.09 165.16 139.03 165.88 136.93L164.65 135.97C164.14 137.2 163.42 139.03 162.94 140.38C162.73 138.91 162.64 137.65 162.64 136.21C162.64 132.85 163.54 126.91 164.14 124.12C164.23 123.58 164.47 122.59 164.65 122.08ZM201.73 137.29C200.98 136.54 197.71 133.48 196.6 132.55V130.75H201.85V128.62H196.6V123.28C198.4 122.83 200.11 122.32 201.46 121.75L199.81 120.1C197.26 121.27 192.58 122.29 188.56 122.92C188.83 123.4 189.13 124.15 189.25 124.66C190.9 124.42 192.67 124.12 194.41 123.76V128.62H188.62V130.75H193.99C192.58 134.29 190.15 138.31 187.99 140.47C188.35 141.04 188.92 141.94 189.16 142.57C190.99 140.53 192.94 137.26 194.41 133.99V147.19H196.6V134.83C197.95 136.21 199.66 138.04 200.35 139L201.73 137.29ZM215.83 146.53C215.17 143.32 213.13 138.31 211.03 134.47L208.93 135.13C210.1 137.32 211.24 139.9 212.08 142.3C209.2 142.6 206.32 142.9 203.77 143.17C205.51 136.96 207.46 127.99 208.63 120.94L206.14 120.52C205.18 127.6 203.2 137.17 201.46 143.41C200.41 143.5 199.48 143.59 198.64 143.68L199.18 145.99C202.78 145.57 207.85 144.94 212.77 144.28C213.1 145.39 213.37 146.41 213.52 147.28L215.83 146.53ZM244.24 134.5C244.24 128.41 239.77 123.46 232.75 123.46C225.43 123.46 219.64 129.16 219.64 135.67C219.64 140.62 222.31 143.68 224.98 143.68C227.77 143.68 230.14 140.53 231.97 134.35C232.81 131.56 233.38 128.5 233.77 125.71C238.87 126.13 241.78 129.88 241.78 134.41C241.78 139.6 238 142.45 234.16 143.32C233.47 143.47 232.54 143.62 231.58 143.71L232.99 145.93C240.1 145 244.24 140.8 244.24 134.5ZM221.98 135.46C221.98 131.38 225.52 126.46 231.28 125.74C230.95 128.5 230.35 131.35 229.6 133.84C228.07 138.91 226.48 140.92 225.07 140.92C223.72 140.92 221.98 139.24 221.98 135.46ZM258.97 144.04V136.66H271.27V144.04H258.97ZM266.41 124.9C265.12 127.51 263.23 129.88 261.01 131.92C259.63 130.42 257.35 128.5 255.34 127.09C256.12 126.4 256.81 125.65 257.47 124.9H266.41ZM273.52 134.62H261.25C264.73 131.68 267.67 127.99 269.44 123.55L267.97 122.77L267.55 122.89H259.09C259.72 122.02 260.29 121.15 260.8 120.31L258.31 119.8C256.57 123.04 253.15 126.88 248.23 129.55C248.74 129.94 249.49 130.75 249.79 131.26C251.23 130.42 252.52 129.49 253.72 128.53C255.7 130 257.89 131.92 259.21 133.45C255.82 136.12 251.89 138.1 248.08 139.21C248.56 139.63 249.13 140.56 249.4 141.16C251.89 140.35 254.38 139.21 256.78 137.8V147.28H258.97V146.08H271.27V147.34H273.52V134.62ZM282.7 138.94V135.94H289.33V138.94H282.7ZM289.33 131.26V134.2H282.7V131.26H289.33ZM291.49 129.34H280.57V147.16H282.7V140.71H289.33V144.7C289.33 145.09 289.21 145.21 288.76 145.24C288.37 145.27 287.02 145.27 285.52 145.21C285.82 145.75 286.12 146.59 286.24 147.16C288.28 147.16 289.57 147.16 290.41 146.8C291.22 146.44 291.49 145.87 291.49 144.73V129.34ZM301.15 144.49C301.15 144.94 301 145.06 300.49 145.09C300.04 145.12 298.42 145.12 296.59 145.06C296.92 145.66 297.28 146.59 297.4 147.19C299.68 147.22 301.18 147.16 302.14 146.8C303.04 146.44 303.34 145.84 303.34 144.49V128.74H301.15V144.49ZM297.19 129.64H295.12V141.82H297.19V129.64ZM298.33 124.63C299.2 123.4 300.19 121.93 301 120.55L298.66 119.77C298 121.21 296.86 123.19 295.84 124.63H286.9L288.37 124.06C287.8 122.89 286.54 121.12 285.37 119.86L283.33 120.64C284.35 121.84 285.52 123.46 286.06 124.63H278.71V126.67H305.32V124.63H298.33ZM320.38 141.4C320.38 139.93 321.97 138.97 324.22 138.97C325.3 138.97 326.32 139.15 327.28 139.45C327.31 139.84 327.31 140.2 327.31 140.5C327.31 142.48 326.56 143.77 324.04 143.77C321.88 143.77 320.38 142.93 320.38 141.4ZM329.47 121.9H326.77C326.83 122.41 326.89 123.22 326.89 123.73V127.45C325.96 127.48 325 127.51 324.07 127.51C322.27 127.51 320.68 127.42 318.97 127.27V129.52C320.74 129.64 322.3 129.73 324.01 129.73C324.97 129.73 325.93 129.7 326.89 129.67C326.92 132.13 327.1 135.07 327.19 137.38C326.32 137.2 325.39 137.11 324.4 137.11C320.47 137.11 318.22 139.12 318.22 141.64C318.22 144.34 320.44 145.93 324.46 145.93C328.51 145.93 329.65 143.56 329.65 141.1C329.65 140.89 329.65 140.68 329.65 140.47C331.18 141.34 332.68 142.54 334.18 143.95L335.5 141.94C333.94 140.53 331.99 139.03 329.56 138.07C329.44 135.55 329.23 132.55 329.2 129.52C331 129.4 332.74 129.22 334.39 128.95V126.64C332.8 126.94 331.03 127.18 329.2 127.33C329.23 125.92 329.26 124.51 329.29 123.7C329.32 123.1 329.38 122.5 329.47 121.9ZM314.65 122.08L312.01 121.87C312.01 122.5 311.92 123.31 311.83 124C311.44 126.49 310.45 132.22 310.45 136.63C310.45 140.68 310.99 143.98 311.59 146.11L313.69 145.96C313.66 145.63 313.63 145.21 313.63 144.91C313.6 144.55 313.66 143.98 313.75 143.56C314.05 142.09 315.16 139.03 315.88 136.93L314.65 135.97C314.14 137.2 313.42 139.03 312.94 140.38C312.73 138.91 312.64 137.65 312.64 136.21C312.64 132.85 313.54 126.91 314.14 124.12C314.23 123.58 314.47 122.59 314.65 122.08ZM364.87 125.98L362.98 124.45C362.56 124.6 361.87 124.69 361.03 124.69H343.15C342.1 124.69 340.93 124.57 340.09 124.45V127.15C340.69 127.09 341.98 126.97 343.15 126.97H360.79C359.29 129.67 355.84 134.08 351.43 137.38C349.39 135.55 346.93 133.54 345.82 132.73L343.87 134.32C345.46 135.43 348.94 138.43 350.74 140.23C352.63 142.18 355.03 144.82 356.14 146.35L358.33 144.61C357.13 143.14 355 140.89 353.2 139.09C358.15 135.31 361.96 130.42 364.12 126.91C364.3 126.64 364.57 126.31 364.87 125.98ZM370.06 132.01V134.95C370.99 134.86 372.58 134.8 374.23 134.8H390.7C392.05 134.8 393.31 134.92 393.91 134.95V132.01C393.25 132.07 392.17 132.16 390.67 132.16H374.23C372.55 132.16 370.96 132.07 370.06 132.01ZM406.18 141.13C406.18 144.1 407.2 145.54 412.78 145.54C416.53 145.54 419.53 145.33 422.2 144.94L422.32 142.36C419.32 142.93 416.44 143.23 412.96 143.23C409.39 143.23 408.61 142.57 408.61 140.5V131.56C413.92 130.48 419.44 129.37 419.95 129.28C419.05 131.08 416.86 134.38 414.61 136.42L416.71 137.68C419.11 135.19 421.48 131.44 422.86 128.95C423.07 128.56 423.37 128.05 423.58 127.75L421.81 126.37C421.45 126.58 420.88 126.76 420.22 126.91C418.96 127.18 413.71 128.26 408.61 129.25V124.57C408.61 123.7 408.67 122.68 408.82 121.81H405.97C406.12 122.68 406.18 123.67 406.18 124.57V129.7C403 130.3 400.15 130.81 398.8 130.99L399.25 133.48C400.48 133.21 403.15 132.67 406.18 132.04V141.13ZM442.72 144.37L444.31 145.69C444.52 145.51 444.85 145.27 445.33 145C448.81 143.29 452.98 140.2 455.56 136.69L454.15 134.65C451.84 138.04 448.15 140.77 445.39 142.03V124.72C445.39 123.58 445.48 122.71 445.51 122.5H442.75C442.78 122.71 442.93 123.58 442.93 124.72V142.69C442.93 143.29 442.84 143.89 442.72 144.37ZM428.98 144.22L431.23 145.75C433.75 143.65 435.67 140.71 436.57 137.5C437.38 134.5 437.5 128.08 437.5 124.75C437.5 123.85 437.62 122.95 437.65 122.59H434.89C435.01 123.22 435.1 123.88 435.1 124.78C435.1 128.11 435.07 134.11 434.2 136.84C433.3 139.75 431.5 142.42 428.98 144.22ZM459.37 125.26L459.64 127.87C462.88 127.18 470.53 126.46 473.74 126.1C470.98 127.75 468.13 131.56 468.13 136.24C468.13 142.93 474.46 145.9 480.01 146.11L480.88 143.62C475.99 143.44 470.53 141.58 470.53 135.73C470.53 132.16 473.14 127.6 477.4 126.22C478.93 125.77 481.57 125.74 483.28 125.74V123.34C481.27 123.43 478.45 123.61 475.18 123.88C469.66 124.33 463.99 124.9 462.04 125.11C461.47 125.17 460.51 125.23 459.37 125.26ZM478.96 129.43L477.43 130.09C478.33 131.32 479.2 132.88 479.89 134.32L481.42 133.6C480.79 132.28 479.65 130.42 478.96 129.43ZM482.23 128.17L480.76 128.86C481.69 130.12 482.56 131.59 483.28 133.06L484.84 132.31C484.15 130.99 482.95 129.16 482.23 128.17ZM505.81 121.24H503.08C503.11 121.48 503.23 122.35 503.26 123.13C503.29 123.55 503.32 124.27 503.32 125.11C498.85 125.17 493.21 125.35 489.88 125.41L489.94 127.72C493.69 127.45 498.79 127.24 503.35 127.21C503.38 128.26 503.38 129.34 503.38 130.24C502.78 130.03 502.12 129.91 501.37 129.91C498.52 129.91 496.09 132.16 496.09 135.13C496.09 138.4 498.49 140.14 501.01 140.14C502.03 140.14 502.9 139.87 503.62 139.33C502.42 142.06 499.66 143.74 495.67 144.64L497.68 146.62C504.67 144.52 506.65 140.02 506.65 135.97C506.65 134.47 506.32 133.15 505.69 132.13C505.66 130.75 505.63 128.89 505.63 127.18C505.78 127.18 505.9 127.18 506.05 127.18C510.43 127.18 513.16 127.24 514.84 127.33L514.87 125.11C513.43 125.11 509.74 125.08 506.08 125.08C505.93 125.08 505.78 125.08 505.63 125.08C505.63 124.27 505.66 123.58 505.66 123.13C505.69 122.74 505.75 121.57 505.81 121.24ZM498.34 135.1C498.34 133.15 499.81 131.92 501.37 131.92C502.54 131.92 503.56 132.49 504.04 133.81C504.31 136.66 503.17 138.07 501.4 138.07C499.72 138.07 498.34 136.96 498.34 135.1Z" fill="black"/>
</g>
<g filter="url(#filter1_d)">
<path d="M25.38 202H30.69V174.1H25.38V185.935H17.37V174.1H12.105V202H17.37V189.895H25.38V202ZM54.6212 202.54L55.1162 198.355C45.2162 198.13 41.8412 196.645 41.3012 192.145L55.7462 191.74C56.5562 183.955 53.5412 179.005 47.2412 179.005C41.3462 179.005 36.3062 184.315 36.3062 191.2C36.3062 198.49 40.1312 202.675 54.6212 202.54ZM46.3412 183.1C49.4462 183.1 50.8412 185.305 50.9762 188.86C48.1862 188.95 43.6412 189.085 41.2562 189.175C41.4812 184.99 43.2812 183.1 46.3412 183.1ZM61.6774 209.965C69.7324 209.245 72.1174 207.13 75.3574 198.085C77.8324 191.425 80.0374 184.675 81.6574 179.59H76.8424C76.2574 181.075 73.1974 191.74 71.8024 196.06H71.3524C69.2824 191.11 66.8974 184.36 65.0524 179.41L59.9674 179.77C61.6774 184.225 66.3124 196.15 68.4274 200.875L69.2824 201.19C67.9774 204.205 66.5824 204.7 61.2724 205.465L61.6774 209.965ZM125.065 174.1C125.065 174.1 120.79 189.49 120.475 190.705H120.295C119.98 189.49 115.66 174.1 115.66 174.1H110.62V202H115.255L114.985 183.37H115.165L118.855 196.465H121.69L125.335 183.37H125.515L125.245 202H130.015V174.1H125.065ZM135.901 209.965C143.956 209.245 146.341 207.13 149.581 198.085C152.056 191.425 154.261 184.675 155.881 179.59H151.066C150.481 181.075 147.421 191.74 146.026 196.06H145.576C143.506 191.11 141.121 184.36 139.276 179.41L134.191 179.77C135.901 184.225 140.536 196.15 142.651 200.875L143.506 201.19C142.201 204.205 140.806 204.7 135.496 205.465L135.901 209.965ZM195.058 183.28C197.353 183.28 198.838 184.54 198.838 188.5V202H203.833V186.745C203.833 181.3 201.313 179.005 197.398 179.005C194.293 179.005 191.998 180.445 190.198 182.065L189.928 179.5L185.293 179.77C185.563 184.855 185.653 191.92 185.653 202H190.693C190.693 194.8 190.603 188.95 190.513 184.765C191.908 183.865 193.348 183.28 195.058 183.28ZM218.315 198.715C216.02 198.715 214.535 197.545 214.535 195.565C214.535 193.09 216.38 191.605 223.31 192.325C223.355 194.17 223.355 195.655 223.445 196.96C221.87 198.04 220.025 198.715 218.315 198.715ZM224.075 202.135L228.665 201.91C228.44 198.805 228.26 195.25 228.26 190.885C228.26 182.155 224.885 179.365 211.385 179.14L210.89 183.37C220.52 183.685 222.995 184.72 223.265 189.04C213.815 188.635 209.585 192.235 209.585 196.735C209.585 200.38 212.33 202.585 216.335 202.585C219.575 202.585 221.96 201.1 223.67 199.435C223.805 200.515 224.03 201.955 224.075 202.135ZM240.806 183.28C241.931 183.28 242.426 183.955 242.426 185.845V202H245.981V184.315C246.656 183.64 247.376 183.28 248.186 183.28C249.356 183.28 249.896 183.955 249.896 185.89V202H254.531V184.135C254.531 180.805 253.271 179.005 250.706 179.005C248.726 179.005 247.151 180.085 245.936 181.435C245.486 179.905 244.451 179.005 242.696 179.005C240.851 179.005 239.276 180.085 238.061 181.435L237.881 179.5L233.606 179.77C233.786 184.855 233.786 191.92 233.786 202H238.421C238.421 194.62 238.376 188.635 238.286 184.45C239.096 183.685 239.951 183.28 240.806 183.28ZM277.292 202.54L277.787 198.355C267.887 198.13 264.512 196.645 263.972 192.145L278.417 191.74C279.227 183.955 276.212 179.005 269.912 179.005C264.017 179.005 258.977 184.315 258.977 191.2C258.977 198.49 262.802 202.675 277.292 202.54ZM269.012 183.1C272.117 183.1 273.512 185.305 273.647 188.86C270.857 188.95 266.312 189.085 263.927 189.175C264.152 184.99 265.952 183.1 269.012 183.1ZM321.645 176.215L322.05 169.915H316.785L316.47 176.215H321.645ZM329.16 202L329.565 198.22H321.78V179.59H309.27L308.865 183.145L316.74 183.505V198.22H308.955V202H329.16ZM350.571 179.365C338.826 178.555 334.686 182.245 334.686 186.115C334.686 191.74 346.656 192.55 346.656 195.745C346.656 197.5 343.911 198.535 335.001 197.95L334.821 202.225C347.736 202.81 351.876 199.345 351.876 195.475C351.876 189.85 339.861 188.545 339.861 185.53C339.861 183.955 342.426 182.965 350.751 183.685L350.571 179.365ZM397.218 174.1C397.218 174.1 392.943 189.49 392.628 190.705H392.448C392.133 189.49 387.813 174.1 387.813 174.1H382.773V202H387.408L387.138 183.37H387.318L391.008 196.465H393.843L397.488 183.37H397.668L397.398 202H402.168V174.1H397.218ZM416.244 198.715C413.949 198.715 412.464 197.545 412.464 195.565C412.464 193.09 414.309 191.605 421.239 192.325C421.284 194.17 421.284 195.655 421.374 196.96C419.799 198.04 417.954 198.715 416.244 198.715ZM422.004 202.135L426.594 201.91C426.369 198.805 426.189 195.25 426.189 190.885C426.189 182.155 422.814 179.365 409.314 179.14L408.819 183.37C418.449 183.685 420.924 184.72 421.194 189.04C411.744 188.635 407.514 192.235 407.514 196.735C407.514 200.38 410.259 202.585 414.264 202.585C417.504 202.585 419.889 201.1 421.599 199.435C421.734 200.515 421.959 201.955 422.004 202.135ZM449.356 202L449.761 198.22H442.966C442.876 193.45 442.831 189.67 442.741 186.295C445.261 185.08 448.366 184.27 452.236 184.045L452.011 178.735C447.781 179.275 444.586 181.12 442.561 183.46C442.471 182.335 442.201 179.815 442.156 179.59H432.886L432.481 183.145L437.791 183.505C437.881 187.465 437.926 192.145 438.016 198.22H432.571V202H449.356ZM457.582 191.155C457.582 198.085 461.272 203.35 475.267 202.18L475.762 198.04C465.682 198.625 462.532 196.285 462.532 190.525C462.532 186.205 464.242 183.64 475.447 184L475.132 179.275C461.722 179.32 457.582 184.9 457.582 191.155ZM499.963 202.54L500.458 198.355C490.558 198.13 487.183 196.645 486.643 192.145L501.088 191.74C501.898 183.955 498.883 179.005 492.583 179.005C486.688 179.005 481.648 184.315 481.648 191.2C481.648 198.49 485.473 202.675 499.963 202.54ZM491.683 183.1C494.788 183.1 496.183 185.305 496.318 188.86C493.528 188.95 488.983 189.085 486.598 189.175C486.823 184.99 488.623 183.1 491.683 183.1ZM525.424 202L525.829 198.22H518.899V170.545H507.604L507.154 174.1L513.859 174.46V198.22H506.929V202H525.424ZM550.165 202L550.57 198.22H543.64V170.545H532.345L531.895 174.1L538.6 174.46V198.22H531.67V202H550.165Z" fill="black"/>
</g>
<path d="M19 225H554" stroke="#384357" stroke-width="4"/>
<path d="M535.749 32L535.909 30L529.809 30.04L535.749 21.54V19.6H527.489L527.329 21.6L533.249 21.56L527.289 30.06V32H535.749ZM545.185 32.08L547.505 31.92C546.445 27.8 545.345 23.72 544.125 19.58H540.945C539.705 23.72 538.625 27.88 537.565 32H539.845C540.125 30.86 540.385 29.7 540.665 28.56H544.345C544.625 29.74 544.905 30.92 545.185 32.08ZM542.425 21.46H542.585C543.045 23.24 543.505 25.06 543.945 26.88H541.065C541.505 25.06 541.965 23.26 542.425 21.46ZM554.681 21.38H557.541V19.6H549.521V21.38H552.381V30.22H549.521V32H557.481L557.641 30.22H554.681V21.38ZM566.678 32H568.638V19.6H566.518L566.618 27.78H566.538L562.558 19.6H560.398V32H562.518L562.438 23.72H562.538L566.678 32ZM576.694 21.52H580.234V19.6H570.894L570.734 21.52H574.374V32H576.694V21.52ZM590.79 30.08H585.23V26.6H589.89V24.92H585.23V21.52H590.67V19.6H582.93V32H590.61L590.79 30.08ZM600.126 32.18L602.586 31.88L599.666 26.52C600.826 25.68 601.686 24.6 601.686 23.04C601.686 20.46 599.766 18.82 593.626 19.62V32H595.886V27.72L597.846 27.68L600.126 32.18ZM595.886 21.36C598.306 21.04 599.426 21.9 599.426 23.54C599.426 24.62 598.886 25.5 598.066 26.06L595.886 26.12V21.36ZM612.782 30.08H607.222V26.6H611.882V24.92H607.222V21.52H612.662V19.6H604.922V32H612.602L612.782 30.08ZM615.598 30.08V32.14C621.578 32.38 623.718 30.32 623.718 28.36C623.718 25.4 617.938 24.58 617.938 22.72C617.938 21.82 618.938 21.28 622.958 21.56L622.838 19.5C617.678 19.22 615.558 21.18 615.558 23.04C615.558 25.9 621.338 26.62 621.338 28.64C621.338 29.68 619.818 30.4 615.598 30.08ZM630.214 32.32C633.254 32.32 635.194 29.9 635.194 25.44C635.174 21.48 633.594 19.28 630.774 19.28C627.734 19.28 625.794 21.7 625.794 26.16C625.794 30.12 627.394 32.32 630.214 32.32ZM630.414 21.18C631.974 21.18 632.814 22.78 632.814 25.96C632.814 28.96 632.094 30.42 630.574 30.42C629.014 30.42 628.174 28.82 628.174 25.64C628.174 22.64 628.894 21.18 630.414 21.18ZM643.05 32H645.29C645.57 29.66 645.97 24.94 646.23 19.6H644.09C644.03 20.86 643.81 28.36 643.73 28.98H643.67C643.13 26.96 642.69 25.32 642.15 23.32H640.93C640.41 25.32 640.05 26.82 639.51 28.98H639.43C639.37 28.36 639.03 20.86 638.99 19.6H636.77C637.03 24.94 637.41 29.66 637.69 32H639.89L641.43 26.06L643.05 32ZM655.146 32.08L657.466 31.92C656.406 27.8 655.306 23.72 654.086 19.58H650.906C649.666 23.72 648.586 27.88 647.526 32H649.806C650.086 30.86 650.346 29.7 650.626 28.56H654.306C654.586 29.74 654.866 30.92 655.146 32.08ZM652.386 21.46H652.546C653.006 23.24 653.466 25.06 653.906 26.88H651.026C651.466 25.06 651.926 23.26 652.386 21.46ZM665.642 32H667.602V19.6H665.482L665.582 27.78H665.502L661.522 19.6H659.362V32H661.482L661.402 23.72H661.502L665.642 32ZM675.639 21.38H678.499V19.6H670.479V21.38H673.339V30.22H670.479V32H678.439L678.599 30.22H675.639V21.38ZM688.135 32.08L690.455 31.92C689.395 27.8 688.295 23.72 687.075 19.58H683.895C682.655 23.72 681.575 27.88 680.515 32H682.795C683.075 30.86 683.335 29.7 683.615 28.56H687.295C687.575 29.74 687.855 30.92 688.135 32.08ZM685.375 21.46H685.535C685.995 23.24 686.455 25.06 686.895 26.88H684.015C684.455 25.06 684.915 23.26 685.375 21.46Z" fill="black"/>
<path d="M578.041 107V103.28C581.661 102.9 584.221 101.48 584.221 98.48C584.221 95.32 581.441 93.84 575.761 94.62V107H578.041ZM581.961 98.92C581.961 100.98 580.601 101.62 578.041 101.36V96.38C580.661 96.08 581.961 97.02 581.961 98.92ZM593.178 107.08L595.498 106.92C594.438 102.8 593.338 98.72 592.118 94.58H588.938C587.698 98.72 586.618 102.88 585.558 107H587.838C588.118 105.86 588.378 104.7 588.658 103.56H592.338C592.618 104.74 592.898 105.92 593.178 107.08ZM590.418 96.46H590.578C591.038 98.24 591.498 100.06 591.938 101.88H589.058C589.498 100.06 589.958 98.26 590.418 96.46ZM597.614 105.08V107.14C603.594 107.38 605.734 105.32 605.734 103.36C605.734 100.4 599.954 99.58 599.954 97.72C599.954 96.82 600.954 96.28 604.974 96.56L604.854 94.5C599.694 94.22 597.574 96.18 597.574 98.04C597.574 100.9 603.354 101.62 603.354 103.64C603.354 104.68 601.834 105.4 597.614 105.08ZM608.61 105.08V107.14C614.59 107.38 616.73 105.32 616.73 103.36C616.73 100.4 610.95 99.58 610.95 97.72C610.95 96.82 611.95 96.28 615.97 96.56L615.85 94.5C610.69 94.22 608.57 96.18 608.57 98.04C608.57 100.9 614.35 101.62 614.35 103.64C614.35 104.68 612.83 105.4 608.61 105.08ZM627.786 105.08H622.226V101.6H626.886V99.92H622.226V96.52H627.666V94.6H619.926V107H627.606L627.786 105.08ZM637.762 100.1H631.362V102H637.602L637.762 100.1ZM646.678 96.52H650.218V94.6H640.878L640.718 96.52H644.358V107H646.678V96.52ZM660.774 105.08H655.214V101.6H659.874V99.92H655.214V96.52H660.654V94.6H652.914V107H660.594L660.774 105.08ZM669.59 94.6C669.59 94.6 667.69 101.44 667.55 101.98H667.47C667.33 101.44 665.41 94.6 665.41 94.6H663.17V107H665.23L665.11 98.72H665.19L666.83 104.54H668.09L669.71 98.72H669.79L669.67 107H671.79V94.6H669.59ZM677.006 107V103.28C680.626 102.9 683.186 101.48 683.186 98.48C683.186 95.32 680.406 93.84 674.726 94.62V107H677.006ZM680.926 98.92C680.926 100.98 679.566 101.62 677.006 101.36V96.38C679.626 96.08 680.926 97.02 680.926 98.92ZM685.582 105.08V107.14C691.562 107.38 693.702 105.32 693.702 103.36C693.702 100.4 687.922 99.58 687.922 97.72C687.922 96.82 688.922 96.28 692.942 96.56L692.822 94.5C687.662 94.22 685.542 96.18 685.542 98.04C685.542 100.9 691.322 101.62 691.322 103.64C691.322 104.68 689.802 105.4 685.582 105.08Z" fill="black"/>
<path d="M675.683 73H673.643L669.863 66.8L666.023 73H664.123L668.863 65.56L664.423 58.72H666.423L669.923 64.32L673.443 58.72H675.343L670.923 65.52L675.683 73ZM689.771 65.84C689.771 67.32 689.518 68.6133 689.011 69.72C688.518 70.8133 687.784 71.6667 686.811 72.28C685.838 72.8933 684.631 73.2 683.191 73.2C681.711 73.2 680.478 72.8933 679.491 72.28C678.518 71.6667 677.791 70.8067 677.311 69.7C676.831 68.5933 676.591 67.3 676.591 65.82C676.591 64.3533 676.831 63.0733 677.311 61.98C677.791 60.8867 678.518 60.0333 679.491 59.42C680.478 58.8067 681.718 58.5 683.211 58.5C684.638 58.5 685.838 58.8067 686.811 59.42C687.784 60.02 688.518 60.8733 689.011 61.98C689.518 63.0733 689.771 64.36 689.771 65.84ZM678.491 65.84C678.491 67.64 678.871 69.06 679.631 70.1C680.391 71.1267 681.578 71.64 683.191 71.64C684.818 71.64 686.004 71.1267 686.751 70.1C687.498 69.06 687.871 67.64 687.871 65.84C687.871 64.04 687.498 62.6333 686.751 61.62C686.004 60.5933 684.824 60.08 683.211 60.08C681.598 60.08 680.404 60.5933 679.631 61.62C678.871 62.6333 678.491 64.04 678.491 65.84ZM692.936 73V58.72H701.416V60.3H694.736V64.76H696.856C698.283 64.76 699.389 64.94 700.176 65.3C700.963 65.6467 701.509 66.1267 701.816 66.74C702.123 67.34 702.276 68.0333 702.276 68.82C702.276 70.1267 701.883 71.1533 701.096 71.9C700.309 72.6333 698.983 73 697.116 73H692.936ZM696.936 71.46C698.216 71.46 699.116 71.2467 699.636 70.82C700.156 70.38 700.416 69.7133 700.416 68.82C700.416 67.9 700.129 67.2533 699.556 66.88C698.983 66.5067 698.009 66.32 696.636 66.32H694.736V71.46H696.936ZM705.241 73V58.72H713.721V60.3H707.041V64.76H709.161C710.587 64.76 711.694 64.94 712.481 65.3C713.267 65.6467 713.814 66.1267 714.121 66.74C714.427 67.34 714.581 68.0333 714.581 68.82C714.581 70.1267 714.187 71.1533 713.401 71.9C712.614 72.6333 711.287 73 709.421 73H705.241ZM709.241 71.46C710.521 71.46 711.421 71.2467 711.941 70.82C712.461 70.38 712.721 69.7133 712.721 68.82C712.721 67.9 712.434 67.2533 711.861 66.88C711.287 66.5067 710.314 66.32 708.941 66.32H707.041V71.46H709.241ZM717.565 58.72H719.245V66.56C719.245 67 719.239 67.4933 719.225 68.04C719.212 68.5867 719.192 69.0867 719.165 69.54C719.152 69.9933 719.132 70.3267 719.105 70.54H719.185L727.045 58.72H729.045V73H727.365V65.24C727.365 64.7467 727.372 64.22 727.385 63.66C727.412 63.1 727.439 62.5867 727.465 62.12C727.492 61.6533 727.512 61.32 727.525 61.12H727.445L719.565 73H717.565V58.72Z" fill="black"/>
<path d="M701.42 197.4C701.94 198.18 702.44 199.22 702.58 199.9H699.04L699.7 199.62C699.5 199 699 198.16 698.44 197.5C699.5 197.44 700.58 197.38 701.66 197.32L701.42 197.4ZM696.04 201.1H701.72L701.14 201.72C702.2 202.18 703.48 202.94 704.1 203.48L704.88 202.58C704.32 202.1 703.26 201.54 702.32 201.1H709.9V203.5H711.34V199.9H707.74C708.32 199.18 708.94 198.32 709.48 197.5L708.08 196.96C707.64 197.82 706.84 199.08 706.24 199.9H702.64L703.88 199.46C703.72 198.84 703.3 197.96 702.8 197.22C705.62 197.02 708.3 196.7 710.34 196.3L709.36 195.26C706.14 195.9 700.16 196.32 695.28 196.46C695.42 196.74 695.56 197.26 695.6 197.6C696.26 197.58 696.94 197.56 697.64 197.52L697.06 197.76C697.56 198.4 698.1 199.26 698.34 199.9H694.66V203.36H696.04V201.1ZM706.72 202.74C707.88 203.66 709.2 205.02 709.8 205.92L710.86 205.1C710.26 204.2 708.9 202.92 707.74 202.04L706.72 202.74ZM696.18 206.16C697.52 205.38 698.26 204.06 698.72 202.76L697.6 202.28C697.16 203.48 696.36 204.66 695.16 205.3L696.18 206.16ZM706.2 208.16C705.38 209 704.3 209.7 703.04 210.26C701.72 209.68 700.62 208.98 699.78 208.16H706.2ZM707.46 207L707.22 207.06H701C701.42 206.68 701.78 206.28 702.12 205.86L701.76 205.74H705C706.3 205.74 706.68 205.36 706.82 203.74C706.44 203.66 705.92 203.52 705.64 203.32C705.56 204.5 705.44 204.64 704.82 204.64H701.9C701.06 204.64 700.92 204.56 700.92 204.16V202.26H699.54V204.18C699.54 205.1 699.78 205.52 700.62 205.66C699.16 207.34 696.76 208.76 694.42 209.66C694.7 209.9 695.24 210.38 695.46 210.64C696.54 210.16 697.68 209.54 698.74 208.84C699.5 209.62 700.42 210.3 701.46 210.88C699.28 211.62 696.74 212.08 694.14 212.32C694.42 212.62 694.78 213.22 694.92 213.56C697.78 213.2 700.62 212.62 703.02 211.64C705.36 212.62 708.16 213.24 711.1 213.54C711.3 213.16 711.64 212.54 711.96 212.24C709.3 212.04 706.78 211.58 704.64 210.88C706.2 210.04 707.48 208.96 708.4 207.62L707.46 207ZM719.88 200.74C719.62 203.36 719.1 205.56 718.34 207.36C717.58 206.82 716.78 206.32 716.02 205.88C716.42 204.3 716.84 202.52 717.24 200.74H719.88ZM720.5 199.32L720.24 199.38H717.54C717.84 198 718.12 196.66 718.36 195.44L716.94 195.28C716.72 196.52 716.44 197.94 716.12 199.38H713.94V200.74H715.84C715.28 203.24 714.68 205.7 714.2 207.42L715.44 208.06L715.66 207.22C716.36 207.66 717.06 208.14 717.72 208.64C716.78 210.36 715.56 211.6 714.1 212.36C714.42 212.66 714.82 213.2 715.02 213.56C716.58 212.62 717.86 211.32 718.86 209.54C719.7 210.24 720.42 210.94 720.9 211.54L721.8 210.36C721.26 209.7 720.46 208.96 719.52 208.24C720.5 206 721.12 203.14 721.38 199.52L720.5 199.32ZM732.2 203.28H727.44V201.5C728.96 200.32 730.66 198.52 731.78 196.92L730.8 196.2L730.5 196.3H721.94V197.66H729.42C728.62 198.68 727.56 199.82 726.56 200.62H725.96V203.28H721.28V204.66H725.96V211.64C725.96 211.94 725.86 212.04 725.52 212.06C725.18 212.08 724.06 212.08 722.8 212.04C723.02 212.42 723.28 213.08 723.36 213.48C724.94 213.48 725.98 213.44 726.6 213.22C727.24 212.98 727.44 212.54 727.44 211.64V204.66H732.2V203.28Z" fill="black"/>
<path d="M678.719 149L675.299 138.04H677.099L680.059 147.46H680.299C680.619 147.46 680.932 147.387 681.239 147.24C681.545 147.08 681.805 146.88 682.019 146.64C682.419 146.2 682.712 145.647 682.899 144.98C683.085 144.3 683.179 143.633 683.179 142.98C683.179 141.873 682.925 141.007 682.419 140.38C681.925 139.74 681.239 139.42 680.359 139.42C679.999 139.42 679.692 139.467 679.439 139.56L678.999 138.14C679.279 138.06 679.539 138.007 679.779 137.98C680.032 137.953 680.259 137.94 680.459 137.94C681.765 137.94 682.812 138.32 683.599 139.08C684.065 139.533 684.405 140.1 684.619 140.78C684.845 141.46 684.959 142.213 684.959 143.04C684.959 144.08 684.799 145.007 684.479 145.82C684.159 146.62 683.759 147.26 683.279 147.74C682.892 148.127 682.419 148.433 681.859 148.66C681.299 148.887 680.585 149 679.719 149H678.719ZM690.761 149V141.22C690.761 140.567 690.608 140.087 690.301 139.78C690.008 139.473 689.508 139.32 688.801 139.32C688.321 139.32 687.868 139.387 687.441 139.52C687.028 139.64 686.628 139.813 686.241 140.04V138.44C686.508 138.307 686.888 138.173 687.381 138.04C687.874 137.907 688.461 137.84 689.141 137.84C690.181 137.84 691.008 138.073 691.621 138.54C692.234 139.007 692.541 139.813 692.541 140.96V149H690.761ZM699.566 149.2C698.393 149.2 697.466 148.893 696.786 148.28C696.119 147.667 695.786 146.693 695.786 145.36V138.04H697.566V145.26C697.566 146.887 698.359 147.7 699.946 147.7C700.879 147.7 701.599 147.4 702.106 146.8C702.626 146.2 702.886 145.393 702.886 144.38V138.04H704.666V149H703.186L703.106 147.38H703.006C702.766 147.913 702.346 148.353 701.746 148.7C701.159 149.033 700.433 149.2 699.566 149.2ZM711.932 149.2C710.492 149.2 709.412 148.827 708.692 148.08C707.985 147.32 707.632 146.133 707.632 144.52C707.632 144.253 707.638 143.967 707.652 143.66C707.678 143.34 707.705 143.027 707.732 142.72H711.932V144.12H709.412V144.52C709.412 145.36 709.505 146.02 709.692 146.5C709.878 146.967 710.152 147.293 710.512 147.48C710.885 147.667 711.345 147.76 711.892 147.76C712.492 147.76 713.012 147.647 713.452 147.42C713.892 147.193 714.232 146.78 714.472 146.18C714.712 145.58 714.832 144.72 714.832 143.6C714.832 142.133 714.578 141.053 714.072 140.36C713.578 139.667 712.718 139.32 711.492 139.32C710.852 139.32 710.238 139.407 709.652 139.58C709.078 139.74 708.525 139.973 707.992 140.28V138.62C708.392 138.407 708.918 138.227 709.572 138.08C710.225 137.92 710.938 137.84 711.712 137.84C712.885 137.84 713.832 138.08 714.552 138.56C715.285 139.027 715.818 139.693 716.152 140.56C716.485 141.413 716.652 142.427 716.652 143.6C716.652 144.773 716.498 145.78 716.192 146.62C715.885 147.46 715.385 148.1 714.692 148.54C714.012 148.98 713.092 149.2 711.932 149.2ZM723.276 149.2C722.209 149.2 721.369 148.953 720.756 148.46C720.156 147.953 719.729 147.273 719.476 146.42C719.236 145.567 719.116 144.627 719.116 143.6C719.116 142.093 719.323 140.927 719.736 140.1C720.149 139.26 720.723 138.673 721.456 138.34C722.203 138.007 723.063 137.84 724.036 137.84C725.636 137.84 726.796 138.187 727.516 138.88C728.249 139.573 728.616 140.513 728.616 141.7V149H726.856V141.86C726.856 141.033 726.649 140.407 726.236 139.98C725.823 139.54 725.109 139.32 724.096 139.32C723.483 139.32 722.929 139.433 722.436 139.66C721.956 139.887 721.576 140.307 721.296 140.92C721.029 141.533 720.896 142.433 720.896 143.62C720.896 144.393 720.969 145.093 721.116 145.72C721.276 146.333 721.549 146.82 721.936 147.18C722.323 147.54 722.863 147.72 723.556 147.72C723.756 147.72 723.943 147.707 724.116 147.68C724.289 147.653 724.456 147.613 724.616 147.56L724.796 148.94C724.583 149.033 724.336 149.1 724.056 149.14C723.789 149.18 723.529 149.2 723.276 149.2ZM719.96 136.3V135.52L721.42 134.88H728.46V136.3H719.96ZM734.34 149.2C733.98 149.2 733.634 149.14 733.3 149.02C732.967 148.9 732.694 148.687 732.48 148.38C732.267 148.073 732.16 147.647 732.16 147.1V138.04H733.94V146.88C733.94 147.187 734.007 147.407 734.14 147.54C734.274 147.673 734.487 147.74 734.78 147.74C734.9 147.74 735.027 147.727 735.16 147.7C735.294 147.673 735.42 147.64 735.54 147.6L735.78 148.9C735.527 149.02 735.28 149.1 735.04 149.14C734.8 149.18 734.567 149.2 734.34 149.2ZM740.643 149.2C739.857 149.2 739.123 149.127 738.443 148.98C737.777 148.82 737.21 148.633 736.743 148.42L737.263 146.98C737.69 147.153 738.197 147.32 738.783 147.48C739.383 147.64 740.017 147.72 740.683 147.72C741.39 147.72 741.977 147.587 742.443 147.32C742.91 147.053 743.143 146.667 743.143 146.16C743.143 145.707 742.957 145.333 742.583 145.04C742.21 144.747 741.61 144.473 740.783 144.22C739.943 143.953 739.23 143.673 738.643 143.38C738.07 143.073 737.63 142.713 737.323 142.3C737.03 141.873 736.883 141.347 736.883 140.72C736.883 139.893 737.223 139.207 737.903 138.66C738.583 138.113 739.67 137.84 741.163 137.84C741.803 137.84 742.403 137.9 742.963 138.02C743.537 138.127 743.983 138.28 744.303 138.48V139.98C743.97 139.82 743.51 139.667 742.923 139.52C742.337 139.373 741.73 139.3 741.103 139.3C740.21 139.3 739.577 139.44 739.203 139.72C738.843 139.987 738.663 140.293 738.663 140.64C738.663 140.933 738.743 141.18 738.903 141.38C739.077 141.58 739.363 141.773 739.763 141.96C740.177 142.147 740.73 142.36 741.423 142.6C742.063 142.813 742.65 143.06 743.183 143.34C743.717 143.62 744.137 143.973 744.443 144.4C744.763 144.813 744.923 145.347 744.923 146C744.923 146.56 744.783 147.087 744.503 147.58C744.237 148.06 743.79 148.453 743.163 148.76C742.537 149.053 741.697 149.2 740.643 149.2ZM747.229 149V145.2C747.229 144.36 747.416 143.753 747.789 143.38C748.162 142.993 748.636 142.727 749.209 142.58L749.229 142.52L747.029 141.68V141.02C747.029 140.473 747.209 139.96 747.569 139.48C747.929 138.987 748.442 138.593 749.109 138.3C749.789 137.993 750.596 137.84 751.529 137.84C752.342 137.84 753.096 137.973 753.789 138.24C754.482 138.493 755.036 138.9 755.449 139.46C755.876 140.007 756.089 140.727 756.089 141.62V149H754.309V141.8C754.309 140.907 754.036 140.273 753.489 139.9C752.956 139.513 752.296 139.32 751.509 139.32C750.696 139.32 750.049 139.493 749.569 139.84C749.089 140.173 748.849 140.6 748.849 141.12L751.009 142.2L750.849 143.16C750.356 143.16 749.922 143.327 749.549 143.66C749.189 143.98 749.009 144.493 749.009 145.2V149H747.229Z" fill="black"/>
<path d="M756 95.54L756.18 92.74H753.84L753.7 95.54H756ZM759.34 107L759.52 105.32H756.06V97.04H750.5L750.32 98.62L753.82 98.78V105.32H750.36V107H759.34ZM765.716 98.68C766.736 98.68 767.396 99.24 767.396 101V107H769.616V100.22C769.616 97.8 768.496 96.78 766.756 96.78C765.376 96.78 764.356 97.42 763.556 98.14L763.436 97L761.376 97.12C761.496 99.38 761.536 102.52 761.536 107H763.776C763.776 103.8 763.736 101.2 763.696 99.34C764.316 98.94 764.956 98.68 765.716 98.68ZM780.252 107.16L780.492 105.32C777.452 105.26 776.512 104.9 776.512 103.34V98.74H780.272V97.04H776.512V94.16L774.312 94.36V97.04H772.472L772.272 98.74H774.312V103.68C774.312 106.24 775.772 107.24 780.252 107.16ZM790.768 107L790.948 105.32H787.928C787.888 103.2 787.868 101.52 787.828 100.02C788.948 99.48 790.328 99.12 792.048 99.02L791.948 96.66C790.068 96.9 788.648 97.72 787.748 98.76C787.708 98.26 787.588 97.14 787.568 97.04H783.448L783.268 98.62L785.628 98.78C785.668 100.54 785.688 102.62 785.728 105.32H783.308V107H790.768ZM802.264 107.24L802.484 105.38C798.084 105.28 796.584 104.62 796.344 102.62L802.764 102.44C803.124 98.98 801.784 96.78 798.984 96.78C796.364 96.78 794.124 99.14 794.124 102.2C794.124 105.44 795.824 107.3 802.264 107.24ZM798.584 98.6C799.964 98.6 800.584 99.58 800.644 101.16C799.404 101.2 797.384 101.26 796.324 101.3C796.424 99.44 797.224 98.6 798.584 98.6ZM812.84 96.94C807.62 96.58 805.78 98.22 805.78 99.94C805.78 102.44 811.1 102.8 811.1 104.22C811.1 105 809.88 105.46 805.92 105.2L805.84 107.1C811.58 107.36 813.42 105.82 813.42 104.1C813.42 101.6 808.08 101.02 808.08 99.68C808.08 98.98 809.22 98.54 812.92 98.86L812.84 96.94ZM823.837 96.94C818.617 96.58 816.777 98.22 816.777 99.94C816.777 102.44 822.097 102.8 822.097 104.22C822.097 105 820.877 105.46 816.917 105.2L816.837 107.1C822.577 107.36 824.417 105.82 824.417 104.1C824.417 101.6 819.077 101.02 819.077 99.68C819.077 98.98 820.217 98.54 823.917 98.86L823.837 96.94ZM835.253 107.24L835.473 105.38C831.073 105.28 829.573 104.62 829.333 102.62L835.753 102.44C836.113 98.98 834.773 96.78 831.973 96.78C829.353 96.78 827.113 99.14 827.113 102.2C827.113 105.44 828.813 107.3 835.253 107.24ZM831.573 98.6C832.953 98.6 833.573 99.58 833.633 101.16C832.393 101.2 830.373 101.26 829.313 101.3C829.413 99.44 830.213 98.6 831.573 98.6ZM842.689 98.68C843.709 98.68 844.369 99.24 844.369 101V107H846.589V100.22C846.589 97.8 845.469 96.78 843.729 96.78C842.349 96.78 841.329 97.42 840.529 98.14L840.409 97L838.349 97.12C838.469 99.38 838.509 102.52 838.509 107H840.749C840.749 103.8 840.709 101.2 840.669 99.34C841.289 98.94 841.929 98.68 842.689 98.68Z" fill="black"/>
<path d="M678.46 267H676.7V256.28H678.46V267ZM683.616 256.28V260.74H689.436V256.28H691.196V267H689.436V262.22H683.616V267H681.856V256.28H683.616ZM701.991 257.76H698.491V267H696.751V257.76H693.291V256.28H701.991V257.76ZM708.047 256.08C708.967 256.08 709.754 256.28 710.407 256.68C711.074 257.08 711.58 257.647 711.927 258.38C712.287 259.1 712.467 259.947 712.467 260.92V261.98H705.127C705.154 263.193 705.46 264.12 706.047 264.76C706.647 265.387 707.48 265.7 708.547 265.7C709.227 265.7 709.827 265.64 710.347 265.52C710.88 265.387 711.427 265.2 711.987 264.96V266.5C711.44 266.74 710.9 266.913 710.367 267.02C709.834 267.14 709.2 267.2 708.467 267.2C707.454 267.2 706.554 266.993 705.767 266.58C704.994 266.167 704.387 265.553 703.947 264.74C703.52 263.913 703.307 262.907 703.307 261.72C703.307 260.547 703.5 259.54 703.887 258.7C704.287 257.86 704.84 257.213 705.547 256.76C706.267 256.307 707.1 256.08 708.047 256.08ZM708.027 257.52C707.187 257.52 706.52 257.793 706.027 258.34C705.547 258.873 705.26 259.62 705.167 260.58H710.627C710.614 259.673 710.4 258.94 709.987 258.38C709.574 257.807 708.92 257.52 708.027 257.52ZM720.296 256.08C721.616 256.08 722.676 256.54 723.476 257.46C724.289 258.38 724.696 259.767 724.696 261.62C724.696 263.447 724.289 264.833 723.476 265.78C722.676 266.727 721.609 267.2 720.276 267.2C719.449 267.2 718.763 267.047 718.216 266.74C717.683 266.42 717.263 266.053 716.956 265.64H716.836C716.863 265.867 716.889 266.153 716.916 266.5C716.943 266.847 716.956 267.147 716.956 267.4V271.8H715.196V256.28H716.636L716.876 257.74H716.956C717.276 257.273 717.696 256.88 718.216 256.56C718.736 256.24 719.429 256.08 720.296 256.08ZM719.976 257.56C718.883 257.56 718.109 257.867 717.656 258.48C717.216 259.093 716.983 260.027 716.956 261.28V261.62C716.956 262.94 717.169 263.96 717.596 264.68C718.036 265.387 718.843 265.74 720.016 265.74C720.669 265.74 721.203 265.56 721.616 265.2C722.043 264.84 722.356 264.353 722.556 263.74C722.769 263.113 722.876 262.4 722.876 261.6C722.876 260.373 722.636 259.393 722.156 258.66C721.689 257.927 720.963 257.56 719.976 257.56ZM731.641 256.08C732.561 256.08 733.347 256.28 734.001 256.68C734.667 257.08 735.174 257.647 735.521 258.38C735.881 259.1 736.061 259.947 736.061 260.92V261.98H728.721C728.747 263.193 729.054 264.12 729.641 264.76C730.241 265.387 731.074 265.7 732.141 265.7C732.821 265.7 733.421 265.64 733.941 265.52C734.474 265.387 735.021 265.2 735.581 264.96V266.5C735.034 266.74 734.494 266.913 733.961 267.02C733.427 267.14 732.794 267.2 732.061 267.2C731.047 267.2 730.147 266.993 729.361 266.58C728.587 266.167 727.981 265.553 727.541 264.74C727.114 263.913 726.901 262.907 726.901 261.72C726.901 260.547 727.094 259.54 727.481 258.7C727.881 257.86 728.434 257.213 729.141 256.76C729.861 256.307 730.694 256.08 731.641 256.08ZM731.621 257.52C730.781 257.52 730.114 257.793 729.621 258.34C729.141 258.873 728.854 259.62 728.761 260.58H734.221C734.207 259.673 733.994 258.94 733.581 258.38C733.167 257.807 732.514 257.52 731.621 257.52ZM743.09 267.2C742.143 267.2 741.297 267.007 740.55 266.62C739.817 266.233 739.237 265.633 738.81 264.82C738.397 264.007 738.19 262.967 738.19 261.7C738.19 260.38 738.41 259.307 738.85 258.48C739.29 257.653 739.883 257.047 740.63 256.66C741.39 256.273 742.25 256.08 743.21 256.08C743.757 256.08 744.283 256.14 744.79 256.26C745.297 256.367 745.71 256.5 746.03 256.66L745.49 258.12C745.17 258 744.797 257.887 744.37 257.78C743.943 257.673 743.543 257.62 743.17 257.62C741.063 257.62 740.01 258.973 740.01 261.68C740.01 262.973 740.263 263.967 740.77 264.66C741.29 265.34 742.057 265.68 743.07 265.68C743.657 265.68 744.17 265.62 744.61 265.5C745.063 265.38 745.477 265.233 745.85 265.06V266.62C745.49 266.807 745.09 266.947 744.65 267.04C744.223 267.147 743.703 267.2 743.09 267.2ZM750.059 262.82C750.059 262.98 750.053 263.22 750.039 263.54C750.026 263.86 750.006 264.18 749.979 264.5C749.966 264.82 749.953 265.073 749.939 265.26L755.679 256.28H757.839V267H756.199V260.68C756.199 260.467 756.199 260.187 756.199 259.84C756.213 259.493 756.226 259.153 756.239 258.82C756.253 258.473 756.266 258.213 756.279 258.04L750.579 267H748.399V256.28H750.059V262.82Z" fill="black"/>
</g>
<defs>
<filter id="filter0_d" x="38.19" y="119.77" width="484.68" height="39.57" filterUnits="userSpaceOnUse" color-interpolation-filters="sRGB">
<feFlood flood-opacity="0" result="BackgroundImageFix"/>
<feColorMatrix in="SourceAlpha" type="matrix" values="0 0 0 0 0 0 0 0 0 0 0 0 0 0 0 0 0 0 127 0"/>
<feOffset dx="2" dy="6"/>
<feGaussianBlur stdDeviation="3"/>
<feColorMatrix type="matrix" values="0 0 0 0 0.443137 0 0 0 0 0.501961 0 0 0 0 0.588235 0 0 0 1 0"/>
<feBlend mode="normal" in2="BackgroundImageFix" result="effect1_dropShadow"/>
<feBlend mode="normal" in="SourceGraphic" in2="effect1_dropShadow" result="shape"/>
</filter>
<filter id="filter1_d" x="10.105" y="168.915" width="550.465" height="52.05" filterUnits="userSpaceOnUse" color-interpolation-filters="sRGB">
<feFlood flood-opacity="0" result="BackgroundImageFix"/>
<feColorMatrix in="SourceAlpha" type="matrix" values="0 0 0 0 0 0 0 0 0 0 0 0 0 0 0 0 0 0 127 0"/>
<feOffset dx="4" dy="5"/>
<feGaussianBlur stdDeviation="3"/>
<feColorMatrix type="matrix" values="0 0 0 0 0.443137 0 0 0 0 0.501961 0 0 0 0 0.588235 0 0 0 1 0"/>
<feBlend mode="normal" in2="BackgroundImageFix" result="effect1_dropShadow"/>
<feBlend mode="normal" in="SourceGraphic" in2="effect1_dropShadow" result="shape"/>
</filter>
<clipPath id="clip0">
<rect width="992" height="306" fill="white"/>
</clipPath>
</defs>
</svg>
