<svg width="1348" height="1075" viewBox="0 0 1348 1075" fill="none" xmlns="http://www.w3.org/2000/svg">
<path d="M133 774C133 774 99.75 893.7 97.3 903.15H95.9C93.45 893.7 59.85 774 59.85 774H20.65V991H56.7L54.6 846.1H56L84.7 947.95H106.75L135.1 846.1H136.5L134.4 991H171.5V774H133ZM280.982 965.45C263.132 965.45 251.582 956.35 251.582 940.95C251.582 921.7 265.932 910.15 319.832 915.75C320.182 930.1 320.182 941.65 320.882 951.8C308.632 960.2 294.282 965.45 280.982 965.45ZM325.782 992.05L361.482 990.3C359.732 966.15 358.332 938.5 358.332 904.55C358.332 836.65 332.082 814.95 227.082 813.2L223.232 846.1C298.132 848.55 317.382 856.6 319.482 890.2C245.982 887.05 213.082 915.05 213.082 950.05C213.082 978.4 234.432 995.55 265.582 995.55C290.782 995.55 309.332 984 322.632 971.05C323.682 979.45 325.432 990.65 325.782 992.05ZM538.513 991L541.663 961.6H488.813C488.113 924.5 487.763 895.1 487.063 868.85C506.663 859.4 530.813 853.1 560.913 851.35L559.163 810.05C526.263 814.25 501.413 828.6 485.663 846.8C484.963 838.05 482.863 818.45 482.513 816.7H410.413L407.263 844.35L448.563 847.15C449.263 877.95 449.613 914.35 450.313 961.6H407.963V991H538.513ZM602.495 906.65C602.495 960.55 631.195 1001.5 740.045 992.4L743.895 960.2C665.495 964.75 640.995 946.55 640.995 901.75C640.995 868.15 654.295 848.2 741.445 851L738.995 814.25C634.695 814.6 602.495 858 602.495 906.65ZM932.127 995.2L935.977 962.65C858.977 960.9 832.727 949.35 828.527 914.35L940.877 911.2C947.177 850.65 923.727 812.15 874.727 812.15C828.877 812.15 789.677 853.45 789.677 907C789.677 963.7 819.427 996.25 932.127 995.2ZM867.727 844C891.877 844 902.727 861.15 903.777 888.8C882.077 889.5 846.727 890.55 828.177 891.25C829.927 858.7 843.927 844 867.727 844ZM1130.16 991L1133.31 961.6H1079.41V746.35H991.558L988.058 774L1040.21 776.8V961.6H986.308V991H1130.16ZM1322.59 991L1325.74 961.6H1271.84V746.35H1183.99L1180.49 774L1232.64 776.8V961.6H1178.74V991H1322.59Z" fill="white"/>
<path d="M695.55 442.15H745.6V411H605.25V442.15H655.3V596.85H605.25V628H744.55L747.35 596.85H695.55V442.15ZM838.282 497.45L859.282 503.75C889.732 476.1 909.682 430.6 893.582 391.05L844.232 393.85C861.732 430.95 858.232 472.25 838.282 497.45ZM1034.91 482.4C1043.66 482.4 1047.51 487.65 1047.51 502.35V628H1075.16V490.45C1080.41 485.2 1086.01 482.4 1092.31 482.4C1101.41 482.4 1105.61 487.65 1105.61 502.7V628H1141.66V489.05C1141.66 463.15 1131.86 449.15 1111.91 449.15C1096.51 449.15 1084.26 457.55 1074.81 468.05C1071.31 456.15 1063.26 449.15 1049.61 449.15C1035.26 449.15 1023.01 457.55 1013.56 468.05L1012.16 453L978.913 455.1C980.313 494.65 980.313 549.6 980.313 628H1016.36C1016.36 570.6 1016.01 524.05 1015.31 491.5C1021.61 485.55 1028.26 482.4 1034.91 482.4Z" fill="white"/>
<path d="M141.4 336H182.7V119H141.4V211.05H79.1V119H38.15V336H79.1V241.85H141.4V336ZM368.832 340.2L372.682 307.65C295.682 305.9 269.432 294.35 265.232 259.35L377.582 256.2C383.882 195.65 360.432 157.15 311.432 157.15C265.582 157.15 226.382 198.45 226.382 252C226.382 308.7 256.132 341.25 368.832 340.2ZM304.432 189C328.582 189 339.432 206.15 340.482 233.8C318.782 234.5 283.432 235.55 264.882 236.25C266.632 203.7 280.632 189 304.432 189ZM423.713 397.95C486.363 392.35 504.913 375.9 530.113 305.55C549.363 253.75 566.513 201.25 579.113 161.7H541.663C537.113 173.25 513.313 256.2 502.463 289.8H498.963C482.863 251.3 464.313 198.8 449.963 160.3L410.413 163.1C423.713 197.75 459.763 290.5 476.213 327.25L482.863 329.7C472.713 353.15 461.863 357 420.563 362.95L423.713 397.95Z" fill="white"/>
</svg>
