<?xml version="1.0" standalone="no"?>
<!DOCTYPE svg PUBLIC "-//W3C//DTD SVG 20010904//EN"
 "http://www.w3.org/TR/2001/REC-SVG-20010904/DTD/svg10.dtd">
<svg version="1.0" xmlns="http://www.w3.org/2000/svg"
 width="1280.000000pt" height="1182.000000pt" viewBox="0 0 1280.000000 1182.000000"
 preserveAspectRatio="xMidYMid meet">
<metadata>
Created by potrace 1.15, written by Peter Selinger 2001-2017
</metadata>
<g transform="translate(0.000000,1182.000000) scale(0.100000,-0.100000)"
fill="#000000" stroke="none">
<path d="M4615 11811 c-89 -37 -85 -170 10 -326 24 -38 46 -81 50 -93 26 -88
-63 -188 -422 -474 -626 -499 -1404 -988 -2222 -1398 -264 -132 -288 -143
-616 -292 -255 -115 -337 -161 -388 -218 -41 -44 -47 -81 -21 -118 13 -19 24
-22 78 -22 300 0 1177 212 2005 485 391 128 435 133 462 47 19 -58 26 -1602 7
-1613 -7 -5 -35 -15 -63 -23 -79 -24 -540 -152 -775 -216 -476 -130 -968 -265
-1190 -326 -1022 -283 -1268 -353 -1413 -401 -64 -20 -82 -31 -98 -57 -42 -68
-10 -158 73 -205 69 -40 195 -86 338 -123 100 -27 133 -31 250 -31 134 0 137
0 335 55 110 31 349 98 530 151 333 97 609 172 1250 342 193 51 399 107 459
124 60 17 111 31 113 31 10 0 -12 -49 -45 -105 -50 -84 -924 -1451 -1105
-1730 -464 -713 -792 -1142 -1557 -2040 -603 -707 -677 -807 -656 -890 13 -52
109 -65 186 -26 86 43 404 304 860 706 322 284 474 428 1134 1085 666 662
1020 1026 1235 1268 l136 153 8 -58 c19 -132 -36 -1193 -129 -2483 -39 -554
-63 -783 -105 -1030 -17 -96 -37 -218 -46 -270 -24 -141 -23 -495 1 -615 89
-449 370 -899 643 -1031 128 -62 222 -56 297 20 69 68 95 134 111 277 27 244
48 1041 65 2564 27 2408 34 2722 54 2743 6 5 29 -15 297 -259 463 -419 839
-741 959 -820 267 -177 498 -199 624 -59 67 75 81 118 80 250 -1 205 -46 426
-114 568 -108 226 -330 491 -437 522 -21 6 -147 22 -279 35 -466 48 -977 132
-1106 183 -24 10 -27 17 -33 84 -4 40 0 255 9 478 9 223 17 455 19 516 5 129
16 160 73 191 62 34 250 78 454 107 163 22 234 30 455 51 28 3 183 14 345 25
720 50 973 92 1114 189 68 47 81 73 81 166 0 67 -4 89 -28 137 -57 116 -203
210 -452 291 -265 87 -390 106 -725 114 l-255 6 -143 -96 c-179 -121 -282
-177 -419 -229 -142 -53 -272 -80 -376 -76 l-82 3 -3 90 c-1 51 11 222 28 390
43 428 56 661 41 728 -29 130 -115 270 -258 419 -57 58 -103 111 -103 116 0 6
35 25 78 42 200 83 544 230 707 302 430 191 681 300 772 333 146 55 165 79
164 209 -1 202 -66 313 -340 586 -256 255 -435 396 -623 491 -138 69 -301 105
-363 80z"/>
<path d="M11323 7650 c-87 -23 -134 -38 -238 -80 -269 -107 -604 -189 -2155
-525 -974 -211 -1418 -300 -1550 -311 l-75 -7 -95 50 c-52 27 -158 89 -235
137 -77 48 -173 103 -213 123 -73 37 -73 37 -135 24 -76 -16 -127 -41 -181
-91 -77 -71 -113 -182 -86 -266 14 -42 42 -86 150 -234 38 -52 83 -122 100
-155 41 -82 121 -423 331 -1419 169 -803 312 -1466 344 -1591 35 -140 74 -240
136 -346 141 -243 377 -394 561 -359 96 19 152 89 209 263 17 51 37 102 44
114 34 52 150 96 430 163 724 174 1294 219 2215 175 346 -17 742 -21 805 -10
80 15 117 45 135 113 15 57 0 136 -45 231 -40 83 -72 128 -162 223 -35 36 -63
71 -63 78 0 49 768 2182 868 2412 22 49 116 149 261 278 46 40 92 87 102 104
26 42 24 111 -3 166 -27 52 -56 72 -533 345 -529 304 -751 415 -825 414 -14 0
-57 -9 -97 -19z m-327 -822 l27 -12 -6 -101 c-8 -140 -113 -760 -303 -1790
-123 -669 -155 -825 -173 -834 -31 -17 -622 -127 -1396 -260 -695 -120 -881
-145 -922 -123 -26 14 -43 80 -207 777 -199 844 -376 1638 -376 1684 0 14 15
22 63 34 211 53 2119 439 3067 621 95 18 191 20 226 4z"/>
</g>
</svg>
