<?xml version="1.0" standalone="no"?>
<!DOCTYPE svg PUBLIC "-//W3C//DTD SVG 20010904//EN"
 "http://www.w3.org/TR/2001/REC-SVG-20010904/DTD/svg10.dtd">
<svg version="1.0" xmlns="http://www.w3.org/2000/svg"
 width="1098.000000pt" height="1280.000000pt" viewBox="0 0 1098.000000 1280.000000"
 preserveAspectRatio="xMidYMid meet">
<metadata>
Created by potrace 1.15, written by Peter Selinger 2001-2017
</metadata>
<g transform="translate(0.000000,1280.000000) scale(0.100000,-0.100000)"
fill="#000000" stroke="none">
<path d="M5688 12783 c-52 -33 -71 -102 -84 -304 l-7 -111 -96 -63 c-131 -85
-233 -141 -558 -303 -321 -161 -707 -344 -973 -462 -423 -187 -1249 -517
-2025 -810 -220 -83 -309 -125 -352 -167 -70 -70 -70 -203 0 -239 74 -39 185
-29 667 57 1429 257 2490 499 3770 859 179 50 407 114 508 141 195 52 221 62
265 103 40 37 57 85 57 160 0 57 -5 75 -40 141 -110 209 -316 472 -538 686
-221 214 -382 317 -507 326 -46 3 -67 0 -87 -14z"/>
<path d="M6785 11261 c-52 -13 -75 -34 -105 -95 -36 -71 -39 -134 -14 -290 13
-83 14 -110 4 -156 -20 -91 -826 -1662 -892 -1739 -17 -20 -27 -22 -267 -72
-249 -51 -534 -104 -1636 -300 -1133 -201 -1576 -282 -1950 -354 -470 -91
-635 -114 -835 -116 l-135 -2 -85 160 c-102 192 -141 253 -186 293 -43 37 -73
45 -119 30 -55 -18 -63 -44 -80 -272 -18 -231 -28 -314 -56 -446 -45 -216
-149 -461 -309 -731 -120 -204 -115 -185 -114 -421 0 -165 4 -229 22 -329 46
-258 141 -469 233 -517 110 -56 290 -24 375 68 115 124 225 375 308 705 58
233 89 441 124 843 l7 85 95 17 c98 18 1677 281 1900 317 69 11 251 41 405 66
1281 209 2336 370 3865 589 331 48 1102 152 1220 165 52 6 114 13 137 16 101
11 73 -67 -139 -385 -251 -375 -491 -669 -573 -700 -34 -13 -92 -1 -281 60
-662 214 -831 258 -1024 266 -128 6 -171 -6 -199 -57 -34 -61 6 -108 304 -357
386 -324 545 -471 1125 -1037 271 -265 387 -367 503 -443 103 -67 162 -87 263
-87 70 0 89 4 140 30 68 35 124 102 151 180 28 78 25 304 -4 411 -64 235 -181
426 -392 646 l-112 117 83 44 c159 86 845 441 1084 562 267 134 242 127 539
155 260 24 300 35 355 92 92 98 50 218 -129 372 -343 294 -1013 785 -1176 862
-93 44 -176 34 -475 -59 -252 -78 -662 -158 -1592 -312 -282 -46 -546 -91
-585 -99 -40 -7 -73 -10 -73 -5 0 5 124 117 276 250 518 453 1115 1001 1152
1057 13 20 17 48 17 127 0 84 -4 109 -25 160 -40 93 -96 172 -195 271 -135
136 -312 243 -510 308 -133 45 -354 75 -420 57z"/>
<path d="M3575 10512 c-52 -6 -65 -27 -65 -103 0 -106 59 -252 193 -474 153
-255 314 -462 517 -666 176 -176 293 -268 430 -336 94 -48 96 -48 195 -48 90
0 104 3 136 24 71 49 104 124 119 273 36 364 -132 750 -402 925 -210 136 -823
373 -1033 400 -33 5 -73 6 -90 5z"/>
<path d="M1422 10098 c-19 -19 -14 -132 9 -201 77 -232 360 -632 714 -1011
270 -290 415 -385 635 -416 140 -20 217 10 265 104 27 54 30 70 33 176 8 245
-80 517 -231 715 -118 154 -235 219 -832 460 -393 158 -559 207 -593 173z"/>
<path d="M3793 7705 c-37 -26 -56 -95 -51 -182 6 -92 34 -177 85 -253 46 -69
316 -340 448 -449 233 -193 506 -384 642 -449 66 -31 88 -37 144 -37 57 0 71
4 103 29 87 66 123 170 156 441 30 251 57 410 101 598 42 179 47 242 25 273
-26 35 -143 24 -506 -50 -444 -89 -510 -99 -563 -86 -62 16 -138 45 -262 100
-60 26 -132 55 -158 64 -60 20 -136 21 -164 1z"/>
<path d="M2114 7393 c-6 -5 -84 -152 -172 -328 -182 -360 -294 -562 -449 -804
-121 -189 -168 -277 -182 -341 -50 -217 8 -655 116 -877 86 -177 226 -215 402
-110 341 204 505 811 537 1987 7 264 0 334 -43 420 l-28 55 -85 3 c-47 1 -90
-1 -96 -5z"/>
<path d="M2715 7161 c-59 -36 -85 -77 -85 -136 0 -68 18 -122 85 -256 410
-821 1266 -1338 2520 -1523 374 -55 451 -59 1020 -58 1204 1 1605 72 1708 300
15 35 21 68 21 127 1 73 -2 84 -28 120 -42 58 -138 131 -263 199 -359 195
-407 224 -558 337 -160 119 -305 249 -734 655 -190 181 -234 209 -305 199 -25
-4 -50 -13 -57 -21 -6 -8 -11 -49 -11 -97 0 -104 28 -193 143 -450 109 -242
165 -377 173 -414 10 -43 -18 -72 -84 -89 -82 -22 -335 -28 -600 -15 -980 50
-1607 171 -2030 392 -199 104 -427 307 -615 549 -81 105 -113 138 -164 171
-52 34 -93 37 -136 10z"/>
<path d="M3336 5509 c-42 -12 -95 -67 -102 -106 -4 -19 1 -81 10 -138 25 -160
22 -314 -9 -419 -166 -571 -929 -1533 -2095 -2639 -366 -348 -560 -537 -621
-610 -43 -51 -49 -64 -49 -103 0 -47 22 -100 49 -121 9 -7 41 -13 71 -13 94 0
211 65 748 422 637 423 814 558 1513 1152 236 201 367 306 382 306 36 0 135
-52 375 -196 278 -168 650 -408 705 -454 21 -18 -488 -464 -862 -754 -565
-438 -1280 -907 -1826 -1199 -348 -185 -396 -212 -439 -249 -59 -51 -74 -95
-49 -145 29 -59 72 -78 173 -76 148 3 376 63 712 187 1033 381 1932 856 2891
1525 88 61 167 113 178 116 10 3 28 1 40 -6 12 -6 351 -293 753 -638 905 -776
1236 -1055 1473 -1245 77 -62 141 -91 219 -101 52 -7 248 7 1124 81 2005 167
2227 194 2271 276 15 28 6 91 -20 127 -30 41 -153 85 -897 316 -241 75 -522
164 -624 197 -102 33 -228 74 -280 90 -369 117 -1200 418 -1650 598 -648 258
-1300 563 -1758 822 l-53 30 153 161 c84 88 432 442 773 786 341 344 637 647
657 672 75 92 82 167 22 230 -91 95 -598 356 -941 484 -87 33 -105 37 -173 33
-64 -3 -98 -13 -225 -65 -321 -130 -771 -260 -1205 -348 -187 -37 -490 -85
-490 -77 0 3 22 39 49 82 65 101 75 140 56 214 -23 87 -71 169 -183 311 -168
211 -243 276 -427 366 -191 93 -350 138 -419 118z m2334 -1356 c0 -30 -183
-285 -389 -543 -293 -367 -481 -570 -527 -570 -83 0 -1169 471 -1199 520 -4 6
51 68 122 139 l128 129 580 106 c552 101 1155 209 1220 219 51 7 65 7 65 0z"/>
</g>
</svg>
