<svg width="144" height="93" viewBox="0 0 144 93" fill="none" xmlns="http://www.w3.org/2000/svg">
<g id="mcd-icon" filter="url(#filter0_d)">
<g id="mountains-logo">
<g id="mountain">
<path id="Polygon 1" d="M41.4448 2.77171L41 1.90491L40.5552 2.77171L5.91414 70.2717L5.54038 71H6.35898H75.641H76.4596L76.0859 70.2717L41.4448 2.77171Z" fill="#718096" stroke="black"/>
<path id="Vector 6" d="M31 22L39.5 33L42 22L47 33L50.5 22L41 4.5L31 22Z" fill="white" stroke="black"/>
</g>
<g id="mountain_2">
<path id="Polygon 1_2" d="M69.4448 2.77171L69 1.90491L68.5552 2.77171L33.9141 70.2717L33.5404 71H34.359H103.641H104.46L104.086 70.2717L69.4448 2.77171Z" fill="#718096" stroke="black"/>
<path id="Vector 6_2" d="M59 22L67.5 33L70 22L75 33L78.5 22L69 4.5L59 22Z" fill="white" stroke="black"/>
</g>
<g id="mountain_3">
<path id="Polygon 1_3" d="M103.445 2.77171L103 1.90491L102.555 2.77171L67.9141 70.2717L67.5404 71H68.359H137.641H138.46L138.086 70.2717L103.445 2.77171Z" fill="#718096" stroke="black"/>
<path id="Vector 6_3" d="M93 22L101.5 33L104 22L109 33L112.5 22L103 4.5L93 22Z" fill="white" stroke="black"/>
</g>
</g>
<g id="Masiu">
<path d="M35.6921 45.3C35.6921 45.3 32.3671 57.27 32.1221 58.215H31.9821C31.7371 57.27 28.3771 45.3 28.3771 45.3H24.4571V67H28.0621L27.8521 52.51H27.9921L30.8621 62.695H33.0671L35.9021 52.51H36.0421L35.8321 67H39.5421V45.3H35.6921ZM55.9153 67.14L59.9753 66.86C58.1203 59.65 56.1953 52.51 54.0603 45.265H48.4953C46.3253 52.51 44.4353 59.79 42.5803 67H46.5703C47.0603 65.005 47.5153 62.975 48.0053 60.98H54.4453C54.9353 63.045 55.4253 65.11 55.9153 67.14ZM51.0853 48.555H51.3653C52.1703 51.67 52.9753 54.855 53.7453 58.04H48.7053C49.4753 54.855 50.2803 51.705 51.0853 48.555ZM63.6784 63.64V67.245C74.1434 67.665 77.8884 64.06 77.8884 60.63C77.8884 55.45 67.7734 54.015 67.7734 50.76C67.7734 49.185 69.5234 48.24 76.5584 48.73L76.3484 45.125C67.3184 44.635 63.6084 48.065 63.6084 51.32C63.6084 56.325 73.7234 57.585 73.7234 61.12C73.7234 62.94 71.0634 64.2 63.6784 63.64ZM91.7766 48.415H96.7816V45.3H82.7466V48.415H87.7516V63.885H82.7466V67H96.6766L96.9566 63.885H91.7766V48.415ZM108.815 67.56C113.47 67.56 116.34 64.515 116.34 59.475V45.3H112.315V60.175C112.315 62.975 111.3 64.095 109.095 64.095C106.995 64.095 105.7 62.73 105.7 59.615V45.3H101.675V59.79C101.675 64.76 104.335 67.56 108.815 67.56Z" fill="#81A7FF"/>
<path d="M35.6921 45.3V44.3H34.932L34.7286 45.0324L35.6921 45.3ZM32.1221 58.215V59.215H32.8959L33.0901 58.466L32.1221 58.215ZM31.9821 58.215L31.0141 58.466L31.2083 59.215H31.9821V58.215ZM28.3771 45.3L29.3399 45.0297L29.135 44.3H28.3771V45.3ZM24.4571 45.3V44.3H23.4571V45.3H24.4571ZM24.4571 67H23.4571V68H24.4571V67ZM28.0621 67V68H29.0767L29.062 66.9855L28.0621 67ZM27.8521 52.51V51.51H26.8375L26.8522 52.5245L27.8521 52.51ZM27.9921 52.51L28.9546 52.2388L28.7492 51.51H27.9921V52.51ZM30.8621 62.695L29.8996 62.9662L30.1049 63.695H30.8621V62.695ZM33.0671 62.695V63.695H33.8268L34.0305 62.9632L33.0671 62.695ZM35.9021 52.51V51.51H35.1424L34.9387 52.2418L35.9021 52.51ZM36.0421 52.51L37.042 52.5245L37.0567 51.51H36.0421V52.51ZM35.8321 67L34.8322 66.9855L34.8175 68H35.8321V67ZM39.5421 67V68H40.5421V67H39.5421ZM39.5421 45.3H40.5421V44.3H39.5421V45.3ZM35.6921 45.3C34.7286 45.0324 34.7286 45.0324 34.7285 45.0325C34.7285 45.0326 34.7285 45.0327 34.7284 45.0329C34.7283 45.0333 34.7282 45.0338 34.728 45.0345C34.7276 45.036 34.727 45.0382 34.7262 45.041C34.7246 45.0468 34.7222 45.0554 34.719 45.0667C34.7127 45.0894 34.7034 45.1231 34.6912 45.1671C34.6667 45.255 34.6309 45.384 34.5852 45.5486C34.4938 45.8778 34.3629 46.3491 34.2052 46.9176C33.8896 48.0547 33.4663 49.5806 33.0353 51.1361C32.1756 54.239 31.2793 57.4809 31.1541 57.964L33.0901 58.466C33.2098 58.0041 34.0986 54.7885 34.9627 51.6701C35.3935 50.115 35.8168 48.5894 36.1323 47.4525C36.2901 46.8841 36.4209 46.4128 36.5123 46.0837C36.558 45.9192 36.5938 45.7901 36.6182 45.7023C36.6304 45.6583 36.6398 45.6247 36.6461 45.602C36.6492 45.5907 36.6516 45.5821 36.6532 45.5763C36.654 45.5734 36.6546 45.5713 36.655 45.5698C36.6552 45.5691 36.6554 45.5686 36.6555 45.5682C36.6555 45.568 36.6555 45.5679 36.6556 45.5678C36.6556 45.5677 36.6556 45.5676 35.6921 45.3ZM32.1221 57.215H31.9821V59.215H32.1221V57.215ZM32.9501 57.964C32.8244 57.4792 31.9188 54.2352 31.0507 51.1336C30.6153 49.5781 30.1876 48.0521 29.8688 46.9151C29.7093 46.3465 29.5771 45.8752 29.4848 45.546C29.4386 45.3814 29.4024 45.2524 29.3777 45.1645C29.3653 45.1205 29.3559 45.0868 29.3495 45.0641C29.3463 45.0528 29.3439 45.0442 29.3423 45.0384C29.3415 45.0356 29.3409 45.0334 29.3405 45.0319C29.3403 45.0312 29.3401 45.0307 29.34 45.0303C29.34 45.0301 29.3399 45.03 29.3399 45.0299C29.3399 45.0298 29.3399 45.0297 28.3771 45.3C27.4143 45.5703 27.4143 45.5703 27.4143 45.5704C27.4144 45.5705 27.4144 45.5706 27.4145 45.5708C27.4146 45.5712 27.4147 45.5717 27.4149 45.5724C27.4153 45.5739 27.4159 45.576 27.4167 45.5789C27.4183 45.5847 27.4208 45.5933 27.4239 45.6046C27.4303 45.6273 27.4397 45.6609 27.4521 45.7049C27.4767 45.7927 27.513 45.9218 27.5591 46.0863C27.6515 46.4154 27.7837 46.8867 27.9431 47.4551C28.2619 48.5919 28.6895 50.1176 29.1247 51.6727C29.9979 54.7923 30.8948 58.0057 31.0141 58.466L32.9501 57.964ZM28.3771 44.3H24.4571V46.3H28.3771V44.3ZM23.4571 45.3V67H25.4571V45.3H23.4571ZM24.4571 68H28.0621V66H24.4571V68ZM29.062 66.9855L28.852 52.4955L26.8522 52.5245L27.0622 67.0145L29.062 66.9855ZM27.8521 53.51H27.9921V51.51H27.8521V53.51ZM27.0296 52.7812L29.8996 62.9662L31.8246 62.4238L28.9546 52.2388L27.0296 52.7812ZM30.8621 63.695H33.0671V61.695H30.8621V63.695ZM34.0305 62.9632L36.8655 52.7782L34.9387 52.2418L32.1037 62.4268L34.0305 62.9632ZM35.9021 53.51H36.0421V51.51H35.9021V53.51ZM35.0422 52.4955L34.8322 66.9855L36.832 67.0145L37.042 52.5245L35.0422 52.4955ZM35.8321 68H39.5421V66H35.8321V68ZM40.5421 67V45.3H38.5421V67H40.5421ZM39.5421 44.3H35.6921V46.3H39.5421V44.3ZM55.9153 67.14L54.9432 67.3746L55.1414 68.1957L55.9841 68.1376L55.9153 67.14ZM59.9753 66.86L60.0441 67.8576L61.2432 67.7749L60.9437 66.6108L59.9753 66.86ZM54.0603 45.265L55.0195 44.9823L54.8081 44.265H54.0603V45.265ZM48.4953 45.265V44.265H47.7509L47.5373 44.9781L48.4953 45.265ZM42.5803 67L41.6118 66.7508L41.2904 68H42.5803V67ZM46.5703 67V68H47.3544L47.5414 67.2385L46.5703 67ZM48.0053 60.98V59.98H47.2211L47.0341 60.7415L48.0053 60.98ZM54.4453 60.98L55.4182 60.7491L55.2357 59.98H54.4453V60.98ZM51.0853 48.555V47.555H50.3087L50.1164 48.3074L51.0853 48.555ZM51.3653 48.555L52.3334 48.3048L52.1397 47.555H51.3653V48.555ZM53.7453 58.04V59.04H55.0158L54.7173 57.805L53.7453 58.04ZM48.7053 58.04L47.7333 57.805L47.4347 59.04H48.7053V58.04ZM55.9841 68.1376L60.0441 67.8576L59.9065 65.8624L55.8465 66.1424L55.9841 68.1376ZM60.9437 66.6108C59.0868 59.3936 57.1587 52.2418 55.0195 44.9823L53.101 45.5477C55.2318 52.7782 57.1537 59.9064 59.0068 67.1092L60.9437 66.6108ZM54.0603 44.265H48.4953V46.265H54.0603V44.265ZM47.5373 44.9781C45.361 52.2442 43.4665 59.5418 41.6118 66.7508L43.5487 67.2492C45.404 60.0382 47.2895 52.7758 49.4532 45.5519L47.5373 44.9781ZM42.5803 68H46.5703V66H42.5803V68ZM47.5414 67.2385C47.7878 66.2352 48.0252 65.224 48.2613 64.2186C48.4977 63.2115 48.7328 62.2102 48.9764 61.2185L47.0341 60.7415C46.7877 61.7448 46.5503 62.756 46.3142 63.7614C46.0778 64.7685 45.8427 65.7698 45.5991 66.7615L47.5414 67.2385ZM48.0053 61.98H54.4453V59.98H48.0053V61.98ZM53.4723 61.2109C53.9622 63.2755 54.4526 65.3424 54.9432 67.3746L56.8873 66.9054C56.3979 64.8776 55.9083 62.8145 55.4182 60.7491L53.4723 61.2109ZM51.0853 49.555H51.3653V47.555H51.0853V49.555ZM50.3971 48.8052C51.2012 51.9169 52.0048 55.0965 52.7733 58.275L54.7173 57.805C53.9457 54.6135 53.1393 51.4231 52.3334 48.3048L50.3971 48.8052ZM53.7453 57.04H48.7053V59.04H53.7453V57.04ZM49.6773 58.275C50.4455 55.0973 51.2489 51.9536 52.0541 48.8026L50.1164 48.3074C49.3117 51.4564 48.505 54.6127 47.7333 57.805L49.6773 58.275ZM63.6784 63.64L63.754 62.6429L62.6784 62.5613V63.64H63.6784ZM63.6784 67.245H62.6784V68.2057L63.6383 68.2442L63.6784 67.245ZM76.5584 48.73L76.4889 49.7276L77.6228 49.8066L77.5567 48.6718L76.5584 48.73ZM76.3484 45.125L77.3467 45.0668L77.2948 44.1749L76.4026 44.1265L76.3484 45.125ZM62.6784 63.64V67.245H64.6784V63.64H62.6784ZM63.6383 68.2442C68.9689 68.4581 72.7325 67.6562 75.2025 66.2503C77.7078 64.8243 78.8884 62.76 78.8884 60.63H76.8884C76.8884 61.93 76.1966 63.3832 74.2131 64.5122C72.1943 65.6613 68.853 66.4519 63.7185 66.2458L63.6383 68.2442ZM78.8884 60.63C78.8884 58.9699 78.0663 57.6659 77.0019 56.6402C75.9519 55.6284 74.586 54.8084 73.3187 54.1002C72 53.3632 70.8225 52.7632 69.9328 52.1315C68.9958 51.4664 68.7734 51.0307 68.7734 50.76H66.7734C66.7734 52.1168 67.8154 53.0811 68.775 53.7624C69.7818 54.4771 71.1331 55.1699 72.3431 55.8461C73.6046 56.551 74.7674 57.2644 75.614 58.0803C76.4462 58.8822 76.8884 59.7001 76.8884 60.63H78.8884ZM68.7734 50.76C68.7734 50.5688 68.8188 50.4681 68.8979 50.3809C68.9998 50.2684 69.2419 50.0905 69.7996 49.933C70.9372 49.6117 72.9833 49.4834 76.4889 49.7276L76.6279 47.7324C73.0985 47.4866 70.7521 47.5858 69.256 48.0083C68.4968 48.2227 67.8617 48.5457 67.4157 49.038C66.9468 49.5556 66.7734 50.1637 66.7734 50.76H68.7734ZM77.5567 48.6718L77.3467 45.0668L75.3501 45.1832L75.5601 48.7882L77.5567 48.6718ZM76.4026 44.1265C71.7707 43.8751 68.3697 44.6195 66.0872 45.955C63.785 47.302 62.6084 49.2722 62.6084 51.32H64.6084C64.6084 50.1128 65.2868 48.7405 67.0972 47.6812C68.9272 46.6105 71.8962 45.8849 76.2942 46.1235L76.4026 44.1265ZM62.6084 51.32C62.6084 52.9513 63.4456 54.2153 64.5098 55.1997C65.5594 56.1706 66.9253 56.9593 68.1862 57.6487C69.4976 58.3656 70.6736 58.9656 71.5527 59.6085C72.4603 60.2722 72.7234 60.7521 72.7234 61.12H74.7234C74.7234 59.7204 73.7221 58.7172 72.7332 57.994C71.7158 57.25 70.363 56.5594 69.1456 55.8938C67.8778 55.2007 66.715 54.515 65.8679 53.7315C65.0356 52.9616 64.6084 52.1912 64.6084 51.32H62.6084ZM72.7234 61.12C72.7234 61.3025 72.6677 61.4705 72.4848 61.6537C72.2786 61.8602 71.8863 62.1054 71.1851 62.314C69.7739 62.7339 67.4088 62.92 63.754 62.6429L63.6028 64.6371C67.333 64.92 69.9904 64.7561 71.7555 64.231C72.6424 63.9671 73.3767 63.591 73.9 63.0669C74.4466 62.5195 74.7234 61.8475 74.7234 61.12H72.7234ZM91.7766 48.415V47.415H90.7766V48.415H91.7766ZM96.7816 48.415V49.415H97.7816V48.415H96.7816ZM96.7816 45.3H97.7816V44.3H96.7816V45.3ZM82.7466 45.3V44.3H81.7466V45.3H82.7466ZM82.7466 48.415H81.7466V49.415H82.7466V48.415ZM87.7516 48.415H88.7516V47.415H87.7516V48.415ZM87.7516 63.885V64.885H88.7516V63.885H87.7516ZM82.7466 63.885V62.885H81.7466V63.885H82.7466ZM82.7466 67H81.7466V68H82.7466V67ZM96.6766 67V68H97.5907L97.6726 67.0895L96.6766 67ZM96.9566 63.885L97.9526 63.9745L98.0505 62.885H96.9566V63.885ZM91.7766 63.885H90.7766V64.885H91.7766V63.885ZM91.7766 49.415H96.7816V47.415H91.7766V49.415ZM97.7816 48.415V45.3H95.7816V48.415H97.7816ZM96.7816 44.3H82.7466V46.3H96.7816V44.3ZM81.7466 45.3V48.415H83.7466V45.3H81.7466ZM82.7466 49.415H87.7516V47.415H82.7466V49.415ZM86.7516 48.415V63.885H88.7516V48.415H86.7516ZM87.7516 62.885H82.7466V64.885H87.7516V62.885ZM81.7466 63.885V67H83.7466V63.885H81.7466ZM82.7466 68H96.6766V66H82.7466V68ZM97.6726 67.0895L97.9526 63.9745L95.9606 63.7955L95.6806 66.9105L97.6726 67.0895ZM96.9566 62.885H91.7766V64.885H96.9566V62.885ZM92.7766 63.885V48.415H90.7766V63.885H92.7766ZM116.34 45.3H117.34V44.3H116.34V45.3ZM112.315 45.3V44.3H111.315V45.3H112.315ZM105.7 45.3H106.7V44.3H105.7V45.3ZM101.675 45.3V44.3H100.675V45.3H101.675ZM108.815 68.56C111.368 68.56 113.533 67.7187 115.054 66.0901C116.567 64.4696 117.34 62.181 117.34 59.475H115.34C115.34 61.809 114.677 63.5629 113.592 64.7249C112.514 65.8788 110.917 66.56 108.815 66.56V68.56ZM117.34 59.475V45.3H115.34V59.475H117.34ZM116.34 44.3H112.315V46.3H116.34V44.3ZM111.315 45.3V60.175H113.315V45.3H111.315ZM111.315 60.175C111.315 61.4921 111.069 62.1816 110.766 62.5417C110.499 62.8594 110.037 63.095 109.095 63.095V65.095C110.358 65.095 111.505 64.7706 112.297 63.8283C113.053 62.9284 113.315 61.6579 113.315 60.175H111.315ZM109.095 63.095C108.276 63.095 107.745 62.8405 107.39 62.3973C107.003 61.9154 106.7 61.0572 106.7 59.615H104.7C104.7 61.2878 105.044 62.6696 105.83 63.649C106.647 64.667 107.813 65.095 109.095 65.095V63.095ZM106.7 59.615V45.3H104.7V59.615H106.7ZM105.7 44.3H101.675V46.3H105.7V44.3ZM100.675 45.3V59.79H102.675V45.3H100.675ZM100.675 59.79C100.675 62.446 101.387 64.6605 102.831 66.2186C104.286 67.7871 106.361 68.56 108.815 68.56V66.56C106.788 66.56 105.294 65.9329 104.298 64.8589C103.293 63.7745 102.675 62.104 102.675 59.79H100.675Z" fill="black"/>
</g>
</g>
<defs>
<filter id="filter0_d" x="0.721786" y="0.809814" width="142.556" height="78.6902" filterUnits="userSpaceOnUse" color-interpolation-filters="sRGB">
<feFlood flood-opacity="0" result="BackgroundImageFix"/>
<feColorMatrix in="SourceAlpha" type="matrix" values="0 0 0 0 0 0 0 0 0 0 0 0 0 0 0 0 0 0 127 0"/>
<feOffset dy="4"/>
<feGaussianBlur stdDeviation="2"/>
<feColorMatrix type="matrix" values="0 0 0 0 0 0 0 0 0 0 0 0 0 0 0 0 0 0 0.25 0"/>
<feBlend mode="normal" in2="BackgroundImageFix" result="effect1_dropShadow"/>
<feBlend mode="normal" in="SourceGraphic" in2="effect1_dropShadow" result="shape"/>
</filter>
</defs>
</svg>
