<svg width="160" height="39" viewBox="0 0 160 39" fill="none" xmlns="http://www.w3.org/2000/svg">
<path d="M19.8 0.8C19.8 0.8 14.1 21.32 13.68 22.94H13.44C13.02 21.32 7.26 0.8 7.26 0.8H0.54V38H6.72L6.36 13.16H6.6L11.52 30.62H15.3L20.16 13.16H20.4L20.04 38H26.4V0.8H19.8ZM50.5083 38L50.9283 29.6H41.7483L41.3283 38H50.5083ZM92.0166 32.36C77.7966 33.08 73.7766 28.82 73.7766 19.04C73.7766 10.94 76.3566 6.56 91.6566 6.86L91.2966 0.26C72.8166 0.619998 66.6366 9.56 66.6366 19.94C66.6366 31.22 72.2166 39.8 91.4166 38.24L92.0166 32.36ZM116.485 38L116.905 29.6H107.725L107.305 38H116.485ZM159.433 18.68C159.433 4.16 152.593 -1.72 133.453 0.8V38C151.393 40.52 159.433 33.2 159.433 18.68ZM152.473 19.7C152.473 29.66 149.353 33.92 140.233 32.6V6.08C149.473 5.06 152.473 9.74 152.473 19.7Z" fill="white"/>
</svg>
