<svg width="144" height="93" viewBox="0 0 144 93" fill="none" xmlns="http://www.w3.org/2000/svg">
<g filter="url(#filter0_d)">
<path d="M41.4448 2.77171L41 1.90491L40.5552 2.77171L5.91414 70.2717L5.54038 71H6.35898H75.641H76.4596L76.0859 70.2717L41.4448 2.77171Z" fill="#718096" stroke="black"/>
<path d="M31 22L39.5 33L42 22L47 33L50.5 22L41 4.5L31 22Z" fill="white" stroke="black"/>
<path d="M69.4448 2.77171L69 1.90491L68.5552 2.77171L33.9141 70.2717L33.5404 71H34.359H103.641H104.46L104.086 70.2717L69.4448 2.77171Z" fill="#718096" stroke="black"/>
<path d="M59 22L67.5 33L70 22L75 33L78.5 22L69 4.5L59 22Z" fill="white" stroke="black"/>
<path d="M103.445 2.77171L103 1.90491L102.555 2.77171L67.9141 70.2717L67.5404 71H68.359H137.641H138.46L138.086 70.2717L103.445 2.77171Z" fill="#718096" stroke="black"/>
<path d="M93 22L101.5 33L104 22L109 33L112.5 22L103 4.5L93 22Z" fill="white" stroke="black"/>
<path d="M58.6646 46.4C58.6646 46.4 55.8146 56.66 55.6046 57.47H55.4846C55.2746 56.66 52.3946 46.4 52.3946 46.4H49.0346V65H52.1246L51.9446 52.58H52.0646L54.5246 61.31H56.4146L58.8446 52.58H58.9646L58.7846 65H61.9646V46.4H58.6646ZM74.0188 65L74.2288 60.8H69.6388L69.4288 65H74.0188ZM94.7729 62.18C87.6629 62.54 85.6529 60.41 85.6529 55.52C85.6529 51.47 86.9429 49.28 94.5929 49.43L94.4129 46.13C85.1729 46.31 82.0829 50.78 82.0829 55.97C82.0829 61.61 84.8729 65.9 94.4729 65.12L94.7729 62.18ZM107.007 65L107.217 60.8H102.627L102.417 65H107.007ZM128.481 55.34C128.481 48.08 125.061 45.14 115.491 46.4V65C124.461 66.26 128.481 62.6 128.481 55.34ZM125.001 55.85C125.001 60.83 123.441 62.96 118.881 62.3V49.04C123.501 48.53 125.001 50.87 125.001 55.85Z" fill="#81A7FF"/>
<path d="M58.6646 46.4V45.4H57.9046L57.7011 46.1324L58.6646 46.4ZM55.6046 57.47V58.47H56.3785L56.5726 57.721L55.6046 57.47ZM55.4846 57.47L54.5167 57.721L54.7108 58.47H55.4846V57.47ZM52.3946 46.4L53.3574 46.1297L53.1526 45.4H52.3946V46.4ZM49.0346 46.4V45.4H48.0346V46.4H49.0346ZM49.0346 65H48.0346V66H49.0346V65ZM52.1246 65V66H53.1392L53.1245 64.9855L52.1246 65ZM51.9446 52.58V51.58H50.9301L50.9448 52.5945L51.9446 52.58ZM52.0646 52.58L53.0272 52.3088L52.8218 51.58H52.0646V52.58ZM54.5246 61.31L53.5621 61.5812L53.7675 62.31H54.5246V61.31ZM56.4146 61.31V62.31H57.1743L57.378 61.5782L56.4146 61.31ZM58.8446 52.58V51.58H58.085L57.8813 52.3118L58.8446 52.58ZM58.9646 52.58L59.9645 52.5945L59.9792 51.58H58.9646V52.58ZM58.7846 65L57.7848 64.9855L57.7701 66H58.7846V65ZM61.9646 65V66H62.9646V65H61.9646ZM61.9646 46.4H62.9646V45.4H61.9646V46.4ZM58.6646 46.4C57.7011 46.1324 57.7011 46.1324 57.7011 46.1325C57.7011 46.1326 57.701 46.1327 57.701 46.1328C57.7009 46.1331 57.7008 46.1336 57.7006 46.1342C57.7003 46.1355 57.6997 46.1373 57.6991 46.1398C57.6977 46.1447 57.6956 46.1521 57.6929 46.1618C57.6875 46.1813 57.6795 46.2101 57.6691 46.2478C57.6481 46.3232 57.6174 46.4338 57.5782 46.5749C57.4999 46.8571 57.3877 47.261 57.2525 47.7484C56.982 48.723 56.6191 50.0309 56.2497 51.3642C55.5131 54.0227 54.7444 56.8034 54.6367 57.219L56.5726 57.721C56.6749 57.3266 57.4362 54.5723 58.1771 51.8983C58.5464 50.5653 58.9092 49.2577 59.1796 48.2832C59.3149 47.796 59.427 47.3921 59.5053 47.11C59.5445 46.9689 59.5752 46.8584 59.5961 46.783C59.6066 46.7454 59.6146 46.7165 59.62 46.6971C59.6227 46.6874 59.6247 46.68 59.6261 46.6751C59.6268 46.6726 59.6273 46.6707 59.6276 46.6695C59.6278 46.6689 59.628 46.6684 59.628 46.6681C59.6281 46.668 59.6281 46.6678 59.6281 46.6678C59.6282 46.6677 59.6282 46.6676 58.6646 46.4ZM55.6046 56.47H55.4846V58.47H55.6046V56.47ZM56.4526 57.219C56.3445 56.8017 55.5676 54.019 54.8239 51.3617C54.4507 50.0284 54.0841 48.7204 53.8108 47.7458C53.6741 47.2585 53.5608 46.8545 53.4816 46.5723C53.442 46.4312 53.411 46.3206 53.3898 46.2452C53.3793 46.2075 53.3712 46.1787 53.3657 46.1592C53.363 46.1495 53.3609 46.1421 53.3595 46.1372C53.3588 46.1347 53.3583 46.1329 53.358 46.1316C53.3578 46.131 53.3577 46.1305 53.3576 46.1302C53.3575 46.1301 53.3575 46.1299 53.3575 46.1299C53.3574 46.1298 53.3574 46.1297 52.3946 46.4C51.4319 46.6703 51.4319 46.6703 51.4319 46.6704C51.4319 46.6704 51.4319 46.6706 51.432 46.6707C51.4321 46.671 51.4322 46.6715 51.4324 46.6721C51.4327 46.6734 51.4333 46.6752 51.4339 46.6777C51.4353 46.6826 51.4374 46.69 51.4401 46.6997C51.4456 46.7191 51.4537 46.748 51.4642 46.7856C51.4854 46.861 51.5164 46.9715 51.556 47.1126C51.6351 47.3947 51.7484 47.7986 51.8851 48.2858C52.1583 49.2602 52.5248 50.5679 52.8979 51.9008C53.6467 54.576 54.4148 57.3282 54.5167 57.721L56.4526 57.219ZM52.3946 45.4H49.0346V47.4H52.3946V45.4ZM48.0346 46.4V65H50.0346V46.4H48.0346ZM49.0346 66H52.1246V64H49.0346V66ZM53.1245 64.9855L52.9445 52.5655L50.9448 52.5945L51.1248 65.0145L53.1245 64.9855ZM51.9446 53.58H52.0646V51.58H51.9446V53.58ZM51.1021 52.8512L53.5621 61.5812L55.4872 61.0388L53.0272 52.3088L51.1021 52.8512ZM54.5246 62.31H56.4146V60.31H54.5246V62.31ZM57.378 61.5782L59.808 52.8482L57.8813 52.3118L55.4513 61.0418L57.378 61.5782ZM58.8446 53.58H58.9646V51.58H58.8446V53.58ZM57.9648 52.5655L57.7848 64.9855L59.7845 65.0145L59.9645 52.5945L57.9648 52.5655ZM58.7846 66H61.9646V64H58.7846V66ZM62.9646 65V46.4H60.9646V65H62.9646ZM61.9646 45.4H58.6646V47.4H61.9646V45.4ZM74.0188 65V66H74.97L75.0175 65.0499L74.0188 65ZM74.2288 60.8L75.2275 60.8499L75.28 59.8H74.2288V60.8ZM69.6388 60.8V59.8H68.6875L68.64 60.7501L69.6388 60.8ZM69.4288 65L68.43 64.9501L68.3775 66H69.4288V65ZM75.0175 65.0499L75.2275 60.8499L73.23 60.7501L73.02 64.9501L75.0175 65.0499ZM74.2288 59.8H69.6388V61.8H74.2288V59.8ZM68.64 60.7501L68.43 64.9501L70.4275 65.0499L70.6375 60.8499L68.64 60.7501ZM69.4288 66H74.0188V64H69.4288V66ZM94.7729 62.18L95.7678 62.2815L95.886 61.1224L94.7224 61.1813L94.7729 62.18ZM94.5929 49.43L94.5733 50.4298L95.6501 50.4509L95.5914 49.3755L94.5929 49.43ZM94.4129 46.13L95.4114 46.0755L95.3589 45.1114L94.3935 45.1302L94.4129 46.13ZM94.4729 65.12L94.5539 66.1167L95.3833 66.0493L95.4678 65.2215L94.4729 65.12ZM94.7224 61.1813C91.2092 61.3592 89.2541 60.8929 88.1665 60.034C87.1405 59.2237 86.6529 57.8652 86.6529 55.52H84.6529C84.6529 58.0648 85.1704 60.2163 86.9269 61.6035C88.6218 62.9421 91.2267 63.3608 94.8235 63.1787L94.7224 61.1813ZM86.6529 55.52C86.6529 53.5539 86.9785 52.4096 87.8833 51.6773C88.8638 50.8837 90.774 50.3553 94.5733 50.4298L94.6125 48.4302C90.7619 48.3547 88.2021 48.8463 86.625 50.1227C84.9723 51.4604 84.6529 53.4361 84.6529 55.52H86.6529ZM95.5914 49.3755L95.4114 46.0755L93.4144 46.1845L93.5944 49.4845L95.5914 49.3755ZM94.3935 45.1302C89.6275 45.223 86.2719 46.4252 84.1027 48.4383C81.9202 50.4637 81.0829 53.1752 81.0829 55.97H83.0829C83.0829 53.5748 83.7907 51.4563 85.4632 49.9042C87.149 48.3398 89.9583 47.217 94.4324 47.1298L94.3935 45.1302ZM81.0829 55.97C81.0829 58.9347 81.8161 61.7543 84.015 63.7012C86.2035 65.6388 89.6259 66.5171 94.5539 66.1167L94.3919 64.1233C89.72 64.5029 86.9474 63.6262 85.3408 62.2038C83.7448 60.7907 83.0829 58.6453 83.0829 55.97H81.0829ZM95.4678 65.2215L95.7678 62.2815L93.7781 62.0785L93.4781 65.0185L95.4678 65.2215ZM107.007 65V66H107.958L108.006 65.0499L107.007 65ZM107.217 60.8L108.216 60.8499L108.268 59.8H107.217V60.8ZM102.627 60.8V59.8H101.676L101.628 60.7501L102.627 60.8ZM102.417 65L101.418 64.9501L101.366 66H102.417V65ZM108.006 65.0499L108.216 60.8499L106.218 60.7501L106.008 64.9501L108.006 65.0499ZM107.217 59.8H102.627V61.8H107.217V59.8ZM101.628 60.7501L101.418 64.9501L103.416 65.0499L103.626 60.8499L101.628 60.7501ZM102.417 66H107.007V64H102.417V66ZM115.491 46.4L115.361 45.4086L114.491 45.523V46.4H115.491ZM115.491 65H114.491V65.8693L115.352 65.9903L115.491 65ZM118.881 62.3H117.881V63.1657L118.738 63.2897L118.881 62.3ZM118.881 49.04L118.771 48.046L117.881 48.1443V49.04H118.881ZM129.481 55.34C129.481 51.5883 128.6 48.6303 126.161 46.865C123.784 45.1438 120.2 44.7713 115.361 45.4086L115.622 47.3914C120.352 46.7687 123.264 47.2362 124.989 48.485C126.653 49.6897 127.481 51.8317 127.481 55.34H129.481ZM114.491 46.4V65H116.491V46.4H114.491ZM115.352 65.9903C119.957 66.6372 123.532 66.059 125.966 64.1523C128.426 62.2261 129.481 59.1387 129.481 55.34H127.481C127.481 58.8013 126.526 61.1739 124.733 62.5777C122.916 64.001 119.995 64.6228 115.63 64.0097L115.352 65.9903ZM124.001 55.85C124.001 58.3015 123.603 59.745 122.906 60.5231C122.275 61.2278 121.169 61.6207 119.024 61.3103L118.738 63.2897C121.154 63.6393 123.107 63.2972 124.396 61.8569C125.62 60.49 126.001 58.3785 126.001 55.85H124.001ZM119.881 62.3V49.04H117.881V62.3H119.881ZM118.991 50.034C121.141 49.7966 122.259 50.2506 122.905 51.0262C123.619 51.883 124.001 53.3998 124.001 55.85H126.001C126.001 53.3202 125.634 51.177 124.442 49.7463C123.183 48.2344 121.241 47.7734 118.771 48.046L118.991 50.034Z" fill="black"/>
</g>
<defs>
<filter id="filter0_d" x="0.721786" y="0.809814" width="142.556" height="78.6902" filterUnits="userSpaceOnUse" color-interpolation-filters="sRGB">
<feFlood flood-opacity="0" result="BackgroundImageFix"/>
<feColorMatrix in="SourceAlpha" type="matrix" values="0 0 0 0 0 0 0 0 0 0 0 0 0 0 0 0 0 0 127 0"/>
<feOffset dy="4"/>
<feGaussianBlur stdDeviation="2"/>
<feColorMatrix type="matrix" values="0 0 0 0 0 0 0 0 0 0 0 0 0 0 0 0 0 0 0.25 0"/>
<feBlend mode="normal" in2="BackgroundImageFix" result="effect1_dropShadow"/>
<feBlend mode="normal" in="SourceGraphic" in2="effect1_dropShadow" result="shape"/>
</filter>
</defs>
</svg>
