<svg width="847" height="306" viewBox="0 0 847 306" fill="none" xmlns="http://www.w3.org/2000/svg">
<g id="group">
<g id="mountains-logo">
<g id="mountain">
<path id="Polygon 1" d="M558.445 236.772L558 235.905L557.555 236.772L522.914 304.272L522.54 305H523.359H592.641H593.46L593.086 304.272L558.445 236.772Z" fill="#718096" stroke="black"/>
<path id="Vector 6" d="M548 256L556.5 267L559 256L564 267L567.5 256L558 238.5L548 256Z" fill="white" stroke="black"/>
</g>
<g id="mountain_2">
<path id="Polygon 1_2" d="M586.445 236.772L586 235.905L585.555 236.772L550.914 304.272L550.54 305H551.359H620.641H621.46L621.086 304.272L586.445 236.772Z" fill="#718096" stroke="black"/>
<path id="Vector 6_2" d="M576 256L584.5 267L587 256L592 267L595.5 256L586 238.5L576 256Z" fill="white" stroke="black"/>
</g>
<g id="mountain_3">
<path id="Polygon 1_3" d="M620.445 236.772L620 235.905L619.555 236.772L584.914 304.272L584.54 305H585.359H654.641H655.46L655.086 304.272L620.445 236.772Z" fill="#718096" stroke="black"/>
<path id="Vector 6_3" d="M610 256L618.5 267L621 256L626 267L629.5 256L620 238.5L610 256Z" fill="white" stroke="black"/>
</g>
</g>
<g id="my-name-in-jp">
<path id="&#227;&#131;&#155;&#227;&#131;&#147;&#227;&#130;&#168;&#227;&#130;&#185;" d="M572.24 170.32H570.36C570.44 170.62 570.5 171.32 570.5 171.74V173.8H564.94C564.3 173.8 563.8 173.76 563.24 173.68V175.38C563.78 175.32 564.34 175.3 564.96 175.3H570.5V184.32C570.5 184.86 570.26 185.08 569.72 185.08C569.2 185.08 568.3 185.02 567.42 184.86L567.56 186.44C568.38 186.54 569.56 186.58 570.4 186.58C571.62 186.58 572.12 186.04 572.12 185V175.3H577.42C577.9 175.3 578.5 175.32 579.04 175.36V173.7C578.54 173.76 577.88 173.8 577.4 173.8H572.12V171.74C572.12 171.32 572.2 170.6 572.24 170.32ZM567.84 178.4L566.44 177.72C565.66 179.34 563.96 181.72 562.62 182.94L564 183.88C565.14 182.66 567 180.1 567.84 178.4ZM576.2 177.72L574.84 178.46C575.9 179.72 577.4 182.2 578.18 183.78L579.66 182.96C578.86 181.52 577.28 179 576.2 177.72ZM595.56 170.32L594.5 170.78C595.04 171.54 595.72 172.74 596.12 173.56L597.2 173.06C596.78 172.26 596.06 171.04 595.56 170.32ZM597.76 169.52L596.7 169.98C597.26 170.74 597.92 171.86 598.36 172.74L599.44 172.24C599.06 171.5 598.28 170.26 597.76 169.52ZM586.58 171H584.72C584.8 171.46 584.84 172.14 584.84 172.62V183.62C584.84 185.24 585.7 185.94 587.24 186.22C588.06 186.36 589.26 186.42 590.44 186.42C592.62 186.42 595.62 186.26 597.36 186V184.18C595.7 184.62 592.64 184.82 590.52 184.82C589.54 184.82 588.5 184.76 587.88 184.66C586.9 184.46 586.48 184.2 586.48 183.18V178.78C588.96 178.14 592.42 177.08 594.66 176.18C595.26 175.96 595.98 175.64 596.54 175.4L595.84 173.8C595.28 174.14 594.68 174.44 594.08 174.7C592 175.6 588.84 176.56 586.48 177.14V172.62C586.48 172.06 586.52 171.46 586.58 171ZM603.9 172.62V174.38C604.4 174.32 605.2 174.3 605.58 174.3H610.08V183.5H604.44C603.9 183.5 603.28 183.46 602.68 183.38V185.2C603.3 185.14 603.9 185.12 604.44 185.12H617.66C618.06 185.12 618.78 185.12 619.32 185.2V183.38C618.8 183.44 618.26 183.5 617.66 183.5H611.78V174.3H616.58C617.14 174.3 617.78 174.32 618.28 174.38V172.62C617.8 172.68 617.18 172.74 616.58 172.74H605.58C605.18 172.74 604.42 172.7 603.9 172.62ZM637 172.62L635.98 171.84C635.66 171.94 635.14 172 634.48 172H626.76C626.16 172 625.02 171.92 624.74 171.88V173.7C624.96 173.68 626.06 173.6 626.76 173.6H634.56C634.06 175.26 632.6 177.62 631.24 179.16C629.18 181.46 626.22 183.84 623 185.1L624.28 186.44C627.24 185.1 629.94 182.9 632.08 180.6C634.12 182.42 636.24 184.78 637.58 186.54L638.98 185.34C637.68 183.76 635.24 181.16 633.14 179.36C634.56 177.56 635.82 175.22 636.5 173.5C636.62 173.22 636.88 172.78 637 172.62Z" fill="black"/>
</g>
<g id="round-title">
<circle id="Ellipse 1" cx="280.5" cy="174.5" r="280.5" fill="#81A7FF"/>
<g id="my-name-in-jp_2" filter="url(#filter0_d)">
<path id="&#227;&#129;&#147;&#227;&#130;&#147;&#227;&#129;&#171;&#227;&#129;&#161;&#227;&#129;&#175;&#231;&#167;&#129;&#227;&#129;&#174;&#229;&#144;&#141;&#229;&#137;&#141;&#227;&#129;&#175;&#227;&#131;&#158;&#227;&#131;&#188;&#227;&#130;&#187;&#227;&#131;&#171;&#227;&#129;&#167;&#227;&#129;&#153;" d="M43.05 123.94V126.4C45.42 126.58 47.97 126.73 50.97 126.73C53.76 126.73 57.03 126.52 59.07 126.37V123.91C56.91 124.12 53.85 124.33 50.97 124.33C47.97 124.33 45.21 124.21 43.05 123.94ZM44.25 136.03L41.82 135.79C41.55 137.02 41.19 138.43 41.19 139.96C41.19 143.74 44.73 145.75 50.82 145.75C55.08 145.75 58.89 145.3 61.05 144.7L61.02 142.12C58.77 142.87 54.9 143.32 50.76 143.32C45.96 143.32 43.62 141.73 43.62 139.45C43.62 138.34 43.86 137.23 44.25 136.03ZM82.41 122.74L79.77 121.66C79.41 122.53 79.02 123.28 78.66 123.97C77.04 126.88 70.47 139.18 68.28 145.24L70.86 146.14C71.25 144.64 72.54 141.1 73.44 139.3C74.61 136.96 76.86 134.5 79.29 134.5C80.64 134.5 81.39 135.28 81.48 136.6C81.57 138.25 81.51 140.56 81.6 142.3C81.72 144.07 82.74 146.11 85.95 146.11C90.3 146.11 92.82 142.75 94.41 137.92L92.43 136.3C91.65 139.48 89.67 143.62 86.34 143.62C85.02 143.62 84 142.99 83.91 141.49C83.82 140.02 83.85 137.71 83.79 135.94C83.7 133.57 82.26 132.31 80.28 132.31C78.84 132.31 77.25 132.85 75.81 134.17C77.37 131.26 80.13 126.28 81.45 124.21C81.81 123.64 82.14 123.1 82.41 122.74ZM109.68 124.75V127.15C112.98 127.51 118.8 127.51 122.01 127.15V124.72C119.01 125.17 112.95 125.29 109.68 124.75ZM110.85 136.96L108.69 136.75C108.36 138.22 108.18 139.27 108.18 140.29C108.18 143.11 110.43 144.79 115.47 144.79C118.56 144.79 121.08 144.52 122.97 144.16L122.91 141.64C120.48 142.18 118.17 142.42 115.47 142.42C111.39 142.42 110.4 141.1 110.4 139.72C110.4 138.91 110.55 138.07 110.85 136.96ZM103.95 122.44L101.28 122.2C101.28 122.86 101.19 123.64 101.07 124.33C100.71 126.82 99.72 131.95 99.72 136.36C99.72 140.41 100.23 143.86 100.83 145.99L102.99 145.84C102.96 145.54 102.93 145.12 102.9 144.79C102.87 144.46 102.96 143.89 103.05 143.44C103.32 142.03 104.4 138.85 105.18 136.72L103.92 135.76C103.41 136.99 102.69 138.79 102.18 140.14C102 138.67 101.91 137.41 101.91 135.94C101.91 132.58 102.84 127.21 103.41 124.45C103.53 123.91 103.8 122.95 103.95 122.44ZM138.69 121.51L136.02 121.36C136.05 122.2 136.02 122.89 135.9 123.85C135.84 124.39 135.72 125.05 135.57 125.83C135.39 125.83 135.24 125.83 135.06 125.83C133.26 125.83 130.95 125.59 129.36 125.32L129.39 127.66C131.13 127.84 133.05 127.96 135.09 127.96H135.12C134.37 131.35 133.17 135.64 131.64 138.64L133.89 139.45C134.16 138.91 134.43 138.52 134.82 138.07C136.8 135.67 140.1 134.44 143.67 134.44C147.18 134.44 149.04 136.18 149.04 138.43C149.04 143.35 142.29 144.55 135.36 143.59L135.96 145.96C145.08 146.95 151.5 144.61 151.5 138.37C151.5 134.86 148.71 132.43 143.94 132.43C140.79 132.43 138.09 133.15 135.48 134.98C136.14 133.27 136.83 130.42 137.37 127.9C141.27 127.75 146.04 127.24 149.55 126.64L149.52 124.33C145.83 125.14 141.42 125.62 137.82 125.77C137.97 125.08 138.06 124.51 138.15 124.03C138.3 123.25 138.48 122.32 138.69 121.51ZM169.38 141.4C169.38 139.93 170.97 138.97 173.22 138.97C174.3 138.97 175.32 139.15 176.28 139.45C176.31 139.84 176.31 140.2 176.31 140.5C176.31 142.48 175.56 143.77 173.04 143.77C170.88 143.77 169.38 142.93 169.38 141.4ZM178.47 121.9H175.77C175.83 122.41 175.89 123.22 175.89 123.73V127.45C174.96 127.48 174 127.51 173.07 127.51C171.27 127.51 169.68 127.42 167.97 127.27V129.52C169.74 129.64 171.3 129.73 173.01 129.73C173.97 129.73 174.93 129.7 175.89 129.67C175.92 132.13 176.1 135.07 176.19 137.38C175.32 137.2 174.39 137.11 173.4 137.11C169.47 137.11 167.22 139.12 167.22 141.64C167.22 144.34 169.44 145.93 173.46 145.93C177.51 145.93 178.65 143.56 178.65 141.1C178.65 140.89 178.65 140.68 178.65 140.47C180.18 141.34 181.68 142.54 183.18 143.95L184.5 141.94C182.94 140.53 180.99 139.03 178.56 138.07C178.44 135.55 178.23 132.55 178.2 129.52C180 129.4 181.74 129.22 183.39 128.95V126.64C181.8 126.94 180.03 127.18 178.2 127.33C178.23 125.92 178.26 124.51 178.29 123.7C178.32 123.1 178.38 122.5 178.47 121.9ZM163.65 122.08L161.01 121.87C161.01 122.5 160.92 123.31 160.83 124C160.44 126.49 159.45 132.22 159.45 136.63C159.45 140.68 159.99 143.98 160.59 146.11L162.69 145.96C162.66 145.63 162.63 145.21 162.63 144.91C162.6 144.55 162.66 143.98 162.75 143.56C163.05 142.09 164.16 139.03 164.88 136.93L163.65 135.97C163.14 137.2 162.42 139.03 161.94 140.38C161.73 138.91 161.64 137.65 161.64 136.21C161.64 132.85 162.54 126.91 163.14 124.12C163.23 123.58 163.47 122.59 163.65 122.08ZM200.73 137.29C199.98 136.54 196.71 133.48 195.6 132.55V130.75H200.85V128.62H195.6V123.28C197.4 122.83 199.11 122.32 200.46 121.75L198.81 120.1C196.26 121.27 191.58 122.29 187.56 122.92C187.83 123.4 188.13 124.15 188.25 124.66C189.9 124.42 191.67 124.12 193.41 123.76V128.62H187.62V130.75H192.99C191.58 134.29 189.15 138.31 186.99 140.47C187.35 141.04 187.92 141.94 188.16 142.57C189.99 140.53 191.94 137.26 193.41 133.99V147.19H195.6V134.83C196.95 136.21 198.66 138.04 199.35 139L200.73 137.29ZM214.83 146.53C214.17 143.32 212.13 138.31 210.03 134.47L207.93 135.13C209.1 137.32 210.24 139.9 211.08 142.3C208.2 142.6 205.32 142.9 202.77 143.17C204.51 136.96 206.46 127.99 207.63 120.94L205.14 120.52C204.18 127.6 202.2 137.17 200.46 143.41C199.41 143.5 198.48 143.59 197.64 143.68L198.18 145.99C201.78 145.57 206.85 144.94 211.77 144.28C212.1 145.39 212.37 146.41 212.52 147.28L214.83 146.53ZM243.24 134.5C243.24 128.41 238.77 123.46 231.75 123.46C224.43 123.46 218.64 129.16 218.64 135.67C218.64 140.62 221.31 143.68 223.98 143.68C226.77 143.68 229.14 140.53 230.97 134.35C231.81 131.56 232.38 128.5 232.77 125.71C237.87 126.13 240.78 129.88 240.78 134.41C240.78 139.6 237 142.45 233.16 143.32C232.47 143.47 231.54 143.62 230.58 143.71L231.99 145.93C239.1 145 243.24 140.8 243.24 134.5ZM220.98 135.46C220.98 131.38 224.52 126.46 230.28 125.74C229.95 128.5 229.35 131.35 228.6 133.84C227.07 138.91 225.48 140.92 224.07 140.92C222.72 140.92 220.98 139.24 220.98 135.46ZM257.97 144.04V136.66H270.27V144.04H257.97ZM265.41 124.9C264.12 127.51 262.23 129.88 260.01 131.92C258.63 130.42 256.35 128.5 254.34 127.09C255.12 126.4 255.81 125.65 256.47 124.9H265.41ZM272.52 134.62H260.25C263.73 131.68 266.67 127.99 268.44 123.55L266.97 122.77L266.55 122.89H258.09C258.72 122.02 259.29 121.15 259.8 120.31L257.31 119.8C255.57 123.04 252.15 126.88 247.23 129.55C247.74 129.94 248.49 130.75 248.79 131.26C250.23 130.42 251.52 129.49 252.72 128.53C254.7 130 256.89 131.92 258.21 133.45C254.82 136.12 250.89 138.1 247.08 139.21C247.56 139.63 248.13 140.56 248.4 141.16C250.89 140.35 253.38 139.21 255.78 137.8V147.28H257.97V146.08H270.27V147.34H272.52V134.62ZM281.7 138.94V135.94H288.33V138.94H281.7ZM288.33 131.26V134.2H281.7V131.26H288.33ZM290.49 129.34H279.57V147.16H281.7V140.71H288.33V144.7C288.33 145.09 288.21 145.21 287.76 145.24C287.37 145.27 286.02 145.27 284.52 145.21C284.82 145.75 285.12 146.59 285.24 147.16C287.28 147.16 288.57 147.16 289.41 146.8C290.22 146.44 290.49 145.87 290.49 144.73V129.34ZM300.15 144.49C300.15 144.94 300 145.06 299.49 145.09C299.04 145.12 297.42 145.12 295.59 145.06C295.92 145.66 296.28 146.59 296.4 147.19C298.68 147.22 300.18 147.16 301.14 146.8C302.04 146.44 302.34 145.84 302.34 144.49V128.74H300.15V144.49ZM296.19 129.64H294.12V141.82H296.19V129.64ZM297.33 124.63C298.2 123.4 299.19 121.93 300 120.55L297.66 119.77C297 121.21 295.86 123.19 294.84 124.63H285.9L287.37 124.06C286.8 122.89 285.54 121.12 284.37 119.86L282.33 120.64C283.35 121.84 284.52 123.46 285.06 124.63H277.71V126.67H304.32V124.63H297.33ZM319.38 141.4C319.38 139.93 320.97 138.97 323.22 138.97C324.3 138.97 325.32 139.15 326.28 139.45C326.31 139.84 326.31 140.2 326.31 140.5C326.31 142.48 325.56 143.77 323.04 143.77C320.88 143.77 319.38 142.93 319.38 141.4ZM328.47 121.9H325.77C325.83 122.41 325.89 123.22 325.89 123.73V127.45C324.96 127.48 324 127.51 323.07 127.51C321.27 127.51 319.68 127.42 317.97 127.27V129.52C319.74 129.64 321.3 129.73 323.01 129.73C323.97 129.73 324.93 129.7 325.89 129.67C325.92 132.13 326.1 135.07 326.19 137.38C325.32 137.2 324.39 137.11 323.4 137.11C319.47 137.11 317.22 139.12 317.22 141.64C317.22 144.34 319.44 145.93 323.46 145.93C327.51 145.93 328.65 143.56 328.65 141.1C328.65 140.89 328.65 140.68 328.65 140.47C330.18 141.34 331.68 142.54 333.18 143.95L334.5 141.94C332.94 140.53 330.99 139.03 328.56 138.07C328.44 135.55 328.23 132.55 328.2 129.52C330 129.4 331.74 129.22 333.39 128.95V126.64C331.8 126.94 330.03 127.18 328.2 127.33C328.23 125.92 328.26 124.51 328.29 123.7C328.32 123.1 328.38 122.5 328.47 121.9ZM313.65 122.08L311.01 121.87C311.01 122.5 310.92 123.31 310.83 124C310.44 126.49 309.45 132.22 309.45 136.63C309.45 140.68 309.99 143.98 310.59 146.11L312.69 145.96C312.66 145.63 312.63 145.21 312.63 144.91C312.6 144.55 312.66 143.98 312.75 143.56C313.05 142.09 314.16 139.03 314.88 136.93L313.65 135.97C313.14 137.2 312.42 139.03 311.94 140.38C311.73 138.91 311.64 137.65 311.64 136.21C311.64 132.85 312.54 126.91 313.14 124.12C313.23 123.58 313.47 122.59 313.65 122.08ZM363.87 125.98L361.98 124.45C361.56 124.6 360.87 124.69 360.03 124.69H342.15C341.1 124.69 339.93 124.57 339.09 124.45V127.15C339.69 127.09 340.98 126.97 342.15 126.97H359.79C358.29 129.67 354.84 134.08 350.43 137.38C348.39 135.55 345.93 133.54 344.82 132.73L342.87 134.32C344.46 135.43 347.94 138.43 349.74 140.23C351.63 142.18 354.03 144.82 355.14 146.35L357.33 144.61C356.13 143.14 354 140.89 352.2 139.09C357.15 135.31 360.96 130.42 363.12 126.91C363.3 126.64 363.57 126.31 363.87 125.98ZM369.06 132.01V134.95C369.99 134.86 371.58 134.8 373.23 134.8H389.7C391.05 134.8 392.31 134.92 392.91 134.95V132.01C392.25 132.07 391.17 132.16 389.67 132.16H373.23C371.55 132.16 369.96 132.07 369.06 132.01ZM405.18 141.13C405.18 144.1 406.2 145.54 411.78 145.54C415.53 145.54 418.53 145.33 421.2 144.94L421.32 142.36C418.32 142.93 415.44 143.23 411.96 143.23C408.39 143.23 407.61 142.57 407.61 140.5V131.56C412.92 130.48 418.44 129.37 418.95 129.28C418.05 131.08 415.86 134.38 413.61 136.42L415.71 137.68C418.11 135.19 420.48 131.44 421.86 128.95C422.07 128.56 422.37 128.05 422.58 127.75L420.81 126.37C420.45 126.58 419.88 126.76 419.22 126.91C417.96 127.18 412.71 128.26 407.61 129.25V124.57C407.61 123.7 407.67 122.68 407.82 121.81H404.97C405.12 122.68 405.18 123.67 405.18 124.57V129.7C402 130.3 399.15 130.81 397.8 130.99L398.25 133.48C399.48 133.21 402.15 132.67 405.18 132.04V141.13ZM441.72 144.37L443.31 145.69C443.52 145.51 443.85 145.27 444.33 145C447.81 143.29 451.98 140.2 454.56 136.69L453.15 134.65C450.84 138.04 447.15 140.77 444.39 142.03V124.72C444.39 123.58 444.48 122.71 444.51 122.5H441.75C441.78 122.71 441.93 123.58 441.93 124.72V142.69C441.93 143.29 441.84 143.89 441.72 144.37ZM427.98 144.22L430.23 145.75C432.75 143.65 434.67 140.71 435.57 137.5C436.38 134.5 436.5 128.08 436.5 124.75C436.5 123.85 436.62 122.95 436.65 122.59H433.89C434.01 123.22 434.1 123.88 434.1 124.78C434.1 128.11 434.07 134.11 433.2 136.84C432.3 139.75 430.5 142.42 427.98 144.22ZM458.37 125.26L458.64 127.87C461.88 127.18 469.53 126.46 472.74 126.1C469.98 127.75 467.13 131.56 467.13 136.24C467.13 142.93 473.46 145.9 479.01 146.11L479.88 143.62C474.99 143.44 469.53 141.58 469.53 135.73C469.53 132.16 472.14 127.6 476.4 126.22C477.93 125.77 480.57 125.74 482.28 125.74V123.34C480.27 123.43 477.45 123.61 474.18 123.88C468.66 124.33 462.99 124.9 461.04 125.11C460.47 125.17 459.51 125.23 458.37 125.26ZM477.96 129.43L476.43 130.09C477.33 131.32 478.2 132.88 478.89 134.32L480.42 133.6C479.79 132.28 478.65 130.42 477.96 129.43ZM481.23 128.17L479.76 128.86C480.69 130.12 481.56 131.59 482.28 133.06L483.84 132.31C483.15 130.99 481.95 129.16 481.23 128.17ZM504.81 121.24H502.08C502.11 121.48 502.23 122.35 502.26 123.13C502.29 123.55 502.32 124.27 502.32 125.11C497.85 125.17 492.21 125.35 488.88 125.41L488.94 127.72C492.69 127.45 497.79 127.24 502.35 127.21C502.38 128.26 502.38 129.34 502.38 130.24C501.78 130.03 501.12 129.91 500.37 129.91C497.52 129.91 495.09 132.16 495.09 135.13C495.09 138.4 497.49 140.14 500.01 140.14C501.03 140.14 501.9 139.87 502.62 139.33C501.42 142.06 498.66 143.74 494.67 144.64L496.68 146.62C503.67 144.52 505.65 140.02 505.65 135.97C505.65 134.47 505.32 133.15 504.69 132.13C504.66 130.75 504.63 128.89 504.63 127.18C504.78 127.18 504.9 127.18 505.05 127.18C509.43 127.18 512.16 127.24 513.84 127.33L513.87 125.11C512.43 125.11 508.74 125.08 505.08 125.08C504.93 125.08 504.78 125.08 504.63 125.08C504.63 124.27 504.66 123.58 504.66 123.13C504.69 122.74 504.75 121.57 504.81 121.24ZM497.34 135.1C497.34 133.15 498.81 131.92 500.37 131.92C501.54 131.92 502.56 132.49 503.04 133.81C503.31 136.66 502.17 138.07 500.4 138.07C498.72 138.07 497.34 136.96 497.34 135.1Z" fill="black"/>
</g>
<g id="Hey My name is Marcell" filter="url(#filter1_d)">
<path d="M24.38 202H29.69V174.1H24.38V185.935H16.37V174.1H11.105V202H16.37V189.895H24.38V202ZM53.6212 202.54L54.1162 198.355C44.2162 198.13 40.8412 196.645 40.3012 192.145L54.7462 191.74C55.5562 183.955 52.5412 179.005 46.2412 179.005C40.3462 179.005 35.3062 184.315 35.3062 191.2C35.3062 198.49 39.1312 202.675 53.6212 202.54ZM45.3412 183.1C48.4462 183.1 49.8412 185.305 49.9762 188.86C47.1862 188.95 42.6412 189.085 40.2562 189.175C40.4812 184.99 42.2812 183.1 45.3412 183.1ZM60.6774 209.965C68.7324 209.245 71.1174 207.13 74.3574 198.085C76.8324 191.425 79.0374 184.675 80.6574 179.59H75.8424C75.2574 181.075 72.1974 191.74 70.8024 196.06H70.3524C68.2824 191.11 65.8974 184.36 64.0524 179.41L58.9674 179.77C60.6774 184.225 65.3124 196.15 67.4274 200.875L68.2824 201.19C66.9774 204.205 65.5824 204.7 60.2724 205.465L60.6774 209.965ZM124.065 174.1C124.065 174.1 119.79 189.49 119.475 190.705H119.295C118.98 189.49 114.66 174.1 114.66 174.1H109.62V202H114.255L113.985 183.37H114.165L117.855 196.465H120.69L124.335 183.37H124.515L124.245 202H129.015V174.1H124.065ZM134.901 209.965C142.956 209.245 145.341 207.13 148.581 198.085C151.056 191.425 153.261 184.675 154.881 179.59H150.066C149.481 181.075 146.421 191.74 145.026 196.06H144.576C142.506 191.11 140.121 184.36 138.276 179.41L133.191 179.77C134.901 184.225 139.536 196.15 141.651 200.875L142.506 201.19C141.201 204.205 139.806 204.7 134.496 205.465L134.901 209.965ZM194.058 183.28C196.353 183.28 197.838 184.54 197.838 188.5V202H202.833V186.745C202.833 181.3 200.313 179.005 196.398 179.005C193.293 179.005 190.998 180.445 189.198 182.065L188.928 179.5L184.293 179.77C184.563 184.855 184.653 191.92 184.653 202H189.693C189.693 194.8 189.603 188.95 189.513 184.765C190.908 183.865 192.348 183.28 194.058 183.28ZM217.315 198.715C215.02 198.715 213.535 197.545 213.535 195.565C213.535 193.09 215.38 191.605 222.31 192.325C222.355 194.17 222.355 195.655 222.445 196.96C220.87 198.04 219.025 198.715 217.315 198.715ZM223.075 202.135L227.665 201.91C227.44 198.805 227.26 195.25 227.26 190.885C227.26 182.155 223.885 179.365 210.385 179.14L209.89 183.37C219.52 183.685 221.995 184.72 222.265 189.04C212.815 188.635 208.585 192.235 208.585 196.735C208.585 200.38 211.33 202.585 215.335 202.585C218.575 202.585 220.96 201.1 222.67 199.435C222.805 200.515 223.03 201.955 223.075 202.135ZM239.806 183.28C240.931 183.28 241.426 183.955 241.426 185.845V202H244.981V184.315C245.656 183.64 246.376 183.28 247.186 183.28C248.356 183.28 248.896 183.955 248.896 185.89V202H253.531V184.135C253.531 180.805 252.271 179.005 249.706 179.005C247.726 179.005 246.151 180.085 244.936 181.435C244.486 179.905 243.451 179.005 241.696 179.005C239.851 179.005 238.276 180.085 237.061 181.435L236.881 179.5L232.606 179.77C232.786 184.855 232.786 191.92 232.786 202H237.421C237.421 194.62 237.376 188.635 237.286 184.45C238.096 183.685 238.951 183.28 239.806 183.28ZM276.292 202.54L276.787 198.355C266.887 198.13 263.512 196.645 262.972 192.145L277.417 191.74C278.227 183.955 275.212 179.005 268.912 179.005C263.017 179.005 257.977 184.315 257.977 191.2C257.977 198.49 261.802 202.675 276.292 202.54ZM268.012 183.1C271.117 183.1 272.512 185.305 272.647 188.86C269.857 188.95 265.312 189.085 262.927 189.175C263.152 184.99 264.952 183.1 268.012 183.1ZM320.645 176.215L321.05 169.915H315.785L315.47 176.215H320.645ZM328.16 202L328.565 198.22H320.78V179.59H308.27L307.865 183.145L315.74 183.505V198.22H307.955V202H328.16ZM349.571 179.365C337.826 178.555 333.686 182.245 333.686 186.115C333.686 191.74 345.656 192.55 345.656 195.745C345.656 197.5 342.911 198.535 334.001 197.95L333.821 202.225C346.736 202.81 350.876 199.345 350.876 195.475C350.876 189.85 338.861 188.545 338.861 185.53C338.861 183.955 341.426 182.965 349.751 183.685L349.571 179.365ZM396.218 174.1C396.218 174.1 391.943 189.49 391.628 190.705H391.448C391.133 189.49 386.813 174.1 386.813 174.1H381.773V202H386.408L386.138 183.37H386.318L390.008 196.465H392.843L396.488 183.37H396.668L396.398 202H401.168V174.1H396.218ZM415.244 198.715C412.949 198.715 411.464 197.545 411.464 195.565C411.464 193.09 413.309 191.605 420.239 192.325C420.284 194.17 420.284 195.655 420.374 196.96C418.799 198.04 416.954 198.715 415.244 198.715ZM421.004 202.135L425.594 201.91C425.369 198.805 425.189 195.25 425.189 190.885C425.189 182.155 421.814 179.365 408.314 179.14L407.819 183.37C417.449 183.685 419.924 184.72 420.194 189.04C410.744 188.635 406.514 192.235 406.514 196.735C406.514 200.38 409.259 202.585 413.264 202.585C416.504 202.585 418.889 201.1 420.599 199.435C420.734 200.515 420.959 201.955 421.004 202.135ZM448.356 202L448.761 198.22H441.966C441.876 193.45 441.831 189.67 441.741 186.295C444.261 185.08 447.366 184.27 451.236 184.045L451.011 178.735C446.781 179.275 443.586 181.12 441.561 183.46C441.471 182.335 441.201 179.815 441.156 179.59H431.886L431.481 183.145L436.791 183.505C436.881 187.465 436.926 192.145 437.016 198.22H431.571V202H448.356ZM456.582 191.155C456.582 198.085 460.272 203.35 474.267 202.18L474.762 198.04C464.682 198.625 461.532 196.285 461.532 190.525C461.532 186.205 463.242 183.64 474.447 184L474.132 179.275C460.722 179.32 456.582 184.9 456.582 191.155ZM498.963 202.54L499.458 198.355C489.558 198.13 486.183 196.645 485.643 192.145L500.088 191.74C500.898 183.955 497.883 179.005 491.583 179.005C485.688 179.005 480.648 184.315 480.648 191.2C480.648 198.49 484.473 202.675 498.963 202.54ZM490.683 183.1C493.788 183.1 495.183 185.305 495.318 188.86C492.528 188.95 487.983 189.085 485.598 189.175C485.823 184.99 487.623 183.1 490.683 183.1ZM524.424 202L524.829 198.22H517.899V170.545H506.604L506.154 174.1L512.859 174.46V198.22H505.929V202H524.424ZM549.165 202L549.57 198.22H542.64V170.545H531.345L530.895 174.1L537.6 174.46V198.22H530.67V202H549.165Z" fill="black"/>
</g>
<path id="Vector 8" d="M18 225H553" stroke="#384357" stroke-width="4"/>
</g>
<path id="Zainteresowania" d="M534.749 32L534.909 30L528.809 30.04L534.749 21.54V19.6H526.489L526.329 21.6L532.249 21.56L526.289 30.06V32H534.749ZM544.185 32.08L546.505 31.92C545.445 27.8 544.345 23.72 543.125 19.58H539.945C538.705 23.72 537.625 27.88 536.565 32H538.845C539.125 30.86 539.385 29.7 539.665 28.56H543.345C543.625 29.74 543.905 30.92 544.185 32.08ZM541.425 21.46H541.585C542.045 23.24 542.505 25.06 542.945 26.88H540.065C540.505 25.06 540.965 23.26 541.425 21.46ZM553.681 21.38H556.541V19.6H548.521V21.38H551.381V30.22H548.521V32H556.481L556.641 30.22H553.681V21.38ZM565.678 32H567.638V19.6H565.518L565.618 27.78H565.538L561.558 19.6H559.398V32H561.518L561.438 23.72H561.538L565.678 32ZM575.694 21.52H579.234V19.6H569.894L569.734 21.52H573.374V32H575.694V21.52ZM589.79 30.08H584.23V26.6H588.89V24.92H584.23V21.52H589.67V19.6H581.93V32H589.61L589.79 30.08ZM599.126 32.18L601.586 31.88L598.666 26.52C599.826 25.68 600.686 24.6 600.686 23.04C600.686 20.46 598.766 18.82 592.626 19.62V32H594.886V27.72L596.846 27.68L599.126 32.18ZM594.886 21.36C597.306 21.04 598.426 21.9 598.426 23.54C598.426 24.62 597.886 25.5 597.066 26.06L594.886 26.12V21.36ZM611.782 30.08H606.222V26.6H610.882V24.92H606.222V21.52H611.662V19.6H603.922V32H611.602L611.782 30.08ZM614.598 30.08V32.14C620.578 32.38 622.718 30.32 622.718 28.36C622.718 25.4 616.938 24.58 616.938 22.72C616.938 21.82 617.938 21.28 621.958 21.56L621.838 19.5C616.678 19.22 614.558 21.18 614.558 23.04C614.558 25.9 620.338 26.62 620.338 28.64C620.338 29.68 618.818 30.4 614.598 30.08ZM629.214 32.32C632.254 32.32 634.194 29.9 634.194 25.44C634.174 21.48 632.594 19.28 629.774 19.28C626.734 19.28 624.794 21.7 624.794 26.16C624.794 30.12 626.394 32.32 629.214 32.32ZM629.414 21.18C630.974 21.18 631.814 22.78 631.814 25.96C631.814 28.96 631.094 30.42 629.574 30.42C628.014 30.42 627.174 28.82 627.174 25.64C627.174 22.64 627.894 21.18 629.414 21.18ZM642.05 32H644.29C644.57 29.66 644.97 24.94 645.23 19.6H643.09C643.03 20.86 642.81 28.36 642.73 28.98H642.67C642.13 26.96 641.69 25.32 641.15 23.32H639.93C639.41 25.32 639.05 26.82 638.51 28.98H638.43C638.37 28.36 638.03 20.86 637.99 19.6H635.77C636.03 24.94 636.41 29.66 636.69 32H638.89L640.43 26.06L642.05 32ZM654.146 32.08L656.466 31.92C655.406 27.8 654.306 23.72 653.086 19.58H649.906C648.666 23.72 647.586 27.88 646.526 32H648.806C649.086 30.86 649.346 29.7 649.626 28.56H653.306C653.586 29.74 653.866 30.92 654.146 32.08ZM651.386 21.46H651.546C652.006 23.24 652.466 25.06 652.906 26.88H650.026C650.466 25.06 650.926 23.26 651.386 21.46ZM664.642 32H666.602V19.6H664.482L664.582 27.78H664.502L660.522 19.6H658.362V32H660.482L660.402 23.72H660.502L664.642 32ZM674.639 21.38H677.499V19.6H669.479V21.38H672.339V30.22H669.479V32H677.439L677.599 30.22H674.639V21.38ZM687.135 32.08L689.455 31.92C688.395 27.8 687.295 23.72 686.075 19.58H682.895C681.655 23.72 680.575 27.88 679.515 32H681.795C682.075 30.86 682.335 29.7 682.615 28.56H686.295C686.575 29.74 686.855 30.92 687.135 32.08ZM684.375 21.46H684.535C684.995 23.24 685.455 25.06 685.895 26.88H683.015C683.455 25.06 683.915 23.26 684.375 21.46Z" fill="black"/>
<path id="passe-temps" d="M577.041 107V103.28C580.661 102.9 583.221 101.48 583.221 98.48C583.221 95.32 580.441 93.84 574.761 94.62V107H577.041ZM580.961 98.92C580.961 100.98 579.601 101.62 577.041 101.36V96.38C579.661 96.08 580.961 97.02 580.961 98.92ZM592.178 107.08L594.498 106.92C593.438 102.8 592.338 98.72 591.118 94.58H587.938C586.698 98.72 585.618 102.88 584.558 107H586.838C587.118 105.86 587.378 104.7 587.658 103.56H591.338C591.618 104.74 591.898 105.92 592.178 107.08ZM589.418 96.46H589.578C590.038 98.24 590.498 100.06 590.938 101.88H588.058C588.498 100.06 588.958 98.26 589.418 96.46ZM596.614 105.08V107.14C602.594 107.38 604.734 105.32 604.734 103.36C604.734 100.4 598.954 99.58 598.954 97.72C598.954 96.82 599.954 96.28 603.974 96.56L603.854 94.5C598.694 94.22 596.574 96.18 596.574 98.04C596.574 100.9 602.354 101.62 602.354 103.64C602.354 104.68 600.834 105.4 596.614 105.08ZM607.61 105.08V107.14C613.59 107.38 615.73 105.32 615.73 103.36C615.73 100.4 609.95 99.58 609.95 97.72C609.95 96.82 610.95 96.28 614.97 96.56L614.85 94.5C609.69 94.22 607.57 96.18 607.57 98.04C607.57 100.9 613.35 101.62 613.35 103.64C613.35 104.68 611.83 105.4 607.61 105.08ZM626.786 105.08H621.226V101.6H625.886V99.92H621.226V96.52H626.666V94.6H618.926V107H626.606L626.786 105.08ZM636.762 100.1H630.362V102H636.602L636.762 100.1ZM645.678 96.52H649.218V94.6H639.878L639.718 96.52H643.358V107H645.678V96.52ZM659.774 105.08H654.214V101.6H658.874V99.92H654.214V96.52H659.654V94.6H651.914V107H659.594L659.774 105.08ZM668.59 94.6C668.59 94.6 666.69 101.44 666.55 101.98H666.47C666.33 101.44 664.41 94.6 664.41 94.6H662.17V107H664.23L664.11 98.72H664.19L665.83 104.54H667.09L668.71 98.72H668.79L668.67 107H670.79V94.6H668.59ZM676.006 107V103.28C679.626 102.9 682.186 101.48 682.186 98.48C682.186 95.32 679.406 93.84 673.726 94.62V107H676.006ZM679.926 98.92C679.926 100.98 678.566 101.62 676.006 101.36V96.38C678.626 96.08 679.926 97.02 679.926 98.92ZM684.582 105.08V107.14C690.562 107.38 692.702 105.32 692.702 103.36C692.702 100.4 686.922 99.58 686.922 97.72C686.922 96.82 687.922 96.28 691.942 96.56L691.822 94.5C686.662 94.22 684.542 96.18 684.542 98.04C684.542 100.9 690.322 101.62 690.322 103.64C690.322 104.68 688.802 105.4 684.582 105.08Z" fill="black"/>
<path id="&#209;&#133;&#208;&#190;&#208;&#177;&#208;&#177;&#208;&#184;" d="M674.683 73H672.643L668.863 66.8L665.023 73H663.123L667.863 65.56L663.423 58.72H665.423L668.923 64.32L672.443 58.72H674.343L669.923 65.52L674.683 73ZM688.771 65.84C688.771 67.32 688.518 68.6133 688.011 69.72C687.518 70.8133 686.784 71.6667 685.811 72.28C684.838 72.8933 683.631 73.2 682.191 73.2C680.711 73.2 679.478 72.8933 678.491 72.28C677.518 71.6667 676.791 70.8067 676.311 69.7C675.831 68.5933 675.591 67.3 675.591 65.82C675.591 64.3533 675.831 63.0733 676.311 61.98C676.791 60.8867 677.518 60.0333 678.491 59.42C679.478 58.8067 680.718 58.5 682.211 58.5C683.638 58.5 684.838 58.8067 685.811 59.42C686.784 60.02 687.518 60.8733 688.011 61.98C688.518 63.0733 688.771 64.36 688.771 65.84ZM677.491 65.84C677.491 67.64 677.871 69.06 678.631 70.1C679.391 71.1267 680.578 71.64 682.191 71.64C683.818 71.64 685.004 71.1267 685.751 70.1C686.498 69.06 686.871 67.64 686.871 65.84C686.871 64.04 686.498 62.6333 685.751 61.62C685.004 60.5933 683.824 60.08 682.211 60.08C680.598 60.08 679.404 60.5933 678.631 61.62C677.871 62.6333 677.491 64.04 677.491 65.84ZM691.936 73V58.72H700.416V60.3H693.736V64.76H695.856C697.283 64.76 698.389 64.94 699.176 65.3C699.963 65.6467 700.509 66.1267 700.816 66.74C701.123 67.34 701.276 68.0333 701.276 68.82C701.276 70.1267 700.883 71.1533 700.096 71.9C699.309 72.6333 697.983 73 696.116 73H691.936ZM695.936 71.46C697.216 71.46 698.116 71.2467 698.636 70.82C699.156 70.38 699.416 69.7133 699.416 68.82C699.416 67.9 699.129 67.2533 698.556 66.88C697.983 66.5067 697.009 66.32 695.636 66.32H693.736V71.46H695.936ZM704.241 73V58.72H712.721V60.3H706.041V64.76H708.161C709.587 64.76 710.694 64.94 711.481 65.3C712.267 65.6467 712.814 66.1267 713.121 66.74C713.427 67.34 713.581 68.0333 713.581 68.82C713.581 70.1267 713.187 71.1533 712.401 71.9C711.614 72.6333 710.287 73 708.421 73H704.241ZM708.241 71.46C709.521 71.46 710.421 71.2467 710.941 70.82C711.461 70.38 711.721 69.7133 711.721 68.82C711.721 67.9 711.434 67.2533 710.861 66.88C710.287 66.5067 709.314 66.32 707.941 66.32H706.041V71.46H708.241ZM716.565 58.72H718.245V66.56C718.245 67 718.239 67.4933 718.225 68.04C718.212 68.5867 718.192 69.0867 718.165 69.54C718.152 69.9933 718.132 70.3267 718.105 70.54H718.185L726.045 58.72H728.045V73H726.365V65.24C726.365 64.7467 726.372 64.22 726.385 63.66C726.412 63.1 726.439 62.5867 726.465 62.12C726.492 61.6533 726.512 61.32 726.525 61.12H726.445L718.565 73H716.565V58.72Z" fill="black"/>
<path id="&#230;&#132;&#155;&#229;&#165;&#189;" d="M700.42 197.4C700.94 198.18 701.44 199.22 701.58 199.9H698.04L698.7 199.62C698.5 199 698 198.16 697.44 197.5C698.5 197.44 699.58 197.38 700.66 197.32L700.42 197.4ZM695.04 201.1H700.72L700.14 201.72C701.2 202.18 702.48 202.94 703.1 203.48L703.88 202.58C703.32 202.1 702.26 201.54 701.32 201.1H708.9V203.5H710.34V199.9H706.74C707.32 199.18 707.94 198.32 708.48 197.5L707.08 196.96C706.64 197.82 705.84 199.08 705.24 199.9H701.64L702.88 199.46C702.72 198.84 702.3 197.96 701.8 197.22C704.62 197.02 707.3 196.7 709.34 196.3L708.36 195.26C705.14 195.9 699.16 196.32 694.28 196.46C694.42 196.74 694.56 197.26 694.6 197.6C695.26 197.58 695.94 197.56 696.64 197.52L696.06 197.76C696.56 198.4 697.1 199.26 697.34 199.9H693.66V203.36H695.04V201.1ZM705.72 202.74C706.88 203.66 708.2 205.02 708.8 205.92L709.86 205.1C709.26 204.2 707.9 202.92 706.74 202.04L705.72 202.74ZM695.18 206.16C696.52 205.38 697.26 204.06 697.72 202.76L696.6 202.28C696.16 203.48 695.36 204.66 694.16 205.3L695.18 206.16ZM705.2 208.16C704.38 209 703.3 209.7 702.04 210.26C700.72 209.68 699.62 208.98 698.78 208.16H705.2ZM706.46 207L706.22 207.06H700C700.42 206.68 700.78 206.28 701.12 205.86L700.76 205.74H704C705.3 205.74 705.68 205.36 705.82 203.74C705.44 203.66 704.92 203.52 704.64 203.32C704.56 204.5 704.44 204.64 703.82 204.64H700.9C700.06 204.64 699.92 204.56 699.92 204.16V202.26H698.54V204.18C698.54 205.1 698.78 205.52 699.62 205.66C698.16 207.34 695.76 208.76 693.42 209.66C693.7 209.9 694.24 210.38 694.46 210.64C695.54 210.16 696.68 209.54 697.74 208.84C698.5 209.62 699.42 210.3 700.46 210.88C698.28 211.62 695.74 212.08 693.14 212.32C693.42 212.62 693.78 213.22 693.92 213.56C696.78 213.2 699.62 212.62 702.02 211.64C704.36 212.62 707.16 213.24 710.1 213.54C710.3 213.16 710.64 212.54 710.96 212.24C708.3 212.04 705.78 211.58 703.64 210.88C705.2 210.04 706.48 208.96 707.4 207.62L706.46 207ZM718.88 200.74C718.62 203.36 718.1 205.56 717.34 207.36C716.58 206.82 715.78 206.32 715.02 205.88C715.42 204.3 715.84 202.52 716.24 200.74H718.88ZM719.5 199.32L719.24 199.38H716.54C716.84 198 717.12 196.66 717.36 195.44L715.94 195.28C715.72 196.52 715.44 197.94 715.12 199.38H712.94V200.74H714.84C714.28 203.24 713.68 205.7 713.2 207.42L714.44 208.06L714.66 207.22C715.36 207.66 716.06 208.14 716.72 208.64C715.78 210.36 714.56 211.6 713.1 212.36C713.42 212.66 713.82 213.2 714.02 213.56C715.58 212.62 716.86 211.32 717.86 209.54C718.7 210.24 719.42 210.94 719.9 211.54L720.8 210.36C720.26 209.7 719.46 208.96 718.52 208.24C719.5 206 720.12 203.14 720.38 199.52L719.5 199.32ZM731.2 203.28H726.44V201.5C727.96 200.32 729.66 198.52 730.78 196.92L729.8 196.2L729.5 196.3H720.94V197.66H728.42C727.62 198.68 726.56 199.82 725.56 200.62H724.96V203.28H720.28V204.66H724.96V211.64C724.96 211.94 724.86 212.04 724.52 212.06C724.18 212.08 723.06 212.08 721.8 212.04C722.02 212.42 722.28 213.08 722.36 213.48C723.94 213.48 724.98 213.44 725.6 213.22C726.24 212.98 726.44 212.54 726.44 211.64V204.66H731.2V203.28Z" fill="black"/>
<path id="&#224;&#184;&#135;&#224;&#184;&#178;&#224;&#184;&#153;&#224;&#184;&#173;&#224;&#184;&#148;&#224;&#184;&#180;&#224;&#185;&#128;&#224;&#184;&#163;&#224;&#184;&#129;" d="M677.719 149L674.299 138.04H676.099L679.059 147.46H679.299C679.619 147.46 679.932 147.387 680.239 147.24C680.545 147.08 680.805 146.88 681.019 146.64C681.419 146.2 681.712 145.647 681.899 144.98C682.085 144.3 682.179 143.633 682.179 142.98C682.179 141.873 681.925 141.007 681.419 140.38C680.925 139.74 680.239 139.42 679.359 139.42C678.999 139.42 678.692 139.467 678.439 139.56L677.999 138.14C678.279 138.06 678.539 138.007 678.779 137.98C679.032 137.953 679.259 137.94 679.459 137.94C680.765 137.94 681.812 138.32 682.599 139.08C683.065 139.533 683.405 140.1 683.619 140.78C683.845 141.46 683.959 142.213 683.959 143.04C683.959 144.08 683.799 145.007 683.479 145.82C683.159 146.62 682.759 147.26 682.279 147.74C681.892 148.127 681.419 148.433 680.859 148.66C680.299 148.887 679.585 149 678.719 149H677.719ZM689.761 149V141.22C689.761 140.567 689.608 140.087 689.301 139.78C689.008 139.473 688.508 139.32 687.801 139.32C687.321 139.32 686.868 139.387 686.441 139.52C686.028 139.64 685.628 139.813 685.241 140.04V138.44C685.508 138.307 685.888 138.173 686.381 138.04C686.874 137.907 687.461 137.84 688.141 137.84C689.181 137.84 690.008 138.073 690.621 138.54C691.234 139.007 691.541 139.813 691.541 140.96V149H689.761ZM698.566 149.2C697.393 149.2 696.466 148.893 695.786 148.28C695.119 147.667 694.786 146.693 694.786 145.36V138.04H696.566V145.26C696.566 146.887 697.359 147.7 698.946 147.7C699.879 147.7 700.599 147.4 701.106 146.8C701.626 146.2 701.886 145.393 701.886 144.38V138.04H703.666V149H702.186L702.106 147.38H702.006C701.766 147.913 701.346 148.353 700.746 148.7C700.159 149.033 699.433 149.2 698.566 149.2ZM710.932 149.2C709.492 149.2 708.412 148.827 707.692 148.08C706.985 147.32 706.632 146.133 706.632 144.52C706.632 144.253 706.638 143.967 706.652 143.66C706.678 143.34 706.705 143.027 706.732 142.72H710.932V144.12H708.412V144.52C708.412 145.36 708.505 146.02 708.692 146.5C708.878 146.967 709.152 147.293 709.512 147.48C709.885 147.667 710.345 147.76 710.892 147.76C711.492 147.76 712.012 147.647 712.452 147.42C712.892 147.193 713.232 146.78 713.472 146.18C713.712 145.58 713.832 144.72 713.832 143.6C713.832 142.133 713.578 141.053 713.072 140.36C712.578 139.667 711.718 139.32 710.492 139.32C709.852 139.32 709.238 139.407 708.652 139.58C708.078 139.74 707.525 139.973 706.992 140.28V138.62C707.392 138.407 707.918 138.227 708.572 138.08C709.225 137.92 709.938 137.84 710.712 137.84C711.885 137.84 712.832 138.08 713.552 138.56C714.285 139.027 714.818 139.693 715.152 140.56C715.485 141.413 715.652 142.427 715.652 143.6C715.652 144.773 715.498 145.78 715.192 146.62C714.885 147.46 714.385 148.1 713.692 148.54C713.012 148.98 712.092 149.2 710.932 149.2ZM722.276 149.2C721.209 149.2 720.369 148.953 719.756 148.46C719.156 147.953 718.729 147.273 718.476 146.42C718.236 145.567 718.116 144.627 718.116 143.6C718.116 142.093 718.323 140.927 718.736 140.1C719.149 139.26 719.723 138.673 720.456 138.34C721.203 138.007 722.063 137.84 723.036 137.84C724.636 137.84 725.796 138.187 726.516 138.88C727.249 139.573 727.616 140.513 727.616 141.7V149H725.856V141.86C725.856 141.033 725.649 140.407 725.236 139.98C724.823 139.54 724.109 139.32 723.096 139.32C722.483 139.32 721.929 139.433 721.436 139.66C720.956 139.887 720.576 140.307 720.296 140.92C720.029 141.533 719.896 142.433 719.896 143.62C719.896 144.393 719.969 145.093 720.116 145.72C720.276 146.333 720.549 146.82 720.936 147.18C721.323 147.54 721.863 147.72 722.556 147.72C722.756 147.72 722.943 147.707 723.116 147.68C723.289 147.653 723.456 147.613 723.616 147.56L723.796 148.94C723.583 149.033 723.336 149.1 723.056 149.14C722.789 149.18 722.529 149.2 722.276 149.2ZM718.96 136.3V135.52L720.42 134.88H727.46V136.3H718.96ZM733.34 149.2C732.98 149.2 732.634 149.14 732.3 149.02C731.967 148.9 731.694 148.687 731.48 148.38C731.267 148.073 731.16 147.647 731.16 147.1V138.04H732.94V146.88C732.94 147.187 733.007 147.407 733.14 147.54C733.274 147.673 733.487 147.74 733.78 147.74C733.9 147.74 734.027 147.727 734.16 147.7C734.294 147.673 734.42 147.64 734.54 147.6L734.78 148.9C734.527 149.02 734.28 149.1 734.04 149.14C733.8 149.18 733.567 149.2 733.34 149.2ZM739.643 149.2C738.857 149.2 738.123 149.127 737.443 148.98C736.777 148.82 736.21 148.633 735.743 148.42L736.263 146.98C736.69 147.153 737.197 147.32 737.783 147.48C738.383 147.64 739.017 147.72 739.683 147.72C740.39 147.72 740.977 147.587 741.443 147.32C741.91 147.053 742.143 146.667 742.143 146.16C742.143 145.707 741.957 145.333 741.583 145.04C741.21 144.747 740.61 144.473 739.783 144.22C738.943 143.953 738.23 143.673 737.643 143.38C737.07 143.073 736.63 142.713 736.323 142.3C736.03 141.873 735.883 141.347 735.883 140.72C735.883 139.893 736.223 139.207 736.903 138.66C737.583 138.113 738.67 137.84 740.163 137.84C740.803 137.84 741.403 137.9 741.963 138.02C742.537 138.127 742.983 138.28 743.303 138.48V139.98C742.97 139.82 742.51 139.667 741.923 139.52C741.337 139.373 740.73 139.3 740.103 139.3C739.21 139.3 738.577 139.44 738.203 139.72C737.843 139.987 737.663 140.293 737.663 140.64C737.663 140.933 737.743 141.18 737.903 141.38C738.077 141.58 738.363 141.773 738.763 141.96C739.177 142.147 739.73 142.36 740.423 142.6C741.063 142.813 741.65 143.06 742.183 143.34C742.717 143.62 743.137 143.973 743.443 144.4C743.763 144.813 743.923 145.347 743.923 146C743.923 146.56 743.783 147.087 743.503 147.58C743.237 148.06 742.79 148.453 742.163 148.76C741.537 149.053 740.697 149.2 739.643 149.2ZM746.229 149V145.2C746.229 144.36 746.416 143.753 746.789 143.38C747.162 142.993 747.636 142.727 748.209 142.58L748.229 142.52L746.029 141.68V141.02C746.029 140.473 746.209 139.96 746.569 139.48C746.929 138.987 747.442 138.593 748.109 138.3C748.789 137.993 749.596 137.84 750.529 137.84C751.342 137.84 752.096 137.973 752.789 138.24C753.482 138.493 754.036 138.9 754.449 139.46C754.876 140.007 755.089 140.727 755.089 141.62V149H753.309V141.8C753.309 140.907 753.036 140.273 752.489 139.9C751.956 139.513 751.296 139.32 750.509 139.32C749.696 139.32 749.049 139.493 748.569 139.84C748.089 140.173 747.849 140.6 747.849 141.12L750.009 142.2L749.849 143.16C749.356 143.16 748.922 143.327 748.549 143.66C748.189 143.98 748.009 144.493 748.009 145.2V149H746.229Z" fill="black"/>
<path id="intressen" d="M755 95.54L755.18 92.74H752.84L752.7 95.54H755ZM758.34 107L758.52 105.32H755.06V97.04H749.5L749.32 98.62L752.82 98.78V105.32H749.36V107H758.34ZM764.716 98.68C765.736 98.68 766.396 99.24 766.396 101V107H768.616V100.22C768.616 97.8 767.496 96.78 765.756 96.78C764.376 96.78 763.356 97.42 762.556 98.14L762.436 97L760.376 97.12C760.496 99.38 760.536 102.52 760.536 107H762.776C762.776 103.8 762.736 101.2 762.696 99.34C763.316 98.94 763.956 98.68 764.716 98.68ZM779.252 107.16L779.492 105.32C776.452 105.26 775.512 104.9 775.512 103.34V98.74H779.272V97.04H775.512V94.16L773.312 94.36V97.04H771.472L771.272 98.74H773.312V103.68C773.312 106.24 774.772 107.24 779.252 107.16ZM789.768 107L789.948 105.32H786.928C786.888 103.2 786.868 101.52 786.828 100.02C787.948 99.48 789.328 99.12 791.048 99.02L790.948 96.66C789.068 96.9 787.648 97.72 786.748 98.76C786.708 98.26 786.588 97.14 786.568 97.04H782.448L782.268 98.62L784.628 98.78C784.668 100.54 784.688 102.62 784.728 105.32H782.308V107H789.768ZM801.264 107.24L801.484 105.38C797.084 105.28 795.584 104.62 795.344 102.62L801.764 102.44C802.124 98.98 800.784 96.78 797.984 96.78C795.364 96.78 793.124 99.14 793.124 102.2C793.124 105.44 794.824 107.3 801.264 107.24ZM797.584 98.6C798.964 98.6 799.584 99.58 799.644 101.16C798.404 101.2 796.384 101.26 795.324 101.3C795.424 99.44 796.224 98.6 797.584 98.6ZM811.84 96.94C806.62 96.58 804.78 98.22 804.78 99.94C804.78 102.44 810.1 102.8 810.1 104.22C810.1 105 808.88 105.46 804.92 105.2L804.84 107.1C810.58 107.36 812.42 105.82 812.42 104.1C812.42 101.6 807.08 101.02 807.08 99.68C807.08 98.98 808.22 98.54 811.92 98.86L811.84 96.94ZM822.837 96.94C817.617 96.58 815.777 98.22 815.777 99.94C815.777 102.44 821.097 102.8 821.097 104.22C821.097 105 819.877 105.46 815.917 105.2L815.837 107.1C821.577 107.36 823.417 105.82 823.417 104.1C823.417 101.6 818.077 101.02 818.077 99.68C818.077 98.98 819.217 98.54 822.917 98.86L822.837 96.94ZM834.253 107.24L834.473 105.38C830.073 105.28 828.573 104.62 828.333 102.62L834.753 102.44C835.113 98.98 833.773 96.78 830.973 96.78C828.353 96.78 826.113 99.14 826.113 102.2C826.113 105.44 827.813 107.3 834.253 107.24ZM830.573 98.6C831.953 98.6 832.573 99.58 832.633 101.16C831.393 101.2 829.373 101.26 828.313 101.3C828.413 99.44 829.213 98.6 830.573 98.6ZM841.689 98.68C842.709 98.68 843.369 99.24 843.369 101V107H845.589V100.22C845.589 97.8 844.469 96.78 842.729 96.78C841.349 96.78 840.329 97.42 839.529 98.14L839.409 97L837.349 97.12C837.469 99.38 837.509 102.52 837.509 107H839.749C839.749 103.8 839.709 101.2 839.669 99.34C840.289 98.94 840.929 98.68 841.689 98.68Z" fill="black"/>
<path id="&#209;&#150;&#208;&#189;&#209;&#130;&#208;&#181;&#209;&#128;&#208;&#181;&#209;&#129;&#208;&#184;" d="M677.46 267H675.7V256.28H677.46V267ZM682.616 256.28V260.74H688.436V256.28H690.196V267H688.436V262.22H682.616V267H680.856V256.28H682.616ZM700.991 257.76H697.491V267H695.751V257.76H692.291V256.28H700.991V257.76ZM707.047 256.08C707.967 256.08 708.754 256.28 709.407 256.68C710.074 257.08 710.58 257.647 710.927 258.38C711.287 259.1 711.467 259.947 711.467 260.92V261.98H704.127C704.154 263.193 704.46 264.12 705.047 264.76C705.647 265.387 706.48 265.7 707.547 265.7C708.227 265.7 708.827 265.64 709.347 265.52C709.88 265.387 710.427 265.2 710.987 264.96V266.5C710.44 266.74 709.9 266.913 709.367 267.02C708.834 267.14 708.2 267.2 707.467 267.2C706.454 267.2 705.554 266.993 704.767 266.58C703.994 266.167 703.387 265.553 702.947 264.74C702.52 263.913 702.307 262.907 702.307 261.72C702.307 260.547 702.5 259.54 702.887 258.7C703.287 257.86 703.84 257.213 704.547 256.76C705.267 256.307 706.1 256.08 707.047 256.08ZM707.027 257.52C706.187 257.52 705.52 257.793 705.027 258.34C704.547 258.873 704.26 259.62 704.167 260.58H709.627C709.614 259.673 709.4 258.94 708.987 258.38C708.574 257.807 707.92 257.52 707.027 257.52ZM719.296 256.08C720.616 256.08 721.676 256.54 722.476 257.46C723.289 258.38 723.696 259.767 723.696 261.62C723.696 263.447 723.289 264.833 722.476 265.78C721.676 266.727 720.609 267.2 719.276 267.2C718.449 267.2 717.763 267.047 717.216 266.74C716.683 266.42 716.263 266.053 715.956 265.64H715.836C715.863 265.867 715.889 266.153 715.916 266.5C715.943 266.847 715.956 267.147 715.956 267.4V271.8H714.196V256.28H715.636L715.876 257.74H715.956C716.276 257.273 716.696 256.88 717.216 256.56C717.736 256.24 718.429 256.08 719.296 256.08ZM718.976 257.56C717.883 257.56 717.109 257.867 716.656 258.48C716.216 259.093 715.983 260.027 715.956 261.28V261.62C715.956 262.94 716.169 263.96 716.596 264.68C717.036 265.387 717.843 265.74 719.016 265.74C719.669 265.74 720.203 265.56 720.616 265.2C721.043 264.84 721.356 264.353 721.556 263.74C721.769 263.113 721.876 262.4 721.876 261.6C721.876 260.373 721.636 259.393 721.156 258.66C720.689 257.927 719.963 257.56 718.976 257.56ZM730.641 256.08C731.561 256.08 732.347 256.28 733.001 256.68C733.667 257.08 734.174 257.647 734.521 258.38C734.881 259.1 735.061 259.947 735.061 260.92V261.98H727.721C727.747 263.193 728.054 264.12 728.641 264.76C729.241 265.387 730.074 265.7 731.141 265.7C731.821 265.7 732.421 265.64 732.941 265.52C733.474 265.387 734.021 265.2 734.581 264.96V266.5C734.034 266.74 733.494 266.913 732.961 267.02C732.427 267.14 731.794 267.2 731.061 267.2C730.047 267.2 729.147 266.993 728.361 266.58C727.587 266.167 726.981 265.553 726.541 264.74C726.114 263.913 725.901 262.907 725.901 261.72C725.901 260.547 726.094 259.54 726.481 258.7C726.881 257.86 727.434 257.213 728.141 256.76C728.861 256.307 729.694 256.08 730.641 256.08ZM730.621 257.52C729.781 257.52 729.114 257.793 728.621 258.34C728.141 258.873 727.854 259.62 727.761 260.58H733.221C733.207 259.673 732.994 258.94 732.581 258.38C732.167 257.807 731.514 257.52 730.621 257.52ZM742.09 267.2C741.143 267.2 740.297 267.007 739.55 266.62C738.817 266.233 738.237 265.633 737.81 264.82C737.397 264.007 737.19 262.967 737.19 261.7C737.19 260.38 737.41 259.307 737.85 258.48C738.29 257.653 738.883 257.047 739.63 256.66C740.39 256.273 741.25 256.08 742.21 256.08C742.757 256.08 743.283 256.14 743.79 256.26C744.297 256.367 744.71 256.5 745.03 256.66L744.49 258.12C744.17 258 743.797 257.887 743.37 257.78C742.943 257.673 742.543 257.62 742.17 257.62C740.063 257.62 739.01 258.973 739.01 261.68C739.01 262.973 739.263 263.967 739.77 264.66C740.29 265.34 741.057 265.68 742.07 265.68C742.657 265.68 743.17 265.62 743.61 265.5C744.063 265.38 744.477 265.233 744.85 265.06V266.62C744.49 266.807 744.09 266.947 743.65 267.04C743.223 267.147 742.703 267.2 742.09 267.2ZM749.059 262.82C749.059 262.98 749.053 263.22 749.039 263.54C749.026 263.86 749.006 264.18 748.979 264.5C748.966 264.82 748.953 265.073 748.939 265.26L754.679 256.28H756.839V267H755.199V260.68C755.199 260.467 755.199 260.187 755.199 259.84C755.213 259.493 755.226 259.153 755.239 258.82C755.253 258.473 755.266 258.213 755.279 258.04L749.579 267H747.399V256.28H749.059V262.82Z" fill="black"/>
</g>
<defs>
<filter id="filter0_d" x="37.19" y="119.77" width="484.68" height="39.57" filterUnits="userSpaceOnUse" color-interpolation-filters="sRGB">
<feFlood flood-opacity="0" result="BackgroundImageFix"/>
<feColorMatrix in="SourceAlpha" type="matrix" values="0 0 0 0 0 0 0 0 0 0 0 0 0 0 0 0 0 0 127 0"/>
<feOffset dx="2" dy="6"/>
<feGaussianBlur stdDeviation="3"/>
<feColorMatrix type="matrix" values="0 0 0 0 0.443137 0 0 0 0 0.501961 0 0 0 0 0.588235 0 0 0 1 0"/>
<feBlend mode="normal" in2="BackgroundImageFix" result="effect1_dropShadow"/>
<feBlend mode="normal" in="SourceGraphic" in2="effect1_dropShadow" result="shape"/>
</filter>
<filter id="filter1_d" x="9.10501" y="168.915" width="550.465" height="52.05" filterUnits="userSpaceOnUse" color-interpolation-filters="sRGB">
<feFlood flood-opacity="0" result="BackgroundImageFix"/>
<feColorMatrix in="SourceAlpha" type="matrix" values="0 0 0 0 0 0 0 0 0 0 0 0 0 0 0 0 0 0 127 0"/>
<feOffset dx="4" dy="5"/>
<feGaussianBlur stdDeviation="3"/>
<feColorMatrix type="matrix" values="0 0 0 0 0.443137 0 0 0 0 0.501961 0 0 0 0 0.588235 0 0 0 1 0"/>
<feBlend mode="normal" in2="BackgroundImageFix" result="effect1_dropShadow"/>
<feBlend mode="normal" in="SourceGraphic" in2="effect1_dropShadow" result="shape"/>
</filter>
</defs>
</svg>
