<svg width="473" height="207" viewBox="0 0 473 207" fill="none" xmlns="http://www.w3.org/2000/svg">
<path d="M145.559 105.5C145.559 105.5 143.184 114.05 143.009 114.725H142.909C142.734 114.05 140.334 105.5 140.334 105.5H137.534V121H140.109L139.959 110.65H140.059L142.109 117.925H143.684L145.709 110.65H145.809L145.659 121H148.309V105.5H145.559ZM160.004 121.1L162.904 120.9C161.579 115.75 160.204 110.65 158.679 105.475H154.704C153.154 110.65 151.804 115.85 150.479 121H153.329C153.679 119.575 154.004 118.125 154.354 116.7H158.954C159.304 118.175 159.654 119.65 160.004 121.1ZM156.554 107.825H156.754C157.329 110.05 157.904 112.325 158.454 114.6H154.854C155.404 112.325 155.979 110.075 156.554 107.825ZM173.699 121.225L176.774 120.85L173.124 114.15C174.574 113.1 175.649 111.75 175.649 109.8C175.649 106.575 173.249 104.525 165.574 105.525V121H168.399V115.65L170.849 115.6L173.699 121.225ZM168.399 107.7C171.424 107.3 172.824 108.375 172.824 110.425C172.824 111.775 172.149 112.875 171.124 113.575L168.399 113.65V107.7ZM189.394 118.65C183.469 118.95 181.794 117.175 181.794 113.1C181.794 109.725 182.869 107.9 189.244 108.025L189.094 105.275C181.394 105.425 178.819 109.15 178.819 113.475C178.819 118.175 181.144 121.75 189.144 121.1L189.394 118.65ZM203.264 118.6H196.314V114.25H202.139V112.15H196.314V107.9H203.114V105.5H193.439V121H203.039L203.264 118.6ZM217.009 121L217.259 118.6H210.259V105.5H207.384V121H217.009ZM230.754 121L231.004 118.6H224.004V105.5H221.129V121H230.754ZM258.12 118.65C252.195 118.95 250.52 117.175 250.52 113.1C250.52 109.725 251.595 107.9 257.97 108.025L257.82 105.275C250.12 105.425 247.545 109.15 247.545 113.475C247.545 118.175 249.87 121.75 257.87 121.1L258.12 118.65ZM268.09 107.725H271.665V105.5H261.64V107.725H265.215V118.775H261.64V121H271.59L271.79 118.775H268.09V107.725ZM275.51 118.6V121.175C282.985 121.475 285.66 118.9 285.66 116.45C285.66 112.75 278.435 111.725 278.435 109.4C278.435 108.275 279.685 107.6 284.71 107.95L284.56 105.375C278.11 105.025 275.46 107.475 275.46 109.8C275.46 113.375 282.685 114.275 282.685 116.8C282.685 118.1 280.785 119 275.51 118.6ZM299.405 121L299.605 118.5L291.98 118.55L299.405 107.925V105.5H289.08L288.88 108L296.28 107.95L288.83 118.575V121H299.405ZM313.225 118.6H306.275V114.25H312.1V112.15H306.275V107.9H313.075V105.5H303.4V121H313L313.225 118.6ZM324.845 121.175L327.945 120.825L323.195 113.025L327.595 105.5H324.545L320.945 111.975H319.545V105.5H316.695V121H319.545V114.35H320.82L324.845 121.175ZM354.935 112.95C354.935 106.9 352.085 104.45 344.11 105.5V121C351.585 122.05 354.935 119 354.935 112.95ZM352.035 113.375C352.035 117.525 350.735 119.3 346.935 118.75V107.7C350.785 107.275 352.035 109.225 352.035 113.375ZM366.13 121.225L369.205 120.85L365.555 114.15C367.005 113.1 368.08 111.75 368.08 109.8C368.08 106.575 365.68 104.525 358.005 105.525V121H360.83V115.65L363.28 115.6L366.13 121.225ZM360.83 107.7C363.855 107.3 365.255 108.375 365.255 110.425C365.255 111.775 364.58 112.875 363.555 113.575L360.83 113.65V107.7ZM376.476 121.4C379.801 121.4 381.851 119.225 381.851 115.625V105.5H378.976V116.125C378.976 118.125 378.251 118.925 376.676 118.925C375.176 118.925 374.251 117.95 374.251 115.725V105.5H371.376V115.85C371.376 119.4 373.276 121.4 376.476 121.4ZM395.621 121L395.821 118.5L388.196 118.55L395.621 107.925V105.5H385.296L385.096 108L392.496 107.95L385.046 118.575V121H395.621ZM405.566 121V115.85L410.466 105.5H407.516L404.191 113.175L400.766 105.45L397.716 105.55L402.666 115.9V121H405.566ZM420.536 121H422.986V105.5H420.336L420.461 115.725H420.361L415.386 105.5H412.686V121H415.336L415.236 110.65H415.361L420.536 121ZM426.706 118.6V121.175C434.181 121.475 436.856 118.9 436.856 116.45C436.856 112.75 429.631 111.725 429.631 109.4C429.631 108.275 430.881 107.6 435.906 107.95L435.756 105.375C429.306 105.025 426.656 107.475 426.656 109.8C426.656 113.375 433.881 114.275 433.881 116.8C433.881 118.1 431.981 119 426.706 118.6ZM448.551 121.175L451.651 120.825L446.901 113.025L451.301 105.5H448.251L444.651 111.975H443.251V105.5H440.401V121H443.251V114.35H444.526L448.551 121.175ZM460.521 107.725H464.096V105.5H454.071V107.725H457.646V118.775H454.071V121H464.021L464.221 118.775H460.521V107.725Z" fill="black"/>
<path d="M111.724 81.15L110.149 79.875C109.799 80 109.224 80.075 108.524 80.075H93.624C92.749 80.075 91.774 79.975 91.074 79.875V82.125C91.574 82.075 92.649 81.975 93.624 81.975H108.324C107.074 84.225 104.199 87.9 100.524 90.65C98.824 89.125 96.774 87.45 95.849 86.775L94.224 88.1C95.549 89.025 98.449 91.525 99.949 93.025C101.524 94.65 103.524 96.85 104.449 98.125L106.274 96.675C105.274 95.45 103.499 93.575 101.999 92.075C106.124 88.925 109.299 84.85 111.099 81.925C111.249 81.7 111.474 81.425 111.724 81.15ZM126.599 96.475L127.924 97.575C128.099 97.425 128.374 97.225 128.774 97C131.674 95.575 135.149 93 137.299 90.075L136.124 88.375C134.199 91.2 131.124 93.475 128.824 94.525V80.1C128.824 79.15 128.899 78.425 128.924 78.25H126.624C126.649 78.425 126.774 79.15 126.774 80.1V95.075C126.774 95.575 126.699 96.075 126.599 96.475ZM115.149 96.35L117.024 97.625C119.124 95.875 120.724 93.425 121.474 90.75C122.149 88.25 122.249 82.9 122.249 80.125C122.249 79.375 122.349 78.625 122.374 78.325H120.074C120.174 78.85 120.249 79.4 120.249 80.15C120.249 82.925 120.224 87.925 119.499 90.2C118.749 92.625 117.249 94.85 115.149 96.35ZM146.149 93.775C146.149 96.25 146.999 97.45 151.649 97.45C154.774 97.45 157.274 97.275 159.499 96.95L159.599 94.8C157.099 95.275 154.699 95.525 151.799 95.525C148.824 95.525 148.174 94.975 148.174 93.25V85.8C152.599 84.9 157.199 83.975 157.624 83.9C156.874 85.4 155.049 88.15 153.174 89.85L154.924 90.9C156.924 88.825 158.899 85.7 160.049 83.625C160.224 83.3 160.474 82.875 160.649 82.625L159.174 81.475C158.874 81.65 158.399 81.8 157.849 81.925C156.799 82.15 152.424 83.05 148.174 83.875V79.975C148.174 79.25 148.224 78.4 148.349 77.675H145.974C146.099 78.4 146.149 79.225 146.149 79.975V84.25C143.499 84.75 141.124 85.175 139.999 85.325L140.374 87.4C141.399 87.175 143.624 86.725 146.149 86.2V93.775ZM176.599 96.475L177.924 97.575C178.099 97.425 178.374 97.225 178.774 97C181.674 95.575 185.149 93 187.299 90.075L186.124 88.375C184.199 91.2 181.124 93.475 178.824 94.525V80.1C178.824 79.15 178.899 78.425 178.924 78.25H176.624C176.649 78.425 176.774 79.15 176.774 80.1V95.075C176.774 95.575 176.699 96.075 176.599 96.475ZM165.149 96.35L167.024 97.625C169.124 95.875 170.724 93.425 171.474 90.75C172.149 88.25 172.249 82.9 172.249 80.125C172.249 79.375 172.349 78.625 172.374 78.325H170.074C170.174 78.85 170.249 79.4 170.249 80.15C170.249 82.925 170.224 87.925 169.499 90.2C168.749 92.625 167.249 94.85 165.149 96.35ZM209.769 77.8L208.644 79.475C210.119 80.325 212.819 82.125 214.019 83.025L215.194 81.325C214.119 80.525 211.244 78.625 209.769 77.8ZM206.019 95.675L207.169 97.7C209.494 97.225 212.944 96.05 215.469 94.6C219.444 92.25 222.919 89.025 225.069 85.65L223.869 83.6C221.844 87.125 218.544 90.375 214.394 92.75C211.869 94.2 208.769 95.2 206.019 95.675ZM205.994 83.425L204.894 85.125C206.394 85.9 209.119 87.65 210.344 88.55L211.494 86.8C210.394 86 207.469 84.225 205.994 83.425ZM247.244 80.275L245.969 79.3C245.569 79.425 244.919 79.5 244.094 79.5H234.444C233.694 79.5 232.269 79.4 231.919 79.35V81.625C232.194 81.6 233.569 81.5 234.444 81.5H244.194C243.569 83.575 241.744 86.525 240.044 88.45C237.469 91.325 233.769 94.3 229.744 95.875L231.344 97.55C235.044 95.875 238.419 93.125 241.094 90.25C243.644 92.525 246.294 95.475 247.969 97.675L249.719 96.175C248.094 94.2 245.044 90.95 242.419 88.7C244.194 86.45 245.769 83.525 246.619 81.375C246.769 81.025 247.094 80.475 247.244 80.275ZM271.294 77.1L269.969 77.675C270.644 78.625 271.494 80.125 271.994 81.125L273.344 80.525C272.844 79.525 271.919 78 271.294 77.1ZM274.044 76.1L272.719 76.675C273.444 77.6 274.244 79.025 274.794 80.1L276.144 79.5C275.669 78.575 274.719 77.025 274.044 76.1ZM259.544 94.225C259.544 96.675 260.419 97.9 265.069 97.9C268.194 97.9 270.694 97.7 272.919 97.375L272.994 95.225C270.519 95.725 268.119 95.975 265.219 95.975C262.219 95.975 261.594 95.425 261.594 93.7V86.25C266.019 85.35 270.619 84.425 271.044 84.35C270.294 85.825 268.469 88.575 266.594 90.3L268.319 91.325C270.344 89.275 272.294 86.125 273.444 84.05C273.619 83.75 273.894 83.325 274.069 83.05L272.594 81.9C272.294 82.1 271.819 82.225 271.269 82.35C270.219 82.6 265.844 83.5 261.594 84.325V80.425C261.594 79.7 261.644 78.85 261.744 78.125H259.394C259.519 78.85 259.544 79.675 259.544 80.425V84.7C256.894 85.2 254.544 85.625 253.419 85.75L253.794 87.85C254.819 87.625 257.019 87.175 259.544 86.675V94.225ZM290.669 77.575L288.344 76.825C288.194 77.475 287.819 78.375 287.569 78.8C286.494 81.05 284.019 84.675 279.719 87.25L281.444 88.55C284.169 86.725 286.269 84.5 287.794 82.4H296.244C295.719 84.675 294.194 87.9 292.244 90.2C289.969 92.85 286.844 95.125 282.269 96.475L284.069 98.1C288.769 96.375 291.744 94.075 294.019 91.3C296.244 88.6 297.794 85.225 298.469 82.7C298.594 82.3 298.844 81.725 299.044 81.375L297.369 80.35C296.969 80.525 296.419 80.6 295.744 80.6H288.969C289.194 80.25 289.394 79.9 289.569 79.55C289.794 79.075 290.244 78.225 290.669 77.575ZM332.389 79L331.014 79.625C331.839 80.75 332.614 82.125 333.239 83.425L334.664 82.775C334.089 81.6 333.014 79.925 332.389 79ZM335.414 77.75L334.039 78.4C334.889 79.5 335.689 80.825 336.364 82.15L337.764 81.45C337.164 80.3 336.064 78.625 335.414 77.75ZM323.614 95.125C323.614 96.05 323.564 97.275 323.464 98.075H325.864C325.789 97.275 325.714 95.925 325.714 95.125V86.9C328.489 87.775 332.814 89.425 335.514 90.9L336.389 88.775C333.739 87.45 329.014 85.675 325.714 84.65V80.575C325.714 79.825 325.789 78.75 325.889 77.975H323.414C323.564 78.75 323.614 79.875 323.614 80.575V95.125ZM354.089 96.475L355.414 97.575C355.589 97.425 355.864 97.225 356.264 97C359.164 95.575 362.639 93 364.789 90.075L363.614 88.375C361.689 91.2 358.614 93.475 356.314 94.525V80.1C356.314 79.15 356.389 78.425 356.414 78.25H354.114C354.139 78.425 354.264 79.15 354.264 80.1V95.075C354.264 95.575 354.189 96.075 354.089 96.475ZM342.639 96.35L344.514 97.625C346.614 95.875 348.214 93.425 348.964 90.75C349.639 88.25 349.739 82.9 349.739 80.125C349.739 79.375 349.839 78.625 349.864 78.325H347.564C347.664 78.85 347.739 79.4 347.739 80.15C347.739 82.925 347.714 87.925 346.989 90.2C346.239 92.625 344.739 94.85 342.639 96.35ZM383.889 78.35L382.514 78.925C383.339 80.075 384.164 81.575 384.789 82.875L386.214 82.225C385.639 81.05 384.514 79.25 383.889 78.35ZM387.164 77.15L385.764 77.75C386.614 78.875 387.464 80.3 388.139 81.625L389.564 80.975C388.939 79.825 387.839 78.025 387.164 77.15ZM373.214 77.975L372.089 79.65C373.539 80.5 376.264 82.3 377.464 83.225L378.639 81.5C377.564 80.725 374.689 78.8 373.214 77.975ZM369.464 95.85L370.614 97.875C372.939 97.4 376.389 96.25 378.889 94.775C382.889 92.425 386.339 89.2 388.514 85.85L387.314 83.775C385.289 87.3 381.989 90.575 377.839 92.95C375.314 94.375 372.189 95.375 369.464 95.85ZM369.439 83.6L368.314 85.3C369.839 86.075 372.539 87.825 373.789 88.725L374.914 86.975C373.839 86.2 370.914 84.4 369.439 83.6ZM396.664 78.675L395.239 80.2C397.089 81.45 400.214 84.125 401.464 85.425L403.039 83.85C401.639 82.45 398.439 79.85 396.664 78.675ZM394.514 95.425L395.839 97.475C400.014 96.7 403.164 95.175 405.664 93.6C409.439 91.225 412.364 87.825 414.064 84.7L412.864 82.575C411.414 85.65 408.364 89.35 404.514 91.775C402.139 93.25 398.889 94.775 394.514 95.425ZM435.501 80.275L434.226 79.3C433.826 79.425 433.176 79.5 432.351 79.5H422.701C421.951 79.5 420.526 79.4 420.176 79.35V81.625C420.451 81.6 421.826 81.5 422.701 81.5H432.451C431.826 83.575 430.001 86.525 428.301 88.45C425.726 91.325 422.026 94.3 418.001 95.875L419.601 97.55C423.301 95.875 426.676 93.125 429.351 90.25C431.901 92.525 434.551 95.475 436.226 97.675L437.976 96.175C436.351 94.2 433.301 90.95 430.676 88.7C432.451 86.45 434.026 83.525 434.876 81.375C435.026 81.025 435.351 80.475 435.501 80.275ZM450.301 79.325C450.376 79.625 450.551 80.6 450.826 81.95C448.476 82.325 446.301 82.65 445.326 82.75C444.526 82.85 443.876 82.9 443.251 82.925L443.676 85.175C444.426 85 445.001 84.875 445.701 84.75C446.651 84.575 448.826 84.225 451.201 83.85C451.501 85.4 451.851 87.175 452.201 88.875C449.351 89.325 446.626 89.75 445.376 89.925C444.726 90.025 443.751 90.125 443.176 90.15L443.626 92.325C444.151 92.175 444.851 92.05 445.826 91.875C447.051 91.65 449.726 91.2 452.551 90.725C453.026 93.2 453.426 95.225 453.526 95.775C453.701 96.525 453.776 97.275 453.901 98.125L456.176 97.7C455.951 97 455.751 96.15 455.576 95.425C455.451 94.85 455.051 92.85 454.551 90.4C457.001 90.025 459.326 89.65 460.701 89.425C461.626 89.275 462.426 89.15 462.951 89.1L462.551 87C462.001 87.15 461.301 87.3 460.326 87.475C459.076 87.7 456.701 88.125 454.176 88.525C453.851 86.85 453.501 85.075 453.176 83.525C455.576 83.15 457.851 82.775 459.001 82.6C459.651 82.5 460.426 82.4 460.801 82.35L460.376 80.25C459.951 80.375 459.326 80.55 458.601 80.675C457.551 80.875 455.251 81.25 452.826 81.65C452.526 80.25 452.351 79.225 452.301 78.95C452.226 78.4 452.101 77.7 452.076 77.225L449.826 77.625C450.001 78.125 450.176 78.675 450.301 79.325Z" fill="black"/>
<path d="M27.6476 3.975H25.2476C25.3476 4.75 25.3726 5.325 25.3726 5.85V8.175H19.8476C18.9726 8.175 18.2476 8.15 17.5226 8.075C17.5976 8.625 17.5976 9.475 17.5976 10V14.4C17.5976 14.875 17.5726 15.55 17.5226 16H19.6976C19.6226 15.6 19.5976 14.95 19.5976 14.5V10.025H33.5726C33.3476 12.175 32.5476 15.2 31.1976 17.325C29.6726 19.675 26.9226 21.55 24.4226 22.35C23.6226 22.65 22.6726 22.925 21.8226 23.05L23.4476 24.925C28.0226 23.675 31.4726 21.125 33.3476 17.85C34.7476 15.45 35.4726 12.325 35.7976 10.325C35.8976 9.85 36.0476 9.2 36.1726 8.825L34.8226 7.975C34.4976 8.1 34.0226 8.175 33.0976 8.175H27.4976V5.85C27.4976 5.325 27.5226 4.75 27.6476 3.975ZM44.2226 11.075V13.075C44.7476 13.025 45.5476 13 45.9476 13H50.5476V22.2H44.7976C44.2226 22.2 43.5726 22.15 42.9976 22.075V24.175C43.5976 24.125 44.2476 24.1 44.7976 24.1H58.6226C59.0226 24.1 59.7976 24.125 60.2976 24.175V22.075C59.7976 22.15 59.2226 22.2 58.6226 22.2H52.5726V13H57.4476C58.0226 13 58.6726 13.025 59.2226 13.075V11.075C58.6976 11.125 58.0726 11.175 57.4476 11.175H45.9476C45.5476 11.175 44.7476 11.15 44.2226 11.075ZM77.2226 23.475L78.5476 24.575C78.7226 24.425 78.9976 24.225 79.3976 24C82.2976 22.575 85.7726 20 87.9226 17.075L86.7476 15.375C84.8226 18.2 81.7476 20.475 79.4476 21.525V7.1C79.4476 6.15 79.5226 5.425 79.5476 5.25H77.2476C77.2726 5.425 77.3976 6.15 77.3976 7.1V22.075C77.3976 22.575 77.3226 23.075 77.2226 23.475ZM65.7726 23.35L67.6476 24.625C69.7476 22.875 71.3476 20.425 72.0976 17.75C72.7726 15.25 72.8726 9.9 72.8726 7.125C72.8726 6.375 72.9726 5.625 72.9976 5.325H70.6976C70.7976 5.85 70.8726 6.4 70.8726 7.15C70.8726 9.925 70.8476 14.925 70.1226 17.2C69.3726 19.625 67.8726 21.85 65.7726 23.35ZM92.9343 6.85V9.075C93.5093 9.05 94.7593 9 95.6843 9H107.659V20.8H95.3843C94.3343 20.8 93.2593 20.725 92.6093 20.65V22.925C93.2843 22.875 94.4093 22.825 95.4343 22.825H107.659C107.634 23.425 107.634 23.95 107.609 24.225H109.859C109.834 23.825 109.759 22.7 109.759 21.8V8.9C109.759 8.3 109.809 7.525 109.834 6.95C109.334 6.975 108.584 7 107.984 7H95.6593C94.8593 7 93.7593 6.95 92.9343 6.85ZM116.184 13.175V15.625C116.959 15.55 118.284 15.5 119.659 15.5H133.384C134.509 15.5 135.559 15.6 136.059 15.625V13.175C135.509 13.225 134.609 13.3 133.359 13.3H119.659C118.259 13.3 116.934 13.225 116.184 13.175ZM150.927 5.35L148.427 4.85C148.352 5.5 148.252 6.1 147.952 7.25C147.252 9.7 144.702 17.7 143.302 21.15C142.852 21.175 142.427 21.2 142.052 21.225C141.327 21.25 140.477 21.275 139.727 21.25L140.102 23.575C140.827 23.475 141.552 23.35 142.177 23.3C145.527 23 153.902 22.075 157.752 21.575C158.327 22.8 158.802 23.95 159.127 24.85L161.227 23.9C160.177 21.325 157.452 16.3 155.677 13.725L153.802 14.575C154.727 15.775 155.852 17.725 156.852 19.7C154.102 20.075 149.302 20.6 145.627 20.95C146.877 17.7 149.352 10.025 150.077 7.675C150.402 6.625 150.677 5.975 150.927 5.35Z" fill="black"/>
<path d="M28.2171 54H31.0171C31.3671 51.075 31.8671 45.175 32.1921 38.5H29.5171C29.4421 40.075 29.1671 49.45 29.0671 50.225H28.9921C28.3171 47.7 27.7671 45.65 27.0921 43.15H25.5671C24.9171 45.65 24.4671 47.525 23.7921 50.225H23.6921C23.6171 49.45 23.1921 40.075 23.1421 38.5H20.3671C20.6921 45.175 21.1671 51.075 21.5171 54H24.2671L26.1921 46.575L28.2171 54ZM45.3622 51.6H38.4122V47.25H44.2372V45.15H38.4122V40.9H45.2122V38.5H35.5372V54H45.1372L45.3622 51.6ZM59.1073 54L59.3573 51.6H52.3573V38.5H49.4823V54H59.1073ZM72.7274 51.65C66.8024 51.95 65.1274 50.175 65.1274 46.1C65.1274 42.725 66.2024 40.9 72.5774 41.025L72.4274 38.275C64.7274 38.425 62.1524 42.15 62.1524 46.475C62.1524 51.175 64.4774 54.75 72.4774 54.1L72.7274 51.65ZM80.8976 54.4C84.6976 54.4 87.1226 51.375 87.1226 45.8C87.0976 40.85 85.1226 38.1 81.5976 38.1C77.7976 38.1 75.3726 41.125 75.3726 46.7C75.3726 51.65 77.3726 54.4 80.8976 54.4ZM81.1476 40.475C83.0976 40.475 84.1476 42.475 84.1476 46.45C84.1476 50.2 83.2476 52.025 81.3476 52.025C79.3976 52.025 78.3476 50.025 78.3476 46.05C78.3476 42.3 79.2476 40.475 81.1476 40.475ZM97.6177 38.5C97.6177 38.5 95.2427 47.05 95.0677 47.725H94.9677C94.7927 47.05 92.3927 38.5 92.3927 38.5H89.5927V54H92.1677L92.0177 43.65H92.1177L94.1677 50.925H95.7427L97.7677 43.65H97.8677L97.7177 54H100.368V38.5H97.6177ZM114.088 51.6H107.138V47.25H112.963V45.15H107.138V40.9H113.938V38.5H104.263V54H113.863L114.088 51.6Z" fill="black"/>
<path d="M381.967 19.425C381.967 17.475 380.892 16.35 378.967 15.8C380.467 15.1 381.467 13.9 381.467 12.125C381.467 8.6 377.592 7.825 371.492 8.5V24C377.492 24.775 381.967 23.525 381.967 19.425ZM374.317 10.65C377.092 10.325 378.717 10.975 378.717 12.825C378.717 14.625 377.617 15.375 374.317 15.275V10.65ZM374.317 21.85V17.25C377.492 17.1 379.142 17.5 379.142 19.55C379.142 21.675 377.492 22.275 374.317 21.85ZM389.662 24.4C393.462 24.4 395.887 21.375 395.887 15.8C395.862 10.85 393.887 8.1 390.362 8.1C386.562 8.1 384.137 11.125 384.137 16.7C384.137 21.65 386.137 24.4 389.662 24.4ZM389.912 10.475C391.862 10.475 392.912 12.475 392.912 16.45C392.912 20.2 392.012 22.025 390.112 22.025C388.162 22.025 387.112 20.025 387.112 16.05C387.112 12.3 388.012 10.475 389.912 10.475ZM406.457 24H408.907V8.5H406.257L406.382 18.725H406.282L401.307 8.5H398.607V24H401.257L401.157 13.65H401.282L406.457 24ZM413.527 8.5V10.775H418.627V18.75C418.627 21.45 418.127 22 412.602 21.75V24.25C419.327 24.4 421.527 22.725 421.527 18.725V8.5H413.527ZM430.898 24.4C434.698 24.4 437.123 21.375 437.123 15.8C437.098 10.85 435.123 8.1 431.598 8.1C427.798 8.1 425.373 11.125 425.373 16.7C425.373 21.65 427.373 24.4 430.898 24.4ZM431.148 10.475C433.098 10.475 434.148 12.475 434.148 16.45C434.148 20.2 433.248 22.025 431.348 22.025C429.398 22.025 428.348 20.025 428.348 16.05C428.348 12.3 429.248 10.475 431.148 10.475ZM444.868 24.4C448.193 24.4 450.243 22.225 450.243 18.625V8.5H447.368V19.125C447.368 21.125 446.643 21.925 445.068 21.925C443.568 21.925 442.643 20.95 442.643 18.725V8.5H439.768V18.85C439.768 22.4 441.668 24.4 444.868 24.4ZM462.013 24.225L465.088 23.85L461.438 17.15C462.888 16.1 463.963 14.75 463.963 12.8C463.963 9.575 461.563 7.525 453.888 8.525V24H456.713V18.65L459.163 18.6L462.013 24.225ZM456.713 10.7C459.738 10.3 461.138 11.375 461.138 13.425C461.138 14.775 460.463 15.875 459.438 16.575L456.713 16.65V10.7Z" fill="black"/>
<path d="M81.0174 143.15V159H83.2924V165.7H81.1424V161H68.8674V165.7H66.7174V159H68.0924C68.6924 157.967 69.259 156.808 69.7924 155.525C70.3424 154.242 70.8257 152.9 71.2424 151.5C71.659 150.083 72.0007 148.667 72.2674 147.25C72.534 145.833 72.7007 144.467 72.7674 143.15H81.0174ZM74.7424 145.175C74.6757 146.142 74.509 147.233 74.2424 148.45C73.9924 149.667 73.6674 150.917 73.2674 152.2C72.884 153.467 72.4507 154.692 71.9674 155.875C71.5007 157.058 71.0007 158.1 70.4674 159H78.7924V145.175H74.7424ZM101.853 152.05C101.853 153.9 101.536 155.517 100.903 156.9C100.286 158.267 99.3692 159.333 98.1525 160.1C96.9359 160.867 95.4275 161.25 93.6275 161.25C91.7775 161.25 90.2359 160.867 89.0025 160.1C87.7859 159.333 86.8775 158.258 86.2775 156.875C85.6775 155.492 85.3775 153.875 85.3775 152.025C85.3775 150.192 85.6775 148.592 86.2775 147.225C86.8775 145.858 87.7859 144.792 89.0025 144.025C90.2359 143.258 91.7859 142.875 93.6525 142.875C95.4359 142.875 96.9359 143.258 98.1525 144.025C99.3692 144.775 100.286 145.842 100.903 147.225C101.536 148.592 101.853 150.2 101.853 152.05ZM87.7525 152.05C87.7525 154.3 88.2275 156.075 89.1775 157.375C90.1275 158.658 91.6109 159.3 93.6275 159.3C95.6609 159.3 97.1442 158.658 98.0775 157.375C99.0109 156.075 99.4775 154.3 99.4775 152.05C99.4775 149.8 99.0109 148.042 98.0775 146.775C97.1442 145.492 95.6692 144.85 93.6525 144.85C91.6359 144.85 90.1442 145.492 89.1775 146.775C88.2275 148.042 87.7525 149.8 87.7525 152.05ZM105.809 161V143.15H116.409V145.125H108.059V150.7H110.709C112.492 150.7 113.875 150.925 114.859 151.375C115.842 151.808 116.525 152.408 116.909 153.175C117.292 153.925 117.484 154.792 117.484 155.775C117.484 157.408 116.992 158.692 116.009 159.625C115.025 160.542 113.367 161 111.034 161H105.809ZM110.809 159.075C112.409 159.075 113.534 158.808 114.184 158.275C114.834 157.725 115.159 156.892 115.159 155.775C115.159 154.625 114.8 153.817 114.084 153.35C113.367 152.883 112.15 152.65 110.434 152.65H108.059V159.075H110.809ZM125.915 143.15C128.248 143.15 129.948 143.608 131.015 144.525C132.081 145.442 132.615 146.733 132.615 148.4C132.615 149.383 132.39 150.308 131.94 151.175C131.506 152.025 130.765 152.717 129.715 153.25C128.681 153.783 127.273 154.05 125.49 154.05H123.44V161H121.19V143.15H125.915ZM125.715 145.075H123.44V152.125H125.24C126.94 152.125 128.206 151.85 129.04 151.3C129.873 150.75 130.29 149.817 130.29 148.5C130.29 147.35 129.923 146.492 129.19 145.925C128.456 145.358 127.298 145.075 125.715 145.075ZM151.901 152.05C151.901 153.9 151.585 155.517 150.951 156.9C150.335 158.267 149.418 159.333 148.201 160.1C146.985 160.867 145.476 161.25 143.676 161.25C141.826 161.25 140.285 160.867 139.051 160.1C137.835 159.333 136.926 158.258 136.326 156.875C135.726 155.492 135.426 153.875 135.426 152.025C135.426 150.192 135.726 148.592 136.326 147.225C136.926 145.858 137.835 144.792 139.051 144.025C140.285 143.258 141.835 142.875 143.701 142.875C145.485 142.875 146.985 143.258 148.201 144.025C149.418 144.775 150.335 145.842 150.951 147.225C151.585 148.592 151.901 150.2 151.901 152.05ZM137.801 152.05C137.801 154.3 138.276 156.075 139.226 157.375C140.176 158.658 141.66 159.3 143.676 159.3C145.71 159.3 147.193 158.658 148.126 157.375C149.06 156.075 149.526 154.3 149.526 152.05C149.526 149.8 149.06 148.042 148.126 146.775C147.193 145.492 145.718 144.85 143.701 144.85C141.685 144.85 140.193 145.492 139.226 146.775C138.276 148.042 137.801 149.8 137.801 152.05ZM26.2922 191V173.15H39.6922V191H37.4672V175.125H28.5422V191H26.2922ZM60.1533 182.05C60.1533 183.9 59.8367 185.517 59.2033 186.9C58.5867 188.267 57.67 189.333 56.4533 190.1C55.2367 190.867 53.7283 191.25 51.9283 191.25C50.0783 191.25 48.5367 190.867 47.3033 190.1C46.0867 189.333 45.1783 188.258 44.5783 186.875C43.9783 185.492 43.6783 183.875 43.6783 182.025C43.6783 180.192 43.9783 178.592 44.5783 177.225C45.1783 175.858 46.0867 174.792 47.3033 174.025C48.5367 173.258 50.0867 172.875 51.9533 172.875C53.7367 172.875 55.2367 173.258 56.4533 174.025C57.67 174.775 58.5867 175.842 59.2033 177.225C59.8367 178.592 60.1533 180.2 60.1533 182.05ZM46.0533 182.05C46.0533 184.3 46.5283 186.075 47.4783 187.375C48.4283 188.658 49.9117 189.3 51.9283 189.3C53.9617 189.3 55.445 188.658 56.3783 187.375C57.3117 186.075 57.7783 184.3 57.7783 182.05C57.7783 179.8 57.3117 178.042 56.3783 176.775C55.445 175.492 53.97 174.85 51.9533 174.85C49.9367 174.85 48.445 175.492 47.4783 176.775C46.5283 178.042 46.0533 179.8 46.0533 182.05ZM68.3963 181.825L61.4713 173.15H63.9713L70.7963 181.8V173.15H72.9463V181.8L79.7713 173.15H82.2713L75.3463 181.8L82.4963 191H79.9213L72.9463 181.95V191H70.7963V181.95L63.7963 191H61.2213L68.3963 181.825ZM96.1592 191L94.0092 185.475H86.9342L84.8092 191H82.5342L89.5092 173.075H91.5342L98.4842 191H96.1592ZM91.3342 178.075C91.2842 177.942 91.2008 177.7 91.0842 177.35C90.9675 177 90.8508 176.642 90.7342 176.275C90.6342 175.892 90.5508 175.6 90.4842 175.4C90.3675 175.917 90.2342 176.425 90.0842 176.925C89.9342 177.408 89.8092 177.792 89.7092 178.075L87.6842 183.475H93.3342L91.3342 178.075ZM113.776 191H111.526V175.125H105.876C105.726 176.358 105.559 177.658 105.376 179.025C105.193 180.375 105.009 181.667 104.826 182.9C104.643 184.133 104.459 185.183 104.276 186.05C104.059 187.167 103.793 188.117 103.476 188.9C103.159 189.683 102.734 190.275 102.201 190.675C101.684 191.075 101.001 191.275 100.151 191.275C99.8676 191.275 99.576 191.242 99.276 191.175C98.9926 191.125 98.7426 191.058 98.526 190.975V189.1C98.7093 189.183 98.9176 189.258 99.151 189.325C99.3843 189.375 99.6343 189.4 99.901 189.4C100.401 189.4 100.793 189.2 101.076 188.8C101.376 188.383 101.609 187.875 101.776 187.275C101.943 186.658 102.084 186.05 102.201 185.45C102.334 184.817 102.493 183.892 102.676 182.675C102.876 181.442 103.084 180.008 103.301 178.375C103.534 176.742 103.768 175 104.001 173.15H113.776V191ZM134.201 182.05C134.201 183.9 133.885 185.517 133.251 186.9C132.635 188.267 131.718 189.333 130.501 190.1C129.285 190.867 127.776 191.25 125.976 191.25C124.126 191.25 122.585 190.867 121.351 190.1C120.135 189.333 119.226 188.258 118.626 186.875C118.026 185.492 117.726 183.875 117.726 182.025C117.726 180.192 118.026 178.592 118.626 177.225C119.226 175.858 120.135 174.792 121.351 174.025C122.585 173.258 124.135 172.875 126.001 172.875C127.785 172.875 129.285 173.258 130.501 174.025C131.718 174.775 132.635 175.842 133.251 177.225C133.885 178.592 134.201 180.2 134.201 182.05ZM120.101 182.05C120.101 184.3 120.576 186.075 121.526 187.375C122.476 188.658 123.96 189.3 125.976 189.3C128.01 189.3 129.493 188.658 130.426 187.375C131.36 186.075 131.826 184.3 131.826 182.05C131.826 179.8 131.36 178.042 130.426 176.775C129.493 175.492 128.018 174.85 126.001 174.85C123.985 174.85 122.493 175.492 121.526 176.775C120.576 178.042 120.101 179.8 120.101 182.05ZM143.257 173.15C145.491 173.15 147.174 173.483 148.307 174.15C149.457 174.8 150.032 175.942 150.032 177.575C150.032 178.625 149.741 179.5 149.157 180.2C148.574 180.883 147.732 181.325 146.632 181.525V181.65C147.382 181.767 148.057 181.983 148.657 182.3C149.274 182.617 149.757 183.067 150.107 183.65C150.457 184.233 150.632 184.992 150.632 185.925C150.632 187.542 150.074 188.792 148.957 189.675C147.857 190.558 146.349 191 144.432 191H138.157V173.15H143.257ZM143.707 180.75C145.241 180.75 146.291 180.508 146.857 180.025C147.424 179.525 147.707 178.792 147.707 177.825C147.707 176.842 147.357 176.142 146.657 175.725C145.974 175.292 144.874 175.075 143.357 175.075H140.407V180.75H143.707ZM140.407 182.625V189.1H144.007C145.591 189.1 146.691 188.792 147.307 188.175C147.924 187.558 148.232 186.75 148.232 185.75C148.232 184.817 147.907 184.067 147.257 183.5C146.624 182.917 145.482 182.625 143.832 182.625H140.407ZM165.617 191L163.467 185.475H156.392L154.267 191H151.992L158.967 173.075H160.992L167.942 191H165.617ZM160.792 178.075C160.742 177.942 160.659 177.7 160.542 177.35C160.426 177 160.309 176.642 160.192 176.275C160.092 175.892 160.009 175.6 159.942 175.4C159.826 175.917 159.692 176.425 159.542 176.925C159.392 177.408 159.267 177.792 159.167 178.075L157.142 183.475H162.792L160.792 178.075ZM174.276 191H172.026V175.125H166.451V173.15H179.826V175.125H174.276V191ZM182.518 191V173.15H184.768V180.7H188.118C189.784 180.7 191.109 180.925 192.093 181.375C193.076 181.825 193.784 182.433 194.218 183.2C194.651 183.967 194.868 184.825 194.868 185.775C194.868 187.342 194.334 188.608 193.268 189.575C192.201 190.525 190.576 191 188.393 191H182.518ZM188.168 189.075C191.084 189.075 192.543 187.975 192.543 185.775C192.543 184.625 192.143 183.817 191.343 183.35C190.543 182.883 189.376 182.65 187.843 182.65H184.768V189.075H188.168Z" fill="black"/>
<path d="M398.125 153.75H399.75V152.2H402.925V153.75H404.575V152.2H407.575V150.8H404.575V149.1H402.925V150.8H399.75V149.1H398.125V150.8H395.15V152.2H398.125V153.75ZM398.625 167.7H401.525V169.2H398.625V167.7ZM401.525 163.775H398.625V162.3H401.525V163.775ZM401.525 166.475H398.625V165H401.525V166.475ZM397.25 155.475H399.375V157.65H397.25V155.475ZM405.45 157.65H403.15V155.475H405.45V157.65ZM413.075 155.25H415.8C415.625 156.8 415.4 158.475 415.1 159.6L416.45 160.3C416.975 158.65 417.45 156.075 417.725 153.9L416.525 153.45L416.225 153.55H410.475C410.8 152.2 411.025 150.775 411.225 149.325L409.425 149.05C408.975 152.65 408.2 156.2 406.85 158.625V154.25H401.825V158.875H406.7L406.5 159.2C406.95 159.425 407.725 159.975 408.05 160.275C408.85 158.9 409.525 157.175 410.05 155.25H411.3V158.7C411.325 160.475 410.8 166 407.025 169.5V169.2H403.125V167.7H406.325V166.475H403.125V165H406.325V163.775H403.125V162.3H406.975V160.95H403.15C403.4 160.475 403.675 159.925 403.95 159.4L402.275 158.975C402.125 159.525 401.85 160.275 401.55 160.95H399.025C399.275 160.4 399.5 159.825 399.7 159.25L398.225 158.875H400.75V154.25H395.925V158.875H398.125C397.375 161.125 396.125 163.325 394.7 164.825C395 165.15 395.55 165.875 395.775 166.2C396.225 165.725 396.65 165.175 397.05 164.575V171.85H398.625V170.525H406C406.325 170.9 406.775 171.55 406.975 171.875C410.675 169.225 411.95 164.575 412.175 162.55C412.4 164.525 413.525 169.325 416.9 171.875C417.175 171.45 417.7 170.7 418.05 170.325C413.7 167.075 413.075 160.625 413.075 158.7V155.25ZM436.15 152.55H440.175V163.75C440.175 164.05 440.075 164.15 439.775 164.15C439.45 164.15 438.5 164.175 437.4 164.125C437.625 164.55 437.875 165.275 437.975 165.725C439.475 165.725 440.475 165.7 441.075 165.45C441.725 165.15 441.9 164.65 441.9 163.775V150.925H434.475V168.75H436.15V152.55ZM426.625 166.075C428.6 165.5 431.225 164.725 433.675 164L433.45 162.4C432.1 162.775 430.75 163.15 429.5 163.5V152.575C431.125 151.95 432.85 151.2 434.2 150.4L432.825 149.025C431.9 149.75 430.3 150.6 428.825 151.275L427.775 150.975V163.95C427.175 164.125 426.625 164.25 426.15 164.375L426.625 166.075ZM425.6 153.8C424.9 152.55 423.25 150.825 421.775 149.65L420.35 150.6C421.8 151.825 423.4 153.6 424.05 154.85L425.6 153.8ZM425.025 158.875H420.225V160.625H423.3V167.075C422.2 168.125 420.975 169.175 419.925 169.95L420.9 171.675C422.1 170.575 423.225 169.525 424.275 168.425C425.825 170.4 428.1 171.3 431.4 171.425C434.225 171.525 439.625 171.475 442.45 171.35C442.525 170.825 442.825 170 443.05 169.6C440 169.8 434.175 169.875 431.35 169.75C428.425 169.625 426.2 168.775 425.025 166.9V158.875Z" fill="black"/>
<path d="M241.571 170.225C239.555 170.225 238.13 169.842 237.296 169.075C236.463 168.308 236.046 167.275 236.046 165.975C236.046 165.208 236.155 164.6 236.371 164.15C236.605 163.683 236.888 163.342 237.221 163.125C237.571 162.908 237.93 162.767 238.296 162.7V162.6C237.963 162.5 237.613 162.333 237.246 162.1C236.88 161.867 236.571 161.542 236.321 161.125C236.088 160.708 235.971 160.183 235.971 159.55C235.971 158.967 236.105 158.417 236.371 157.9C236.638 157.383 237.071 156.958 237.671 156.625C238.271 156.292 239.063 156.125 240.046 156.125C240.446 156.125 240.863 156.158 241.296 156.225C241.73 156.275 242.063 156.367 242.296 156.5L241.896 158.225C241.713 158.158 241.471 158.1 241.171 158.05C240.888 157.983 240.588 157.95 240.271 157.95C239.571 157.95 239.055 158.117 238.721 158.45C238.388 158.767 238.221 159.192 238.221 159.725C238.221 160.308 238.363 160.75 238.646 161.05C238.946 161.35 239.321 161.558 239.771 161.675C240.238 161.775 240.721 161.825 241.221 161.825H241.696V163.45H241.221C240.221 163.45 239.48 163.633 238.996 164C238.53 164.35 238.296 164.942 238.296 165.775C238.296 166.258 238.388 166.7 238.571 167.1C238.771 167.5 239.105 167.817 239.571 168.05C240.055 168.283 240.721 168.4 241.571 168.4C242.838 168.4 243.705 168.142 244.171 167.625C244.638 167.092 244.871 166.367 244.871 165.45V156.3H247.096V165.3C247.096 167.05 246.646 168.308 245.746 169.075C244.863 169.842 243.471 170.225 241.571 170.225ZM236.461 154.125V153.15L238.286 152.35H247.086V154.125H236.461ZM255.865 170.25C254.399 170.25 253.24 169.867 252.39 169.1C251.557 168.333 251.14 167.117 251.14 165.45V156.3H253.365V165.325C253.365 167.358 254.357 168.375 256.34 168.375C257.507 168.375 258.407 168 259.04 167.25C259.69 166.5 260.015 165.492 260.015 164.225V156.3H262.24V170H260.39L260.29 167.975H260.165C259.865 168.642 259.34 169.192 258.59 169.625C257.857 170.042 256.949 170.25 255.865 170.25ZM271.147 170.25C269.814 170.25 268.764 169.942 267.997 169.325C267.247 168.692 266.714 167.842 266.397 166.775C266.097 165.708 265.947 164.533 265.947 163.25C265.947 161.367 266.206 159.908 266.722 158.875C267.239 157.825 267.956 157.092 268.872 156.675C269.806 156.258 270.881 156.05 272.097 156.05C274.097 156.05 275.547 156.483 276.447 157.35C277.364 158.217 277.822 159.392 277.822 160.875V170H275.622V161.075C275.622 160.042 275.364 159.258 274.847 158.725C274.331 158.175 273.439 157.9 272.172 157.9C271.406 157.9 270.714 158.042 270.097 158.325C269.497 158.608 269.022 159.133 268.672 159.9C268.339 160.667 268.172 161.792 268.172 163.275C268.172 164.242 268.264 165.117 268.447 165.9C268.647 166.667 268.989 167.275 269.472 167.725C269.956 168.175 270.631 168.4 271.497 168.4C271.747 168.4 271.981 168.383 272.197 168.35C272.414 168.317 272.622 168.267 272.822 168.2L273.047 169.925C272.781 170.042 272.472 170.125 272.122 170.175C271.789 170.225 271.464 170.25 271.147 170.25ZM267.003 154.125V153.15L268.828 152.35H275.553V150.325H277.653V153.15H277.628V154.125H267.003ZM286.728 170.25C285.328 170.25 284.244 169.933 283.478 169.3C282.711 168.65 282.178 167.775 281.878 166.675C281.578 165.558 281.428 164.292 281.428 162.875C281.428 160.442 281.769 158.7 282.453 157.65C283.153 156.583 284.153 156.05 285.453 156.05C286.036 156.05 286.528 156.15 286.928 156.35C287.344 156.55 287.636 156.883 287.803 157.35H287.903C288.069 156.867 288.369 156.533 288.803 156.35C289.236 156.15 289.744 156.05 290.328 156.05C291.411 156.05 292.244 156.342 292.828 156.925C293.428 157.492 293.728 158.367 293.728 159.55V170H291.503V159.575C291.503 158.925 291.361 158.483 291.078 158.25C290.794 158.017 290.436 157.9 290.003 157.9C289.519 157.9 289.161 158.017 288.928 158.25C288.711 158.483 288.578 158.867 288.528 159.4H287.128C287.061 158.817 286.886 158.425 286.603 158.225C286.319 158.008 286.003 157.9 285.653 157.9C284.986 157.9 284.486 158.292 284.153 159.075C283.819 159.842 283.653 161.117 283.653 162.9C283.653 164.05 283.736 165.033 283.903 165.85C284.086 166.667 284.419 167.3 284.903 167.75C285.386 168.183 286.086 168.4 287.003 168.4C287.336 168.4 287.611 168.383 287.828 168.35C288.044 168.317 288.253 168.275 288.453 168.225L288.678 169.925C288.428 170.042 288.128 170.125 287.778 170.175C287.428 170.225 287.078 170.25 286.728 170.25ZM286.448 154.125V153.025C286.782 152.958 287.123 152.867 287.473 152.75C287.823 152.617 288.115 152.45 288.348 152.25C288.582 152.033 288.698 151.775 288.698 151.475C288.698 151.275 288.64 151.108 288.523 150.975C288.39 150.825 288.19 150.75 287.923 150.75C287.757 150.75 287.59 150.783 287.423 150.85C287.24 150.917 287.082 150.975 286.948 151.025L286.448 149.65C286.782 149.383 287.157 149.208 287.573 149.125C287.973 149.042 288.298 149 288.548 149C289.215 149 289.74 149.183 290.123 149.55C290.49 149.917 290.673 150.383 290.673 150.95C290.673 151.233 290.623 151.5 290.523 151.75C290.423 151.983 290.298 152.192 290.148 152.375H294.198V154.125H286.448ZM302.621 170.25C300.821 170.25 299.471 169.783 298.571 168.85C297.688 167.9 297.246 166.417 297.246 164.4C297.246 164.067 297.254 163.708 297.271 163.325C297.304 162.925 297.338 162.533 297.371 162.15H302.621V163.9H299.471V164.4C299.471 165.45 299.588 166.275 299.821 166.875C300.054 167.458 300.396 167.867 300.846 168.1C301.313 168.333 301.888 168.45 302.571 168.45C303.321 168.45 303.971 168.308 304.521 168.025C305.071 167.742 305.496 167.225 305.796 166.475C306.096 165.725 306.246 164.65 306.246 163.25C306.246 161.417 305.929 160.067 305.296 159.2C304.679 158.333 303.604 157.9 302.071 157.9C301.271 157.9 300.504 158.008 299.771 158.225C299.054 158.425 298.363 158.717 297.696 159.1V157.025C298.196 156.758 298.854 156.533 299.671 156.35C300.488 156.15 301.379 156.05 302.346 156.05C303.813 156.05 304.996 156.35 305.896 156.95C306.813 157.533 307.479 158.367 307.896 159.45C308.313 160.517 308.521 161.783 308.521 163.25C308.521 164.717 308.329 165.975 307.946 167.025C307.563 168.075 306.938 168.875 306.071 169.425C305.221 169.975 304.071 170.25 302.621 170.25ZM316.852 170.25C315.385 170.25 314.227 169.867 313.377 169.1C312.543 168.333 312.127 167.117 312.127 165.45V156.3H314.352V165.325C314.352 167.358 315.343 168.375 317.327 168.375C318.493 168.375 319.393 168 320.027 167.25C320.677 166.5 321.002 165.492 321.002 164.225V156.3H323.227V170H321.377L321.277 167.975H321.152C320.852 168.642 320.327 169.192 319.577 169.625C318.843 170.042 317.935 170.25 316.852 170.25ZM331.309 170.25C330.325 170.25 329.409 170.158 328.559 169.975C327.725 169.775 327.017 169.542 326.434 169.275L327.084 167.475C327.617 167.692 328.25 167.9 328.984 168.1C329.734 168.3 330.525 168.4 331.359 168.4C332.242 168.4 332.975 168.233 333.559 167.9C334.142 167.567 334.434 167.083 334.434 166.45C334.434 165.883 334.2 165.417 333.734 165.05C333.267 164.683 332.517 164.342 331.484 164.025C330.434 163.692 329.542 163.342 328.809 162.975C328.092 162.592 327.542 162.142 327.159 161.625C326.792 161.092 326.609 160.433 326.609 159.65C326.609 158.617 327.034 157.758 327.884 157.075C328.734 156.392 330.092 156.05 331.959 156.05C332.759 156.05 333.509 156.125 334.209 156.275C334.925 156.408 335.484 156.6 335.884 156.85V158.725C335.467 158.525 334.892 158.333 334.159 158.15C333.425 157.967 332.667 157.875 331.884 157.875C330.767 157.875 329.975 158.05 329.509 158.4C329.059 158.733 328.834 159.117 328.834 159.55C328.834 159.917 328.934 160.225 329.134 160.475C329.35 160.725 329.709 160.967 330.209 161.2C330.725 161.433 331.417 161.7 332.284 162C333.084 162.267 333.817 162.575 334.484 162.925C335.15 163.275 335.675 163.717 336.059 164.25C336.459 164.767 336.659 165.433 336.659 166.25C336.659 166.95 336.484 167.608 336.134 168.225C335.8 168.825 335.242 169.317 334.459 169.7C333.675 170.067 332.625 170.25 331.309 170.25ZM333.461 154.125C332.411 154.125 331.67 153.917 331.236 153.5C330.803 153.067 330.586 152.583 330.586 152.05C330.586 151.8 330.628 151.533 330.711 151.25C330.778 150.95 330.87 150.708 330.986 150.525L332.861 150.85C332.761 151.05 332.711 151.308 332.711 151.625C332.711 151.842 332.778 152.033 332.911 152.2C333.045 152.35 333.27 152.425 333.586 152.425H339.911V154.125H333.461ZM345.166 170.25C343.199 170.25 341.791 169.8 340.941 168.9C340.091 168 339.666 166.717 339.666 165.05V156.3H341.891V165.075C341.891 167.292 342.982 168.4 345.166 168.4C346.299 168.4 347.132 168.125 347.666 167.575C348.216 167.025 348.491 166.192 348.491 165.075V156.3H350.716V165.05C350.716 166.717 350.282 168 349.416 168.9C348.566 169.8 347.149 170.25 345.166 170.25Z" fill="black"/>
<path d="M234.09 48H236.89C237.24 45.075 237.74 39.175 238.065 32.5H235.39C235.315 34.075 235.04 43.45 234.94 44.225H234.865C234.19 41.7 233.64 39.65 232.965 37.15H231.44C230.79 39.65 230.34 41.525 229.665 44.225H229.565C229.49 43.45 229.065 34.075 229.015 32.5H226.24C226.565 39.175 227.04 45.075 227.39 48H230.14L232.065 40.575L234.09 48ZM247.335 34.725H250.91V32.5H240.885V34.725H244.46V45.775H240.885V48H250.835L251.035 45.775H247.335V34.725ZM261.105 34.9H265.53V32.5H253.855L253.655 34.9H258.205V48H261.105V34.9ZM276.7 48.1L279.6 47.9C278.275 42.75 276.9 37.65 275.375 32.475H271.4C269.85 37.65 268.5 42.85 267.175 48H270.025C270.375 46.575 270.7 45.125 271.05 43.7H275.65C276 45.175 276.35 46.65 276.7 48.1ZM273.25 34.825H273.45C274.025 37.05 274.6 39.325 275.15 41.6H271.55C272.1 39.325 272.675 37.075 273.25 34.825ZM289.745 32.5C289.745 32.5 287.37 41.05 287.195 41.725H287.095C286.92 41.05 284.52 32.5 284.52 32.5H281.72V48H284.295L284.145 37.65H284.245L286.295 44.925H287.87L289.895 37.65H289.995L289.845 48H292.495V32.5H289.745ZM302.34 48V42.85L307.24 32.5H304.29L300.965 40.175L297.54 32.45L294.49 32.55L299.44 42.9V48H302.34Z" fill="black"/>
</svg>
