<svg width="561" height="561" viewBox="0 0 561 561" fill="none" xmlns="http://www.w3.org/2000/svg">
<circle cx="280.5" cy="280.5" r="280.5" fill="#81A7FF"/>
<g filter="url(#filter0_d)">
<path d="M43.05 229.94V232.4C45.42 232.58 47.97 232.73 50.97 232.73C53.76 232.73 57.03 232.52 59.07 232.37V229.91C56.91 230.12 53.85 230.33 50.97 230.33C47.97 230.33 45.21 230.21 43.05 229.94ZM44.25 242.03L41.82 241.79C41.55 243.02 41.19 244.43 41.19 245.96C41.19 249.74 44.73 251.75 50.82 251.75C55.08 251.75 58.89 251.3 61.05 250.7L61.02 248.12C58.77 248.87 54.9 249.32 50.76 249.32C45.96 249.32 43.62 247.73 43.62 245.45C43.62 244.34 43.86 243.23 44.25 242.03ZM82.41 228.74L79.77 227.66C79.41 228.53 79.02 229.28 78.66 229.97C77.04 232.88 70.47 245.18 68.28 251.24L70.86 252.14C71.25 250.64 72.54 247.1 73.44 245.3C74.61 242.96 76.86 240.5 79.29 240.5C80.64 240.5 81.39 241.28 81.48 242.6C81.57 244.25 81.51 246.56 81.6 248.3C81.72 250.07 82.74 252.11 85.95 252.11C90.3 252.11 92.82 248.75 94.41 243.92L92.43 242.3C91.65 245.48 89.67 249.62 86.34 249.62C85.02 249.62 84 248.99 83.91 247.49C83.82 246.02 83.85 243.71 83.79 241.94C83.7 239.57 82.26 238.31 80.28 238.31C78.84 238.31 77.25 238.85 75.81 240.17C77.37 237.26 80.13 232.28 81.45 230.21C81.81 229.64 82.14 229.1 82.41 228.74ZM109.68 230.75V233.15C112.98 233.51 118.8 233.51 122.01 233.15V230.72C119.01 231.17 112.95 231.29 109.68 230.75ZM110.85 242.96L108.69 242.75C108.36 244.22 108.18 245.27 108.18 246.29C108.18 249.11 110.43 250.79 115.47 250.79C118.56 250.79 121.08 250.52 122.97 250.16L122.91 247.64C120.48 248.18 118.17 248.42 115.47 248.42C111.39 248.42 110.4 247.1 110.4 245.72C110.4 244.91 110.55 244.07 110.85 242.96ZM103.95 228.44L101.28 228.2C101.28 228.86 101.19 229.64 101.07 230.33C100.71 232.82 99.72 237.95 99.72 242.36C99.72 246.41 100.23 249.86 100.83 251.99L102.99 251.84C102.96 251.54 102.93 251.12 102.9 250.79C102.87 250.46 102.96 249.89 103.05 249.44C103.32 248.03 104.4 244.85 105.18 242.72L103.92 241.76C103.41 242.99 102.69 244.79 102.18 246.14C102 244.67 101.91 243.41 101.91 241.94C101.91 238.58 102.84 233.21 103.41 230.45C103.53 229.91 103.8 228.95 103.95 228.44ZM138.69 227.51L136.02 227.36C136.05 228.2 136.02 228.89 135.9 229.85C135.84 230.39 135.72 231.05 135.57 231.83C135.39 231.83 135.24 231.83 135.06 231.83C133.26 231.83 130.95 231.59 129.36 231.32L129.39 233.66C131.13 233.84 133.05 233.96 135.09 233.96H135.12C134.37 237.35 133.17 241.64 131.64 244.64L133.89 245.45C134.16 244.91 134.43 244.52 134.82 244.07C136.8 241.67 140.1 240.44 143.67 240.44C147.18 240.44 149.04 242.18 149.04 244.43C149.04 249.35 142.29 250.55 135.36 249.59L135.96 251.96C145.08 252.95 151.5 250.61 151.5 244.37C151.5 240.86 148.71 238.43 143.94 238.43C140.79 238.43 138.09 239.15 135.48 240.98C136.14 239.27 136.83 236.42 137.37 233.9C141.27 233.75 146.04 233.24 149.55 232.64L149.52 230.33C145.83 231.14 141.42 231.62 137.82 231.77C137.97 231.08 138.06 230.51 138.15 230.03C138.3 229.25 138.48 228.32 138.69 227.51ZM169.38 247.4C169.38 245.93 170.97 244.97 173.22 244.97C174.3 244.97 175.32 245.15 176.28 245.45C176.31 245.84 176.31 246.2 176.31 246.5C176.31 248.48 175.56 249.77 173.04 249.77C170.88 249.77 169.38 248.93 169.38 247.4ZM178.47 227.9H175.77C175.83 228.41 175.89 229.22 175.89 229.73V233.45C174.96 233.48 174 233.51 173.07 233.51C171.27 233.51 169.68 233.42 167.97 233.27V235.52C169.74 235.64 171.3 235.73 173.01 235.73C173.97 235.73 174.93 235.7 175.89 235.67C175.92 238.13 176.1 241.07 176.19 243.38C175.32 243.2 174.39 243.11 173.4 243.11C169.47 243.11 167.22 245.12 167.22 247.64C167.22 250.34 169.44 251.93 173.46 251.93C177.51 251.93 178.65 249.56 178.65 247.1C178.65 246.89 178.65 246.68 178.65 246.47C180.18 247.34 181.68 248.54 183.18 249.95L184.5 247.94C182.94 246.53 180.99 245.03 178.56 244.07C178.44 241.55 178.23 238.55 178.2 235.52C180 235.4 181.74 235.22 183.39 234.95V232.64C181.8 232.94 180.03 233.18 178.2 233.33C178.23 231.92 178.26 230.51 178.29 229.7C178.32 229.1 178.38 228.5 178.47 227.9ZM163.65 228.08L161.01 227.87C161.01 228.5 160.92 229.31 160.83 230C160.44 232.49 159.45 238.22 159.45 242.63C159.45 246.68 159.99 249.98 160.59 252.11L162.69 251.96C162.66 251.63 162.63 251.21 162.63 250.91C162.6 250.55 162.66 249.98 162.75 249.56C163.05 248.09 164.16 245.03 164.88 242.93L163.65 241.97C163.14 243.2 162.42 245.03 161.94 246.38C161.73 244.91 161.64 243.65 161.64 242.21C161.64 238.85 162.54 232.91 163.14 230.12C163.23 229.58 163.47 228.59 163.65 228.08ZM200.73 243.29C199.98 242.54 196.71 239.48 195.6 238.55V236.75H200.85V234.62H195.6V229.28C197.4 228.83 199.11 228.32 200.46 227.75L198.81 226.1C196.26 227.27 191.58 228.29 187.56 228.92C187.83 229.4 188.13 230.15 188.25 230.66C189.9 230.42 191.67 230.12 193.41 229.76V234.62H187.62V236.75H192.99C191.58 240.29 189.15 244.31 186.99 246.47C187.35 247.04 187.92 247.94 188.16 248.57C189.99 246.53 191.94 243.26 193.41 239.99V253.19H195.6V240.83C196.95 242.21 198.66 244.04 199.35 245L200.73 243.29ZM214.83 252.53C214.17 249.32 212.13 244.31 210.03 240.47L207.93 241.13C209.1 243.32 210.24 245.9 211.08 248.3C208.2 248.6 205.32 248.9 202.77 249.17C204.51 242.96 206.46 233.99 207.63 226.94L205.14 226.52C204.18 233.6 202.2 243.17 200.46 249.41C199.41 249.5 198.48 249.59 197.64 249.68L198.18 251.99C201.78 251.57 206.85 250.94 211.77 250.28C212.1 251.39 212.37 252.41 212.52 253.28L214.83 252.53ZM243.24 240.5C243.24 234.41 238.77 229.46 231.75 229.46C224.43 229.46 218.64 235.16 218.64 241.67C218.64 246.62 221.31 249.68 223.98 249.68C226.77 249.68 229.14 246.53 230.97 240.35C231.81 237.56 232.38 234.5 232.77 231.71C237.87 232.13 240.78 235.88 240.78 240.41C240.78 245.6 237 248.45 233.16 249.32C232.47 249.47 231.54 249.62 230.58 249.71L231.99 251.93C239.1 251 243.24 246.8 243.24 240.5ZM220.98 241.46C220.98 237.38 224.52 232.46 230.28 231.74C229.95 234.5 229.35 237.35 228.6 239.84C227.07 244.91 225.48 246.92 224.07 246.92C222.72 246.92 220.98 245.24 220.98 241.46ZM257.97 250.04V242.66H270.27V250.04H257.97ZM265.41 230.9C264.12 233.51 262.23 235.88 260.01 237.92C258.63 236.42 256.35 234.5 254.34 233.09C255.12 232.4 255.81 231.65 256.47 230.9H265.41ZM272.52 240.62H260.25C263.73 237.68 266.67 233.99 268.44 229.55L266.97 228.77L266.55 228.89H258.09C258.72 228.02 259.29 227.15 259.8 226.31L257.31 225.8C255.57 229.04 252.15 232.88 247.23 235.55C247.74 235.94 248.49 236.75 248.79 237.26C250.23 236.42 251.52 235.49 252.72 234.53C254.7 236 256.89 237.92 258.21 239.45C254.82 242.12 250.89 244.1 247.08 245.21C247.56 245.63 248.13 246.56 248.4 247.16C250.89 246.35 253.38 245.21 255.78 243.8V253.28H257.97V252.08H270.27V253.34H272.52V240.62ZM281.7 244.94V241.94H288.33V244.94H281.7ZM288.33 237.26V240.2H281.7V237.26H288.33ZM290.49 235.34H279.57V253.16H281.7V246.71H288.33V250.7C288.33 251.09 288.21 251.21 287.76 251.24C287.37 251.27 286.02 251.27 284.52 251.21C284.82 251.75 285.12 252.59 285.24 253.16C287.28 253.16 288.57 253.16 289.41 252.8C290.22 252.44 290.49 251.87 290.49 250.73V235.34ZM300.15 250.49C300.15 250.94 300 251.06 299.49 251.09C299.04 251.12 297.42 251.12 295.59 251.06C295.92 251.66 296.28 252.59 296.4 253.19C298.68 253.22 300.18 253.16 301.14 252.8C302.04 252.44 302.34 251.84 302.34 250.49V234.74H300.15V250.49ZM296.19 235.64H294.12V247.82H296.19V235.64ZM297.33 230.63C298.2 229.4 299.19 227.93 300 226.55L297.66 225.77C297 227.21 295.86 229.19 294.84 230.63H285.9L287.37 230.06C286.8 228.89 285.54 227.12 284.37 225.86L282.33 226.64C283.35 227.84 284.52 229.46 285.06 230.63H277.71V232.67H304.32V230.63H297.33ZM319.38 247.4C319.38 245.93 320.97 244.97 323.22 244.97C324.3 244.97 325.32 245.15 326.28 245.45C326.31 245.84 326.31 246.2 326.31 246.5C326.31 248.48 325.56 249.77 323.04 249.77C320.88 249.77 319.38 248.93 319.38 247.4ZM328.47 227.9H325.77C325.83 228.41 325.89 229.22 325.89 229.73V233.45C324.96 233.48 324 233.51 323.07 233.51C321.27 233.51 319.68 233.42 317.97 233.27V235.52C319.74 235.64 321.3 235.73 323.01 235.73C323.97 235.73 324.93 235.7 325.89 235.67C325.92 238.13 326.1 241.07 326.19 243.38C325.32 243.2 324.39 243.11 323.4 243.11C319.47 243.11 317.22 245.12 317.22 247.64C317.22 250.34 319.44 251.93 323.46 251.93C327.51 251.93 328.65 249.56 328.65 247.1C328.65 246.89 328.65 246.68 328.65 246.47C330.18 247.34 331.68 248.54 333.18 249.95L334.5 247.94C332.94 246.53 330.99 245.03 328.56 244.07C328.44 241.55 328.23 238.55 328.2 235.52C330 235.4 331.74 235.22 333.39 234.95V232.64C331.8 232.94 330.03 233.18 328.2 233.33C328.23 231.92 328.26 230.51 328.29 229.7C328.32 229.1 328.38 228.5 328.47 227.9ZM313.65 228.08L311.01 227.87C311.01 228.5 310.92 229.31 310.83 230C310.44 232.49 309.45 238.22 309.45 242.63C309.45 246.68 309.99 249.98 310.59 252.11L312.69 251.96C312.66 251.63 312.63 251.21 312.63 250.91C312.6 250.55 312.66 249.98 312.75 249.56C313.05 248.09 314.16 245.03 314.88 242.93L313.65 241.97C313.14 243.2 312.42 245.03 311.94 246.38C311.73 244.91 311.64 243.65 311.64 242.21C311.64 238.85 312.54 232.91 313.14 230.12C313.23 229.58 313.47 228.59 313.65 228.08ZM363.87 231.98L361.98 230.45C361.56 230.6 360.87 230.69 360.03 230.69H342.15C341.1 230.69 339.93 230.57 339.09 230.45V233.15C339.69 233.09 340.98 232.97 342.15 232.97H359.79C358.29 235.67 354.84 240.08 350.43 243.38C348.39 241.55 345.93 239.54 344.82 238.73L342.87 240.32C344.46 241.43 347.94 244.43 349.74 246.23C351.63 248.18 354.03 250.82 355.14 252.35L357.33 250.61C356.13 249.14 354 246.89 352.2 245.09C357.15 241.31 360.96 236.42 363.12 232.91C363.3 232.64 363.57 232.31 363.87 231.98ZM369.06 238.01V240.95C369.99 240.86 371.58 240.8 373.23 240.8H389.7C391.05 240.8 392.31 240.92 392.91 240.95V238.01C392.25 238.07 391.17 238.16 389.67 238.16H373.23C371.55 238.16 369.96 238.07 369.06 238.01ZM405.18 247.13C405.18 250.1 406.2 251.54 411.78 251.54C415.53 251.54 418.53 251.33 421.2 250.94L421.32 248.36C418.32 248.93 415.44 249.23 411.96 249.23C408.39 249.23 407.61 248.57 407.61 246.5V237.56C412.92 236.48 418.44 235.37 418.95 235.28C418.05 237.08 415.86 240.38 413.61 242.42L415.71 243.68C418.11 241.19 420.48 237.44 421.86 234.95C422.07 234.56 422.37 234.05 422.58 233.75L420.81 232.37C420.45 232.58 419.88 232.76 419.22 232.91C417.96 233.18 412.71 234.26 407.61 235.25V230.57C407.61 229.7 407.67 228.68 407.82 227.81H404.97C405.12 228.68 405.18 229.67 405.18 230.57V235.7C402 236.3 399.15 236.81 397.8 236.99L398.25 239.48C399.48 239.21 402.15 238.67 405.18 238.04V247.13ZM441.72 250.37L443.31 251.69C443.52 251.51 443.85 251.27 444.33 251C447.81 249.29 451.98 246.2 454.56 242.69L453.15 240.65C450.84 244.04 447.15 246.77 444.39 248.03V230.72C444.39 229.58 444.48 228.71 444.51 228.5H441.75C441.78 228.71 441.93 229.58 441.93 230.72V248.69C441.93 249.29 441.84 249.89 441.72 250.37ZM427.98 250.22L430.23 251.75C432.75 249.65 434.67 246.71 435.57 243.5C436.38 240.5 436.5 234.08 436.5 230.75C436.5 229.85 436.62 228.95 436.65 228.59H433.89C434.01 229.22 434.1 229.88 434.1 230.78C434.1 234.11 434.07 240.11 433.2 242.84C432.3 245.75 430.5 248.42 427.98 250.22ZM458.37 231.26L458.64 233.87C461.88 233.18 469.53 232.46 472.74 232.1C469.98 233.75 467.13 237.56 467.13 242.24C467.13 248.93 473.46 251.9 479.01 252.11L479.88 249.62C474.99 249.44 469.53 247.58 469.53 241.73C469.53 238.16 472.14 233.6 476.4 232.22C477.93 231.77 480.57 231.74 482.28 231.74V229.34C480.27 229.43 477.45 229.61 474.18 229.88C468.66 230.33 462.99 230.9 461.04 231.11C460.47 231.17 459.51 231.23 458.37 231.26ZM477.96 235.43L476.43 236.09C477.33 237.32 478.2 238.88 478.89 240.32L480.42 239.6C479.79 238.28 478.65 236.42 477.96 235.43ZM481.23 234.17L479.76 234.86C480.69 236.12 481.56 237.59 482.28 239.06L483.84 238.31C483.15 236.99 481.95 235.16 481.23 234.17ZM504.81 227.24H502.08C502.11 227.48 502.23 228.35 502.26 229.13C502.29 229.55 502.32 230.27 502.32 231.11C497.85 231.17 492.21 231.35 488.88 231.41L488.94 233.72C492.69 233.45 497.79 233.24 502.35 233.21C502.38 234.26 502.38 235.34 502.38 236.24C501.78 236.03 501.12 235.91 500.37 235.91C497.52 235.91 495.09 238.16 495.09 241.13C495.09 244.4 497.49 246.14 500.01 246.14C501.03 246.14 501.9 245.87 502.62 245.33C501.42 248.06 498.66 249.74 494.67 250.64L496.68 252.62C503.67 250.52 505.65 246.02 505.65 241.97C505.65 240.47 505.32 239.15 504.69 238.13C504.66 236.75 504.63 234.89 504.63 233.18C504.78 233.18 504.9 233.18 505.05 233.18C509.43 233.18 512.16 233.24 513.84 233.33L513.87 231.11C512.43 231.11 508.74 231.08 505.08 231.08C504.93 231.08 504.78 231.08 504.63 231.08C504.63 230.27 504.66 229.58 504.66 229.13C504.69 228.74 504.75 227.57 504.81 227.24ZM497.34 241.1C497.34 239.15 498.81 237.92 500.37 237.92C501.54 237.92 502.56 238.49 503.04 239.81C503.31 242.66 502.17 244.07 500.4 244.07C498.72 244.07 497.34 242.96 497.34 241.1Z" fill="black"/>
</g>
<g filter="url(#filter1_d)">
<path d="M24.38 308H29.69V280.1H24.38V291.935H16.37V280.1H11.105V308H16.37V295.895H24.38V308ZM53.6212 308.54L54.1162 304.355C44.2162 304.13 40.8412 302.645 40.3012 298.145L54.7462 297.74C55.5562 289.955 52.5412 285.005 46.2412 285.005C40.3462 285.005 35.3062 290.315 35.3062 297.2C35.3062 304.49 39.1312 308.675 53.6212 308.54ZM45.3412 289.1C48.4462 289.1 49.8412 291.305 49.9762 294.86C47.1862 294.95 42.6412 295.085 40.2562 295.175C40.4812 290.99 42.2812 289.1 45.3412 289.1ZM60.6774 315.965C68.7324 315.245 71.1174 313.13 74.3574 304.085C76.8324 297.425 79.0374 290.675 80.6574 285.59H75.8424C75.2574 287.075 72.1974 297.74 70.8024 302.06H70.3524C68.2824 297.11 65.8974 290.36 64.0524 285.41L58.9674 285.77C60.6774 290.225 65.3124 302.15 67.4274 306.875L68.2824 307.19C66.9774 310.205 65.5824 310.7 60.2724 311.465L60.6774 315.965ZM124.065 280.1C124.065 280.1 119.79 295.49 119.475 296.705H119.295C118.98 295.49 114.66 280.1 114.66 280.1H109.62V308H114.255L113.985 289.37H114.165L117.855 302.465H120.69L124.335 289.37H124.515L124.245 308H129.015V280.1H124.065ZM134.901 315.965C142.956 315.245 145.341 313.13 148.581 304.085C151.056 297.425 153.261 290.675 154.881 285.59H150.066C149.481 287.075 146.421 297.74 145.026 302.06H144.576C142.506 297.11 140.121 290.36 138.276 285.41L133.191 285.77C134.901 290.225 139.536 302.15 141.651 306.875L142.506 307.19C141.201 310.205 139.806 310.7 134.496 311.465L134.901 315.965ZM194.058 289.28C196.353 289.28 197.838 290.54 197.838 294.5V308H202.833V292.745C202.833 287.3 200.313 285.005 196.398 285.005C193.293 285.005 190.998 286.445 189.198 288.065L188.928 285.5L184.293 285.77C184.563 290.855 184.653 297.92 184.653 308H189.693C189.693 300.8 189.603 294.95 189.513 290.765C190.908 289.865 192.348 289.28 194.058 289.28ZM217.315 304.715C215.02 304.715 213.535 303.545 213.535 301.565C213.535 299.09 215.38 297.605 222.31 298.325C222.355 300.17 222.355 301.655 222.445 302.96C220.87 304.04 219.025 304.715 217.315 304.715ZM223.075 308.135L227.665 307.91C227.44 304.805 227.26 301.25 227.26 296.885C227.26 288.155 223.885 285.365 210.385 285.14L209.89 289.37C219.52 289.685 221.995 290.72 222.265 295.04C212.815 294.635 208.585 298.235 208.585 302.735C208.585 306.38 211.33 308.585 215.335 308.585C218.575 308.585 220.96 307.1 222.67 305.435C222.805 306.515 223.03 307.955 223.075 308.135ZM239.806 289.28C240.931 289.28 241.426 289.955 241.426 291.845V308H244.981V290.315C245.656 289.64 246.376 289.28 247.186 289.28C248.356 289.28 248.896 289.955 248.896 291.89V308H253.531V290.135C253.531 286.805 252.271 285.005 249.706 285.005C247.726 285.005 246.151 286.085 244.936 287.435C244.486 285.905 243.451 285.005 241.696 285.005C239.851 285.005 238.276 286.085 237.061 287.435L236.881 285.5L232.606 285.77C232.786 290.855 232.786 297.92 232.786 308H237.421C237.421 300.62 237.376 294.635 237.286 290.45C238.096 289.685 238.951 289.28 239.806 289.28ZM276.292 308.54L276.787 304.355C266.887 304.13 263.512 302.645 262.972 298.145L277.417 297.74C278.227 289.955 275.212 285.005 268.912 285.005C263.017 285.005 257.977 290.315 257.977 297.2C257.977 304.49 261.802 308.675 276.292 308.54ZM268.012 289.1C271.117 289.1 272.512 291.305 272.647 294.86C269.857 294.95 265.312 295.085 262.927 295.175C263.152 290.99 264.952 289.1 268.012 289.1ZM320.645 282.215L321.05 275.915H315.785L315.47 282.215H320.645ZM328.16 308L328.565 304.22H320.78V285.59H308.27L307.865 289.145L315.74 289.505V304.22H307.955V308H328.16ZM349.571 285.365C337.826 284.555 333.686 288.245 333.686 292.115C333.686 297.74 345.656 298.55 345.656 301.745C345.656 303.5 342.911 304.535 334.001 303.95L333.821 308.225C346.736 308.81 350.876 305.345 350.876 301.475C350.876 295.85 338.861 294.545 338.861 291.53C338.861 289.955 341.426 288.965 349.751 289.685L349.571 285.365ZM396.218 280.1C396.218 280.1 391.943 295.49 391.628 296.705H391.448C391.133 295.49 386.813 280.1 386.813 280.1H381.773V308H386.408L386.138 289.37H386.318L390.008 302.465H392.843L396.488 289.37H396.668L396.398 308H401.168V280.1H396.218ZM415.244 304.715C412.949 304.715 411.464 303.545 411.464 301.565C411.464 299.09 413.309 297.605 420.239 298.325C420.284 300.17 420.284 301.655 420.374 302.96C418.799 304.04 416.954 304.715 415.244 304.715ZM421.004 308.135L425.594 307.91C425.369 304.805 425.189 301.25 425.189 296.885C425.189 288.155 421.814 285.365 408.314 285.14L407.819 289.37C417.449 289.685 419.924 290.72 420.194 295.04C410.744 294.635 406.514 298.235 406.514 302.735C406.514 306.38 409.259 308.585 413.264 308.585C416.504 308.585 418.889 307.1 420.599 305.435C420.734 306.515 420.959 307.955 421.004 308.135ZM448.356 308L448.761 304.22H441.966C441.876 299.45 441.831 295.67 441.741 292.295C444.261 291.08 447.366 290.27 451.236 290.045L451.011 284.735C446.781 285.275 443.586 287.12 441.561 289.46C441.471 288.335 441.201 285.815 441.156 285.59H431.886L431.481 289.145L436.791 289.505C436.881 293.465 436.926 298.145 437.016 304.22H431.571V308H448.356ZM456.582 297.155C456.582 304.085 460.272 309.35 474.267 308.18L474.762 304.04C464.682 304.625 461.532 302.285 461.532 296.525C461.532 292.205 463.242 289.64 474.447 290L474.132 285.275C460.722 285.32 456.582 290.9 456.582 297.155ZM498.963 308.54L499.458 304.355C489.558 304.13 486.183 302.645 485.643 298.145L500.088 297.74C500.898 289.955 497.883 285.005 491.583 285.005C485.688 285.005 480.648 290.315 480.648 297.2C480.648 304.49 484.473 308.675 498.963 308.54ZM490.683 289.1C493.788 289.1 495.183 291.305 495.318 294.86C492.528 294.95 487.983 295.085 485.598 295.175C485.823 290.99 487.623 289.1 490.683 289.1ZM524.424 308L524.829 304.22H517.899V276.545H506.604L506.154 280.1L512.859 280.46V304.22H505.929V308H524.424ZM549.165 308L549.57 304.22H542.64V276.545H531.345L530.895 280.1L537.6 280.46V304.22H530.67V308H549.165Z" fill="black"/>
</g>
<path d="M18 331H553" stroke="#384357" stroke-width="4"/>
<defs>
<filter id="filter0_d" x="37.19" y="225.77" width="484.68" height="39.57" filterUnits="userSpaceOnUse" color-interpolation-filters="sRGB">
<feFlood flood-opacity="0" result="BackgroundImageFix"/>
<feColorMatrix in="SourceAlpha" type="matrix" values="0 0 0 0 0 0 0 0 0 0 0 0 0 0 0 0 0 0 127 0"/>
<feOffset dx="2" dy="6"/>
<feGaussianBlur stdDeviation="3"/>
<feColorMatrix type="matrix" values="0 0 0 0 0.443137 0 0 0 0 0.501961 0 0 0 0 0.588235 0 0 0 1 0"/>
<feBlend mode="normal" in2="BackgroundImageFix" result="effect1_dropShadow"/>
<feBlend mode="normal" in="SourceGraphic" in2="effect1_dropShadow" result="shape"/>
</filter>
<filter id="filter1_d" x="9.10501" y="274.915" width="550.465" height="52.05" filterUnits="userSpaceOnUse" color-interpolation-filters="sRGB">
<feFlood flood-opacity="0" result="BackgroundImageFix"/>
<feColorMatrix in="SourceAlpha" type="matrix" values="0 0 0 0 0 0 0 0 0 0 0 0 0 0 0 0 0 0 127 0"/>
<feOffset dx="4" dy="5"/>
<feGaussianBlur stdDeviation="3"/>
<feColorMatrix type="matrix" values="0 0 0 0 0.443137 0 0 0 0 0.501961 0 0 0 0 0.588235 0 0 0 1 0"/>
<feBlend mode="normal" in2="BackgroundImageFix" result="effect1_dropShadow"/>
<feBlend mode="normal" in="SourceGraphic" in2="effect1_dropShadow" result="shape"/>
</filter>
</defs>
</svg>
