<svg width="799" height="252" viewBox="0 0 799 252" fill="none" xmlns="http://www.w3.org/2000/svg">
<g clip-path="url(#clip0)">
<circle cx="405.5" cy="157.5" r="280.5" fill="#81A7FF"/>
<g filter="url(#filter0_d)">
<path d="M168.05 106.94V109.4C170.42 109.58 172.97 109.73 175.97 109.73C178.76 109.73 182.03 109.52 184.07 109.37V106.91C181.91 107.12 178.85 107.33 175.97 107.33C172.97 107.33 170.21 107.21 168.05 106.94ZM169.25 119.03L166.82 118.79C166.55 120.02 166.19 121.43 166.19 122.96C166.19 126.74 169.73 128.75 175.82 128.75C180.08 128.75 183.89 128.3 186.05 127.7L186.02 125.12C183.77 125.87 179.9 126.32 175.76 126.32C170.96 126.32 168.62 124.73 168.62 122.45C168.62 121.34 168.86 120.23 169.25 119.03ZM207.41 105.74L204.77 104.66C204.41 105.53 204.02 106.28 203.66 106.97C202.04 109.88 195.47 122.18 193.28 128.24L195.86 129.14C196.25 127.64 197.54 124.1 198.44 122.3C199.61 119.96 201.86 117.5 204.29 117.5C205.64 117.5 206.39 118.28 206.48 119.6C206.57 121.25 206.51 123.56 206.6 125.3C206.72 127.07 207.74 129.11 210.95 129.11C215.3 129.11 217.82 125.75 219.41 120.92L217.43 119.3C216.65 122.48 214.67 126.62 211.34 126.62C210.02 126.62 209 125.99 208.91 124.49C208.82 123.02 208.85 120.71 208.79 118.94C208.7 116.57 207.26 115.31 205.28 115.31C203.84 115.31 202.25 115.85 200.81 117.17C202.37 114.26 205.13 109.28 206.45 107.21C206.81 106.64 207.14 106.1 207.41 105.74ZM234.68 107.75V110.15C237.98 110.51 243.8 110.51 247.01 110.15V107.72C244.01 108.17 237.95 108.29 234.68 107.75ZM235.85 119.96L233.69 119.75C233.36 121.22 233.18 122.27 233.18 123.29C233.18 126.11 235.43 127.79 240.47 127.79C243.56 127.79 246.08 127.52 247.97 127.16L247.91 124.64C245.48 125.18 243.17 125.42 240.47 125.42C236.39 125.42 235.4 124.1 235.4 122.72C235.4 121.91 235.55 121.07 235.85 119.96ZM228.95 105.44L226.28 105.2C226.28 105.86 226.19 106.64 226.07 107.33C225.71 109.82 224.72 114.95 224.72 119.36C224.72 123.41 225.23 126.86 225.83 128.99L227.99 128.84C227.96 128.54 227.93 128.12 227.9 127.79C227.87 127.46 227.96 126.89 228.05 126.44C228.32 125.03 229.4 121.85 230.18 119.72L228.92 118.76C228.41 119.99 227.69 121.79 227.18 123.14C227 121.67 226.91 120.41 226.91 118.94C226.91 115.58 227.84 110.21 228.41 107.45C228.53 106.91 228.8 105.95 228.95 105.44ZM263.69 104.51L261.02 104.36C261.05 105.2 261.02 105.89 260.9 106.85C260.84 107.39 260.72 108.05 260.57 108.83C260.39 108.83 260.24 108.83 260.06 108.83C258.26 108.83 255.95 108.59 254.36 108.32L254.39 110.66C256.13 110.84 258.05 110.96 260.09 110.96H260.12C259.37 114.35 258.17 118.64 256.64 121.64L258.89 122.45C259.16 121.91 259.43 121.52 259.82 121.07C261.8 118.67 265.1 117.44 268.67 117.44C272.18 117.44 274.04 119.18 274.04 121.43C274.04 126.35 267.29 127.55 260.36 126.59L260.96 128.96C270.08 129.95 276.5 127.61 276.5 121.37C276.5 117.86 273.71 115.43 268.94 115.43C265.79 115.43 263.09 116.15 260.48 117.98C261.14 116.27 261.83 113.42 262.37 110.9C266.27 110.75 271.04 110.24 274.55 109.64L274.52 107.33C270.83 108.14 266.42 108.62 262.82 108.77C262.97 108.08 263.06 107.51 263.15 107.03C263.3 106.25 263.48 105.32 263.69 104.51ZM294.38 124.4C294.38 122.93 295.97 121.97 298.22 121.97C299.3 121.97 300.32 122.15 301.28 122.45C301.31 122.84 301.31 123.2 301.31 123.5C301.31 125.48 300.56 126.77 298.04 126.77C295.88 126.77 294.38 125.93 294.38 124.4ZM303.47 104.9H300.77C300.83 105.41 300.89 106.22 300.89 106.73V110.45C299.96 110.48 299 110.51 298.07 110.51C296.27 110.51 294.68 110.42 292.97 110.27V112.52C294.74 112.64 296.3 112.73 298.01 112.73C298.97 112.73 299.93 112.7 300.89 112.67C300.92 115.13 301.1 118.07 301.19 120.38C300.32 120.2 299.39 120.11 298.4 120.11C294.47 120.11 292.22 122.12 292.22 124.64C292.22 127.34 294.44 128.93 298.46 128.93C302.51 128.93 303.65 126.56 303.65 124.1C303.65 123.89 303.65 123.68 303.65 123.47C305.18 124.34 306.68 125.54 308.18 126.95L309.5 124.94C307.94 123.53 305.99 122.03 303.56 121.07C303.44 118.55 303.23 115.55 303.2 112.52C305 112.4 306.74 112.22 308.39 111.95V109.64C306.8 109.94 305.03 110.18 303.2 110.33C303.23 108.92 303.26 107.51 303.29 106.7C303.32 106.1 303.38 105.5 303.47 104.9ZM288.65 105.08L286.01 104.87C286.01 105.5 285.92 106.31 285.83 107C285.44 109.49 284.45 115.22 284.45 119.63C284.45 123.68 284.99 126.98 285.59 129.11L287.69 128.96C287.66 128.63 287.63 128.21 287.63 127.91C287.6 127.55 287.66 126.98 287.75 126.56C288.05 125.09 289.16 122.03 289.88 119.93L288.65 118.97C288.14 120.2 287.42 122.03 286.94 123.38C286.73 121.91 286.64 120.65 286.64 119.21C286.64 115.85 287.54 109.91 288.14 107.12C288.23 106.58 288.47 105.59 288.65 105.08ZM325.73 120.29C324.98 119.54 321.71 116.48 320.6 115.55V113.75H325.85V111.62H320.6V106.28C322.4 105.83 324.11 105.32 325.46 104.75L323.81 103.1C321.26 104.27 316.58 105.29 312.56 105.92C312.83 106.4 313.13 107.15 313.25 107.66C314.9 107.42 316.67 107.12 318.41 106.76V111.62H312.62V113.75H317.99C316.58 117.29 314.15 121.31 311.99 123.47C312.35 124.04 312.92 124.94 313.16 125.57C314.99 123.53 316.94 120.26 318.41 116.99V130.19H320.6V117.83C321.95 119.21 323.66 121.04 324.35 122L325.73 120.29ZM339.83 129.53C339.17 126.32 337.13 121.31 335.03 117.47L332.93 118.13C334.1 120.32 335.24 122.9 336.08 125.3C333.2 125.6 330.32 125.9 327.77 126.17C329.51 119.96 331.46 110.99 332.63 103.94L330.14 103.52C329.18 110.6 327.2 120.17 325.46 126.41C324.41 126.5 323.48 126.59 322.64 126.68L323.18 128.99C326.78 128.57 331.85 127.94 336.77 127.28C337.1 128.39 337.37 129.41 337.52 130.28L339.83 129.53ZM368.24 117.5C368.24 111.41 363.77 106.46 356.75 106.46C349.43 106.46 343.64 112.16 343.64 118.67C343.64 123.62 346.31 126.68 348.98 126.68C351.77 126.68 354.14 123.53 355.97 117.35C356.81 114.56 357.38 111.5 357.77 108.71C362.87 109.13 365.78 112.88 365.78 117.41C365.78 122.6 362 125.45 358.16 126.32C357.47 126.47 356.54 126.62 355.58 126.71L356.99 128.93C364.1 128 368.24 123.8 368.24 117.5ZM345.98 118.46C345.98 114.38 349.52 109.46 355.28 108.74C354.95 111.5 354.35 114.35 353.6 116.84C352.07 121.91 350.48 123.92 349.07 123.92C347.72 123.92 345.98 122.24 345.98 118.46ZM382.97 127.04V119.66H395.27V127.04H382.97ZM390.41 107.9C389.12 110.51 387.23 112.88 385.01 114.92C383.63 113.42 381.35 111.5 379.34 110.09C380.12 109.4 380.81 108.65 381.47 107.9H390.41ZM397.52 117.62H385.25C388.73 114.68 391.67 110.99 393.44 106.55L391.97 105.77L391.55 105.89H383.09C383.72 105.02 384.29 104.15 384.8 103.31L382.31 102.8C380.57 106.04 377.15 109.88 372.23 112.55C372.74 112.94 373.49 113.75 373.79 114.26C375.23 113.42 376.52 112.49 377.72 111.53C379.7 113 381.89 114.92 383.21 116.45C379.82 119.12 375.89 121.1 372.08 122.21C372.56 122.63 373.13 123.56 373.4 124.16C375.89 123.35 378.38 122.21 380.78 120.8V130.28H382.97V129.08H395.27V130.34H397.52V117.62ZM406.7 121.94V118.94H413.33V121.94H406.7ZM413.33 114.26V117.2H406.7V114.26H413.33ZM415.49 112.34H404.57V130.16H406.7V123.71H413.33V127.7C413.33 128.09 413.21 128.21 412.76 128.24C412.37 128.27 411.02 128.27 409.52 128.21C409.82 128.75 410.12 129.59 410.24 130.16C412.28 130.16 413.57 130.16 414.41 129.8C415.22 129.44 415.49 128.87 415.49 127.73V112.34ZM425.15 127.49C425.15 127.94 425 128.06 424.49 128.09C424.04 128.12 422.42 128.12 420.59 128.06C420.92 128.66 421.28 129.59 421.4 130.19C423.68 130.22 425.18 130.16 426.14 129.8C427.04 129.44 427.34 128.84 427.34 127.49V111.74H425.15V127.49ZM421.19 112.64H419.12V124.82H421.19V112.64ZM422.33 107.63C423.2 106.4 424.19 104.93 425 103.55L422.66 102.77C422 104.21 420.86 106.19 419.84 107.63H410.9L412.37 107.06C411.8 105.89 410.54 104.12 409.37 102.86L407.33 103.64C408.35 104.84 409.52 106.46 410.06 107.63H402.71V109.67H429.32V107.63H422.33ZM444.38 124.4C444.38 122.93 445.97 121.97 448.22 121.97C449.3 121.97 450.32 122.15 451.28 122.45C451.31 122.84 451.31 123.2 451.31 123.5C451.31 125.48 450.56 126.77 448.04 126.77C445.88 126.77 444.38 125.93 444.38 124.4ZM453.47 104.9H450.77C450.83 105.41 450.89 106.22 450.89 106.73V110.45C449.96 110.48 449 110.51 448.07 110.51C446.27 110.51 444.68 110.42 442.97 110.27V112.52C444.74 112.64 446.3 112.73 448.01 112.73C448.97 112.73 449.93 112.7 450.89 112.67C450.92 115.13 451.1 118.07 451.19 120.38C450.32 120.2 449.39 120.11 448.4 120.11C444.47 120.11 442.22 122.12 442.22 124.64C442.22 127.34 444.44 128.93 448.46 128.93C452.51 128.93 453.65 126.56 453.65 124.1C453.65 123.89 453.65 123.68 453.65 123.47C455.18 124.34 456.68 125.54 458.18 126.95L459.5 124.94C457.94 123.53 455.99 122.03 453.56 121.07C453.44 118.55 453.23 115.55 453.2 112.52C455 112.4 456.74 112.22 458.39 111.95V109.64C456.8 109.94 455.03 110.18 453.2 110.33C453.23 108.92 453.26 107.51 453.29 106.7C453.32 106.1 453.38 105.5 453.47 104.9ZM438.65 105.08L436.01 104.87C436.01 105.5 435.92 106.31 435.83 107C435.44 109.49 434.45 115.22 434.45 119.63C434.45 123.68 434.99 126.98 435.59 129.11L437.69 128.96C437.66 128.63 437.63 128.21 437.63 127.91C437.6 127.55 437.66 126.98 437.75 126.56C438.05 125.09 439.16 122.03 439.88 119.93L438.65 118.97C438.14 120.2 437.42 122.03 436.94 123.38C436.73 121.91 436.64 120.65 436.64 119.21C436.64 115.85 437.54 109.91 438.14 107.12C438.23 106.58 438.47 105.59 438.65 105.08ZM488.87 108.98L486.98 107.45C486.56 107.6 485.87 107.69 485.03 107.69H467.15C466.1 107.69 464.93 107.57 464.09 107.45V110.15C464.69 110.09 465.98 109.97 467.15 109.97H484.79C483.29 112.67 479.84 117.08 475.43 120.38C473.39 118.55 470.93 116.54 469.82 115.73L467.87 117.32C469.46 118.43 472.94 121.43 474.74 123.23C476.63 125.18 479.03 127.82 480.14 129.35L482.33 127.61C481.13 126.14 479 123.89 477.2 122.09C482.15 118.31 485.96 113.42 488.12 109.91C488.3 109.64 488.57 109.31 488.87 108.98ZM494.06 115.01V117.95C494.99 117.86 496.58 117.8 498.23 117.8H514.7C516.05 117.8 517.31 117.92 517.91 117.95V115.01C517.25 115.07 516.17 115.16 514.67 115.16H498.23C496.55 115.16 494.96 115.07 494.06 115.01ZM530.18 124.13C530.18 127.1 531.2 128.54 536.78 128.54C540.53 128.54 543.53 128.33 546.2 127.94L546.32 125.36C543.32 125.93 540.44 126.23 536.96 126.23C533.39 126.23 532.61 125.57 532.61 123.5V114.56C537.92 113.48 543.44 112.37 543.95 112.28C543.05 114.08 540.86 117.38 538.61 119.42L540.71 120.68C543.11 118.19 545.48 114.44 546.86 111.95C547.07 111.56 547.37 111.05 547.58 110.75L545.81 109.37C545.45 109.58 544.88 109.76 544.22 109.91C542.96 110.18 537.71 111.26 532.61 112.25V107.57C532.61 106.7 532.67 105.68 532.82 104.81H529.97C530.12 105.68 530.18 106.67 530.18 107.57V112.7C527 113.3 524.15 113.81 522.8 113.99L523.25 116.48C524.48 116.21 527.15 115.67 530.18 115.04V124.13ZM566.72 127.37L568.31 128.69C568.52 128.51 568.85 128.27 569.33 128C572.81 126.29 576.98 123.2 579.56 119.69L578.15 117.65C575.84 121.04 572.15 123.77 569.39 125.03V107.72C569.39 106.58 569.48 105.71 569.51 105.5H566.75C566.78 105.71 566.93 106.58 566.93 107.72V125.69C566.93 126.29 566.84 126.89 566.72 127.37ZM552.98 127.22L555.23 128.75C557.75 126.65 559.67 123.71 560.57 120.5C561.38 117.5 561.5 111.08 561.5 107.75C561.5 106.85 561.62 105.95 561.65 105.59H558.89C559.01 106.22 559.1 106.88 559.1 107.78C559.1 111.11 559.07 117.11 558.2 119.84C557.3 122.75 555.5 125.42 552.98 127.22ZM583.37 108.26L583.64 110.87C586.88 110.18 594.53 109.46 597.74 109.1C594.98 110.75 592.13 114.56 592.13 119.24C592.13 125.93 598.46 128.9 604.01 129.11L604.88 126.62C599.99 126.44 594.53 124.58 594.53 118.73C594.53 115.16 597.14 110.6 601.4 109.22C602.93 108.77 605.57 108.74 607.28 108.74V106.34C605.27 106.43 602.45 106.61 599.18 106.88C593.66 107.33 587.99 107.9 586.04 108.11C585.47 108.17 584.51 108.23 583.37 108.26ZM602.96 112.43L601.43 113.09C602.33 114.32 603.2 115.88 603.89 117.32L605.42 116.6C604.79 115.28 603.65 113.42 602.96 112.43ZM606.23 111.17L604.76 111.86C605.69 113.12 606.56 114.59 607.28 116.06L608.84 115.31C608.15 113.99 606.95 112.16 606.23 111.17ZM629.81 104.24H627.08C627.11 104.48 627.23 105.35 627.26 106.13C627.29 106.55 627.32 107.27 627.32 108.11C622.85 108.17 617.21 108.35 613.88 108.41L613.94 110.72C617.69 110.45 622.79 110.24 627.35 110.21C627.38 111.26 627.38 112.34 627.38 113.24C626.78 113.03 626.12 112.91 625.37 112.91C622.52 112.91 620.09 115.16 620.09 118.13C620.09 121.4 622.49 123.14 625.01 123.14C626.03 123.14 626.9 122.87 627.62 122.33C626.42 125.06 623.66 126.74 619.67 127.64L621.68 129.62C628.67 127.52 630.65 123.02 630.65 118.97C630.65 117.47 630.32 116.15 629.69 115.13C629.66 113.75 629.63 111.89 629.63 110.18C629.78 110.18 629.9 110.18 630.05 110.18C634.43 110.18 637.16 110.24 638.84 110.33L638.87 108.11C637.43 108.11 633.74 108.08 630.08 108.08C629.93 108.08 629.78 108.08 629.63 108.08C629.63 107.27 629.66 106.58 629.66 106.13C629.69 105.74 629.75 104.57 629.81 104.24ZM622.34 118.1C622.34 116.15 623.81 114.92 625.37 114.92C626.54 114.92 627.56 115.49 628.04 116.81C628.31 119.66 627.17 121.07 625.4 121.07C623.72 121.07 622.34 119.96 622.34 118.1Z" fill="black"/>
</g>
<g filter="url(#filter1_d)">
<path d="M149.38 185H154.69V157.1H149.38V168.935H141.37V157.1H136.105V185H141.37V172.895H149.38V185ZM178.621 185.54L179.116 181.355C169.216 181.13 165.841 179.645 165.301 175.145L179.746 174.74C180.556 166.955 177.541 162.005 171.241 162.005C165.346 162.005 160.306 167.315 160.306 174.2C160.306 181.49 164.131 185.675 178.621 185.54ZM170.341 166.1C173.446 166.1 174.841 168.305 174.976 171.86C172.186 171.95 167.641 172.085 165.256 172.175C165.481 167.99 167.281 166.1 170.341 166.1ZM185.677 192.965C193.732 192.245 196.117 190.13 199.357 181.085C201.832 174.425 204.037 167.675 205.657 162.59H200.842C200.257 164.075 197.197 174.74 195.802 179.06H195.352C193.282 174.11 190.897 167.36 189.052 162.41L183.967 162.77C185.677 167.225 190.312 179.15 192.427 183.875L193.282 184.19C191.977 187.205 190.582 187.7 185.272 188.465L185.677 192.965ZM249.065 157.1C249.065 157.1 244.79 172.49 244.475 173.705H244.295C243.98 172.49 239.66 157.1 239.66 157.1H234.62V185H239.255L238.985 166.37H239.165L242.855 179.465H245.69L249.335 166.37H249.515L249.245 185H254.015V157.1H249.065ZM259.901 192.965C267.956 192.245 270.341 190.13 273.581 181.085C276.056 174.425 278.261 167.675 279.881 162.59H275.066C274.481 164.075 271.421 174.74 270.026 179.06H269.576C267.506 174.11 265.121 167.36 263.276 162.41L258.191 162.77C259.901 167.225 264.536 179.15 266.651 183.875L267.506 184.19C266.201 187.205 264.806 187.7 259.496 188.465L259.901 192.965ZM319.058 166.28C321.353 166.28 322.838 167.54 322.838 171.5V185H327.833V169.745C327.833 164.3 325.313 162.005 321.398 162.005C318.293 162.005 315.998 163.445 314.198 165.065L313.928 162.5L309.293 162.77C309.563 167.855 309.653 174.92 309.653 185H314.693C314.693 177.8 314.603 171.95 314.513 167.765C315.908 166.865 317.348 166.28 319.058 166.28ZM342.315 181.715C340.02 181.715 338.535 180.545 338.535 178.565C338.535 176.09 340.38 174.605 347.31 175.325C347.355 177.17 347.355 178.655 347.445 179.96C345.87 181.04 344.025 181.715 342.315 181.715ZM348.075 185.135L352.665 184.91C352.44 181.805 352.26 178.25 352.26 173.885C352.26 165.155 348.885 162.365 335.385 162.14L334.89 166.37C344.52 166.685 346.995 167.72 347.265 172.04C337.815 171.635 333.585 175.235 333.585 179.735C333.585 183.38 336.33 185.585 340.335 185.585C343.575 185.585 345.96 184.1 347.67 182.435C347.805 183.515 348.03 184.955 348.075 185.135ZM364.806 166.28C365.931 166.28 366.426 166.955 366.426 168.845V185H369.981V167.315C370.656 166.64 371.376 166.28 372.186 166.28C373.356 166.28 373.896 166.955 373.896 168.89V185H378.531V167.135C378.531 163.805 377.271 162.005 374.706 162.005C372.726 162.005 371.151 163.085 369.936 164.435C369.486 162.905 368.451 162.005 366.696 162.005C364.851 162.005 363.276 163.085 362.061 164.435L361.881 162.5L357.606 162.77C357.786 167.855 357.786 174.92 357.786 185H362.421C362.421 177.62 362.376 171.635 362.286 167.45C363.096 166.685 363.951 166.28 364.806 166.28ZM401.292 185.54L401.787 181.355C391.887 181.13 388.512 179.645 387.972 175.145L402.417 174.74C403.227 166.955 400.212 162.005 393.912 162.005C388.017 162.005 382.977 167.315 382.977 174.2C382.977 181.49 386.802 185.675 401.292 185.54ZM393.012 166.1C396.117 166.1 397.512 168.305 397.647 171.86C394.857 171.95 390.312 172.085 387.927 172.175C388.152 167.99 389.952 166.1 393.012 166.1ZM445.645 159.215L446.05 152.915H440.785L440.47 159.215H445.645ZM453.16 185L453.565 181.22H445.78V162.59H433.27L432.865 166.145L440.74 166.505V181.22H432.955V185H453.16ZM474.571 162.365C462.826 161.555 458.686 165.245 458.686 169.115C458.686 174.74 470.656 175.55 470.656 178.745C470.656 180.5 467.911 181.535 459.001 180.95L458.821 185.225C471.736 185.81 475.876 182.345 475.876 178.475C475.876 172.85 463.861 171.545 463.861 168.53C463.861 166.955 466.426 165.965 474.751 166.685L474.571 162.365ZM521.218 157.1C521.218 157.1 516.943 172.49 516.628 173.705H516.448C516.133 172.49 511.813 157.1 511.813 157.1H506.773V185H511.408L511.138 166.37H511.318L515.008 179.465H517.843L521.488 166.37H521.668L521.398 185H526.168V157.1H521.218ZM540.244 181.715C537.949 181.715 536.464 180.545 536.464 178.565C536.464 176.09 538.309 174.605 545.239 175.325C545.284 177.17 545.284 178.655 545.374 179.96C543.799 181.04 541.954 181.715 540.244 181.715ZM546.004 185.135L550.594 184.91C550.369 181.805 550.189 178.25 550.189 173.885C550.189 165.155 546.814 162.365 533.314 162.14L532.819 166.37C542.449 166.685 544.924 167.72 545.194 172.04C535.744 171.635 531.514 175.235 531.514 179.735C531.514 183.38 534.259 185.585 538.264 185.585C541.504 185.585 543.889 184.1 545.599 182.435C545.734 183.515 545.959 184.955 546.004 185.135ZM573.356 185L573.761 181.22H566.966C566.876 176.45 566.831 172.67 566.741 169.295C569.261 168.08 572.366 167.27 576.236 167.045L576.011 161.735C571.781 162.275 568.586 164.12 566.561 166.46C566.471 165.335 566.201 162.815 566.156 162.59H556.886L556.481 166.145L561.791 166.505C561.881 170.465 561.926 175.145 562.016 181.22H556.571V185H573.356ZM581.582 174.155C581.582 181.085 585.272 186.35 599.267 185.18L599.762 181.04C589.682 181.625 586.532 179.285 586.532 173.525C586.532 169.205 588.242 166.64 599.447 167L599.132 162.275C585.722 162.32 581.582 167.9 581.582 174.155ZM623.963 185.54L624.458 181.355C614.558 181.13 611.183 179.645 610.643 175.145L625.088 174.74C625.898 166.955 622.883 162.005 616.583 162.005C610.688 162.005 605.648 167.315 605.648 174.2C605.648 181.49 609.473 185.675 623.963 185.54ZM615.683 166.1C618.788 166.1 620.183 168.305 620.318 171.86C617.528 171.95 612.983 172.085 610.598 172.175C610.823 167.99 612.623 166.1 615.683 166.1ZM649.424 185L649.829 181.22H642.899V153.545H631.604L631.154 157.1L637.859 157.46V181.22H630.929V185H649.424ZM674.165 185L674.57 181.22H667.64V153.545H656.345L655.895 157.1L662.6 157.46V181.22H655.67V185H674.165Z" fill="black"/>
</g>
<path d="M143 208H678" stroke="#384357" stroke-width="4"/>
</g>
<defs>
<filter id="filter0_d" x="162.19" y="102.77" width="484.68" height="39.57" filterUnits="userSpaceOnUse" color-interpolation-filters="sRGB">
<feFlood flood-opacity="0" result="BackgroundImageFix"/>
<feColorMatrix in="SourceAlpha" type="matrix" values="0 0 0 0 0 0 0 0 0 0 0 0 0 0 0 0 0 0 127 0"/>
<feOffset dx="2" dy="6"/>
<feGaussianBlur stdDeviation="3"/>
<feColorMatrix type="matrix" values="0 0 0 0 0.443137 0 0 0 0 0.501961 0 0 0 0 0.588235 0 0 0 1 0"/>
<feBlend mode="normal" in2="BackgroundImageFix" result="effect1_dropShadow"/>
<feBlend mode="normal" in="SourceGraphic" in2="effect1_dropShadow" result="shape"/>
</filter>
<filter id="filter1_d" x="134.105" y="151.915" width="550.465" height="52.05" filterUnits="userSpaceOnUse" color-interpolation-filters="sRGB">
<feFlood flood-opacity="0" result="BackgroundImageFix"/>
<feColorMatrix in="SourceAlpha" type="matrix" values="0 0 0 0 0 0 0 0 0 0 0 0 0 0 0 0 0 0 127 0"/>
<feOffset dx="4" dy="5"/>
<feGaussianBlur stdDeviation="3"/>
<feColorMatrix type="matrix" values="0 0 0 0 0.443137 0 0 0 0 0.501961 0 0 0 0 0.588235 0 0 0 1 0"/>
<feBlend mode="normal" in2="BackgroundImageFix" result="effect1_dropShadow"/>
<feBlend mode="normal" in="SourceGraphic" in2="effect1_dropShadow" result="shape"/>
</filter>
<clipPath id="clip0">
<rect width="799" height="252" fill="white"/>
</clipPath>
</defs>
</svg>
