<?xml version="1.0" standalone="no"?>
<!DOCTYPE svg PUBLIC "-//W3C//DTD SVG 20010904//EN"
 "http://www.w3.org/TR/2001/REC-SVG-20010904/DTD/svg10.dtd">
<svg version="1.0" xmlns="http://www.w3.org/2000/svg"
 width="989.000000pt" height="1280.000000pt" viewBox="0 0 989.000000 1280.000000"
 preserveAspectRatio="xMidYMid meet">
<metadata>
Created by potrace 1.15, written by Peter Selinger 2001-2017
</metadata>
<g transform="translate(0.000000,1280.000000) scale(0.100000,-0.100000)"
fill="#000000" stroke="none">
<path d="M0 12162 l0 -638 635 -1433 c350 -789 635 -1435 633 -1436 -20 -17
-201 -135 -204 -132 -2 2 -240 415 -530 918 -289 503 -528 916 -530 918 -2 2
-4 -173 -4 -391 l0 -395 435 -601 c239 -330 435 -605 435 -609 0 -5 -37 -45
-83 -90 l-82 -82 -345 385 c-190 212 -348 388 -352 391 -5 2 -8 -101 -7 -229
l0 -233 274 -245 c151 -135 274 -248 274 -252 1 -4 -27 -50 -62 -102 l-64 -95
-199 146 c-109 80 -205 150 -211 155 -10 8 -13 -25 -13 -158 l0 -169 155 -89
c85 -48 155 -89 155 -90 0 -2 -17 -43 -38 -92 -21 -49 -41 -97 -45 -106 -5
-16 -16 -13 -94 23 -48 23 -98 45 -110 50 l-23 9 0 -134 0 -134 68 -22 c37
-13 70 -25 74 -29 3 -3 -3 -44 -14 -91 -10 -47 -21 -95 -24 -108 -5 -24 -19
-25 -87 -6 -15 5 -17 -5 -17 -114 l0 -120 35 -6 c44 -9 45 -29 3 -41 l-33 -10
0 -72 c0 -40 3 -73 7 -73 4 0 13 18 19 40 7 22 19 46 27 53 13 10 15 9 9 -6
-4 -10 -7 -43 -7 -73 0 -54 0 -54 -31 -54 l-31 0 4 -137 3 -138 37 -3 c32 -3
38 -7 43 -33 4 -17 7 -50 7 -75 1 -24 5 -44 10 -44 4 0 8 -4 8 -9 0 -5 -25
-15 -55 -21 l-55 -11 0 -125 c0 -68 4 -124 8 -124 5 0 41 11 80 24 47 16 74
21 78 14 4 -6 2 -13 -3 -17 -5 -3 -37 -43 -71 -88 -34 -44 -67 -83 -74 -85 -7
-3 -13 -19 -14 -36 -1 -36 -1 -36 27 -22 29 16 25 -15 -6 -46 l-25 -24 0
-2745 0 -2745 4945 0 4945 0 -2 2862 c-2 2054 -6 2870 -14 2888 l-11 24 -28
-43 c-27 -40 -31 -43 -64 -37 -20 3 -46 6 -59 6 -19 0 -23 5 -20 25 2 17 31
49 88 98 81 69 85 75 88 117 l3 45 -134 -139 c-120 -123 -137 -137 -158 -130
-23 7 -52 10 -146 13 -24 0 -43 6 -43 12 0 6 29 41 65 78 67 70 79 99 45 108
-11 3 -20 9 -20 13 0 14 230 234 263 252 18 9 42 17 53 18 44 0 62 29 67 113
3 42 3 77 0 77 -3 0 -21 -14 -41 -31 -47 -41 -51 -25 -16 56 25 58 32 65 56
65 l28 0 0 395 c0 370 -1 395 -18 395 -9 0 -105 -9 -212 -20 -296 -31 -1325
-137 -1590 -165 -129 -13 -235 -23 -236 -22 -4 5 -68 167 -89 227 -27 74 -45
165 -45 225 0 36 6 46 53 92 30 29 65 53 82 56 17 3 298 63 625 132 488 103
599 124 619 115 20 -9 22 -9 13 3 -20 24 217 67 368 67 93 0 121 3 118 13 -3
6 -22 14 -44 16 -30 3 7 13 156 45 l195 41 3 431 2 432 -75 -24 c-41 -13 -157
-50 -257 -83 -101 -33 -322 -104 -493 -159 -356 -115 -739 -239 -1635 -529
-356 -116 -649 -205 -666 -204 -17 1 -41 -7 -55 -17 -22 -18 -131 -56 -521
-181 -321 -103 -477 -154 -653 -211 -516 -168 -619 -200 -626 -193 -4 5 -21
43 -38 86 -17 43 -42 100 -56 127 l-24 48 917 407 c504 224 1652 733 2550
1132 l1632 725 0 504 c0 277 -2 504 -4 504 -2 0 -116 -65 -253 -144 -136 -78
-945 -545 -1798 -1036 -1654 -953 -2592 -1493 -2953 -1701 -123 -71 -227 -129
-232 -129 -5 0 -24 21 -41 48 -18 26 -54 75 -81 108 -26 34 -48 66 -47 70 0 5
269 203 597 441 328 237 980 709 1447 1048 468 339 1416 1027 2107 1528 l1258
912 0 378 0 377 -318 0 -318 0 -114 -103 c-63 -57 -518 -465 -1010 -907 -493
-443 -1177 -1057 -1520 -1366 -344 -308 -1009 -906 -1479 -1328 -745 -670
-855 -765 -869 -754 -9 7 -48 40 -87 73 -38 33 -81 68 -94 77 -23 16 -23 19
-9 35 18 21 2476 2746 3287 3643 l565 625 -544 3 c-508 2 -545 1 -561 -15 -9
-10 -670 -916 -1469 -2013 -799 -1097 -1470 -2018 -1491 -2047 l-38 -51 -123
64 c-68 35 -122 67 -121 71 1 8 2271 3927 2299 3971 l14 22 -418 0 -419 0
-868 -1942 c-478 -1069 -871 -1946 -875 -1951 -4 -5 -249 48 -268 59 -1 0 277
856 618 1900 341 1044 623 1907 626 1917 5 16 -16 17 -350 17 l-356 0 -5 -22
c-3 -13 -63 -295 -134 -628 -160 -750 -349 -1634 -532 -2487 -76 -359 -139
-654 -139 -656 0 -3 -264 4 -268 7 -2 3 30 312 177 1696 33 311 92 864 131
1230 39 366 75 703 80 750 5 47 10 91 10 98 0 9 -73 12 -330 12 l-330 0 -2
-1902 -3 -1901 -25 -7 c-51 -15 -221 -42 -227 -37 -3 4 -32 262 -64 574 -32
312 -94 919 -138 1348 -45 429 -106 1028 -136 1330 -31 303 -58 560 -61 573
l-4 22 -335 0 c-279 0 -335 -2 -335 -14 0 -7 185 -890 410 -1961 226 -1071
410 -1948 410 -1950 0 -5 -232 -97 -235 -93 -2 2 -56 166 -120 363 -209 645
-732 2264 -958 2967 l-222 688 -97 0 -98 0 0 -638z m7302 -4622 c-44 -37 -130
-49 -119 -17 4 12 77 35 117 36 l25 0 -23 -19z m-492 -104 c0 -18 -24 -43 -50
-51 -10 -3 -22 -15 -25 -26 -4 -10 -43 -55 -87 -100 -92 -92 -108 -128 -108
-246 0 -40 -1 -73 -2 -74 -7 -2 -1493 -157 -1495 -155 -1 1 -11 62 -23 136
-12 74 -23 139 -23 144 -2 10 1730 382 1786 385 17 1 27 -4 27 -13z m-1182
-960 c-10 -7 -18 -20 -18 -29 0 -20 8 -22 175 -43 77 -9 141 -18 143 -20 2 -1
-18 -22 -45 -45 -26 -24 -84 -81 -128 -126 -67 -70 -85 -83 -112 -83 -62 0
-67 10 -23 42 22 16 40 33 40 37 0 22 -20 17 -90 -21 l-77 -41 -222 23 -222
23 71 72 c51 51 69 76 64 88 -3 9 -9 17 -12 17 -4 0 -35 -28 -70 -62 l-64 -63
6 49 c3 27 6 82 6 122 l0 74 298 0 c249 -1 294 -3 280 -14z m387 -16 c-19 -20
-35 -28 -47 -24 -10 3 -53 9 -96 14 -131 15 -213 28 -219 34 -4 3 83 6 192 6
l199 0 -29 -30z m161 -5 c-29 -26 -49 -35 -75 -35 l-35 0 34 35 c28 29 41 35
74 35 l41 -1 -39 -34z m352 0 c2 -22 -4 -37 -23 -55 l-25 -24 -133 12 c-73 6
-143 15 -156 20 -21 8 -20 10 31 45 l53 38 125 -3 125 -3 3 -30z m3116 13 c-3
-13 -15 -45 -25 -73 -22 -58 -25 -119 -7 -113 7 3 35 50 63 106 45 92 53 102
78 102 15 0 27 -2 27 -4 0 -2 -11 -32 -24 -67 -13 -35 -27 -84 -31 -108 -7
-41 -23 -61 -209 -250 -110 -114 -221 -229 -245 -258 l-43 -52 -52 6 c-28 3
-56 10 -62 14 -6 5 -32 6 -58 3 l-47 -7 36 53 c19 28 35 61 35 72 0 17 -5 20
-30 15 -16 -4 -30 -5 -30 -3 0 2 13 33 30 68 33 69 39 111 15 102 -17 -7 -132
-222 -137 -256 -2 -17 -11 -24 -30 -26 -38 -4 -37 11 12 136 22 56 40 105 40
108 0 3 -9 2 -20 -1 -14 -5 -20 -2 -20 9 0 9 -4 16 -9 16 -18 0 -29 -27 -36
-85 -7 -50 -44 -151 -45 -120 0 6 -7 1 -15 -9 -13 -17 -15 -17 -15 -4 0 30
-19 29 -35 -2 -19 -37 -39 -41 -25 -4 15 39 12 47 -12 30 -19 -14 -23 -14 -34
2 -10 14 -14 14 -28 3 -9 -7 -16 -24 -16 -38 0 -21 -3 -23 -22 -17 -13 3 -24
8 -26 9 -9 7 63 141 96 177 40 44 170 225 191 266 10 18 10 27 0 38 -6 8 -14
12 -17 9 -3 -3 -11 0 -19 7 -7 6 -15 9 -16 7 -19 -25 -320 -370 -327 -374 -18
-11 -50 6 -50 26 0 19 -2 19 -22 5 -13 -9 -36 -42 -53 -73 -29 -56 -32 -58
-74 -61 -24 -2 -47 0 -52 5 -4 4 8 34 26 65 33 55 33 58 15 68 -25 13 -57 -5
-64 -36 -11 -41 -55 -84 -87 -84 -16 0 -29 2 -29 4 0 2 16 27 35 56 19 29 35
56 35 61 0 5 -11 15 -25 21 -29 13 -51 -3 -113 -84 l-36 -48 -55 6 c-110 11
-109 10 -60 52 23 20 70 58 102 85 74 58 49 63 -34 6 -33 -22 -63 -38 -66 -35
-3 2 24 77 60 166 69 170 69 182 10 163 -21 -7 -30 -18 -35 -44 -5 -28 -38
-109 -130 -319 l-10 -25 -14 38 c-38 108 -178 254 -313 327 -71 39 -221 163
-221 184 0 3 543 6 1206 6 l1205 0 -7 -22z m-3626 -131 c-27 -19 -38 -32 -29
-35 7 -2 33 10 58 28 l46 31 106 -10 c161 -17 244 -30 254 -40 4 -4 5 -26 1
-47 -5 -31 -24 -56 -88 -121 l-81 -81 -165 18 c-91 11 -167 19 -169 19 -2 1 1
7 7 14 6 7 15 25 21 40 16 41 -9 34 -41 -12 -25 -37 -28 -39 -75 -34 -109 10
-111 1 32 142 91 90 135 127 147 123 14 -3 9 -11 -24 -35z m398 -252 c-6 -31
-11 -35 -36 -35 -17 0 -30 3 -30 7 0 10 63 73 68 68 2 -2 1 -20 -2 -40z
m-1327 -205 c15 -8 -100 -90 -126 -90 -22 0 -8 48 24 82 21 22 32 26 57 21 17
-3 37 -9 45 -13z m184 -36 c3 -3 -15 -37 -41 -75 -46 -67 -48 -68 -92 -69
l-44 0 74 75 c71 71 89 83 103 69z m371 -80 c9 -3 13 -10 10 -15 -8 -14 -40
-11 -54 6 -10 12 -9 15 8 15 11 0 27 -3 36 -6z m81 -23 c3 -5 1 -12 -5 -16 -5
-3 -10 1 -10 9 0 18 6 21 15 7z m-5546 -32 c-25 -16 -32 -9 -13 12 12 13 20
16 22 9 3 -7 -2 -16 -9 -21z m5694 4 c4 -2 -6 -18 -22 -34 -20 -19 -40 -29
-60 -29 -38 0 -38 4 -3 45 26 31 51 37 85 18z m-177 -20 c-10 -10 -19 5 -10
18 6 11 8 11 12 0 2 -7 1 -15 -2 -18z m372 -19 c40 -11 6 -34 -51 -34 -49 0
-50 0 -32 20 19 20 42 24 83 14z m-5940 -56 c-9 -13 -24 -25 -34 -27 -13 -2
-9 4 12 23 36 31 41 32 22 4z"/>
<path d="M9672 6348 c-14 -14 -16 -58 -4 -58 9 0 32 44 32 60 0 14 -14 12 -28
-2z"/>
<path d="M9651 6264 c0 -11 3 -14 6 -6 3 7 2 16 -1 19 -3 4 -6 -2 -5 -13z"/>
<path d="M9080 7840 c0 -5 9 -10 21 -10 11 0 17 5 14 10 -3 6 -13 10 -21 10
-8 0 -14 -4 -14 -10z"/>
<path d="M9190 7840 c0 -5 5 -10 11 -10 5 0 7 5 4 10 -3 6 -8 10 -11 10 -2 0
-4 -4 -4 -10z"/>
<path d="M8971 7821 c-10 -7 -10 -10 -1 -16 6 -4 16 -3 22 3 13 13 -4 23 -21
13z"/>
<path d="M8945 7750 c-3 -5 3 -10 15 -10 12 0 18 5 15 10 -3 6 -10 10 -15 10
-5 0 -12 -4 -15 -10z"/>
<path d="M9048 7713 c7 -3 16 -2 19 1 4 3 -2 6 -13 5 -11 0 -14 -3 -6 -6z"/>
<path d="M9180 7701 c0 -13 37 -24 50 -16 6 4 8 11 5 16 -8 12 -55 12 -55 0z"/>
<path d="M9025 7650 c3 -5 10 -10 16 -10 5 0 9 5 9 10 0 6 -7 10 -16 10 -8 0
-12 -4 -9 -10z"/>
<path d="M9188 7583 c7 -3 16 -2 19 1 4 3 -2 6 -13 5 -11 0 -14 -3 -6 -6z"/>
<path d="M8870 7540 c0 -5 5 -10 10 -10 6 0 10 5 10 10 0 6 -4 10 -10 10 -5 0
-10 -4 -10 -10z"/>
<path d="M9180 7515 c0 -8 7 -15 16 -15 14 0 14 3 4 15 -7 8 -14 15 -16 15 -2
0 -4 -7 -4 -15z"/>
<path d="M9832 6100 c-29 -27 -28 -32 3 -18 14 6 25 17 25 25 0 17 -2 17 -28
-7z"/>
</g>
</svg>
