<?xml version="1.0" standalone="no"?>
<!DOCTYPE svg PUBLIC "-//W3C//DTD SVG 20010904//EN"
 "http://www.w3.org/TR/2001/REC-SVG-20010904/DTD/svg10.dtd">
<svg version="1.0" xmlns="http://www.w3.org/2000/svg"
 width="1280.000000pt" height="808.000000pt" viewBox="0 0 1280.000000 808.000000"
 preserveAspectRatio="xMidYMid meet">
<metadata>
Created by potrace 1.15, written by Peter Selinger 2001-2017
</metadata>
<g transform="translate(0.000000,808.000000) scale(0.100000,-0.100000)"
fill="#000000" stroke="none">
<path d="M11768 8063 c-8 -10 -47 -92 -86 -183 -103 -243 -193 -427 -239 -492
-22 -32 -45 -77 -51 -101 -11 -40 -40 -84 -139 -206 -24 -29 -43 -59 -43 -66
0 -35 -79 -191 -154 -304 -46 -69 -101 -160 -121 -201 -21 -41 -64 -120 -96
-176 -33 -55 -59 -106 -59 -112 0 -6 -4 -12 -9 -14 -4 -1 -33 -42 -64 -89 -30
-48 -60 -90 -67 -94 -14 -9 -30 5 -182 167 l-120 128 46 51 c25 28 65 90 89
137 l42 86 -1 140 c0 135 -1 143 -29 200 -111 222 -421 321 -660 210 -106 -48
-204 -173 -255 -324 -19 -56 -31 -76 -46 -78 -10 -1 -90 22 -176 52 -169 59
-356 116 -382 116 -9 0 -33 7 -54 16 -20 10 -57 25 -82 34 -111 43 -213 92
-267 128 -32 22 -94 59 -138 82 -161 85 -170 96 -166 187 3 62 -19 110 -54
119 -20 5 -34 -2 -65 -30 -48 -43 -68 -45 -101 -10 -29 31 -129 87 -184 104
-64 18 -83 31 -109 70 -17 26 -40 44 -70 55 l-45 17 -31 -26 c-17 -14 -48 -30
-68 -35 -20 -5 -64 -17 -97 -26 -132 -37 -131 -37 -198 55 -18 25 -41 46 -51
48 -21 4 -115 -88 -142 -139 -9 -19 -17 -58 -18 -88 -1 -53 0 -55 30 -63 51
-13 61 -33 35 -68 -40 -54 -43 -75 -16 -112 54 -74 58 -86 44 -141 -7 -29 -29
-102 -49 -163 l-38 -111 19 -89 c12 -59 19 -131 19 -213 0 -112 -2 -129 -25
-177 -46 -97 -59 -175 -59 -349 0 -140 4 -173 27 -265 15 -58 32 -157 38 -220
6 -63 15 -120 19 -125 13 -15 48 -157 70 -275 10 -58 30 -137 45 -175 14 -39
33 -95 40 -125 24 -94 61 -193 118 -316 30 -66 58 -135 62 -154 4 -19 25 -78
47 -130 22 -52 48 -119 59 -148 11 -28 35 -73 55 -98 47 -63 66 -101 59 -123
-3 -10 -51 -58 -106 -107 -113 -99 -313 -304 -355 -365 -29 -43 -42 -102 -43
-201 -1 -32 -4 -58 -8 -58 -4 0 -151 72 -327 159 -177 88 -366 178 -421 201
-55 23 -127 54 -160 70 -107 50 -277 120 -291 120 -8 0 -19 9 -26 20 -7 11
-40 29 -73 40 -33 11 -100 42 -150 68 -84 45 -100 59 -141 128 -10 16 -13 17
-28 5 -15 -12 -16 -7 -16 56 0 78 -32 157 -77 193 -31 24 -99 26 -158 5 -22
-8 -46 -15 -54 -15 -8 0 -39 24 -70 53 -35 33 -99 76 -172 115 -64 33 -121 67
-127 75 -9 11 -1 24 38 64 33 34 50 60 50 76 0 14 5 29 10 32 20 12 9 68 -24
128 -39 70 -72 175 -60 187 16 14 219 50 394 70 204 23 294 36 370 55 30 8
114 21 185 30 153 20 320 52 355 68 29 14 42 73 33 145 -9 71 -51 78 -236 38
-161 -35 -629 -122 -782 -145 -109 -17 -400 -51 -435 -51 -12 0 -60 93 -60
117 0 10 25 38 56 63 31 25 69 56 85 69 31 24 69 89 69 116 0 8 4 15 9 15 4 0
22 28 40 63 17 34 37 69 44 77 18 23 158 110 177 110 21 0 40 19 40 40 0 9 16
32 36 51 57 54 178 220 243 332 33 56 72 122 88 146 15 25 44 73 63 107 19 35
43 74 53 88 15 20 16 29 7 46 -17 31 -162 122 -254 159 -43 17 -106 49 -140
71 -33 23 -121 70 -194 107 -119 58 -133 68 -128 87 3 11 6 51 6 89 0 64 1 68
28 78 134 53 137 63 59 162 -29 38 -30 38 -91 35 l-61 -3 0 52 c1 43 7 61 34
99 43 61 36 79 -28 70 l-49 -6 -6 45 c-4 25 -21 65 -40 92 -27 40 -49 56 -127
96 -52 26 -131 56 -177 68 -80 20 -86 20 -234 5 -170 -18 -219 -35 -303 -105
-27 -22 -52 -41 -55 -41 -3 0 -35 28 -70 63 -72 70 -166 123 -203 113 -26 -6
-77 -89 -77 -124 0 -22 21 -41 110 -99 114 -74 128 -105 58 -123 -124 -31
-133 -35 -180 -80 -56 -54 -59 -76 -18 -124 49 -56 83 -66 213 -66 73 0 118
-4 123 -11 3 -6 -1 -28 -11 -49 -16 -35 -20 -38 -74 -43 -31 -4 -76 -13 -100
-22 -73 -25 -96 -20 -190 42 -110 74 -388 198 -584 261 -180 59 -314 75 -620
76 l-189 1 -22 -26 c-21 -24 -23 -40 -35 -315 -19 -424 -6 -376 -147 -520 -65
-67 -133 -128 -151 -138 -18 -9 -46 -36 -62 -60 -17 -25 -79 -89 -138 -143
-117 -107 -173 -163 -173 -174 0 -8 -260 -241 -329 -294 -59 -45 -130 -125
-154 -172 -9 -17 -41 -60 -70 -95 -78 -93 -87 -108 -87 -154 0 -58 49 -173 99
-233 22 -27 41 -52 41 -56 0 -8 -69 -87 -186 -213 l-71 -77 3 -192 c2 -157 0
-194 -12 -204 -8 -6 -71 -18 -140 -25 -70 -8 -138 -21 -153 -28 -14 -8 -53
-25 -86 -38 -46 -18 -61 -29 -63 -47 -7 -44 9 -90 42 -126 38 -40 24 -40 211
0 61 13 129 26 153 30 40 6 42 5 42 -18 0 -31 -33 -127 -55 -161 -24 -37 -15
-133 19 -209 14 -32 26 -68 26 -80 0 -13 -31 -72 -70 -133 -38 -60 -88 -138
-111 -174 -22 -36 -65 -103 -95 -149 -30 -47 -54 -89 -54 -95 0 -6 -11 -32
-25 -58 -14 -26 -30 -79 -37 -117 -16 -92 -3 -158 52 -266 22 -44 40 -83 40
-86 0 -4 -19 -14 -42 -23 -33 -13 -232 -109 -257 -123 -4 -3 11 -77 44 -223 8
-36 21 -126 30 -200 24 -201 42 -237 126 -260 19 -5 116 -16 215 -24 188 -16
235 -26 272 -59 23 -21 30 -71 12 -82 -5 -3 -10 -26 -10 -51 0 -42 3 -46 34
-59 l34 -14 7 -376 c7 -376 5 -446 -19 -515 -16 -46 -154 -260 -168 -260 -6 0
-34 14 -62 32 -68 42 -141 48 -249 19 -44 -11 -117 -26 -164 -32 -49 -7 -87
-18 -90 -25 -2 -7 -1 -43 4 -80 l8 -69 69 -51 c39 -29 76 -60 83 -70 9 -12 48
-25 121 -40 60 -12 152 -34 206 -49 95 -27 100 -27 279 -20 l182 7 110 56
c130 67 139 80 125 168 -16 97 -11 219 15 399 32 217 74 391 165 685 93 301
108 353 125 420 26 99 48 347 43 483 -3 83 -1 133 6 142 24 32 177 73 340 90
88 9 170 21 182 26 30 11 71 77 83 131 18 78 62 382 61 421 0 48 19 86 59 115
39 28 39 37 0 57 -26 14 -30 20 -24 43 4 15 8 29 11 31 2 2 41 -32 86 -75 46
-44 109 -99 141 -122 31 -24 80 -63 107 -87 65 -57 89 -58 240 -4 201 71 274
96 302 103 26 6 30 2 73 -84 25 -49 68 -158 95 -242 28 -83 70 -192 94 -242
23 -50 61 -129 83 -176 22 -47 59 -109 82 -137 48 -62 62 -64 167 -32 58 18
78 31 145 95 43 41 82 74 88 74 12 0 18 -22 20 -75 1 -22 13 -114 26 -205 25
-171 35 -205 135 -455 67 -168 151 -413 200 -588 30 -103 42 -170 50 -270 15
-185 27 -265 51 -355 11 -42 25 -93 30 -113 8 -31 16 -40 60 -59 80 -34 169
-48 376 -61 l191 -12 74 26 c40 14 100 33 133 42 70 19 76 23 132 91 48 58 78
114 88 162 22 107 -235 177 -418 113 l-68 -23 -40 28 c-48 33 -139 135 -164
183 -15 30 -18 88 -26 490 -5 251 -11 468 -13 483 -4 22 1 30 29 48 19 12 43
32 53 45 19 24 19 26 -19 192 -22 92 -44 182 -49 198 -14 41 7 115 32 115 20
0 20 4 18 96 -1 70 10 88 68 103 20 6 62 17 94 26 l56 15 30 73 c16 39 42 110
57 157 15 47 41 109 57 138 30 53 30 55 20 125 -7 40 -14 99 -18 132 -3 33
-20 95 -36 138 -37 93 -34 103 56 181 33 28 82 73 108 99 39 38 54 47 71 41
33 -10 195 -92 236 -120 20 -13 59 -30 86 -39 28 -8 80 -32 117 -55 36 -22 87
-47 112 -55 74 -25 586 -267 693 -328 54 -30 165 -93 248 -140 l150 -84 8 -44
c5 -24 6 -108 4 -186 -4 -119 -2 -143 10 -147 32 -13 86 -5 133 19 68 34 94
33 110 -6 23 -54 -6 -834 -34 -935 -8 -29 -22 -131 -31 -229 -18 -192 -42
-292 -116 -478 -47 -119 -75 -167 -96 -167 -9 0 -45 5 -81 11 -95 17 -153 1
-262 -72 -136 -91 -152 -123 -107 -209 17 -33 38 -51 91 -81 37 -22 79 -42 92
-45 14 -4 58 4 107 20 45 14 120 32 167 40 47 8 105 19 130 25 25 6 101 15
168 20 221 18 249 48 277 292 33 290 100 521 216 744 37 72 82 166 99 210 18
44 45 101 61 126 26 41 31 61 40 165 6 66 15 133 21 149 10 29 20 86 34 208 4
32 11 60 15 63 5 3 19 -2 31 -10 31 -22 81 -20 103 4 10 11 30 20 44 20 14 0
40 9 56 20 17 11 44 20 62 20 30 0 63 21 63 41 0 5 10 9 23 9 12 0 36 9 52 21
17 11 51 31 76 44 32 17 50 34 59 57 14 37 106 242 123 273 6 11 24 45 41 75
16 30 40 68 53 84 13 15 29 48 35 72 13 49 19 51 88 30 35 -10 60 -11 112 -3
l68 10 128 -85 c70 -47 167 -122 215 -167 57 -54 91 -80 99 -75 7 4 29 20 48
35 19 15 63 41 96 58 52 26 73 31 136 31 58 0 85 5 124 24 64 32 131 57 169
63 29 4 39 -4 141 -114 60 -65 116 -127 124 -139 33 -46 64 -56 144 -49 l74 7
-9 -45 c-4 -25 -20 -93 -33 -151 l-26 -105 15 -253 c8 -139 20 -278 26 -308
17 -90 31 -415 24 -565 -9 -194 -31 -379 -55 -451 -28 -82 -40 -165 -29 -186
5 -10 24 -26 42 -35 27 -15 62 -18 212 -19 200 -1 243 -9 379 -71 l79 -36 255
-14 c140 -8 270 -12 288 -8 69 13 128 99 95 139 -7 8 -59 48 -116 89 -72 52
-110 74 -124 70 -11 -3 -51 10 -93 31 -40 20 -106 42 -146 49 -40 8 -81 22
-93 33 -12 10 -50 62 -85 114 -35 53 -77 106 -93 118 -42 31 -65 76 -51 101 5
11 10 30 10 43 0 13 9 38 20 56 13 21 26 73 35 135 8 56 29 172 46 257 17 85
34 207 39 270 5 63 16 140 24 170 9 30 23 120 31 200 18 177 33 231 90 314 57
84 71 113 80 162 8 54 -8 112 -45 159 -41 52 -39 65 10 65 66 0 137 20 178 50
22 16 61 62 87 104 26 42 51 76 55 76 23 0 41 34 35 66 -5 31 -3 36 45 70 41
30 49 40 44 58 -14 45 -84 226 -127 326 -89 206 -170 396 -190 448 -12 31 -32
62 -50 75 -16 12 -59 49 -96 83 -36 33 -100 87 -141 119 -145 113 -188 155
-195 186 -4 17 -16 50 -26 74 -11 25 -23 87 -29 151 -5 60 -19 143 -30 184
-12 41 -24 105 -27 141 -5 60 -4 67 13 73 30 9 232 24 479 36 127 6 268 15
315 20 113 14 529 30 759 30 l184 0 -5 90 c-3 50 -9 94 -13 98 -11 11 -465 6
-625 -7 -80 -6 -237 -20 -350 -31 -136 -13 -305 -20 -504 -22 l-299 -3 -13 55
c-15 67 -40 90 -129 120 -59 19 -69 27 -82 57 -18 44 -11 65 58 175 138 220
204 332 292 496 74 136 127 217 187 287 23 26 59 84 81 129 23 44 54 91 70
104 16 13 29 32 29 42 0 10 12 33 26 50 15 17 24 33 21 37 -7 6 44 100 91 167
41 59 145 246 194 349 4 9 12 25 17 35 36 65 81 185 81 215 0 19 13 64 30 99
35 73 36 83 13 93 -26 10 -164 45 -178 45 -7 0 -19 -8 -27 -17z m44 -90 c1
-32 -5 -60 -17 -81 -19 -32 -55 -44 -55 -18 0 15 39 145 47 159 11 19 24 -13
25 -60z m98 -38 c0 -20 -46 -111 -61 -120 -21 -13 -29 10 -17 48 18 59 78 114
78 72z m-150 -145 c12 -8 12 -10 -5 -10 -11 0 -27 5 -35 10 -12 8 -12 10 5 10
11 0 27 -5 35 -10z m51 -33 c-1 -12 -15 -9 -19 4 -3 6 1 10 8 8 6 -3 11 -8 11
-12z m-107 -65 c-14 -22 -44 -28 -44 -8 0 23 31 49 44 36 7 -7 8 -15 0 -28z
m86 -15 c0 -13 -9 -32 -21 -43 -17 -16 -22 -16 -29 -4 -12 19 -12 27 0 51 15
28 50 25 50 -4z m-7277 -42 c62 -16 73 -16 130 -2 74 18 88 13 116 -46 37 -76
31 -92 -48 -131 -76 -39 -81 -47 -81 -139 0 -67 6 -80 67 -155 48 -58 80 -118
71 -128 -4 -3 -41 0 -83 7 -91 14 -99 9 -90 -64 l6 -47 -48 -20 c-65 -28 -113
-53 -113 -61 0 -3 21 -17 48 -32 l47 -26 41 39 c43 40 80 54 174 65 84 9 92
19 58 67 -10 14 -9 21 10 41 32 34 27 66 -18 128 l-41 54 38 8 c48 10 77 -3
100 -45 25 -47 22 -149 -6 -212 -11 -27 -26 -78 -31 -113 -13 -76 -39 -133
-76 -162 -34 -27 -170 -70 -244 -78 -53 -5 -65 -2 -160 42 -104 47 -182 64
-235 51 -32 -8 -25 -20 26 -46 26 -14 39 -27 39 -41 0 -34 -40 -101 -99 -162
-66 -70 -222 -191 -231 -180 -4 5 -19 53 -34 109 -27 94 -28 110 -23 240 4
125 7 147 34 214 17 41 36 100 43 130 8 30 16 58 20 62 3 4 30 -10 59 -32 29
-22 62 -40 72 -40 11 0 46 11 79 25 41 17 78 25 119 25 78 0 155 17 183 40 22
17 22 19 6 52 -12 26 -37 46 -103 84 -130 73 -137 81 -193 207 -79 177 -80
264 -5 285 58 17 295 8 376 -13z m2711 -42 c20 -32 36 -61 36 -66 0 -5 -20 -6
-45 -3 l-45 7 0 -31 c0 -25 5 -33 30 -41 28 -10 29 -12 15 -38 -7 -15 -21 -34
-31 -42 -16 -13 -16 -12 -3 9 17 27 5 39 -52 48 -55 9 -67 19 -47 41 9 10 33
53 53 96 20 42 40 77 45 77 5 0 25 -26 44 -57z m4466 17 c22 -11 40 -22 40
-25 0 -7 -90 26 -96 36 -9 15 14 10 56 -11z m-50 -55 c0 -17 -97 -168 -111
-173 -12 -5 0 27 46 117 32 65 65 93 65 56z m-3990 -89 l0 -84 -80 -12 c-45
-7 -84 -10 -88 -6 -11 12 13 40 46 56 37 17 38 41 2 50 -23 6 -19 9 40 42 36
20 68 36 73 37 4 0 7 -37 7 -83z m4070 59 c0 -8 -16 -44 -36 -80 -24 -44 -42
-65 -54 -65 -29 0 -31 14 -11 54 42 82 101 135 101 91z m-4352 -71 c26 -18 28
-69 3 -69 -20 0 -55 51 -48 69 8 20 17 20 45 0z m-4787 -19 c24 -9 118 -36
209 -60 196 -53 420 -130 510 -175 36 -18 91 -53 122 -78 l57 -45 -36 -68
c-20 -38 -40 -66 -44 -62 -4 5 -2 34 4 65 l10 58 -39 35 c-21 19 -42 34 -47
35 -16 0 -47 -66 -47 -101 0 -20 -7 -42 -15 -49 -8 -7 -29 -37 -46 -66 -38
-67 -60 -70 -145 -17 -178 109 -190 111 -187 22 1 -60 23 -96 69 -115 47 -20
34 -34 -32 -34 -61 0 -107 -19 -124 -51 -18 -32 1 -44 113 -74 120 -33 173
-57 182 -84 7 -23 -21 -109 -80 -244 -56 -126 -57 -143 -8 -163 44 -19 88 -12
119 17 l22 21 17 -30 c17 -28 62 -62 83 -62 14 0 32 56 32 99 l-1 36 -20 -27
c-11 -16 -25 -28 -31 -28 -13 0 1 41 23 66 25 27 24 40 -6 69 -40 41 -140 27
-150 -21 -3 -13 -7 -35 -10 -49 -3 -14 -12 -25 -21 -25 -19 0 -23 -15 51 195
44 124 55 165 49 184 -9 25 -68 61 -149 92 l-40 15 40 19 c60 30 59 83 -2 106
-13 5 -23 13 -23 18 0 10 17 7 109 -20 76 -23 119 -24 147 -5 12 8 36 50 54
93 18 43 37 82 42 87 4 6 8 -17 8 -50 0 -54 3 -63 30 -89 37 -35 37 -47 4
-121 -48 -109 -84 -335 -84 -529 0 -90 -12 -145 -143 -640 -189 -712 -239
-891 -253 -913 -13 -19 -21 -22 -47 -17 -50 11 -168 62 -216 95 -44 29 -45 29
-20 38 13 5 44 13 69 17 53 9 88 25 114 53 38 42 -6 48 -99 14 -22 -8 -80 -17
-130 -21 l-90 -6 54 -58 c92 -98 237 -181 338 -193 26 -4 73 -13 103 -22 80
-24 414 -22 568 2 62 10 116 15 120 11 12 -12 -89 -94 -155 -126 -244 -117
-534 -84 -907 103 -115 57 -245 140 -295 187 -33 31 -33 32 -15 52 27 30 94
62 126 61 17 0 29 6 33 17 3 9 25 31 49 48 131 93 178 222 230 638 23 188 25
192 90 358 86 217 146 394 146 434 0 34 -27 113 -39 113 -4 0 -15 -33 -24 -72
-28 -120 -78 -271 -87 -262 -4 5 -20 49 -35 98 -31 105 -98 263 -119 284 -12
12 -18 13 -30 3 -34 -28 -28 -57 43 -201 38 -78 74 -162 80 -188 5 -26 13 -56
17 -66 16 -41 -57 18 -190 154 -188 192 -191 198 -231 393 -72 347 -96 438
-140 527 -29 57 -68 209 -63 246 l3 29 135 12 c74 7 149 14 165 16 62 8 84 7
126 -8z m4700 -78 c-8 -8 -11 -5 -11 9 0 27 14 41 18 19 2 -9 -1 -22 -7 -28z
m901 11 c-11 -11 -26 -18 -33 -16 -9 3 -6 11 9 26 13 13 28 20 33 16 7 -4 4
-14 -9 -26z m-347 -3 c0 -25 -33 -31 -60 -11 -20 14 -20 15 5 25 35 14 55 9
55 -14z m-3085 -5 c13 -9 13 -11 0 -20 -43 -29 -90 -20 -77 14 7 18 54 21 77
6z m-890 -40 c-37 -12 -160 -12 -160 0 0 6 37 10 93 9 61 -1 84 -4 67 -9z
m7665 -1 c4 -5 0 -18 -9 -28 -9 -10 -16 -22 -16 -28 0 -6 -22 -30 -49 -52 -35
-29 -55 -56 -67 -89 -9 -26 -30 -64 -45 -84 -16 -20 -48 -76 -70 -123 -38 -80
-61 -107 -76 -91 -10 9 33 102 80 174 65 99 144 234 151 259 8 25 61 73 81 73
8 0 17 -5 20 -11z m69 -51 c-58 -115 -129 -198 -169 -198 -31 0 -14 37 54 117
20 22 53 62 74 87 54 65 75 62 41 -6z m-4105 21 c28 -6 60 -18 72 -28 l21 -17
-39 -26 c-21 -14 -57 -35 -81 -47 -59 -30 -57 -41 11 -55 33 -8 36 -26 4 -26
-32 0 -67 -39 -74 -83 -16 -102 138 -120 266 -32 57 39 81 44 81 16 0 -34 30
-32 95 5 35 19 76 39 92 43 66 19 95 -28 73 -120 -13 -55 -46 -84 -154 -135
-31 -15 -63 -36 -72 -48 -13 -19 -13 -22 3 -33 9 -7 27 -13 39 -13 55 0 54 6
54 -244 0 -128 -5 -238 -10 -246 -14 -23 -64 8 -149 94 l-72 72 68 52 c113 85
119 92 102 103 -27 18 -92 -2 -188 -57 -53 -30 -114 -59 -136 -65 -87 -24
-253 13 -317 70 -26 23 -30 36 -41 123 -11 86 -11 98 3 101 29 6 115 -15 182
-44 74 -32 96 -35 123 -16 23 18 14 32 -36 57 -21 11 -39 23 -39 27 0 3 16 20
36 37 l36 31 -20 45 c-26 60 -56 87 -77 70 -19 -16 -19 -54 0 -70 20 -17 19
-30 -3 -30 -32 0 -113 32 -119 46 -3 8 16 37 42 66 27 29 56 71 65 93 18 40
46 203 37 212 -3 2 -15 -5 -26 -16 -28 -28 -36 -27 -61 14 -12 19 -30 40 -41
45 -24 13 -24 27 -1 33 35 9 202 7 251 -4z m256 -8 c5 -4 42 -19 80 -31 39
-13 82 -27 97 -33 33 -11 128 -102 128 -123 0 -16 -12 -18 -25 -5 -6 6 -37 16
-70 23 -50 11 -63 19 -82 48 -45 71 -51 77 -62 60 -9 -13 -19 -10 -73 19 -35
19 -70 40 -78 49 -13 13 -10 14 30 8 24 -4 49 -11 55 -15z m-3693 -42 c33 -13
42 -37 28 -73 -15 -41 -2 -104 26 -123 33 -21 30 -33 -10 -33 -57 0 -196 125
-196 176 0 12 11 33 25 49 22 23 31 26 63 21 20 -4 49 -12 64 -17z m4109 -9
c40 -22 14 -75 -28 -59 -35 13 -31 59 5 68 2 1 12 -4 23 -9z m-898 -96 c22 -4
37 -12 37 -21 0 -25 -28 -25 -67 1 -39 27 -34 30 30 20z m467 -12 c0 -24 -19
-42 -46 -42 -34 0 -37 16 -8 39 33 26 54 27 54 3z m2492 -53 c87 -44 130 -81
178 -155 88 -135 97 -285 24 -412 -25 -42 -115 -122 -138 -122 -6 0 -34 23
-61 50 -72 73 -128 106 -256 149 -63 21 -138 48 -166 61 l-53 22 0 90 c0 63 5
100 16 125 28 58 123 145 204 187 71 36 79 38 142 33 39 -3 84 -15 110 -28z
m-8067 -31 c25 -84 15 -163 -22 -176 -10 -3 -13 24 -13 112 0 68 4 116 10 116
5 0 16 -23 25 -52z m1674 13 c18 -18 19 -23 6 -79 -8 -33 -28 -100 -46 -149
-45 -126 -51 -263 -18 -400 32 -136 32 -267 -1 -391 -17 -66 -30 -97 -44 -104
-10 -6 -65 -13 -120 -15 l-102 -6 -31 37 c-84 95 -113 397 -64 653 16 82 59
204 88 248 34 51 137 160 187 196 48 36 115 40 145 10z m4341 5 c6 -8 35 -23
63 -32 29 -9 70 -30 91 -45 22 -16 46 -29 53 -29 23 0 14 -18 -19 -38 -75 -46
-213 -67 -238 -37 -16 20 -10 156 9 179 17 20 25 20 41 2z m1610 -30 c0 -3
-17 -33 -37 -67 -35 -58 -37 -68 -43 -167 -3 -58 -9 -107 -15 -109 -5 -1 -25
6 -44 18 -30 18 -33 23 -28 56 9 52 68 170 113 225 34 42 54 58 54 44z m-2170
-31 c-35 -20 -57 -20 -40 0 7 8 24 15 39 15 l26 -1 -25 -14z m3830 11 c0 -11
-19 -15 -25 -6 -3 5 1 10 9 10 9 0 16 -2 16 -4z m-7934 -41 c-15 -23 -36 -34
-36 -18 0 10 43 54 48 48 3 -2 -3 -16 -12 -30z m3704 -14 c0 -5 -8 -15 -17
-22 -20 -17 -73 -89 -73 -100 0 -4 12 -21 26 -38 22 -26 23 -32 10 -37 -9 -3
-27 -3 -41 0 -31 8 -32 31 -4 121 24 80 50 110 79 95 11 -6 20 -14 20 -19z
m1304 -100 c75 -65 110 -66 186 -2 l45 38 180 -49 c99 -27 256 -75 350 -107
l169 -57 27 -110 c14 -60 45 -190 69 -289 50 -215 65 -261 88 -270 18 -7 21
-4 99 103 49 68 190 222 203 222 12 0 29 -136 50 -425 30 -409 45 -545 59
-545 25 0 181 134 353 302 153 151 218 203 236 192 27 -16 117 -205 137 -289
26 -113 18 -244 -23 -350 -58 -147 -177 -299 -273 -348 -95 -48 -386 -97 -404
-68 -6 10 12 25 88 71 48 30 87 80 87 113 0 61 -74 129 -220 202 -67 34 -266
85 -329 85 -78 0 -179 -27 -280 -75 -54 -25 -101 -45 -105 -45 -8 0 -2 145 15
325 12 130 54 345 74 385 14 28 34 35 145 55 118 22 142 45 69 66 -34 11 -54
10 -115 -3 -52 -11 -74 -12 -74 -4 0 6 9 43 20 81 31 107 24 222 -16 264 -10
11 -14 7 -24 -28 -6 -23 -15 -78 -20 -123 -5 -45 -14 -86 -19 -91 -6 -6 -72
18 -173 60 -247 106 -290 119 -328 103 -17 -7 -90 -75 -162 -151 -73 -77 -135
-139 -139 -139 -4 0 -10 17 -14 38 -3 20 -30 93 -59 162 -29 69 -59 150 -66
180 -7 30 -26 87 -43 125 -16 39 -45 114 -63 168 -19 53 -43 112 -54 130 -11
17 -20 37 -20 42 0 15 175 91 217 94 6 1 32 -17 57 -38z m-3486 -35 c91 -46
130 -76 98 -76 -25 0 -158 31 -177 41 -22 11 -32 79 -12 79 2 0 43 -20 91 -44z
m3098 -31 c18 -14 42 -38 53 -54 26 -36 100 -213 111 -266 36 -168 267 -718
352 -838 19 -27 19 -29 2 -55 -21 -33 -185 -202 -195 -202 -5 0 -11 17 -15 38
-4 20 -27 93 -51 162 -74 209 -156 473 -188 602 -9 37 -25 152 -35 255 -22
215 -36 264 -91 326 -21 25 -39 51 -39 57 0 19 58 4 96 -25z m-5910 -32 c41
-190 93 -342 140 -410 47 -69 176 -196 246 -245 39 -26 60 -48 64 -66 4 -15
11 -32 15 -38 10 -13 -7 -479 -22 -584 -27 -197 -84 -340 -156 -395 -41 -32
-81 -47 -71 -27 68 136 163 384 155 406 -4 9 -14 16 -23 16 -21 0 -74 -57 -74
-79 0 -9 -39 -95 -86 -190 -82 -166 -89 -176 -186 -276 -57 -60 -117 -112
-141 -124 -94 -45 -339 -68 -447 -42 -95 23 -233 95 -297 157 l-58 55 60 -6
c186 -18 206 -18 310 12 l100 29 -3 32 c-6 85 -108 305 -165 361 -27 25 -56
39 -124 57 -48 13 -121 33 -160 44 -104 28 -267 50 -367 50 -47 0 -86 4 -86 8
0 13 59 102 68 102 4 0 35 32 67 72 33 39 107 109 164 155 58 46 193 168 300
271 218 208 313 293 382 340 26 17 58 44 71 60 51 61 289 282 303 282 8 0 17
-12 21 -27z m8979 17 c7 -11 -13 -45 -78 -127 -47 -60 -67 -76 -67 -52 0 15
65 121 97 159 26 31 38 36 48 20z m-3895 -30 c0 -6 -11 -8 -27 -4 -40 10 -41
14 -5 14 18 0 32 -5 32 -10z m-2345 -54 c23 -8 95 -19 160 -25 200 -18 245
-31 375 -108 41 -25 66 -46 68 -59 3 -22 -50 -112 -171 -294 -151 -226 -290
-386 -416 -479 -118 -88 -490 -259 -538 -249 -10 2 4 28 41 76 59 78 78 126
70 176 -11 62 -15 60 -64 -32 -27 -52 -65 -115 -85 -142 -42 -57 -118 -127
-122 -113 -2 5 13 48 33 94 20 46 51 127 70 179 19 52 40 108 46 123 l11 28
33 -32 c30 -29 33 -30 42 -13 5 11 13 37 16 59 4 22 18 76 31 120 12 44 27 98
31 120 8 37 12 40 46 43 20 2 89 -11 153 -28 65 -17 123 -29 131 -26 33 13 1
100 -44 118 -25 10 -26 11 -7 18 11 5 38 9 61 9 56 1 162 78 138 100 -5 5 -75
25 -156 45 -81 20 -163 43 -183 52 -34 14 -37 18 -31 47 10 48 32 75 84 101
26 13 65 43 87 65 21 23 42 41 45 41 3 0 23 -7 45 -14z m3039 -181 c42 -224
95 -563 102 -652 5 -66 4 -83 -6 -83 -8 0 -46 21 -86 47 l-72 47 4 281 c6 360
14 533 25 514 4 -8 19 -78 33 -154z m1649 125 c97 -24 181 -56 219 -82 15 -10
53 -28 85 -39 32 -11 76 -31 98 -46 50 -32 484 -468 507 -510 l18 -31 -193
-183 c-105 -101 -217 -206 -247 -234 l-55 -50 -6 115 c-9 159 -38 457 -49 505
-5 22 -10 65 -10 95 0 80 -29 227 -50 252 l-17 22 -62 -59 c-34 -32 -78 -83
-98 -114 -47 -70 -111 -141 -129 -141 -7 0 -16 16 -19 38 -20 129 -32 182 -67
311 -22 79 -37 150 -34 157 7 18 13 18 109 -6z m-5261 -81 c76 -21 78 -22 85
-58 5 -20 8 -83 8 -141 0 -96 -3 -111 -33 -181 -39 -91 -81 -153 -158 -231
-83 -84 -137 -108 -245 -108 -82 0 -90 2 -134 33 -151 104 -101 224 180 439
87 66 143 131 176 204 16 35 32 64 36 64 4 0 42 -9 85 -21z m256 -86 l-3 -67
94 -29 c88 -27 92 -29 72 -43 -39 -28 -45 -51 -21 -91 11 -19 19 -38 16 -40
-2 -3 -45 11 -94 31 -95 38 -126 44 -138 24 -14 -22 -22 32 -23 154 l-1 117
28 4 c76 11 73 14 70 -60z m2603 -114 l37 -12 4 -141 c5 -122 9 -151 33 -215
41 -111 111 -257 162 -340 45 -71 46 -75 40 -135 -6 -60 -40 -171 -56 -180 -4
-3 -36 13 -71 35 -73 48 -140 63 -141 33 0 -11 -15 -50 -33 -89 l-33 -70 -16
75 c-157 719 -163 792 -81 963 19 39 34 81 34 94 0 24 -7 25 121 -18z m195
-37 c5 -4 18 -29 29 -57 29 -78 156 -323 205 -395 91 -135 181 -209 395 -328
212 -117 325 -206 298 -233 -5 -5 -85 -15 -177 -20 l-167 -11 -92 61 c-125 83
-189 136 -320 271 l-112 115 -59 140 c-77 182 -86 217 -86 352 l0 113 38 0
c20 0 42 -4 48 -8z m204 -53 c0 -6 -4 -7 -10 -4 -5 3 -10 11 -10 16 0 6 5 7
10 4 6 -3 10 -11 10 -16z m-4470 -6 c0 -14 -19 -38 -25 -32 -8 8 5 39 16 39 5
0 9 -3 9 -7z m4615 -119 l95 -77 0 -63 c0 -35 -4 -64 -9 -64 -34 0 -185 197
-206 269 -11 35 8 25 120 -65z m-3257 -25 c-11 -62 -41 -140 -54 -142 -23 -5
-14 61 17 125 18 37 36 68 40 68 3 0 2 -23 -3 -51z m4549 -8 c239 -84 227 -79
213 -96 -7 -8 -46 -33 -87 -56 -96 -53 -126 -79 -118 -101 7 -17 50 -47 147
-101 l46 -27 -4 -77 c-3 -43 -9 -96 -14 -118 -5 -22 -12 -70 -15 -107 l-7 -68
-44 0 c-39 0 -46 4 -63 33 -64 108 -118 147 -202 147 -54 0 -140 -40 -163 -75
-9 -14 -21 -47 -27 -75 -16 -75 -25 -80 -135 -80 -68 0 -94 3 -94 13 0 6 72
91 161 187 172 187 189 211 170 234 -16 19 -129 64 -181 72 -46 8 -76 40 -65
72 5 17 69 79 247 240 26 23 52 42 57 42 5 0 85 -27 178 -59z m-6307 -127 c0
-8 -6 -14 -14 -14 -16 0 -29 27 -20 41 8 13 34 -9 34 -27z m598 -33 c17 -26
47 -58 67 -71 28 -17 36 -28 32 -44 -34 -143 -231 -918 -247 -969 -20 -63 -25
-71 -94 -125 -84 -68 -145 -107 -152 -99 -3 3 12 68 35 144 22 76 72 265 110
419 39 155 99 382 134 505 36 123 68 239 72 257 3 17 8 32 10 32 2 0 17 -22
33 -49z m5962 9 c0 -5 -4 -10 -10 -10 -5 0 -10 5 -10 10 0 6 5 10 10 10 6 0
10 -4 10 -10z m-18 -92 c7 -20 -4 -59 -17 -65 -7 -2 -33 8 -57 23 -56 35 -55
34 -38 44 22 14 108 12 112 -2z m-4981 -54 c-84 -330 -189 -502 -530 -869 -61
-66 -127 -142 -145 -170 -46 -68 -71 -89 -141 -121 -52 -24 -77 -28 -200 -35
-141 -8 -195 -4 -195 12 0 5 12 15 28 22 15 6 33 20 40 30 8 10 91 79 185 154
119 94 237 202 382 347 233 234 337 359 391 474 20 42 41 88 48 102 12 27 139
116 144 101 1 -4 -2 -26 -7 -47z m-750 24 c17 -31 16 -383 -1 -403 -6 -7 -24
-16 -39 -20 -49 -11 -91 -43 -91 -70 0 -36 39 -33 123 10 109 56 153 90 302
235 148 145 163 156 210 161 41 5 44 -25 10 -93 -34 -68 -84 -126 -285 -332
-233 -238 -506 -473 -526 -453 -11 11 219 930 241 964 19 29 41 29 56 1z
m5129 -104 c43 -17 48 -29 26 -60 -12 -15 -19 -17 -32 -8 -27 16 -57 61 -50
73 9 14 8 14 56 -5z m2160 -79 c43 -22 37 -38 -6 -20 -20 8 -38 15 -40 15 -2
0 -4 5 -4 10 0 14 16 12 50 -5z m-6040 -118 c0 -33 -122 -177 -172 -203 -36
-19 -35 -19 -58 26 -36 70 -32 75 91 135 117 57 139 64 139 42z m2818 -71 c33
-29 92 -79 130 -110 78 -62 88 -74 76 -86 -11 -11 -369 -50 -457 -50 -34 0
-80 -5 -102 -10 -22 -5 -43 -6 -47 -2 -7 7 25 138 36 149 3 3 30 -10 61 -28
119 -72 120 -72 148 -65 33 8 44 33 58 135 15 107 18 121 28 121 5 0 36 -24
69 -54z m1362 -9 c14 -7 26 -23 28 -36 l4 -23 -45 26 c-24 14 -56 26 -70 26
-15 0 -27 5 -27 10 0 14 80 12 110 -3z m-7795 -67 c208 -71 274 -108 346 -194
89 -105 121 -186 85 -215 -34 -28 -306 -37 -306 -11 0 5 19 14 43 20 23 6 74
21 112 34 67 22 70 24 73 57 2 26 -7 50 -43 107 -28 42 -54 72 -64 72 -9 0
-26 7 -38 15 -70 49 -244 114 -357 134 -78 14 -175 14 -215 0 -29 -10 -32 -15
-27 -40 3 -16 17 -46 31 -69 29 -46 32 -58 9 -39 -26 21 -65 109 -62 137 4 40
51 53 168 48 82 -3 115 -11 245 -56z m3297 21 c6 -5 77 -183 113 -283 20 -55
1 -56 -26 -2 -42 88 -111 136 -181 126 -38 -6 -106 -73 -147 -147 -50 -88 -58
-95 -108 -95 -49 0 -47 -8 -33 124 8 79 13 96 46 143 26 38 60 69 113 103 l75
48 71 -5 c38 -3 73 -8 77 -12z m4330 -13 c-7 -7 -12 -8 -12 -2 0 14 12 26 19
19 2 -3 -1 -11 -7 -17z m163 -60 c14 -29 25 -67 25 -83 0 -40 -27 -145 -42
-163 -21 -25 -59 -34 -90 -21 -37 15 -31 31 18 45 35 10 39 14 47 55 10 54 4
124 -13 144 -7 8 -25 15 -41 15 -33 0 -37 10 -11 32 49 43 79 37 107 -24z m72
16 c-9 -9 -28 6 -21 18 4 6 10 6 17 -1 6 -6 8 -13 4 -17z m-8024 -3 c9 -9 -60
-101 -76 -101 -19 0 -33 12 -67 55 -30 37 -30 40 -13 53 13 10 35 12 83 7 36
-4 68 -10 73 -14z m252 -79 c119 -58 140 -75 124 -103 -6 -12 -61 -53 -122
-94 -115 -75 -160 -114 -171 -151 -4 -13 5 -50 24 -97 27 -69 30 -88 36 -233
l6 -159 -32 -48 -32 -48 -23 -274 c-26 -304 -22 -290 -108 -373 -33 -32 -46
-40 -50 -29 -7 19 10 281 28 434 8 67 15 123 15 126 0 3 28 32 62 65 61 59 62
61 69 128 4 38 10 81 14 97 6 21 4 27 -9 27 -40 0 -166 -80 -166 -106 0 -17
39 -19 75 -2 35 16 40 6 16 -40 -28 -55 -73 -68 -119 -36 -28 19 -29 76 -5
176 12 50 14 74 6 86 -17 28 -46 20 -69 -21 -25 -44 -27 -42 -73 52 -42 88
-52 198 -24 262 25 56 114 163 250 302 129 130 130 130 278 59z m7525 -59 c0
-41 -3 -54 -10 -43 -13 20 -13 100 0 100 6 0 10 -26 10 -57z m-60 21 c0 -14
-4 -23 -10 -19 -5 3 -10 15 -10 26 0 10 5 19 10 19 6 0 10 -12 10 -26z m-2675
-30 c0 -29 -4 -40 -17 -42 -15 -3 -18 4 -18 36 0 21 3 42 7 46 15 15 28 -3 28
-40z m2590 36 c4 -6 -6 -10 -23 -10 -16 0 -35 -7 -42 -15 -10 -12 -16 -12 -26
-4 -20 17 -64 3 -64 -21 0 -21 33 -36 52 -23 7 4 29 8 48 9 19 0 43 4 53 9 24
10 23 -21 -2 -35 -21 -11 -211 -14 -211 -3 0 3 7 14 15 23 13 14 13 19 -1 38
-19 28 -39 28 -59 0 -15 -22 -14 -24 7 -41 18 -15 20 -20 7 -28 -7 -5 -27 -8
-44 -7 -29 3 -30 4 -26 48 1 25 5 47 6 49 17 17 300 27 310 11z m-2757 -22
c20 -20 15 -66 -9 -78 -11 -7 -23 -9 -26 -7 -8 9 -22 80 -17 89 8 12 38 10 52
-4z m81 -40 c1 -5 -3 -8 -9 -8 -5 0 -10 12 -9 28 0 24 1 25 9 7 5 -11 9 -23 9
-27z m2178 13 c-4 -20 -1 -33 9 -42 21 -17 2 -33 -30 -25 -18 4 -26 13 -26 29
0 12 -4 29 -9 37 -14 21 -4 30 31 30 28 0 30 -2 25 -29z m103 9 c0 -10 10 -28
21 -39 l22 -20 -26 -6 c-31 -8 -47 0 -47 23 0 10 -7 28 -16 40 -15 21 -14 22
15 22 24 0 31 -4 31 -20z m-2480 -2 c0 -7 -3 -23 -6 -36 l-6 -22 -24 26 c-14
14 -22 30 -19 35 9 14 55 11 55 -3z m2246 -5 c3 -10 11 -31 19 -46 13 -24 13
-29 0 -33 -30 -12 -50 1 -48 31 1 16 -3 32 -9 36 -6 4 -7 12 -4 18 11 17 36
13 42 -6z m-3525 -55 c30 -42 22 -43 -21 -4 -43 39 -62 43 -100 21 -14 -8 -29
-14 -34 -15 -17 0 19 33 49 46 25 10 34 10 58 -4 16 -10 37 -29 48 -44z m3429
53 c0 -5 -7 -14 -15 -21 -12 -10 -13 -16 -4 -27 14 -17 5 -28 -16 -19 -17 6
-38 53 -29 67 7 12 64 12 64 0z m-2248 -23 c-16 -16 -25 -19 -33 -11 -16 16
-2 33 29 33 l26 0 -22 -22z m2112 -1 c9 -37 -4 -67 -29 -67 -21 0 -22 2 -12
45 11 48 31 59 41 22z m-94 4 c0 -5 -6 -14 -14 -20 -8 -7 -12 -21 -9 -31 4
-17 0 -20 -26 -20 -29 0 -31 2 -20 21 9 17 8 23 -2 30 -33 21 -63 -7 -39 -35
9 -12 7 -17 -10 -26 -22 -12 -25 -8 -32 35 -2 15 -13 21 -43 26 -39 5 -36 12
10 22 38 9 185 7 185 -2z m1345 -87 c-60 -122 -174 -136 -258 -31 -16 19 -26
40 -22 47 8 14 35 -5 35 -25 0 -7 14 -25 31 -39 23 -19 42 -26 74 -26 67 0
104 39 151 155 7 19 8 19 12 -3 2 -13 -8 -48 -23 -78z m-1623 51 c1 -11 18
-27 36 -36 l32 -17 -35 -6 c-48 -9 -55 -3 -55 52 0 45 14 50 22 7z m-1982 -10
c0 -30 -10 -55 -21 -55 -5 0 -9 8 -9 17 0 9 -7 25 -16 35 -16 16 -15 18 7 27
30 11 39 6 39 -24z m111 -2 c-9 -16 -10 -14 -11 12 0 21 3 26 11 18 8 -8 8
-16 0 -30z m-215 -39 c-4 -13 -11 -24 -16 -24 -15 0 -12 68 3 73 15 5 21 -17
13 -49z m3866 44 c11 -9 17 -37 21 -91 l6 -79 -36 -39 c-66 -73 -210 -169
-253 -169 -25 0 -62 75 -64 129 -1 32 2 34 44 47 56 16 150 81 167 114 7 14
19 42 27 63 13 31 20 37 44 37 15 0 35 -6 44 -12z m186 -12 c-15 -13 -37 -31
-48 -39 -20 -14 -21 -17 -6 -45 9 -17 43 -54 76 -84 60 -53 70 -70 48 -84 -15
-9 -126 109 -134 143 -4 12 -10 23 -16 23 -5 0 -8 17 -6 37 3 34 7 39 48 55
61 23 70 22 38 -6z m-2188 -7 c0 -11 -4 -17 -10 -14 -5 3 -10 13 -10 21 0 8 5
14 10 14 6 0 10 -9 10 -21z m85 -10 c18 -33 15 -45 -10 -36 -9 4 -15 19 -15
37 0 38 5 38 25 -1z m2537 10 l41 -21 -7 -86 c-3 -47 -1 -152 6 -232 l12 -147
-27 -54 c-28 -57 -84 -139 -95 -139 -4 0 -15 14 -24 30 -38 67 -50 15 -22
-100 18 -77 13 -106 -20 -114 -38 -9 -55 2 -83 57 -14 28 -42 74 -63 101 -20
28 -43 65 -49 83 -19 47 -37 59 -51 34 -16 -31 -40 -26 -40 8 0 40 24 103 64
169 38 62 43 79 81 253 39 185 30 175 163 178 56 1 82 -4 114 -20z m946 9 c7
-7 12 -21 12 -32 0 -33 51 -170 71 -192 10 -11 19 -24 19 -27 0 -25 -165 113
-176 145 -4 12 4 33 20 57 14 20 26 42 26 49 0 15 13 15 28 0z m-9290 -15 c-3
-19 -53 -41 -64 -30 -11 11 27 47 48 47 13 0 18 -6 16 -17z m2976 -4 c38 -30
32 -39 -28 -39 l-55 0 -7 -46 c-10 -66 0 -135 22 -152 12 -8 33 -12 55 -9 47
6 70 -6 41 -22 -53 -28 -105 -7 -133 52 -32 72 -21 158 28 209 32 33 42 34 77
7z m793 -26 c4 -40 2 -43 -21 -43 -19 0 -23 4 -19 20 3 11 0 27 -7 35 -16 19
-3 37 23 33 16 -2 21 -12 24 -45z m-113 9 c-1 -7 -2 -24 -2 -38 -2 -21 -6 -25
-29 -22 -23 2 -29 8 -31 35 -3 26 1 32 20 36 31 6 43 3 42 -11z m3559 -8 c12
-15 43 -50 70 -79 26 -28 47 -54 47 -58 0 -3 -29 -26 -65 -52 -36 -25 -65 -52
-65 -59 0 -14 50 -50 119 -86 l44 -22 -29 -18 c-54 -35 -117 -45 -190 -33 -37
7 -71 18 -75 25 -5 7 -9 49 -9 93 0 44 -7 125 -15 179 -8 55 -15 105 -15 112
0 15 26 21 103 23 52 1 61 -2 80 -25z m-4676 -21 c-17 -101 -115 -232 -238
-316 -52 -35 -169 -90 -177 -82 -10 10 392 435 412 435 5 0 6 -17 3 -37z
m4437 -6 c8 -29 6 -41 -5 -52 -12 -13 -23 -9 -82 26 -37 23 -67 45 -67 50 0 9
56 17 110 15 32 -1 36 -4 44 -39z m-3464 12 c0 -12 8 -23 20 -26 11 -3 20 -9
20 -13 0 -10 -68 -23 -80 -15 -9 6 -5 47 7 68 9 16 33 6 33 -14z m4510 -12 c0
-18 -6 -41 -12 -50 -12 -16 -16 -15 -50 8 -38 26 -50 59 -25 68 6 3 29 6 50 6
35 1 37 0 37 -32z m-1323 12 c15 -6 51 -28 79 -50 28 -21 54 -39 59 -39 12 0
129 -80 137 -93 9 -17 14 -187 5 -187 -4 0 -11 0 -15 0 -10 0 -142 157 -142
169 0 5 9 11 20 14 11 3 20 12 20 20 0 16 3 15 -125 62 -116 42 -217 93 -210
105 8 13 137 13 172 -1z m-3304 -36 c7 -43 -2 -53 -52 -53 -27 0 -32 3 -23 12
7 7 12 24 12 38 0 32 7 40 35 40 18 0 24 -7 28 -37z m2587 3 c91 8 219 16 285
17 l120 2 85 -53 c46 -29 108 -60 137 -68 29 -9 57 -23 63 -33 10 -20 -33
-258 -51 -276 -14 -14 -94 32 -148 85 -25 25 -62 56 -81 70 -19 13 -78 58
-130 100 -99 80 -141 110 -150 110 -3 0 -25 -37 -50 -81 -25 -45 -51 -84 -59
-87 -8 -3 -26 2 -40 10 -14 9 -71 42 -126 73 -55 32 -103 63 -107 69 -4 6 -8
29 -8 52 l0 41 48 -23 47 -23 165 15z m2511 11 c47 -31 44 -51 -8 -58 -48 -6
-63 3 -63 41 0 47 20 52 71 17z m154 -56 c-7 -6 -54 39 -67 64 -6 11 8 2 31
-19 22 -22 38 -42 36 -45z m-5829 -25 c-1 -71 2 -89 20 -113 28 -38 71 -62
126 -69 40 -6 48 -3 80 25 40 35 48 38 48 17 0 -29 -59 -66 -105 -66 -66 0
-145 45 -172 98 -26 53 -38 129 -24 165 19 49 29 28 27 -57z m444 65 c-7 -13
-7 -22 0 -26 20 -12 11 -36 -12 -33 -19 2 -24 10 -26 41 -3 34 -1 37 23 37 22
0 24 -3 15 -19z m-84 -6 c-22 -17 -36 -19 -36 -7 0 14 12 22 34 22 21 -1 21
-1 2 -15z m-136 -40 c0 -13 -4 -27 -10 -30 -6 -4 -10 8 -10 30 0 22 4 34 10
30 6 -3 10 -17 10 -30z m50 26 c0 -6 -4 -13 -10 -16 -5 -3 -10 1 -10 9 0 9 5
16 10 16 6 0 10 -4 10 -9z m-112 -30 c2 -12 1 -29 -2 -38 -9 -22 -36 2 -36 32
0 41 32 47 38 6z m198 -19 c-22 -5 -30 3 -21 18 5 8 11 7 22 -2 15 -12 14 -13
-1 -16z m5414 -21 c0 -17 -60 -60 -98 -71 -62 -17 -74 -14 -70 17 3 25 10 30
63 45 69 19 105 22 105 9z m-2421 -81 c18 -14 58 -47 90 -75 57 -50 142 -114
247 -188 30 -21 54 -45 54 -53 0 -7 -36 -48 -80 -90 -90 -86 -131 -147 -220
-325 -65 -128 -95 -179 -109 -179 -5 0 -21 26 -36 58 -16 31 -40 82 -56 112
-88 177 -259 614 -274 700 -7 41 -6 42 16 35 13 -4 58 -25 99 -47 133 -72 129
-71 145 -58 7 6 16 28 20 49 3 21 15 52 26 70 21 34 23 34 78 -9z m-2927 -15
c9 -24 13 -47 9 -50 -16 -9 -111 25 -111 41 0 33 20 54 53 54 30 0 34 -4 49
-45z m4598 39 c0 -17 -25 -46 -75 -83 -30 -23 -55 -39 -55 -36 0 10 112 125
122 125 4 0 8 -3 8 -6z m1595 -24 c3 -5 2 -10 -4 -10 -5 0 -13 5 -16 10 -3 6
-2 10 4 10 5 0 13 -4 16 -10z m-10231 -89 c10 -46 30 -120 47 -164 16 -45 29
-89 29 -99 0 -22 -33 -40 -68 -36 -32 4 -39 27 -48 185 -5 79 -3 125 6 158 7
25 14 44 15 43 1 -2 10 -41 19 -87z m7558 62 c47 -49 120 -176 106 -184 -17
-9 -179 -32 -184 -26 -3 3 2 47 11 98 26 160 24 157 67 112z m571 12 c8 -18
-11 -31 -25 -17 -11 11 -3 32 12 32 4 0 10 -7 13 -15z m-7585 -7 c15 -15 16
-45 2 -53 -16 -10 -40 15 -40 41 0 26 19 31 38 12z m3065 -75 l65 -57 -53 -40
c-29 -23 -80 -65 -114 -93 -34 -29 -69 -53 -77 -53 -14 0 -232 78 -324 116
l-34 15 29 24 c17 14 63 45 103 70 86 53 152 70 284 74 56 1 58 0 121 -56z
m5042 37 c-3 -5 -11 -10 -16 -10 -6 0 -7 5 -4 10 3 6 11 10 16 10 6 0 7 -4 4
-10z m-6919 -208 c106 -66 228 -128 327 -167 87 -33 101 -51 77 -94 -19 -36
-70 -26 -224 40 -326 142 -542 261 -534 295 2 8 32 34 68 58 l65 44 71 -64
c39 -35 107 -85 150 -112z m-1010 117 c114 -61 115 -65 48 -195 -25 -49 -62
-127 -81 -174 -19 -47 -43 -103 -53 -125 -10 -22 -23 -56 -29 -75 -21 -67
-133 -241 -147 -227 -3 3 -1 86 4 184 9 140 15 191 32 232 11 30 25 97 30 154
5 56 12 121 15 143 6 43 59 134 77 134 6 0 53 -23 104 -51z m7762 22 c-9 -24
-102 -89 -183 -127 -106 -51 -234 -84 -322 -84 -92 0 -77 16 21 23 131 9 224
41 326 111 53 36 141 86 153 86 5 0 7 -4 5 -9z m-4465 -20 c9 -9 2 -10 -33 -5
-80 13 -101 24 -37 21 32 -2 63 -9 70 -16z m5987 3 c67 -45 247 -252 386 -445
38 -52 86 -115 106 -140 80 -99 241 -370 305 -514 30 -69 93 -295 118 -426
l12 -67 -48 -7 c-61 -9 -239 4 -239 17 0 5 4 17 10 27 20 38 82 303 76 327 -9
36 -46 31 -104 -15 -43 -34 -172 -182 -256 -294 -16 -21 -33 -36 -38 -35 -5 2
-11 96 -12 208 -4 218 -10 273 -57 525 -49 260 -86 389 -148 520 -21 44 -55
114 -74 155 -20 41 -52 94 -71 117 -20 22 -36 46 -36 52 0 17 42 13 70 -5z
m120 -14 c0 -5 -4 -10 -10 -10 -5 0 -10 5 -10 10 0 6 5 10 10 10 6 0 10 -4 10
-10z m-196 -87 c139 -197 241 -459 276 -708 6 -44 17 -110 25 -147 21 -95 38
-396 28 -498 -4 -47 -6 -114 -4 -150 2 -61 1 -67 -28 -94 l-31 -30 0 130 c0
139 -6 205 -46 504 -46 348 -75 543 -83 559 -5 9 -18 54 -30 101 -26 97 -70
200 -135 315 -26 44 -46 83 -46 87 0 23 25 0 74 -69z m-6199 41 c-16 -15 -67
-60 -113 -100 -51 -46 -91 -74 -105 -74 -18 1 -7 15 57 75 43 41 102 86 129
100 64 31 70 31 32 -1z m372 0 c21 -21 24 -32 20 -61 -7 -38 -69 -113 -94
-113 -19 0 -16 13 12 67 21 38 24 55 19 90 -7 51 4 56 43 17z m-117 -33 c0
-25 -16 -44 -29 -36 -16 9 -33 54 -26 65 9 14 55 -11 55 -29z m-110 -8 c11
-16 39 -62 62 -103 50 -87 85 -116 260 -216 65 -38 131 -79 146 -92 l27 -23
-60 4 c-49 4 -82 17 -177 66 -108 56 -123 61 -181 61 -55 0 -76 6 -176 54 -62
30 -126 59 -143 65 l-29 10 18 32 c34 59 177 169 220 169 7 0 22 -12 33 -27z
m-2795 -2 l60 -7 -41 -39 c-111 -109 -332 -315 -338 -315 -13 0 -5 53 19 116
38 101 84 181 127 219 41 38 53 40 173 26z m163 -88 c-29 -42 -85 -112 -125
-155 -173 -189 -380 -400 -413 -422 -35 -23 -150 -163 -150 -182 0 -14 -57
-74 -70 -74 -13 0 -4 19 48 100 58 92 193 249 323 377 68 66 191 191 272 277
82 86 153 156 159 156 5 0 -15 -35 -44 -77z m9116 -67 c73 -91 195 -259 291
-402 58 -86 130 -222 123 -230 -3 -2 -13 13 -24 33 -10 21 -36 57 -56 80 -20
22 -46 58 -57 80 -32 58 -43 75 -76 113 -17 19 -41 53 -54 75 -14 22 -48 69
-76 105 -57 72 -111 147 -137 192 -10 16 -26 41 -35 56 l-17 27 23 -20 c13
-11 55 -60 95 -109z m-2650 83 c10 -30 2 -88 -18 -114 -12 -16 -13 -12 -8 33
3 38 0 58 -12 76 -21 33 -20 38 6 34 14 -2 26 -13 32 -29z m-149 1 c-3 -5 -15
-10 -26 -10 -11 0 -17 5 -14 10 3 6 15 10 26 10 11 0 17 -4 14 -10z m-6135
-40 c0 -22 -21 -120 -46 -217 -47 -181 -68 -343 -46 -343 25 0 42 51 61 185
17 117 74 361 86 374 4 3 92 -44 166 -90 42 -27 50 -38 89 -132 23 -56 50
-120 60 -142 29 -68 39 -71 128 -42 73 23 86 24 235 20 157 -6 157 -6 157 -29
0 -35 18 -29 28 9 7 29 13 33 53 37 24 3 56 14 71 24 24 16 35 16 97 7 112
-18 270 -14 310 7 19 9 37 23 39 29 2 7 -22 39 -52 71 -31 32 -56 64 -56 70 0
16 78 55 96 48 21 -8 176 -250 243 -379 32 -61 77 -166 99 -232 71 -207 73
-233 79 -755 l4 -465 -74 -76 c-71 -73 -266 -228 -297 -236 -11 -3 -31 22 -65
84 -27 48 -64 110 -82 138 -18 27 -33 59 -33 70 0 12 -4 25 -9 31 -22 22 -143
322 -170 419 -17 64 -37 115 -50 129 l-22 24 22 16 c33 22 47 20 99 -14 25
-16 49 -30 54 -30 5 0 32 -20 60 -43 121 -104 137 -92 181 133 50 260 63 700
20 700 -23 0 -27 -32 -36 -255 -4 -121 -15 -260 -23 -310 -24 -135 -50 -238
-62 -242 -10 -3 -29 9 -114 74 -42 32 -42 33 -19 41 13 5 47 15 74 21 63 15
79 25 72 45 -11 28 -57 31 -117 8 -69 -26 -305 -102 -430 -138 -181 -52 -209
-58 -216 -51 -4 4 16 116 46 250 87 395 94 432 87 450 -6 15 -10 16 -28 7 -32
-18 -44 -58 -88 -300 -63 -344 -88 -440 -116 -440 -34 0 -105 47 -224 149
-154 130 -221 191 -219 200 5 39 -5 280 -12 291 -21 34 -32 -11 -40 -178 -11
-212 -77 -706 -113 -846 -16 -63 -43 -83 -143 -106 -104 -24 -232 -43 -248
-37 -17 7 -30 62 -52 207 -26 182 -16 371 36 650 52 282 59 353 36 375 -9 9
-16 24 -16 33 1 43 34 153 70 230 22 47 40 93 40 102 0 10 9 28 21 41 l20 24
-6 -25 c-4 -14 -23 -63 -42 -110 -19 -47 -39 -103 -44 -125 -5 -22 -13 -57
-18 -78 -5 -20 -5 -39 0 -42 11 -7 29 23 74 120 80 172 110 230 137 261 16 18
38 61 49 95 24 71 62 152 90 188 11 13 19 32 19 42 0 11 5 19 10 19 6 0 10
-18 10 -40z m6457 24 c-3 -3 -12 -4 -19 -1 -8 3 -5 6 6 6 11 1 17 -2 13 -5z
m797 -43 c3 -5 -15 -11 -40 -14 -50 -5 -114 -44 -147 -89 -13 -18 -22 -48 -24
-85 -5 -78 -11 -103 -25 -103 -17 0 -3 120 20 165 22 44 47 70 106 109 38 25
99 35 110 17z m-1065 -15 c15 -18 -1 -87 -25 -111 -18 -17 -24 -14 -84 37
l-43 38 54 25 c62 29 82 31 98 11z m672 -49 c38 -53 51 -77 41 -77 -11 0 -72
78 -72 92 0 15 15 8 31 -15z m-941 -2 c-7 -8 -17 -15 -22 -15 -6 0 -5 7 2 15
7 8 17 15 22 15 6 0 5 -7 -2 -15z m1371 -55 c56 -57 99 -136 99 -180 0 -36
-38 -80 -69 -80 -31 0 -34 17 -10 49 21 29 21 31 5 56 -25 38 -94 103 -118
111 -13 4 -27 -1 -42 -15 -20 -19 -46 -28 -46 -16 0 25 38 88 63 104 47 31 66
26 118 -29z m-616 -16 c12 -19 13 -24 2 -24 -16 0 -67 52 -67 68 0 17 44 -13
65 -44z m-5355 35 c0 -12 -55 -36 -125 -55 -58 -16 -133 -18 -168 -5 -39 15
-51 -1 -49 -68 l2 -61 -51 0 -51 0 6 68 c10 96 15 99 178 100 82 1 154 7 188
16 69 18 70 18 70 5z m-496 -88 c-1 -93 -10 -109 -64 -113 -25 -2 -35 1 -38
13 -4 19 30 112 58 157 33 53 45 36 44 -57z m943 74 c27 -19 68 -75 55 -75
-17 0 -108 89 -92 90 9 0 25 -7 37 -15z m4308 -52 c85 -56 153 -74 317 -84 81
-5 180 -18 222 -29 80 -20 176 -64 176 -81 0 -6 -8 -6 -21 2 -12 6 -53 22 -92
35 -105 36 -159 30 -104 -10 12 -9 18 -19 12 -22 -42 -20 -45 -54 -5 -54 36 0
21 -18 -37 -46 -32 -15 -78 -40 -102 -57 -24 -17 -65 -38 -92 -48 -53 -20 -66
-18 -169 29 -36 16 -99 39 -140 51 -103 31 -229 99 -236 128 -8 32 40 115 110
190 l59 63 26 -16 c14 -10 49 -32 76 -51z m-5565 -4 c69 -23 134 -50 145 -61
20 -19 20 -19 -2 -37 -25 -21 -127 -45 -193 -45 -45 -1 -45 -1 -58 44 -8 25
-22 66 -32 93 -23 60 -24 60 140 6z m5300 -18 c-11 -23 -43 -75 -69 -116 -27
-42 -55 -92 -61 -113 -20 -61 -72 -172 -82 -172 -39 0 102 321 179 409 52 59
66 55 33 -8z m2730 24 c0 -5 -5 -3 -10 5 -5 8 -10 20 -10 25 0 6 5 3 10 -5 5
-8 10 -19 10 -25z m-1120 15 c0 -5 -4 -10 -10 -10 -5 0 -10 5 -10 10 0 6 5 10
10 10 6 0 10 -4 10 -10z m-6059 -51 c16 -17 29 -40 29 -50 0 -17 -8 -19 -71
-19 -107 0 -249 21 -249 37 0 7 10 14 23 17 12 2 60 13 107 24 117 27 127 27
161 -9z m-2561 -33 c0 -24 -9 -135 -21 -247 -11 -112 -24 -261 -29 -330 l-8
-127 -49 -73 c-137 -204 -188 -286 -266 -424 -111 -197 -144 -264 -152 -308
-8 -39 -28 -63 -45 -52 -5 3 -28 39 -50 78 -62 113 -56 144 58 275 37 42 92
109 123 147 31 39 113 132 181 208 121 133 199 250 180 269 -24 24 -214 -180
-423 -453 -87 -114 -129 -159 -146 -159 -41 0 50 170 271 505 98 149 202 298
232 333 54 64 79 118 72 162 -5 41 -29 28 -76 -40 -24 -36 -55 -77 -69 -92
-14 -15 -31 -37 -37 -49 -22 -43 -34 -32 -61 53 l-26 84 36 117 c19 64 35 118
35 120 0 9 179 44 238 46 31 1 32 0 32 -43z m9644 -77 c30 -93 42 -279 27
-426 -15 -141 -85 -313 -128 -313 -20 0 -16 23 21 107 19 43 38 96 42 118 3
22 14 54 23 70 13 24 16 59 15 170 -1 130 -7 178 -49 370 l-6 30 15 -26 c8
-15 26 -60 40 -100z m-1794 96 c41 -21 38 -29 -7 -20 -46 8 -55 13 -48 26 8
13 21 11 55 -6z m1010 -2 c0 -22 -17 -50 -25 -42 -6 7 11 59 20 59 3 0 5 -8 5
-17z m904 -26 c4 -17 3 -26 -2 -23 -6 3 -12 19 -14 36 -6 37 7 27 16 -13z
m-6636 -139 c234 -261 439 -564 611 -901 125 -246 229 -514 214 -552 -3 -8
-31 -22 -62 -31 -76 -21 -100 -30 -214 -81 -53 -25 -104 -43 -111 -41 -17 4
-246 198 -246 209 0 12 157 164 189 182 30 18 31 18 31 -2 0 -11 -12 -52 -26
-91 -14 -39 -23 -76 -21 -83 3 -7 28 12 59 43 43 45 57 68 71 116 9 33 17 81
17 107 0 41 -3 47 -20 47 -41 0 -178 -90 -249 -164 -19 -20 -38 -36 -41 -36
-4 0 -10 75 -13 168 -15 439 -147 939 -314 1193 -24 36 -43 68 -43 73 0 19 70
-46 168 -156z m4818 111 c4 -8 1 -8 -14 0 -12 6 -24 16 -28 22 -4 8 -1 8 14 0
12 -6 24 -16 28 -22z m504 -4 c19 -23 4 -30 -25 -11 -30 20 -36 53 -7 37 10
-5 25 -17 32 -26z m-4704 -101 c-30 -64 -32 -84 -12 -84 23 0 64 61 89 131
l22 64 3 -64 c2 -35 -1 -84 -6 -108 -8 -37 -7 -45 5 -50 10 -4 23 3 34 18 l18
24 10 -26 c5 -15 23 -36 38 -47 l29 -21 61 31 c33 16 70 28 81 26 l21 -3 -20
-46 c-40 -92 -144 -103 -324 -35 -55 21 -119 45 -142 53 -56 19 -103 64 -103
97 0 35 22 33 54 -5 15 -18 32 -29 40 -26 15 6 75 97 104 159 l17 37 3 -35 c2
-21 -6 -55 -22 -90z m4259 86 c8 -13 -5 -13 -25 0 -13 8 -13 10 2 10 9 0 20
-4 23 -10z m-7220 -130 c-56 -140 -117 -329 -140 -435 -9 -44 -28 -131 -41
-194 -14 -63 -36 -195 -50 -295 -34 -253 -32 -246 -63 -258 -103 -40 -116 -47
-629 -352 -117 -69 -217 -126 -223 -126 -5 0 -12 6 -15 14 -6 16 65 231 107
325 16 35 29 70 29 77 0 29 122 269 179 352 72 104 181 236 317 382 54 58 125
141 158 186 116 154 181 229 294 344 63 63 116 110 119 104 2 -7 -17 -62 -42
-124z m7596 101 c28 -29 39 -61 20 -61 -6 0 -24 15 -40 33 -53 55 -34 81 20
28z m-4917 4 c8 -9 18 -32 22 -53 11 -61 43 -137 67 -160 12 -11 58 -29 104
-41 45 -11 99 -29 121 -40 41 -21 242 -213 242 -232 0 -6 25 -51 55 -99 80
-131 165 -299 165 -329 0 -67 -67 -391 -80 -391 -5 0 -23 43 -40 95 -56 169
-152 338 -316 556 -192 255 -484 666 -484 681 0 10 58 26 97 27 17 1 38 -6 47
-14z m494 -19 c-4 -31 -38 -34 -38 -3 0 29 7 37 27 30 8 -3 13 -15 11 -27z
m447 -8 c37 -16 31 -27 -12 -21 -98 13 -203 -146 -203 -305 0 -61 2 -66 39
-103 47 -47 85 -51 129 -14 34 29 51 33 31 8 -26 -31 -103 -73 -134 -73 -41 0
-80 41 -96 102 -11 39 -10 62 3 138 26 143 78 229 163 266 38 17 48 17 80 2z
m6305 -24 c20 -32 74 -169 86 -219 2 -11 -23 36 -56 104 -54 111 -69 151 -56
151 2 0 14 -16 26 -36z m-6533 10 c3 -10 -4 -24 -18 -38 -31 -29 -185 -100
-199 -91 -14 9 -13 58 3 78 14 20 140 66 180 67 16 0 30 -6 34 -16z m4487 4
c-26 -46 -51 -71 -86 -89 -40 -20 -70 -17 -34 5 11 6 41 30 68 54 50 43 65 52
52 30z m-347 -40 c24 -22 31 -72 13 -83 -20 -13 -9 -25 23 -25 36 0 126 -27
142 -42 6 -7 -15 -8 -61 -3 -71 7 -71 7 -97 -25 -33 -39 -42 -72 -28 -98 6
-12 11 -26 11 -33 0 -24 -30 16 -45 57 -12 37 -12 40 16 72 28 31 37 52 22 52
-4 0 -56 -48 -116 -107 -66 -65 -112 -103 -114 -95 -3 7 7 24 22 38 l28 26
-26 26 c-23 22 -30 25 -54 16 -16 -6 -27 -16 -25 -25 1 -9 -9 -21 -22 -29 -46
-24 -39 -45 30 -86 18 -11 18 -13 -8 -39 -16 -15 -28 -31 -28 -35 0 -4 -25
-29 -55 -55 l-55 -47 -31 27 c-37 30 -63 29 -67 -3 -2 -16 -10 -22 -27 -22
-23 0 -55 -23 -55 -40 0 -9 43 -46 63 -53 8 -3 5 -10 -8 -20 -18 -14 -22 -13
-53 14 -18 16 -37 27 -43 24 -14 -9 -11 -42 7 -76 8 -17 14 -35 12 -41 -4 -11
-78 48 -78 62 0 10 137 167 207 236 58 59 72 64 91 34 9 -15 23 -20 52 -20 22
0 40 3 40 7 0 17 -46 53 -67 53 -13 0 -23 6 -23 14 0 24 339 366 363 366 11 0
31 -10 44 -22z m-232 2 c3 -5 -1 -10 -9 -10 -8 0 -18 5 -21 10 -3 6 1 10 9 10
8 0 18 -4 21 -10z m-4845 -10 c0 -5 -4 -10 -10 -10 -5 0 -10 5 -10 10 0 6 5
10 10 10 6 0 10 -4 10 -10z m1168 -60 c3 -31 -1 -37 -28 -47 -57 -21 -83 -144
-37 -177 l22 -15 -24 -21 c-32 -28 -67 -26 -87 5 -24 37 -15 148 17 206 27 49
83 91 114 87 15 -2 21 -12 23 -38z m2592 8 c22 -13 40 -26 40 -29 0 -8 -53
-19 -91 -19 -17 0 -29 5 -29 13 0 29 13 57 27 57 8 0 32 -10 53 -22z m-2510
-53 c0 -14 -4 -25 -10 -25 -5 0 -10 11 -10 25 0 14 5 25 10 25 6 0 10 -11 10
-25z m4147 -2 c-9 -9 -20 -14 -24 -10 -3 4 2 14 13 21 25 19 33 10 11 -11z
m-5299 -39 c-10 -10 -28 6 -28 24 0 15 1 15 17 -1 9 -9 14 -19 11 -23z m5252
16 c0 -5 -4 -10 -9 -10 -5 0 -16 -3 -25 -6 -9 -3 -16 -1 -16 4 0 9 16 17 43
21 4 0 7 -3 7 -9z m-1307 -90 c-2 -106 -61 -648 -72 -669 -6 -11 -11 -31 -11
-45 0 -36 -48 -86 -159 -168 -53 -39 -133 -107 -179 -152 -66 -64 -85 -78 -92
-66 -17 27 -10 45 30 72 37 26 130 139 130 159 0 20 -10 15 -161 -92 -116 -81
-218 -143 -226 -136 -13 13 69 308 138 497 34 91 110 271 142 335 44 89 135
223 164 242 38 25 245 94 273 91 24 -3 25 -6 23 -68z m-4179 -4 c8 -19 33 -99
55 -178 68 -239 101 -497 101 -794 0 -158 -2 -172 -20 -189 -19 -17 -20 -17
-26 0 -4 9 -1 61 6 115 10 79 11 139 1 311 -7 118 -19 246 -26 284 -8 39 -23
117 -34 175 -12 58 -32 143 -46 190 -37 121 -37 120 -31 120 3 0 12 -15 20
-34z m4263 -98 c-3 -68 -12 -154 -20 -193 -8 -38 -18 -114 -21 -168 -8 -113
-1 -124 60 -86 33 20 35 20 26 3 -6 -10 -33 -41 -61 -69 -74 -71 -79 -61 -57
117 9 79 21 195 26 258 14 169 31 260 47 260 3 0 3 -55 0 -122z m78 111 c10
-15 -1 -23 -20 -15 -9 3 -13 10 -10 16 8 13 22 13 30 -1z m1690 -58 c1 -26 11
-50 29 -72 15 -17 24 -34 20 -38 -3 -3 -19 9 -34 27 -29 36 -52 104 -43 129 9
24 25 -2 28 -46z m-4645 40 c0 -11 -39 -59 -40 -49 0 14 23 58 32 58 4 0 8 -4
8 -9z m78 -19 c9 -6 5 -12 -14 -21 -22 -9 -25 -17 -22 -41 3 -19 0 -30 -8 -30
-20 0 -25 29 -9 66 14 34 28 41 53 26z m5282 -28 c0 -14 -4 -22 -10 -19 -5 3
-10 17 -10 31 0 14 4 22 10 19 6 -3 10 -17 10 -31z m-6430 16 c0 -5 -2 -10 -4
-10 -3 0 -8 5 -11 10 -3 6 -1 10 4 10 6 0 11 -4 11 -10z m3424 -71 c-41 -52
-56 -52 -29 1 22 42 58 77 63 62 2 -7 -13 -35 -34 -63z m2253 -41 c10 -12 34
-27 53 -35 92 -39 340 -229 340 -261 0 -24 -19 -11 -66 44 -32 37 -68 66 -108
86 -119 59 -221 127 -244 162 -13 19 -26 54 -28 78 l-5 43 20 -49 c11 -26 28
-57 38 -68z m1747 96 c3 -9 6 -25 6 -37 -1 -17 -2 -19 -9 -7 -16 27 -22 60
-13 60 6 0 13 -7 16 -16z m-6752 -74 c12 -50 25 -81 40 -93 60 -49 89 -80 85
-90 -8 -26 -36 -16 -68 25 -18 24 -58 72 -89 108 -86 101 -84 98 -70 116 9 9
26 14 48 12 35 -3 36 -3 54 -78z m-634 51 c3 -8 -1 -12 -9 -9 -7 2 -15 10 -17
17 -3 8 1 12 9 9 7 -2 15 -10 17 -17z m1182 4 c0 -9 -7 -27 -16 -41 -19 -28
-12 -41 25 -46 25 -3 50 -32 39 -44 -7 -6 -113 50 -123 65 -2 5 4 16 15 26 11
10 20 26 20 37 0 11 7 18 20 18 11 0 20 -7 20 -15z m3611 -22 c17 -44 69 -226
65 -230 -9 -9 -31 35 -60 119 -26 77 -35 94 -54 96 -25 4 -28 12 -10 30 21 21
48 14 59 -15z m2391 -120 c31 -76 68 -190 83 -253 15 -63 36 -130 47 -149 19
-34 19 -34 -2 -55 -27 -27 -33 -17 -49 77 -14 80 -116 436 -137 479 -16 31
-17 38 -6 38 5 0 33 -62 64 -137z m-5928 109 c2 -4 1 -14 -4 -22 -7 -11 -12
-12 -21 -3 -6 6 -8 16 -5 22 8 13 23 14 30 3z m70 -50 c-1 -7 -2 -28 -2 -48
-2 -34 -3 -36 -29 -29 -16 4 -29 8 -31 10 -7 7 43 85 53 82 6 -2 10 -9 9 -15z
m5085 -19 c29 -109 55 -523 33 -523 -7 0 -12 8 -12 18 0 10 -9 105 -19 212
-31 318 -32 330 -22 330 6 0 15 -17 20 -37z m-1519 -8 c0 -5 -5 -3 -10 5 -5 8
-10 20 -10 25 0 6 5 3 10 -5 5 -8 10 -19 10 -25z m-230 16 c0 -11 -126 -128
-153 -143 -35 -18 -2 25 68 90 63 59 85 73 85 53z m2794 -89 c30 -90 31 -103
11 -142 -22 -42 -38 -38 -18 4 15 33 15 37 -9 98 -14 34 -29 81 -32 102 -12
67 19 26 48 -62z m-10711 19 c-12 -15 -40 -56 -64 -90 -43 -63 -56 -77 -65
-68 -10 10 70 139 104 167 43 35 54 31 25 -9z m4687 -41 c29 0 50 -11 50 -26
0 -22 -31 -16 -87 16 -59 34 -65 46 -29 60 13 5 28 15 33 22 5 8 9 -2 11 -29
3 -34 7 -43 22 -43z m1869 18 c-11 -29 -49 -114 -84 -188 -66 -143 -105 -252
-139 -389 -20 -81 -46 -120 -46 -69 0 39 95 330 135 415 21 43 51 107 67 142
30 66 75 141 83 141 3 0 -5 -24 -16 -52z m-6029 30 c0 -19 -18 -43 -25 -36 -9
9 4 48 16 48 5 0 9 -6 9 -12z m2825 1 c11 -17 -1 -21 -15 -4 -8 9 -8 15 -2 15
6 0 14 -5 17 -11z m1409 -24 c-4 -8 -10 -13 -15 -10 -4 3 -6 12 -3 20 4 8 10
13 15 10 4 -3 6 -12 3 -20z m114 -37 c-5 -14 -69 -60 -75 -54 -2 2 4 17 14 35
12 21 26 31 41 31 15 0 22 -5 20 -12z m-1483 -8 c3 -5 2 -10 -4 -10 -5 0 -13
5 -16 10 -3 6 -2 10 4 10 5 0 13 -4 16 -10z m1572 -11 c9 -9 8 -22 -4 -53 -20
-52 -18 -49 -42 -41 -26 8 -27 31 -1 73 21 35 30 38 47 21z m-4476 -42 c-8 -8
-11 -5 -11 9 0 27 14 41 18 19 2 -9 -1 -22 -7 -28z m4554 9 c19 -8 35 -18 35
-22 0 -5 -12 -21 -27 -36 -27 -28 -66 -37 -78 -18 -3 6 0 10 8 10 8 0 22 9 33
21 18 20 18 21 -6 40 -30 22 -13 25 35 5z m1122 -72 c-49 -47 -91 -83 -94 -80
-8 8 155 166 170 166 7 0 -28 -39 -76 -86z m-2737 55 c0 -6 -4 -7 -10 -4 -5 3
-10 11 -10 16 0 6 5 7 10 4 6 -3 10 -11 10 -16z m4865 -135 c40 -52 39 -71 -1
-33 -32 30 -104 139 -104 157 0 8 16 -7 35 -32 19 -25 51 -67 70 -92z m-795
-87 c-232 -230 -347 -334 -357 -324 -6 7 23 37 182 187 49 47 153 145 230 217
77 73 145 133 150 133 6 0 -87 -96 -205 -213z m-2285 170 c22 -11 50 -28 62
-37 l23 -18 -25 -16 c-14 -9 -25 -23 -25 -31 0 -9 -10 -15 -24 -15 -27 0 -47
21 -28 28 28 9 42 33 32 53 -15 26 -42 24 -68 -6 -25 -28 -44 -32 -61 -11 -8
10 -9 16 -1 21 5 3 10 20 10 36 0 29 1 30 33 24 17 -4 50 -17 72 -28z m-5395
-55 c0 -4 -16 -29 -35 -56 -19 -27 -35 -43 -35 -35 0 8 14 34 31 57 30 42 39
49 39 34z m10396 -113 c-15 -34 -26 -68 -26 -75 0 -6 -8 -22 -18 -34 -19 -23
-19 -23 -65 -5 -89 34 -86 46 46 164 l82 73 3 -30 c2 -16 -8 -58 -22 -93z
m-6686 68 c0 -6 -9 -2 -20 8 -11 10 -20 23 -20 28 0 6 9 2 20 -8 11 -10 20
-23 20 -28z m3752 21 c-7 -7 -12 -8 -12 -2 0 14 12 26 19 19 2 -3 -1 -11 -7
-17z m-1886 -14 c22 -9 51 -25 66 -35 l26 -19 -31 -31 c-37 -38 -64 -29 -59
18 2 19 -3 35 -14 44 -14 12 -19 10 -39 -15 -16 -20 -28 -27 -40 -22 -16 6
-16 8 -3 24 8 9 18 25 21 35 8 21 24 22 73 1z m1992 -19 c23 -37 28 -55 13
-55 -13 0 -61 59 -61 76 0 25 24 15 48 -21z m-6928 -4 c0 -11 -4 -23 -10 -26
-6 -4 -10 5 -10 19 0 14 5 26 10 26 6 0 10 -9 10 -19z m8524 -90 c51 -76 80
-137 71 -151 -3 -5 -22 -14 -43 -20 -20 -7 -50 -20 -67 -30 -48 -28 -76 -10
-149 100 -20 30 -36 62 -36 70 0 18 134 100 162 100 9 0 36 -29 62 -69z m-321
28 c-6 -6 -19 -9 -29 -6 -17 3 -16 5 6 14 28 12 39 8 23 -8z m-3094 -5 l23
-16 -28 -29 c-15 -16 -37 -29 -48 -28 -12 0 -15 3 -8 6 7 2 12 22 12 44 0 43
12 49 49 23z m1751 1 c7 -8 19 -15 26 -15 18 0 18 -11 1 -34 -13 -17 -16 -17
-50 14 -20 18 -37 36 -37 41 0 15 47 10 60 -6z m549 -39 c14 -14 22 -29 18
-32 -13 -13 -111 62 -101 77 7 12 54 -13 83 -45z m-1819 10 c0 -8 -4 -18 -10
-21 -5 -3 -10 3 -10 14 0 12 5 21 10 21 6 0 10 -6 10 -14z m3083 -86 c12 -19
41 -59 64 -88 58 -71 54 -90 -5 -26 -47 51 -132 184 -132 206 0 13 37 -34 73
-92z m-742 39 c78 -47 87 -50 129 -44 25 4 67 16 95 26 27 10 53 19 56 19 4 0
18 -19 32 -42 l24 -42 -38 -60 c-21 -34 -42 -66 -46 -71 -5 -6 -16 -24 -25
-40 -31 -56 -38 -55 -160 26 -62 42 -157 100 -211 129 -66 37 -94 57 -87 64 6
6 40 27 78 47 37 20 67 37 68 38 0 0 39 -22 85 -50z m-2711 15 c0 -9 -65 -84
-72 -84 -12 0 -9 14 13 64 18 41 22 45 40 36 10 -6 19 -13 19 -16z m1562 9
c21 -19 23 -33 5 -33 -22 0 -51 26 -43 38 10 16 16 15 38 -5z m410 -295 c-117
-238 -153 -300 -167 -286 -3 3 4 22 15 44 11 21 34 74 51 116 17 43 42 94 55
113 13 20 24 41 24 48 0 17 97 207 117 229 10 11 20 15 26 9 5 -5 -42 -112
-121 -273z m-1899 256 c18 -9 60 -32 95 -52 67 -39 78 -64 46 -110 -21 -31
-51 -28 -120 14 -62 37 -106 74 -88 74 6 0 21 -11 34 -25 13 -14 26 -25 30
-25 12 0 42 61 36 76 -6 17 -52 19 -62 2 -8 -13 -22 14 -23 45 -1 21 11 22 52
1z m-6086 -1 c-3 -5 -23 -39 -46 -77 -23 -37 -51 -90 -61 -116 -41 -105 -152
-346 -166 -360 -9 -9 -14 -10 -14 -2 0 20 46 136 83 208 20 38 52 107 72 153
35 83 110 201 127 201 5 0 7 -3 5 -7z m7503 -2 c0 -5 -7 -11 -15 -15 -21 -8
-19 -33 5 -63 15 -19 17 -30 10 -44 -17 -31 -30 -32 -57 -5 -26 26 -63 35 -63
15 0 -20 21 -49 35 -49 19 0 19 -29 0 -36 -8 -3 -26 4 -41 15 -15 12 -33 21
-40 21 -27 0 -13 19 67 94 77 72 99 87 99 67z m-1130 -13 c0 -19 -18 -43 -25
-36 -9 9 4 48 16 48 5 0 9 -6 9 -12z m1240 -8 c0 -5 -4 -10 -10 -10 -5 0 -10
5 -10 10 0 6 5 10 10 10 6 0 10 -4 10 -10z m2440 -54 c0 -54 -11 -100 -21 -84
-10 16 -12 102 -2 111 14 15 23 5 23 -27z m328 15 c21 -11 66 -25 100 -31 52
-11 74 -22 122 -62 60 -51 70 -69 70 -129 0 -39 -24 -68 -99 -114 -40 -25 -43
-29 -36 -58 11 -48 10 -115 -3 -182 -6 -33 -16 -112 -22 -175 -11 -114 -25
-201 -80 -480 -16 -80 -38 -210 -49 -290 -22 -152 -57 -280 -84 -307 -17 -18
-63 -10 -197 34 -122 40 -109 3 -146 405 -42 443 -47 748 -14 841 11 31 20 78
20 105 0 53 26 142 42 142 16 0 134 118 196 195 111 139 113 140 180 106z
m-1256 -88 c25 -22 23 -33 -6 -33 -26 0 -51 24 -41 40 9 15 26 12 47 -7z
m-5043 -60 c21 -44 94 -294 87 -301 -7 -6 -16 18 -65 168 -49 149 -55 170 -47
170 3 0 14 -17 25 -37z m2369 -16 c4 -29 -40 -83 -58 -72 -16 10 -12 23 9 30
27 8 34 34 16 61 -21 32 -19 39 8 22 12 -9 23 -27 25 -41z m913 -7 c15 0 -7
-27 -34 -42 -16 -8 -23 -5 -41 17 l-22 27 -28 -23 -28 -24 22 -28 c24 -31 19
-53 -9 -37 -10 5 -26 21 -35 35 -21 31 -16 38 58 97 l49 39 28 -30 c15 -17 33
-31 40 -31z m2273 -19 c-6 -7 -44 40 -43 54 0 6 11 -3 24 -20 13 -16 22 -32
19 -34z m390 -3 c-29 -42 -126 -128 -144 -128 -24 0 -5 23 56 72 40 31 72 65
81 86 11 26 17 32 26 23 8 -8 3 -22 -19 -53z m-2607 -85 c4 -27 8 -120 8 -208
l0 -160 -30 0 -30 0 0 190 c0 105 3 198 7 208 14 34 36 19 45 -30z m-800 -13
c-7 -59 -42 -144 -56 -136 -22 14 21 186 46 186 13 0 15 -8 10 -50z m557 -3
c11 -15 16 -30 12 -34 -8 -9 -56 41 -56 58 0 17 22 5 44 -24z m-105 -35 c-11
-18 -10 -24 5 -41 10 -11 16 -27 13 -35 -5 -13 -100 -74 -140 -89 -22 -8 -59
26 -51 48 9 22 173 148 182 140 2 -2 -2 -12 -9 -23z m224 -222 c-6 -37 -13
-56 -24 -58 -14 -3 -199 111 -199 122 0 5 125 99 190 144 l35 24 3 -89 c1 -48
-1 -113 -5 -143z m-6768 131 c-71 -91 -59 -99 59 -40 32 17 60 28 63 25 3 -2
11 -48 19 -101 11 -70 12 -101 4 -110 -13 -16 -74 -28 -99 -20 -16 5 -168 179
-194 222 -5 8 8 21 45 39 60 31 129 54 141 47 4 -2 -13 -30 -38 -62z m199 43
c7 -18 8 -150 1 -143 -10 11 -34 125 -29 141 7 22 20 23 28 2z m6106 -60 c0
-50 3 -59 34 -90 39 -39 61 -42 117 -14 l40 21 47 -40 c26 -22 67 -55 92 -74
l45 -33 -2 -130 c-5 -229 -50 -443 -134 -624 -21 -47 -70 -157 -107 -245 -53
-124 -74 -163 -94 -172 -33 -17 -317 -48 -329 -36 -5 5 -4 34 1 68 42 261 70
702 70 1108 l0 197 91 60 c117 77 129 78 129 4z m-474 -52 c4 -40 3 -62 -4
-62 -14 0 -22 36 -22 100 1 71 16 48 26 -38z m-2829 -75 c176 -124 154 -119
305 -71 99 32 113 30 92 -12 -25 -51 -52 -74 -87 -74 -70 1 -245 30 -298 50
-62 22 -163 85 -192 117 -17 19 -16 21 4 46 11 15 29 27 39 27 10 0 71 -38
137 -83z m-3193 52 c35 -28 114 -131 131 -173 14 -34 14 -35 -18 -62 -49 -42
-203 -111 -286 -128 -62 -12 -79 -13 -105 -2 -36 15 -140 122 -132 135 8 12
218 170 286 215 63 41 87 44 124 15z m-768 -65 c9 -24 15 -46 12 -49 -2 -2
-53 2 -114 10 -60 8 -115 15 -121 15 -7 0 -13 4 -13 9 0 11 83 29 150 33 41 3
45 5 42 27 -4 37 23 9 44 -45z m8114 15 c-34 -28 -181 -102 -188 -94 -12 12
35 45 113 79 93 40 110 43 75 15z m-4358 -124 c27 -48 75 -185 117 -330 11
-38 36 -102 54 -141 57 -118 168 -188 324 -203 40 -4 75 -10 79 -14 11 -11 23
-253 23 -484 l1 -212 -32 -6 c-18 -3 -85 -5 -148 -3 -111 3 -115 4 -126 28 -7
14 -46 126 -87 250 -41 124 -100 295 -131 380 -99 272 -181 694 -150 775 12
31 48 12 76 -40z m-3944 18 c-21 -2 -55 -2 -75 0 -21 2 -4 4 37 4 41 0 58 -2
38 -4z m206 -2 c8 -12 -18 -21 -62 -21 -56 0 -23 21 45 29 6 0 14 -3 17 -8z
m3951 -66 c71 -25 131 -48 134 -51 3 -2 4 -20 3 -39 -4 -59 59 -72 171 -34
l61 21 17 -21 c17 -21 61 -190 74 -283 7 -43 5 -49 -20 -72 -38 -35 -83 -46
-192 -46 l-93 0 -42 38 c-70 63 -126 147 -148 225 -19 64 -84 262 -97 295 -2
6 -3 12 -1 12 2 0 61 -20 133 -45z m-4051 -14 c69 -6 113 -14 121 -22 6 -8 20
-34 29 -59 26 -66 116 -197 194 -281 80 -87 102 -117 102 -141 0 -24 -22 -23
-73 4 -37 19 -63 23 -234 28 -151 6 -197 10 -216 23 -45 29 -66 93 -82 248 -9
79 -18 159 -21 177 -6 32 -6 32 32 31 22 0 88 -4 148 -8z m1193 -18 c13 -47 6
-233 -11 -333 -10 -52 -31 -149 -47 -215 -33 -134 -235 -808 -250 -837 -13
-24 -59 -42 -154 -62 -97 -20 -161 -21 -168 -2 -9 22 -31 620 -24 647 6 24 68
59 105 59 22 0 207 90 278 136 28 18 55 41 60 51 4 10 10 129 12 265 4 281 0
266 94 299 76 26 96 25 105 -8z m3283 17 c0 -5 -4 -10 -10 -10 -5 0 -10 5 -10
10 0 6 5 10 10 10 6 0 10 -4 10 -10z m-4232 -61 l28 -32 49 28 48 29 44 -48
c50 -56 60 -84 44 -134 -19 -62 -26 -68 -55 -52 -40 21 -133 107 -156 145 -21
34 -43 95 -34 95 2 0 17 -14 32 -31z m4060 9 c-5 -15 -68 -24 -68 -9 0 12 18
19 48 20 15 1 22 -4 20 -11z m-3364 -89 c9 -46 7 -200 -4 -304 -11 -108 -6
-103 -184 -192 -119 -60 -219 -92 -284 -93 -21 0 -23 3 -17 33 4 17 18 66 32
107 18 54 27 114 34 215 6 86 14 144 22 151 7 6 47 16 90 23 80 13 193 47 243
74 45 25 61 21 68 -14z m-504 -214 c0 -8 -4 -15 -10 -15 -5 0 -10 7 -10 15 0
8 5 15 10 15 6 0 10 -7 10 -15z m10250 -785 c69 -12 127 -24 129 -26 2 -2 -2
-11 -10 -20 -10 -13 -25 -15 -64 -11 -68 7 -209 53 -226 74 -16 18 -30 20 171
-17z m-3352 -59 c8 -5 12 -17 10 -27 -3 -17 -15 -19 -103 -22 -114 -4 -212 5
-199 18 5 5 68 15 139 23 72 8 132 15 135 15 3 1 11 -2 18 -7z m3248 -42 c32
-12 100 -24 149 -28 87 -7 89 -8 60 -21 -48 -22 -161 -17 -222 9 -28 13 -59
31 -69 42 -16 18 -16 19 3 19 11 0 46 -9 79 -21z m-3303 -85 c55 -8 40 -28
-24 -32 -68 -4 -211 7 -228 18 -8 4 -10 13 -6 20 7 12 159 8 258 -6z m3675
-52 c260 -346 268 -352 441 -352 79 0 112 4 127 15 10 8 25 15 31 15 16 0 93
-68 93 -82 0 -7 -25 -8 -67 -3 -38 3 -192 9 -343 13 l-275 7 -85 39 c-85 39
-85 39 -250 46 -176 7 -196 11 -205 41 -7 20 50 265 65 284 7 8 25 9 57 4 89
-15 214 -10 268 11 81 30 94 26 143 -38z m-6503 -50 c17 -11 -66 -21 -177 -21
-87 -1 -108 2 -108 13 0 8 8 17 18 20 22 6 254 -4 267 -12z m2729 -12 c55 -5
101 -12 104 -15 7 -6 -16 -196 -33 -279 -22 -104 -79 -156 -172 -156 -81 0
-233 -27 -338 -61 -138 -44 -252 -50 -315 -17 -72 38 -63 44 70 51 145 7 188
23 263 99 57 57 105 134 183 291 l49 97 45 0 c25 0 90 -5 144 -10z m-6316
-122 l-3 -53 -137 -3 c-115 -2 -139 0 -153 14 -32 33 -15 44 70 48 45 2 104
13 135 24 89 31 92 30 88 -30z m3457 33 c-7 -13 -107 -25 -134 -16 -41 13 -9
25 65 25 44 0 73 -4 69 -9z m462 -417 c-8 -6 -554 -20 -560 -14 -23 21 -48
289 -31 334 5 12 21 16 73 16 36 0 88 6 115 13 l49 13 178 -180 c98 -100 177
-181 176 -182z m6557 330 c67 -27 116 -58 116 -75 0 -13 -95 -11 -142 3 -40
12 -128 81 -128 100 0 17 80 2 154 -28z m-4638 -128 c18 -14 17 -17 -28 -62
-40 -41 -53 -47 -96 -52 -68 -6 -154 15 -150 37 4 18 35 35 128 68 75 26 118
29 146 9z m-5882 -61 c3 -8 11 -96 17 -196 13 -212 14 -209 -90 -233 -149 -33
-169 -32 -257 12 -43 22 -112 51 -153 66 -41 15 -78 29 -83 32 -4 3 23 42 62
87 38 45 88 116 111 159 l42 77 46 4 c25 2 103 4 172 5 105 2 128 -1 133 -13z
m4240 -14 c27 -22 18 -41 -29 -62 -64 -28 -134 -35 -171 -16 -35 18 -80 64
-71 74 25 24 243 27 271 4z m60 -140 c-10 -10 -27 -28 -36 -40 -10 -11 -26
-21 -36 -21 -25 0 -82 20 -82 28 0 4 35 21 78 39 80 33 114 30 76 -6z m-4950
-18 c28 -9 58 -18 66 -20 11 -3 3 -16 -28 -43 -73 -65 -195 -69 -289 -8 -28
18 -52 36 -52 39 -1 11 151 47 203 48 26 1 71 -6 100 -16z m-314 -78 c10 -12
8 -17 -14 -26 -32 -15 -64 4 -45 27 15 18 43 18 59 -1z m4835 -46 c10 -15 -1
-23 -20 -15 -9 3 -13 10 -10 16 8 13 22 13 30 -1z m105 -19 c0 -5 -7 -10 -15
-10 -8 0 -15 5 -15 10 0 6 7 10 15 10 8 0 15 -4 15 -10z m-4576 -121 c16 -15
-46 -10 -79 6 -30 15 -29 15 20 9 28 -3 54 -10 59 -15z m91 -29 c3 -5 -1 -10
-9 -10 -8 0 -18 5 -21 10 -3 6 1 10 9 10 8 0 18 -4 21 -10z"/>
<path d="M4211 7487 c-44 -15 -48 -28 -19 -62 20 -23 37 -28 123 -41 201 -29
187 -29 223 1 18 15 32 30 32 35 0 10 -65 37 -150 61 -73 21 -158 24 -209 6z"/>
<path d="M4258 7314 c-10 -3 -18 -9 -18 -13 0 -8 94 -100 134 -129 60 -45 183
-19 207 44 26 70 -23 96 -186 100 -66 2 -128 1 -137 -2z m212 -40 c0 -14 -43
-64 -55 -64 -8 0 -21 10 -30 22 -14 21 -14 24 2 35 17 13 83 18 83 7z"/>
<path d="M9125 3979 c-10 -15 25 -49 51 -49 34 0 41 20 14 42 -25 20 -55 24
-65 7z"/>
<path d="M9061 3906 c-10 -11 -7 -17 11 -30 29 -21 57 -20 65 0 13 33 -53 58
-76 30z"/>
<path d="M8780 3640 c-10 -18 -7 -25 20 -50 18 -17 38 -30 45 -30 22 0 26 31
7 64 -22 38 -56 46 -72 16z"/>
<path d="M6969 3051 c-20 -16 -21 -21 -10 -35 19 -22 48 -20 61 5 9 15 8 24
-1 35 -15 18 -22 18 -50 -5z"/>
</g>
</svg>
